<?xml version="1.0" encoding="UTF-8" standalone="no"?>
<!-- Created with Inkscape (http://www.inkscape.org/) -->

<svg
   xmlns:dc="http://purl.org/dc/elements/1.1/"
   xmlns:cc="http://creativecommons.org/ns#"
   xmlns:rdf="http://www.w3.org/1999/02/22-rdf-syntax-ns#"
   xmlns:svg="http://www.w3.org/2000/svg"
   xmlns="http://www.w3.org/2000/svg"
   xmlns:xlink="http://www.w3.org/1999/xlink"
   xmlns:sodipodi="http://sodipodi.sourceforge.net/DTD/sodipodi-0.dtd"
   xmlns:inkscape="http://www.inkscape.org/namespaces/inkscape"
   width="32"
   height="32"
   id="svg2"
   inkscape:label="Pozadí"
   version="1.1"
   inkscape:version="0.48.0 r9654"
   sodipodi:docname="logo-vector-32.svg"
   style="display:inline;enable-background:new"
   inkscape:export-filename="/home/mosra/C++/map2x/artwork/logo/export/logo-32.png"
   inkscape:export-xdpi="90"
   inkscape:export-ydpi="90">
  <defs
     id="defs3">
    <linearGradient
       id="linearGradient3903">
      <stop
         style="stop-color:#ffffff;stop-opacity:0;"
         offset="0"
         id="stop3905" />
      <stop
         id="stop3912"
         offset="0.5"
         style="stop-color:#ffffff;stop-opacity:1;" />
      <stop
         style="stop-color:#ffffff;stop-opacity:0;"
         offset="1"
         id="stop3907" />
    </linearGradient>
    <linearGradient
       id="linearGradient3895">
      <stop
         style="stop-color:#ffffff;stop-opacity:1;"
         offset="0"
         id="stop3897" />
      <stop
         style="stop-color:#ffffff;stop-opacity:0;"
         offset="1"
         id="stop3899" />
    </linearGradient>
    <linearGradient
       id="linearGradient3869">
      <stop
         style="stop-color:#edb88e;stop-opacity:1;"
         offset="0"
         id="stop3871" />
      <stop
         id="stop3878"
         offset="0.5"
         style="stop-color:#c33a20;stop-opacity:1;" />
      <stop
         style="stop-color:#150603;stop-opacity:1;"
         offset="1"
         id="stop3873" />
    </linearGradient>
    <linearGradient
       id="linearGradient3944">
      <stop
         style="stop-color:#c19665;stop-opacity:1;"
         offset="0"
         id="stop3946" />
      <stop
         style="stop-color:#000000;stop-opacity:1;"
         offset="1"
         id="stop3948" />
    </linearGradient>
    <linearGradient
       id="linearGradient3909">
      <stop
         style="stop-color:#dff0fa;stop-opacity:1;"
         offset="0"
         id="stop3911" />
      <stop
         id="stop3931"
         offset="1"
         style="stop-color:#006198;stop-opacity:1;" />
    </linearGradient>
    <linearGradient
       id="linearGradient3877">
      <stop
         id="stop3879"
         offset="0"
         style="stop-color:#fff2da;stop-opacity:1;" />
      <stop
         style="stop-color:#f4db9a;stop-opacity:1;"
         offset="0.51111114"
         id="stop3881" />
      <stop
         id="stop3883"
         offset="1"
         style="stop-color:#d39833;stop-opacity:1;" />
    </linearGradient>
    <linearGradient
       id="linearGradient3847">
      <stop
         style="stop-color:#afceff;stop-opacity:1;"
         offset="0"
         id="stop3849" />
      <stop
         id="stop3855"
         offset="0.50683612"
         style="stop-color:#508eee;stop-opacity:1;" />
      <stop
         style="stop-color:#001b45;stop-opacity:1;"
         offset="1"
         id="stop3851" />
    </linearGradient>
    <linearGradient
       id="linearGradient3848">
      <stop
         style="stop-color:#b1c9ff;stop-opacity:1;"
         offset="0"
         id="stop3850" />
      <stop
         style="stop-color:#b1c9ff;stop-opacity:0;"
         offset="1"
         id="stop3852" />
    </linearGradient>
    <filter
       inkscape:collect="always"
       id="filter3839"
       x="-0.27000001"
       width="1.54"
       y="-0.54000002"
       height="2.0799999"
       color-interpolation-filters="sRGB">
      <feGaussianBlur
         inkscape:collect="always"
         stdDeviation="8.2958776"
         id="feGaussianBlur3841" />
    </filter>
    <radialGradient
       inkscape:collect="always"
       xlink:href="#linearGradient3847"
       id="radialGradient3853"
       cx="84.828728"
       cy="87.145508"
       fx="84.828728"
       fy="87.145508"
       r="96.430199"
       gradientTransform="matrix(0.12499723,-8.32365e-4,9.2591e-4,0.13904541,-0.17196603,224.57028)"
       gradientUnits="userSpaceOnUse" />
    <radialGradient
       inkscape:collect="always"
       xlink:href="#linearGradient3877"
       id="radialGradient3875"
       cx="92.093979"
       cy="99.315521"
       fx="92.093979"
       fy="99.315521"
       r="121.44665"
       gradientTransform="matrix(0.125,0,0,0.10258505,-0.08793903,228.18511)"
       gradientUnits="userSpaceOnUse" />
    <radialGradient
       inkscape:collect="always"
       xlink:href="#linearGradient3847"
       id="radialGradient3891"
       cx="224.77557"
       cy="141.61234"
       fx="224.77557"
       fy="141.61234"
       r="26.395712"
       gradientTransform="matrix(0.29577785,0,0,0.33644413,-38.270495,195.12399)"
       gradientUnits="userSpaceOnUse" />
    <radialGradient
       inkscape:collect="always"
       xlink:href="#linearGradient3877"
       id="radialGradient3895"
       gradientUnits="userSpaceOnUse"
       gradientTransform="matrix(0.04579426,0,0,0.04820991,14.093672,236.42062)"
       cx="274.53888"
       cy="133.60275"
       fx="274.53888"
       fy="133.60275"
       r="121.44665" />
    <filter
       inkscape:collect="always"
       id="filter3905"
       x="-0.23999999"
       width="1.48"
       y="-0.71999997"
       height="2.4399998"
       color-interpolation-filters="sRGB">
      <feGaussianBlur
         inkscape:collect="always"
         stdDeviation="11.364216"
         id="feGaussianBlur3907" />
    </filter>
    <radialGradient
       inkscape:collect="always"
       xlink:href="#linearGradient3909"
       id="radialGradient3915"
       cx="125.94925"
       cy="86.854347"
       fx="125.94925"
       fy="86.854347"
       r="51.630356"
       gradientTransform="matrix(-0.2131392,3.34375e-4,-4.78995e-4,-0.305322,51.60263,268.67368)"
       gradientUnits="userSpaceOnUse" />
    <radialGradient
       inkscape:collect="always"
       xlink:href="#linearGradient3909"
       id="radialGradient3925"
       cx="107.37955"
       cy="63.617069"
       fx="107.37955"
       fy="63.617069"
       r="44.757305"
       gradientTransform="matrix(0.12498027,-0.00170817,0.00262414,0.19199749,5.129095,223.72312)"
       gradientUnits="userSpaceOnUse" />
    <filter
       inkscape:collect="always"
       id="filter3829"
       color-interpolation-filters="sRGB">
      <feGaussianBlur
         inkscape:collect="always"
         stdDeviation="0.95953497"
         id="feGaussianBlur3831" />
    </filter>
    <filter
       inkscape:collect="always"
       id="filter3837"
       color-interpolation-filters="sRGB">
      <feGaussianBlur
         inkscape:collect="always"
         stdDeviation="0.74459452"
         id="feGaussianBlur3839" />
    </filter>
    <radialGradient
       inkscape:collect="always"
       xlink:href="#linearGradient3869"
       id="radialGradient3876"
       cx="227.47519"
       cy="146.57544"
       fx="227.47519"
       fy="146.57544"
       r="52.122025"
       gradientTransform="matrix(-0.1467384,-0.05964667,0.10699954,-0.26323248,44.454075,295.277)"
       gradientUnits="userSpaceOnUse" />
    <radialGradient
       inkscape:collect="always"
       xlink:href="#linearGradient3869"
       id="radialGradient3886"
       cx="145.14137"
       cy="73.942093"
       fx="145.14137"
       fy="73.942093"
       r="46.566486"
       gradientTransform="matrix(0.2542135,0,0,0.21911995,-19.054577,220.47044)"
       gradientUnits="userSpaceOnUse" />
    <linearGradient
       inkscape:collect="always"
       xlink:href="#linearGradient3903"
       id="linearGradient3917"
       gradientUnits="userSpaceOnUse"
       x1="7.1726875"
       y1="120.48396"
       x2="197.90625"
       y2="120.48396"
       gradientTransform="matrix(0.125,0,0,0.125,-0.08793903,225.78923)" />
    <linearGradient
       inkscape:collect="always"
       xlink:href="#linearGradient3895"
       id="linearGradient3919"
       gradientUnits="userSpaceOnUse"
       x1="77.155663"
       y1="-29.950439"
       x2="77.016068"
       y2="164.04956"
       gradientTransform="matrix(0.125,0,0,0.125,-0.08793903,225.78923)" />
  </defs>
  <sodipodi:namedview
     id="base"
     pagecolor="#ffffff"
     bordercolor="#666666"
     borderopacity="1.0"
     inkscape:pageopacity="0.0"
     inkscape:pageshadow="2"
     inkscape:zoom="1"
     inkscape:cx="-113.97716"
     inkscape:cy="49.47785"
     inkscape:document-units="px"
     inkscape:current-layer="layer2"
     showgrid="false"
     inkscape:window-width="1920"
     inkscape:window-height="1033"
     inkscape:window-x="-2"
     inkscape:window-y="-3"
     inkscape:window-maximized="1"
     inkscape:snap-page="false"
     inkscape:snap-global="false"
     inkscape:snap-bbox="true"
     inkscape:bbox-nodes="true" />
  <metadata
     id="metadata6">
    <rdf:RDF>
      <cc:Work
         rdf:about="">
        <dc:format>image/svg+xml</dc:format>
        <dc:type
           rdf:resource="http://purl.org/dc/dcmitype/StillImage" />
        <dc:title></dc:title>
      </cc:Work>
    </rdf:RDF>
  </metadata>
  <g
     inkscape:label="render"
     inkscape:groupmode="layer"
     id="layer1"
     transform="translate(0,-1020.3622)"
     style="opacity:0.54863808;display:none">
    <image
       y="726.54993"
       x="-83.842659"
       id="image3046"
       xlink:href="file:///home/mosra/C++/map2x/artwork/logo/logo.png"
       height="409.54318"
       width="409.54318" />
  </g>
  <g
     inkscape:groupmode="layer"
     id="layer5"
     inkscape:label="shadow"
     style="opacity:0.43579766;display:inline"
     transform="translate(0,-224)">
    <path
       sodipodi:type="arc"
       style="color:#000000;fill:#000000;fill-opacity:1;fill-rule:nonzero;stroke:none;stroke-width:1;marker:none;visibility:visible;display:inline;overflow:visible;filter:url(#filter3905);enable-background:accumulate"
       id="path3835"
       sodipodi:cx="103.79317"
       sodipodi:cy="199.93654"
       sodipodi:rx="56.821079"
       sodipodi:ry="18.940361"
       d="m 160.61425,199.93654 c 0,10.46047 -25.43967,18.94036 -56.82108,18.94036 -31.381418,0 -56.821082,-8.47989 -56.821082,-18.94036 0,-10.46047 25.439664,-18.94036 56.821082,-18.94036 31.38141,0 56.82108,8.47989 56.82108,18.94036 z"
       transform="matrix(0.125,0,0,0.125,-0.15107303,225.22102)" />
    <path
       sodipodi:type="arc"
       style="color:#000000;fill:#000000;fill-opacity:1;fill-rule:nonzero;stroke:none;stroke-width:1;marker:none;visibility:visible;display:inline;overflow:visible;filter:url(#filter3839);enable-background:accumulate"
       id="path3837"
       sodipodi:cx="158.84648"
       sodipodi:cy="210.54314"
       sodipodi:rx="36.870567"
       sodipodi:ry="18.435284"
       d="m 195.71705,210.54314 c 0,10.18152 -16.50752,18.43528 -36.87057,18.43528 -20.36305,0 -36.87057,-8.25376 -36.87057,-18.43528 0,-10.18153 16.50752,-18.43529 36.87057,-18.43529 20.36305,0 36.87057,8.25376 36.87057,18.43529 z"
       transform="matrix(0.13539544,0,0,0.11429795,0.71351097,228.26344)" />
  </g>
  <g
     inkscape:groupmode="layer"
     id="layer3"
     inkscape:label="sphere inside"
     style="display:inline"
     transform="translate(0,-224)">
    <path
       id="path3858"
       style="fill:url(#radialGradient3915);fill-opacity:1;stroke:#000000;stroke-width:0.5;stroke-linecap:butt;stroke-linejoin:miter;stroke-opacity:1;stroke-miterlimit:4;stroke-dasharray:none"
       d="m 20.414294,239.97673 6.353831,-4.87289 c 1.714962,2.79457 4.942888,13.6471 -1.905894,17.64459 -1.075652,0.44 -1.778232,0.54614 -2.702187,0.54214 -1.847913,-0.008 -3.844905,-0.73084 -5.897538,-2.90089"
       inkscape:connector-curvature="0"
       sodipodi:nodetypes="cccsc" />
    <path
       sodipodi:nodetypes="cccc"
       inkscape:connector-curvature="0"
       d="m 24.061019,237.16002 c -2.046153,-4.97392 -5.651418,-8.25231 -11.064325,-9.56488 4.093653,3.05523 6.633623,8.19988 7.48147,12.31775 z"
       style="fill:url(#radialGradient3925);fill-opacity:1;stroke:#000000;stroke-width:1px;stroke-linecap:butt;stroke-linejoin:miter;stroke-opacity:1;display:inline"
       id="path3864" />
  </g>
  <g
     inkscape:groupmode="layer"
     id="layer6"
     inkscape:label="compass"
     style="display:inline"
     transform="translate(0,-224)">
    <path
       style="font-size:medium;font-style:normal;font-variant:normal;font-weight:normal;font-stretch:normal;text-indent:0;text-align:start;text-decoration:none;line-height:normal;letter-spacing:normal;word-spacing:normal;text-transform:none;direction:ltr;block-progression:tb;writing-mode:lr-tb;text-anchor:start;baseline-shift:baseline;opacity:0.98054474;color:#000000;fill:url(#radialGradient3876);fill-opacity:1;stroke:none;stroke-width:1;marker:none;visibility:visible;display:inline;overflow:visible;enable-background:accumulate;font-family:Sans;-inkscape-font-specification:Sans"
       d="m 26.755583,235.11299 -1.368643,1.03592 c 4.914643,8.60079 0.15627,20.02423 -8.150201,13.68306 l -0.993757,0.51153 c 4.552867,4.65924 9.075686,3.29191 11.314081,-0.22836 2.325157,-3.65672 2.50172,-9.85639 -0.80148,-15.00215 z"
       id="path3958"
       inkscape:connector-curvature="0"
       sodipodi:nodetypes="ccccsc" />
    <path
       style="font-size:medium;font-style:normal;font-variant:normal;font-weight:normal;font-stretch:normal;text-indent:0;text-align:start;text-decoration:none;line-height:normal;letter-spacing:normal;word-spacing:normal;text-transform:none;direction:ltr;block-progression:tb;writing-mode:lr-tb;text-anchor:start;baseline-shift:baseline;opacity:0.98054474;color:#000000;fill:url(#radialGradient3886);fill-opacity:1;stroke:none;stroke-width:1;marker:none;visibility:visible;display:inline;overflow:visible;enable-background:accumulate;font-family:Sans;-inkscape-font-specification:Sans"
       d="m 12.790967,227.53532 -0.351563,1.60157 c 3.570975,0.78646 7.89347,2.92637 10.248428,9.03395 l 1.393195,-1.02596 c -2.17636,-6.8614 -7.318013,-8.73476 -11.29006,-9.60956 z"
       id="path3954"
       inkscape:connector-curvature="0"
       sodipodi:nodetypes="ccccc" />
    <path
       style="fill:none;stroke:#000000;stroke-width:0.5;stroke-linecap:butt;stroke-linejoin:miter;stroke-miterlimit:4;stroke-opacity:1;stroke-dasharray:none"
       d="m 15.833936,230.30485 c 3.084233,1.61723 5.572038,3.99355 6.828125,7.9375"
       id="path3930"
       inkscape:connector-curvature="0"
       sodipodi:nodetypes="cc" />
    <path
       style="fill:none;stroke:#000000;stroke-width:0.5;stroke-linecap:butt;stroke-linejoin:miter;stroke-miterlimit:4;stroke-opacity:1;stroke-dasharray:none"
       d="m 25.421253,236.12493 c 5.086075,9.81396 -0.464166,19.37349 -7.964107,13.93032"
       id="path3956"
       inkscape:connector-curvature="0"
       sodipodi:nodetypes="cc" />
    <path
       style="fill:none;stroke:#000000;stroke-width:1;stroke-linecap:butt;stroke-linejoin:miter;stroke-miterlimit:4;stroke-opacity:1;stroke-dasharray:none"
       d="m 18.011924,250.02631 0.04086,-0.21791"
       id="path3867"
       inkscape:connector-curvature="0" />
    <path
       style="fill:#000000;fill-opacity:1;stroke:none"
       d="m 20.705419,241.28271 3.402953,-4.11006 -3.668118,2.78423 z"
       id="path3921"
       inkscape:connector-curvature="0"
       sodipodi:nodetypes="cccc" />
    <path
       style="fill:none;stroke:#000000;stroke-width:1;stroke-linecap:butt;stroke-linejoin:miter;stroke-miterlimit:4;stroke-opacity:1;stroke-dasharray:none"
       d="m 20.705419,241.39319 3.933282,2.87262 -3.734407,-0.99437"
       id="path3923"
       inkscape:connector-curvature="0"
       sodipodi:nodetypes="ccc" />
    <path
       style="fill:#000000;fill-opacity:1;stroke:none"
       d="m 20.815904,242.36546 3.756505,1.85616 -3.690212,-0.95018 z"
       id="path3925"
       inkscape:connector-curvature="0" />
    <path
       style="fill:none;stroke:#000000;stroke-width:1;stroke-linecap:butt;stroke-linejoin:miter;stroke-miterlimit:4;stroke-opacity:1;stroke-dasharray:none"
       d="m 20.882196,244.3763 1.767768,4.97184 -2.010835,-3.07149"
       id="path3927"
       inkscape:connector-curvature="0" />
    <path
       style="fill:#000000;fill-opacity:1;stroke:none"
       d="m 20.749614,245.54744 1.834058,3.66812 -1.944543,-2.91682 z"
       id="path3929"
       inkscape:connector-curvature="0" />
  </g>
  <g
     inkscape:groupmode="layer"
     id="layer2"
     inkscape:label="sphere"
     style="display:inline"
     transform="translate(0,-224)">
    <path
       id="path3839"
       style="fill:url(#radialGradient3853);fill-opacity:1;stroke:none"
       d="m 24.061019,237.16002 c -2.046152,-4.97392 -5.651417,-8.25231 -11.064325,-9.56488 7.849625,6.02605 9.514315,17.91994 6.461115,21.38477 -1.30155,0.844 -2.636747,1.36026 -4.28868,1.65617 -6.607737,1.18368 -12.923921,-3.2134 -14.107592,-9.82113 -1.18367203,-6.60774 3.213402,-12.92392 9.821137,-14.1076 6.607738,-1.18367 12.910225,3.13694 14.093895,9.74468 z"
       inkscape:connector-curvature="0"
       sodipodi:nodetypes="cccssscc" />
    <path
       id="path3843"
       style="fill:url(#radialGradient3891);fill-opacity:1;stroke:#000000;stroke-width:0.5;stroke-linecap:butt;stroke-linejoin:miter;stroke-opacity:1;stroke-miterlimit:4;stroke-dasharray:none"
       d="m 26.76474,235.0995 c 7.47848,7.14462 4.338315,12.8747 0.01952,16.44015 -0.570315,0.47084 -1.267662,0.90564 -1.984871,1.19621 6.921096,-3.79375 3.738773,-14.8637 1.954176,-17.63636"
       inkscape:connector-curvature="0"
       sodipodi:nodetypes="cscc" />
  </g>
  <g
     style="display:inline"
     inkscape:label="continents blur"
     id="g3819"
     inkscape:groupmode="layer"
     transform="translate(0,-224)">
    <path
       sodipodi:nodetypes="cccccccccccccccccccccccccccccccccccccccccccccccccccccccccccccccccccccccccccccccccccccccccccccccccccccccccccccccccccccccccccccccccccccccccccccccccccccccccccccccccccccccccccccccccccccccccccccccccccccccccccccccccccccccccccccccccccccccccccccccccccccccccccccccccccccccccccccccccccccccccccccccccccccccccccccccccccccccccccccccccccccccccccccccccccccccccc"
       inkscape:connector-curvature="0"
       id="path3821"
       d="m 122,18.21875 c 0.59589,1.246885 3.01763,1.488444 3.40585,2.125 -1.21067,-0.362498 -5.31344,-0.491894 -2.4682,1.09375 1.19095,0.441944 3.09624,2.591393 3.9682,0.59375 -2.40754,-1.252086 0.70586,-0.397136 1.5311,0.15625 1.31934,0.961535 3.29397,0.04248 4.31205,1.03125 -1.29143,0.874477 2.84899,1.369404 0.0626,1.09375 -2.06855,-0.548498 -1.97126,1.393397 0,1.46875 1.5082,0.746812 -0.6219,2.401557 -1.65605,1.09375 -1.46902,-0.796551 -5.33625,0.564905 -3.2185,2.15625 1.76666,0.455584 0.79389,2.807087 2.56215,3.3125 0.6036,0.686813 2.11298,1.212626 1.18715,2.53125 28.47746,12.996291 50.07869,38.250282 61.5,67.09375 1.5709,-1.85757 5.99892,-2.811256 4.5626,-5.8125 1.1803,-2.124947 1.5905,2.62788 2.68826,0.227756 C 194.36072,57.205822 161.11211,24.534936 122,18.21875 z m -37.4375,1.6875 C 82.067093,19.835605 79.744866,21.985403 77.5,21.5625 74.500375,20.101503 61.685388,26.97366 56.134035,29.919518 41.337111,38.469502 28.788571,51.114997 20.4375,65.9375 c 2.14555,-0.107138 2.088303,-2.855615 3.84375,-3.78125 0.467284,-1.239917 0.9827,-2.394746 1.375,-0.75 0.536691,-1.318775 1.292974,-2.520857 3.03125,-2.125 1.517352,-0.924379 2.059653,0.614096 0.53125,1.03125 -0.608836,0.924503 -1.553067,1.320995 0.09375,1.59375 0.710996,0.446439 3.150946,0.545478 2.1875,-0.75 -1.381337,0.657053 -0.305344,-2.912654 0.9375,-3.25 0.370751,-1.733331 2.260214,-1.569822 2.53125,-3.28125 -2.438036,0.490811 -2.003673,-1.331569 -0.125,-1.59375 2.337937,0.48462 0.504319,4.761497 4.1875,3.4375 3.978177,-0.519718 3.13835,-5.683394 5.875,-7.75 0.970207,-2.573591 3.907969,-3.846002 5.15625,-5.8125 -1.162312,1.393078 -3.214307,0.237478 -1.4375,-1 2.171291,-1.413035 4.620975,-2.936801 5.5,-5.5 -1.346232,-0.73558 -2.957189,1.864928 -4.625,2.03125 -1.763428,1.444912 -3.014501,4.275623 -5.75,3.65625 -1.422563,0.412365 -2.699849,2.185626 -3.875,2.28125 1.514887,-2.319434 4.218258,-3.018978 5.65625,-5.5 1.693603,-1.618313 3.816256,-2.917426 5.65625,-4.5 2.338741,-1.358859 4.586851,-3.784211 7.5,-3.5625 0.468369,1.396658 -2.350116,1.15639 -1.78125,2.53125 1.503664,0.452792 3.087994,-0.862178 4.25,-1.9375 1.449834,1.065912 3.86651,-1.978024 4.53125,-0.9375 -0.587015,1.204294 -3.131916,1.089339 -3.125,2.03125 2.528282,-1.177149 1.345355,0.599808 -0.15625,0.9375 -1.802115,1.371602 -4.592721,0.04344 -5.53125,2.5 -0.886437,1.252854 -3.859456,2.440694 -3,3.96875 0.261535,-1.054244 2.491575,-2.919576 1.3125,-0.9375 -1.886566,1.784649 2.472565,0.763556 2.71875,-0.59375 0.440855,-1.227845 2.807573,-2.122434 1.3125,-0.40625 0.335182,1.809094 2.970859,-0.79036 3.53125,-1.6875 2.132388,-2.559226 5.119183,-4.052741 7.625,-6.1875 1.834178,-0.326938 2.793169,-1.531849 3.71875,-2.71875 0.849174,-1.144553 -2.978784,-0.839527 -3.625,0.15625 -1.258803,0.561314 -3.014117,1.305383 -4.34375,1.40625 1.859995,-1.901993 4.93155,-2.918159 7.5625,-2.84375 0.795672,0.905097 2.590976,-0.242886 2.75,-1.125 -1.432526,0.515018 -3.938572,-0.256136 -1.21875,-0.03125 2.83331,0.09319 1.210867,-1.400804 -0.4375,-0.46875 -1.38107,-0.124986 -3.876881,2.024642 -4.46875,0.875 2.367504,-1.044602 5.556002,-1.644663 7.71875,-1.9375 0.984159,-0.538149 2.616284,-1.202106 3.71875,-2.03125 0.808617,-0.07107 0.103614,1.621594 -0.53125,1.53125 -1.395464,0.729902 -0.777272,1.511589 -1.96875,1.96875 -1.375023,-0.784991 -4.398544,1.395512 -3.34375,2.59375 1.15661,0.783068 2.587032,-3.053047 2.75,-1.28125 -1.477131,1.528526 2.248557,0.298077 3,0.875 1.421795,-1.267058 3.590391,0.258197 4.8125,-1.21875 2.425885,0.281557 1.423973,-1.140035 -0.15625,-1.34375 -1.756976,-0.140996 -1.832759,-1.06943 -0.4375,-1.71875 0.756405,-0.373124 1.362518,-1.981769 1.3125,-2.375 -0.973458,0.09617 -3.011711,1.280741 -1.6875,-0.21875 -0.236236,-0.103699 -0.628217,-0.204605 -0.9375,-0.28125 z m 36.15625,6.15625 c -0.32395,2.702633 4.56486,2.919017 4.7803,0.59375 -1.7755,0.298871 -3.26466,0.716725 -4.7803,-0.59375 z M 86.4375,26.96875 c -1.407076,0.350923 -1.838313,1.680104 -3.625,1.34375 C 82.072369,27.885139 80.155009,27.07345 81,28.625 c -0.706257,0.573119 -1.501135,1.092586 -1.59375,-0.0625 -1.148753,-0.191333 -2.753,1.114815 -0.875,1.78125 -1.354921,1.218676 -3.590515,2.075958 -5,3.625 -1.892519,0.186716 -1.887057,2.531816 -4.0625,2.21875 -1.601046,0.448411 -0.09188,1.229622 -1.65625,1.90625 -2.043724,1.133178 -4.894253,1.011947 -6.1875,3.34375 -2.258628,0.95632 -2.625938,3.575442 -4.875,4.71875 -1.272851,0.686323 -1.960129,1.943789 -0.6875,2.71875 -1.216563,0.868405 -1.601564,2.909965 0.40625,1.84375 3.83197,-1.641115 7.040918,-5.64026 11.53125,-4.875 2.096148,-1.691418 4.567789,-1.386508 7.03125,-0.96875 2.532415,-0.611652 5.156858,-1.139906 6.8125,-3.25 2.95874,-1.31382 5.364559,-3.42377 7.375,-5.90625 1.797635,-1.455838 3.439186,-3.298036 5.53125,-4 -1.276357,-0.370512 -3.629052,-0.838291 -1.65625,-2.09375 -0.189237,-1.297223 -2.351611,-2.137431 -3.625,-2 -1.287876,0.614086 -1.821908,-0.762869 -3.03125,-0.65625 z m 17.9375,7.21875 c -1.55917,0.278672 -3.82573,0.514765 -2.18735,2.5625 -0.35253,2.490564 1.66712,2.405243 2.03045,0.375 0.69007,-3.080808 1.3706,1.702286 2.34355,-0.28125 0.15692,-0.85325 -1.97669,-1.644796 -1.24985,-1.90625 2.57046,-0.10386 1.37826,-0.963654 -0.53125,-0.625 l -0.40625,-0.125 z m 6.5625,11.6875 c -2.97418,0.604173 -5.30116,2.59712 -7.56115,4.40625 -0.755,1.757945 -2.52487,2.921349 -3.1856,4.78125 -0.385824,1.085908 -1.766891,1.565752 -1.65625,2.625 -1.761092,-0.09667 -2.594379,1.525085 -4.19075,1.6875 -2.411023,0.585996 -0.195814,3.557543 -1.3125,5.0625 -0.01049,1.329295 1.27624,2.955506 2.59375,1.3125 0.914298,-0.801034 2.264953,-1.245135 3.25,-1.40625 0.249955,2.086639 0.340072,5.084733 2.4057,6.0625 1.60468,0.315116 1.88821,-0.639339 2.43675,-1.875 0.60967,-1.591936 0.71285,-3.618541 2.81175,-4 1.22595,-1.708384 -2.41363,-1.679354 -1.9365,-3.71875 0.15568,-2.235766 2.83535,-3.07865 3.2801,-4.8125 0.2799,-1.437745 0.9478,-3.241443 2.9051,-2.5 1.46524,1.420917 -1.21904,2.814632 -1.65465,4.15625 -0.90808,1.316828 -0.15995,3.712513 0.5933,4.84375 2.53269,1.507884 4.88385,-1.742423 7.46785,-1.03125 1.14914,-0.291268 2.22784,0.919199 0.49955,1.28125 -1.47414,2.048728 -4.45657,0.443322 -5.99915,2.25 0.82513,1.041254 2.50109,2.73972 0.9056,3.96875 -1.15724,-0.37079 -3.00705,-2.635013 -2.6555,0.1875 -0.0652,1.951142 -0.0775,4.573268 -2.3735,5.03125 -1.73183,-1.588343 -3.6459,0.256904 -5.4674,0.84375 -1.43167,0.704975 -2.146276,-1.818486 -3.5934,-0.34375 -2.215666,0.408875 -3.698913,-3.149478 -1.21935,-3.875 0.268798,-0.883535 0.341188,-3.601812 -0.96875,-2 -1.708713,0.35309 -1.281868,3.122899 -1.0625,4.5 -0.241209,2.582378 -4.079133,1.118192 -5.125,3.09375 -1.393059,1.122511 -2.583508,2.656678 -4.15625,3.5625 -0.949244,1.524703 -2.997633,2.598079 -4.5625,2.53125 -1.261613,-1.433428 -0.617804,0.457819 -1.3125,1.0625 -1.001163,0.02582 -5.018003,-1.412601 -3.53125,0.65625 2.434703,1.355046 4.242564,4.550353 2.75,7.40625 -0.272645,2.175888 -2.605425,3.178848 -4.34375,1.84375 -2.042609,-0.187532 -4.115066,-0.488452 -5.875,-1.5625 -0.711469,1.149114 -2.612746,0.453883 -1.6875,2.40625 -0.757016,2.15625 -0.918367,5.175336 -2.84375,6.90625 -0.53274,1.16153 1.968727,0.0513 0.90625,1.625 -1.606135,1.74197 0.972023,2.51155 2.4375,1.8125 1.036985,0.58431 0.07157,4.18323 1.96875,2.4375 0.862506,-1.53083 2.73148,0.64554 4.09375,-0.0625 1.458623,0.6015 1.876921,-1.57397 3.1875,-1.84375 0.843937,-1.03514 1.477863,-1.70791 1.46875,-3.125 1.059844,-1.98864 3.293449,-3.517282 5.53125,-3.8125 0.909611,-0.937279 -1.010587,-3.499413 1.34375,-3.15625 1.012861,-1.544589 2.02817,-0.271504 2.78125,0.59375 1.727121,1.019021 2.581338,-1.860056 4.15625,-1.59375 1.451161,-1.700784 3.501166,0.195922 3.75,1.90625 0.595429,2.213203 2.568019,3.292781 4.531,4.21875 1.83247,1.05837 5.36822,3.16194 3.43665,5.78125 -1.39265,1.20161 -3.91288,0.0135 -5.28015,0.9375 0.658714,1.6473 3.16207,1.02536 4.1237,2.5625 0.18816,-1.23952 -0.26412,-2.8666 1.62595,-3 0.87895,-1.12477 2.35348,-2.17849 0.96825,-3.53125 -0.17485,-2.58889 2.15085,0.37017 2.96785,-0.34375 -0.80787,-2.06156 -3.58588,-2.26444 -5.06115,-3.9375 -2.99343,0.138253 -2.44005,-3.875774 -4.7496,-4.875 -1.110387,-1.298476 0.906317,-4.115809 2.09365,-2.5 -0.68035,1.03178 1.55062,1.126774 1.1871,2.5 1.32657,0.363926 2.22076,1.629709 3.71775,1.65625 1.07767,1.120681 2.35652,2.190584 3.8424,2.65625 1.35433,1.005636 0.57166,2.17778 0.4374,3.5625 0.8898,0.71059 1.77091,1.1102 2.0612,2.34375 1.56619,0.59351 -0.40829,1.57182 0.3749,2.625 0.59603,0.73959 1.14263,1.05939 1.7182,1.90625 1.04076,0.61492 1.46207,1.89976 2.0307,0.5 1.0911,1.09979 0.14725,-1.17795 -0.1562,-1.6875 0.76848,-0.2696 0.17474,-1.87439 1.2497,-0.6875 1.79441,0.043 -0.0469,-2.66508 -1.39995,-2.28125 -0.61075,-0.58043 0.64695,-1.74681 -0.781,-2.125 -0.75977,-1.76304 0.92344,-1.76321 1.24945,-0.40625 0.62756,-0.49192 0.21778,-2.220703 1.6245,-1.78125 1.28522,-1.062071 2.62176,0.35826 3.7807,0.15625 0.51974,-1.071724 3.82309,-1.718424 2.6243,-0.0625 -1.35415,-0.15564 -3.44094,0.53106 -3.4058,1.75 1.06536,0.15632 0.62826,1.30657 0.93705,2.0625 0.43528,1.48649 -0.88158,0.53374 -0.90465,1.4375 2.05184,-0.8913 1.37893,2.56185 3.43645,2.34375 0.19166,1.0959 1.95518,-0.90518 1.93665,0.75 1.32787,1.04864 2.10271,-0.46404 2.4993,-1.28125 1.76324,-0.77691 2.83787,2.68498 4.49875,0.40625 1.31238,-0.15954 1.43439,-1.92151 2.9995,-1.96875 1.49749,0.0512 -0.62074,1.98994 0.65615,2.875 0.65781,2.22495 -0.0388,4.71335 -0.1249,6.96845 0.10117,3.24009 -3.9249,2.73829 -6.0609,2.468 -1.51775,0.89424 -2.84516,2.59143 -4.81135,1.59305 -1.80189,0.19259 -3.41207,-1.45413 -5.0306,-0.1875 -0.52302,-2.51579 -4.23887,0.70412 -4.4365,-2.12445 -2.54384,-0.84357 -5.9703,1.70708 -4.1244,4.34235 -0.72375,1.49651 -2.61395,1.51197 -3.74925,0.4059 -1.37953,-0.96276 -3.02833,-0.84701 -4.5306,-1.0616 -0.75765,-1.35541 -1.27623,-2.83672 -3.1239,-2.9365 -1.318188,-1.43011 -3.829196,0.78415 -4.18735,-0.84345 -1.14561,-0.28426 -0.764062,-1.89975 -2.15625,-1.56185 -0.530817,-1.93219 2.635584,-2.17781 1.0903,-4.31195 -1.311693,-0.69962 0.906031,-2.60173 -1.1875,-2.5317 -1.361572,-1.18917 -2.853043,1.5183 -4.5625,0.0312 -1.550816,-1.19682 -3.473809,1.44874 -4.84375,-0.40625 -1.212152,0.0113 -2.465038,0.39676 -3.59375,0.0937 -1.327371,0.79651 -3.208289,0.0925 -4.03125,1.75 -1.176737,-0.22803 -1.969702,0.40574 -2.875,0.93755 -1.028224,-0.38631 -1.850661,2.47452 -2.25,0.2188 0.693735,-2.2806 -3.059479,-0.82846 -3.5625,-2.8126 -1.570646,-0.0129 -0.872251,2.44525 -2.46875,2.78105 -1.434572,1.32807 -3.564095,1.37062 -4.375,3.31095 -1.760257,1.35914 -0.79176,3.87996 -2.5625,5.1547 -0.990354,1.38863 -2.903435,1.64247 -4.5,1.7176 -1.846175,0.006 -1.244468,3.41487 -3.65625,2.3433 -0.554017,1.07567 -0.31385,2.73723 -1.6875,3.46815 -1.360495,1.1422 -1.550184,3.11655 -3.25,3.90505 -0.05271,1.83127 1.46667,3.13298 0.5625,4.78055 1.074488,2.92968 -0.577594,5.78967 -2.125,8.15485 0.958214,1.06798 0.993229,2.55277 0.34375,3.9367 0.669394,1.44672 0.511929,1.05061 1.03125,2.7806 1.198513,3.04986 5.385149,4.24135 5.15625,7.9663 1.486467,1.61162 3.459133,2.95152 4.46875,4.9985 2.086473,0.64369 3.052039,2.63652 5.0625,3.24865 3.426678,-0.48997 6.860093,0.14091 10,1.28055 3.456088,-0.76258 6.984205,-0.43841 10.46875,-0.6868 2.69682,-0.44592 3.044354,2.55182 4.40625,3.81135 2.458844,0.52856 5.557755,-0.30905 7.46875,1.7489 2.120728,2.20436 -0.558944,5.30808 -0.78125,7.56205 1.775208,2.44836 4.901782,3.28476 6.78125,5.56065 0.553149,2.04251 3.76551,3.74643 1.78085,5.8116 1.94483,0.54356 1.75434,2.6339 0.2189,3.624 -1.79705,1.3036 -2.961736,5.09597 -0.125,5.6553 1.87514,1.29156 4.10732,2.41438 4.49865,4.87355 1.51103,1.35167 3.773,1.74641 5.37415,2.77985 3.55152,1.32374 7.22795,-1.06826 10.93685,-0.749 4.17595,-0.87395 8.61168,-2.23112 11.7179,-5.15475 1.3268,-1.94882 4.59149,-1.86061 5.593,-3.9051 -0.50091,-1.42166 -0.23711,-1.94513 1.3122,-2.46815 2.96466,-2.80506 7.42345,-3.6627 9.6542,-6.9976 0.27644,-1.64475 1.8827,-4.06335 -0.34395,-4.93685 0.1798,-1.39503 0.50507,-2.99265 -0.8434,-3.78075 1.25426,-4.24011 4.86951,-7.20485 7.466,-10.7163 1.12538,-2.91956 3.75653,-4.72908 5.7174,-6.90465 2.4553,-4.05915 6.25515,-8.15992 5.37255,-13.37315 0.29395,-1.31601 -0.0547,-4.20769 -1.4371,-2.03125 -2.60856,0.42737 -4.1895,2.54163 -6.34225,3.74845 -1.09371,1.11703 -2.48623,-0.731 -3.40575,-0.9375 1.6868,-0.99719 0.13003,-2.11161 -1.25,-2.3742 -1.67154,-0.84059 -2.58211,-2.73035 -4.71745,-2.62375 -1.92528,-1.15229 -1.77626,-4.90104 -4.561,-4.93595 -0.45671,-2.66877 -0.96611,-5.96646 -3.655,-7.21785 -1.65925,-1.21546 -1.8558,-3.45678 -3.3117,-4.96835 -1.0728,-1.70596 -1.67679,-3.85891 -3.49895,-4.9992 -0.73587,-0.98848 -1.46421,-2.33688 -1.56175,-3.46815 1.56978,-0.27933 0.93155,1.96568 2.2807,2.31195 -0.0512,1.85374 1.80804,1.84356 2.9055,0.99985 1.33309,0.46241 2.2891,2.44675 3.3422,3.6241 1.56324,1.15444 1.70936,3.83045 4.12415,3.4679 0.36055,1.17895 1.40027,2.15811 1.7179,3.37435 0.14108,3.13709 4.62827,2.78357 4.8421,5.93575 2.35902,0.69393 2.61147,3.12145 2.4677,5.28005 0.74029,1.49479 2.09469,4.63167 3.96775,2.124 1.97455,-2.46194 5.53759,-3.32807 7.2798,-6.02975 -0.17023,-3.37109 -0.13709,-6.98826 -1.18685,-10.1865 -0.17832,-3.54757 -1.45448,-6.8395 -1.84265,-10.37425 0.0614,-2.04061 -1.28438,-2.57869 -2.93695,-3.1552 -1.66296,-1.15429 -3.22726,-4.49776 -0.2806,-4.87425 1.96391,0.34982 0.0897,-1.97999 0.2506,-3.03095 -0.76605,-2.90503 -1.91473,-5.67948 -2.873,-8.375 -0.57534,-0.96394 -0.75565,-1.818016 -1.21845,-3.15625 -1.78143,0.418747 -2.96481,-0.346629 -2.68695,-2.25 -0.30095,-1.57315 0.84952,-4.157346 -1.59365,-4.25 -2.42304,-1.84772 -5.6465,-4.591475 -4.5297,-8.0625 0.88792,-1.631908 2.16217,-3.684954 0.24925,-5.40625 -0.89566,-2.305479 -2.89794,-4.049159 -3.56115,-6.125 -1.40059,-2.680547 -2.91188,-5.833795 -5.1233,-8.03125 -1.7566,-2.740921 -3.18002,-5.713457 -5.46345,-8.17845 -0.94468,-1.935681 -2.9084,-3.200141 -3.74875,-5.21875 -1.23847,-0.963009 -2.31008,-4.263955 -3.9679,-3.09375 0.20092,2.105738 -3.34542,2.342152 -2.8426,4.5625 0.9568,1.858319 -2.79521,0.696784 -2.4055,2.125 1.92876,1.026542 -1.7091,0.980124 -2.0933,-0.21875 -0.39149,-1.484985 -1.45499,-1.907522 -2.56185,-2.6875 0.18352,-1.773544 2.6595,0.801063 3.99975,0.21875 2.84585,0.419571 2.21864,-2.937244 -1e-4,-3.0625 -2.40652,-0.59464 -5.09985,-0.0122 -6.8809,-1.9375 -0.89582,-0.118113 -1.63722,-0.712629 -2.53165,-0.8125 z M 74.25,49 c -2.103994,-0.0019 0.749901,2.280012 -1.25,1.875 -0.87244,0.329875 0.962658,1.445606 -0.75,1.53125 0.530833,0.299009 1.900945,2.505929 3.375,1.21875 1.843038,-0.336645 4.623982,-1.171839 3.34375,-3.5625 C 77.598609,50.323782 76.615548,49.785873 75.25,50.375 74.268986,50.232473 75.55704,49.06852 74.25,49 z M 38,57.25 c -1.714362,1.254191 -4.688372,2.190544 -4.1875,4.75 0.742832,0.625483 0.144741,3.606992 1.21875,1.71875 -0.154829,-1.452256 0.558993,-2.65257 1.59375,-3.1875 C 35.990045,58.784604 37.422642,58.654009 38,57.25 z m 45.0625,7.125 c -1.642973,-0.05867 -2.152368,1.401093 -3.46875,1.9375 0.431112,0.919192 -0.772189,1.167704 -0.25,2.15625 -1.094581,0.578066 1.283824,1.149427 0.21875,2.375 1.250119,0.279692 1.938208,1.098037 1.53125,2.65625 -0.50966,1.191754 -2.419107,0.334842 -1.625,2.4375 -1.891325,0.402171 -1.930203,1.062811 -0.03125,1.1875 1.426602,1.172148 -1.31094,0.490336 -1.84375,1.46875 -2.408709,1.510204 1.730404,1.037728 2.9375,0.9375 1.917646,-0.530687 4.275889,0.550616 5.09375,-1.59375 1.218402,-1.402101 0.140825,-2.273603 -0.90625,-3 -0.156263,-1.883495 -1.606683,-2.890602 -1.625,-4.90625 -2.203639,-1.031599 0.98913,-2.233785 1.1875,-3.40625 -0.666156,-0.447553 -3.265275,0.123425 -1.625,-1.125 0.629999,-0.125264 1.21904,-0.730935 0.40625,-1.125 z m -6.65625,5.4375 c -1.387873,0.647932 -0.679147,2.726753 -2.1875,1.3125 -1.28422,0.729897 0.0027,2.317446 -1.1875,3.28125 -1.935767,0.589688 -0.513,2.877436 1,1.28125 2.069914,0.02525 3.333093,-1.690736 3.28125,-3.5625 1.321075,-0.659927 0.654877,-2.767106 -0.90625,-2.3125 z M 93.5625,96.90625 c -1.526936,1.617339 1.441606,3.13642 0.78125,0.65625 0.149747,-0.57342 -0.441459,-0.584872 -0.78125,-0.65625 z m 0,0 c -0.45049,-0.217324 -0.262041,0.686057 0,0 z m -0.125,3.46875 c -1.197924,0.32587 -1.318385,4.12896 -0.125,4.125 1.527726,-0.4438 1.501872,-3.57827 0.125,-4.125 z M 134.59375,109 c -0.94725,0.20193 -4.08408,1.9554 -1.5934,1.96875 1.39304,0.0626 1.15764,-1.2659 1.5934,-1.96875 z m -16.375,2.03125 c -2.08279,0.86752 3.28255,2.62821 3.49945,0.46865 -1.11207,-0.32408 -2.45127,0.10348 -3.49945,-0.46865 z m -110.25,10.5625 c 1.2970484,17.04831 7.183575,33.92864 17,47.8438 1.426921,-2.13428 1.622729,-4.74234 0.1875,-6.8122 -0.71945,-2.69157 -3.824921,-3.89978 -4.84375,-6.5926 -1.561226,-2.22499 -3.005072,-4.48808 -4.34375,-6.8435 -1.484016,-3.04174 -2.158841,-6.17912 -3.625,-9.21805 -1.743689,-3.22643 -1.645468,-7.14312 -2.15625,-10.78095 -1.0440377,-2.43591 -0.4724277,-5.39954 -2.21875,-7.5965 z m 155.84375,61.375 c -3.74205,1.39456 -6.14011,4.77238 -9.37415,7.03005 0.0901,2.09949 -0.44583,3.60082 -2.24975,4.68715 -1.83143,1.94909 1.04604,1.99337 2.15645,0.71875 2.6458,-1.83168 3.64212,-5.37153 6.9677,-6.3741 0.97405,-1.95877 1.79337,-3.99466 2.49975,-6.06185 z"
       style="fill:#000000;fill-opacity:1;stroke:none;filter:url(#filter3829)"
       transform="matrix(0.125,0,0,0.125,-0.08793903,224.41423)" />
    <path
       sodipodi:nodetypes="cccccccccccccccccccccccccccc"
       style="fill:#000000;fill-opacity:1;stroke:none;filter:url(#filter3837)"
       d="m 230,107.625 c -1.83661,1.62255 -0.31894,4.78906 -1.53065,6.9061 0.18905,2.48127 -1.47875,7.25581 0.8439,8.15645 1.04027,-0.57343 3.91152,0.43777 2.74995,-1.56215 -3.12455,-2.56011 -0.50285,-7.33043 -1.43725,-10.71855 -0.40455,-0.86294 0.7926,-2.71983 -0.62595,-2.78185 z m 6.75,3.5 c -2.62956,0.19885 -1.91927,2.11769 -0.2503,2.8746 -1.15457,0.87791 -3.25576,0.30455 -1.8436,2.81255 0.20703,2.55921 2.6975,4.51871 2.5621,6.875 -1.01059,-0.8609 -5.36722,-1.62173 -3.0936,0.21875 1.78326,1.91745 -2.48844,1.73278 -2.84315,3.53055 -2.98738,3.9811 1.75617,10.8726 1.01137,15.91027 1.45935,11.20148 0.7661,22.8758 -0.23007,33.83938 1.01622,2.29188 0.26167,4.85977 0.99965,7.12475 -0.65195,1.98682 -1.0855,4.37563 -3.62455,4.24945 0.16441,2.94763 -8.1702,13.52775 -4.21885,13.18755 1.51916,-0.18072 2.77749,-2.08019 3.6872,-2.0934 1.26976,0.1623 2.82383,-2.11903 4.2185,-3.1244 1.27075,-0.92002 1.85495,-3.28993 3.31195,-3.4996 3.88126,-1.20772 7.65889,-11.97707 10.11053,-16.85005 8.94644,-21.65618 3.15655,-46.33771 -9.79718,-65.0554 z m -9.9375,90.96875 c -2.15006,1.61744 -3.62421,4.23439 -6.374,4.9983 -1.02324,2.96942 -12.96159,14.26416 -6.8125,9.1564 3.48245,-2.8499 7.3234,-5.50506 10.8107,-8.4348 2.03677,-0.87669 3.90582,-3.00102 4.24945,-5.09305 -0.56237,-0.9832 -1.69754,0.93456 -1.87365,-0.62685 z"
       id="path3823"
       inkscape:connector-curvature="0"
       transform="matrix(0.125,0,0,0.125,-0.08793903,224.41423)" />
  </g>
  <g
     inkscape:groupmode="layer"
     id="layer4"
     inkscape:label="continents"
     style="display:inline"
     transform="translate(0,-224)">
    <path
       style="fill:url(#radialGradient3875);fill-opacity:1;stroke:none"
       d="m 15.162062,226.69157 c 0.07449,0.15586 0.377202,0.18606 0.42573,0.26563 -0.151333,-0.0453 -0.66418,-0.0615 -0.308525,0.13672 0.14887,0.0552 0.38703,0.32392 0.496025,0.0742 -0.300943,-0.15652 0.08823,-0.0496 0.191387,0.0196 0.164918,0.12019 0.411748,0.005 0.539008,0.1289 -0.16143,0.10931 0.356122,0.17118 0.0078,0.13672 -0.25857,-0.0686 -0.246408,0.17417 0,0.18359 0.188525,0.0934 -0.07774,0.3002 -0.207008,0.13672 -0.183627,-0.0996 -0.66703,0.0706 -0.402312,0.26953 0.220832,0.057 0.09924,0.35089 0.32027,0.41407 0.07545,0.0858 0.264122,0.15157 0.148392,0.3164 3.559683,1.62454 6.259838,4.78129 7.6875,8.38672 0.196363,-0.23219 0.749865,-0.3514 0.570325,-0.72656 0.147538,-0.26562 0.198813,0.32849 0.336033,0.0284 -0.75956,-4.89727 -4.915638,-8.98113 -9.80465,-9.77065 z m -4.679688,0.21094 c -0.311927,-0.009 -0.602205,0.25989 -0.882812,0.20703 -0.374955,-0.18262 -1.976828,0.6764 -2.670747,1.04463 -1.849615,1.06875 -3.418183,2.64943 -4.462066,4.50225 0.268193,-0.0134 0.261037,-0.35696 0.480468,-0.47266 0.05841,-0.15499 0.122838,-0.29934 0.171875,-0.0937 0.06709,-0.16485 0.161622,-0.31511 0.378906,-0.26562 0.189669,-0.11555 0.257457,0.0768 0.06641,0.1289 -0.07611,0.11556 -0.194134,0.16513 0.01171,0.19922 0.08887,0.0558 0.393868,0.0682 0.273437,-0.0937 -0.172667,0.0821 -0.03817,-0.36408 0.117188,-0.40625 0.04634,-0.21667 0.282526,-0.19623 0.316406,-0.41016 -0.304755,0.0614 -0.250459,-0.16644 -0.01563,-0.19921 0.292242,0.0606 0.06304,0.59518 0.523437,0.42968 0.497272,-0.065 0.392294,-0.71042 0.734375,-0.96875 0.121276,-0.3217 0.488496,-0.48075 0.644532,-0.72656 -0.145289,0.17413 -0.401789,0.0297 -0.179688,-0.125 0.271411,-0.17663 0.577622,-0.3671 0.6875,-0.6875 -0.168279,-0.0919 -0.369649,0.23312 -0.578125,0.25391 -0.220428,0.18061 -0.376813,0.53445 -0.71875,0.45703 -0.17782,0.0515 -0.337481,0.2732 -0.484375,0.28515 0.189361,-0.28993 0.527282,-0.37737 0.707031,-0.6875 0.211701,-0.20229 0.477032,-0.36467 0.707032,-0.5625 0.292342,-0.16985 0.573356,-0.47302 0.9375,-0.44531 0.05855,0.17458 -0.293765,0.14455 -0.222657,0.31641 0.187958,0.0566 0.386,-0.10777 0.53125,-0.24219 0.18123,0.13324 0.483314,-0.24725 0.566407,-0.11719 -0.07338,0.15054 -0.39149,0.13617 -0.390625,0.25391 0.316035,-0.14714 0.168169,0.075 -0.01954,0.11719 -0.225265,0.17145 -0.574091,0.005 -0.691407,0.3125 -0.110804,0.1566 -0.482432,0.30508 -0.375,0.49609 0.03269,-0.13178 0.311447,-0.36495 0.164063,-0.11719 -0.235821,0.22308 0.30907,0.0954 0.339844,-0.0742 0.05511,-0.15348 0.350946,-0.2653 0.164062,-0.0508 0.0419,0.22614 0.371357,-0.0988 0.441406,-0.21093 0.266549,-0.31991 0.639898,-0.5066 0.953125,-0.77344 0.229274,-0.0409 0.349146,-0.19148 0.464844,-0.33985 0.106147,-0.14307 -0.372348,-0.10494 -0.453125,0.0196 -0.15735,0.0702 -0.376765,0.16318 -0.542969,0.17579 0.2325,-0.23775 0.616444,-0.36477 0.945314,-0.35547 0.09946,0.11313 0.32387,-0.0303 0.34375,-0.14063 -0.179068,0.0644 -0.492323,-0.032 -0.152345,-0.004 0.354165,0.0117 0.15136,-0.1751 -0.05469,-0.0586 -0.172632,-0.0156 -0.48461,0.25308 -0.558593,0.10937 0.295938,-0.13057 0.694501,-0.20558 0.964843,-0.24218 0.12302,-0.0673 0.327035,-0.15027 0.464845,-0.25391 0.101078,-0.009 0.01295,0.2027 -0.06641,0.19141 -0.174433,0.0912 -0.09716,0.18894 -0.246093,0.24609 -0.171877,-0.0981 -0.54982,0.17444 -0.41797,0.32422 0.144578,0.0979 0.32338,-0.38163 0.34375,-0.16016 -0.18464,0.19107 0.28107,0.0373 0.375,0.10938 0.177725,-0.15839 0.4488,0.0323 0.601563,-0.15235 0.303235,0.0352 0.177997,-0.1425 -0.01952,-0.16797 -0.219623,-0.0176 -0.229095,-0.13367 -0.05469,-0.21484 0.09455,-0.0466 0.170315,-0.24772 0.164063,-0.29687 -0.121683,0.012 -0.376465,0.16009 -0.210938,-0.0274 -0.02953,-0.013 -0.07853,-0.0256 -0.117187,-0.0351 z m 4.51953,0.76953 c -0.04049,0.33783 0.570608,0.36488 0.597538,0.0742 -0.221938,0.0374 -0.408083,0.0896 -0.597538,-0.0742 z m -4.285155,0.11328 c -0.175885,0.0438 -0.22979,0.21002 -0.453125,0.16797 -0.09252,-0.0534 -0.332187,-0.15488 -0.226562,0.0391 -0.08828,0.0716 -0.187643,0.13658 -0.19922,-0.008 -0.143593,-0.0239 -0.344125,0.13936 -0.109375,0.22266 -0.169365,0.15233 -0.448815,0.2595 -0.625,0.45313 -0.236565,0.0234 -0.235883,0.31647 -0.507812,0.27734 -0.200131,0.056 -0.01149,0.1537 -0.207032,0.23828 -0.255465,0.14165 -0.611781,0.12649 -0.773437,0.41797 -0.282329,0.11954 -0.328242,0.44693 -0.609375,0.58984 -0.159107,0.0858 -0.245016,0.24298 -0.08594,0.33985 -0.15207,0.10855 -0.200195,0.36374 0.05078,0.23047 0.478996,-0.20514 0.880114,-0.70504 1.441406,-0.60938 0.262018,-0.21143 0.570973,-0.17331 0.878906,-0.12109 0.316552,-0.0765 0.644607,-0.14249 0.851562,-0.40625 0.369843,-0.16423 0.67057,-0.42797 0.921875,-0.73828 0.224705,-0.18198 0.429898,-0.41226 0.691408,-0.5 -0.159545,-0.0463 -0.453633,-0.10479 -0.207033,-0.26172 -0.02365,-0.16216 -0.29395,-0.26718 -0.453125,-0.25 -0.160985,0.0768 -0.227737,-0.0954 -0.378905,-0.082 z m 2.242188,0.90235 c -0.194898,0.0349 -0.478218,0.0643 -0.27342,0.32031 -0.04406,0.31132 0.20839,0.30065 0.253807,0.0469 0.08626,-0.3851 0.171325,0.21278 0.292943,-0.0352 0.01963,-0.10666 -0.247085,-0.2056 -0.15623,-0.23828 0.321307,-0.013 0.172282,-0.12046 -0.06641,-0.0781 l -0.05078,-0.0156 z m 0.820312,1.46093 c -0.371772,0.0755 -0.662645,0.32464 -0.945145,0.55079 -0.09437,0.21974 -0.315607,0.36516 -0.3982,0.59765 -0.04823,0.13574 -0.22086,0.19572 -0.20703,0.32813 -0.220137,-0.0121 -0.324297,0.19063 -0.523845,0.21093 -0.301377,0.0733 -0.02447,0.4447 -0.164062,0.63282 -0.0012,0.16616 0.15953,0.36943 0.32422,0.16406 0.114287,-0.10013 0.283117,-0.15564 0.40625,-0.17578 0.03124,0.26083 0.04251,0.63559 0.300712,0.75781 0.200585,0.0394 0.236025,-0.0799 0.304593,-0.23437 0.07621,-0.199 0.08911,-0.45232 0.35147,-0.5 0.153242,-0.21355 -0.301705,-0.20992 -0.242063,-0.46485 0.01945,-0.27947 0.354418,-0.38483 0.410013,-0.60156 0.03498,-0.17972 0.118475,-0.40518 0.363137,-0.3125 0.183155,0.17761 -0.15238,0.35183 -0.206832,0.51953 -0.11351,0.1646 -0.02,0.46406 0.07416,0.60547 0.316588,0.18848 0.610483,-0.2178 0.933483,-0.12891 0.143642,-0.0364 0.27848,0.1149 0.06244,0.16016 -0.184267,0.25609 -0.55707,0.0554 -0.749892,0.28125 0.10314,0.13016 0.312635,0.34246 0.1132,0.49609 -0.144655,-0.0464 -0.375883,-0.32937 -0.331938,0.0234 -0.0082,0.2439 -0.0097,0.57166 -0.296687,0.62891 -0.21648,-0.19854 -0.455738,0.0321 -0.683425,0.10547 -0.17896,0.0881 -0.268285,-0.22731 -0.449175,-0.0429 -0.27696,0.0511 -0.462365,-0.39369 -0.15242,-0.48438 0.0336,-0.11044 0.04265,-0.45022 -0.121093,-0.25 -0.21359,0.0442 -0.160235,0.39037 -0.132812,0.5625 -0.03015,0.3228 -0.509893,0.13978 -0.640625,0.38672 -0.174133,0.14032 -0.32294,0.33209 -0.519533,0.44532 -0.118655,0.19058 -0.374702,0.32476 -0.570312,0.3164 -0.1577,-0.17918 -0.07722,0.0572 -0.164063,0.13281 -0.125145,0.003 -0.62725,-0.17657 -0.441405,0.082 0.304338,0.16938 0.53032,0.56879 0.34375,0.92578 -0.03409,0.27198 -0.32568,0.39735 -0.54297,0.23047 -0.255325,-0.0234 -0.514382,-0.0611 -0.734374,-0.19532 -0.08893,0.14364 -0.326594,0.0567 -0.210938,0.30078 -0.09463,0.26954 -0.114796,0.64692 -0.355469,0.86329 -0.06659,0.14519 0.246091,0.006 0.113282,0.20312 -0.200767,0.21775 0.121502,0.31394 0.304687,0.22656 0.129623,0.073 0.0089,0.52291 0.246094,0.30469 0.107813,-0.19135 0.341436,0.0807 0.511718,-0.008 0.182328,0.0752 0.234615,-0.19675 0.398438,-0.23047 0.105492,-0.12939 0.184732,-0.21349 0.183595,-0.39062 0.13248,-0.24858 0.41168,-0.43966 0.691405,-0.47657 0.113702,-0.11716 -0.126323,-0.43742 0.16797,-0.39453 0.126607,-0.19307 0.25352,-0.034 0.347655,0.0742 0.21589,0.12738 0.322667,-0.23251 0.519532,-0.19922 0.181395,-0.2126 0.437645,0.0245 0.46875,0.23828 0.07443,0.27665 0.321003,0.4116 0.566375,0.52735 0.229058,0.13229 0.671028,0.39524 0.42958,0.72265 -0.17408,0.15021 -0.48911,0.002 -0.660017,0.11719 0.08234,0.20591 0.395257,0.12817 0.515462,0.32031 0.02353,-0.15494 -0.03301,-0.35832 0.203243,-0.375 0.10987,-0.14059 0.294185,-0.27231 0.121032,-0.4414 -0.02185,-0.32361 0.268855,0.0462 0.37098,-0.0429 -0.100982,-0.2577 -0.448235,-0.28306 -0.632642,-0.49219 -0.37418,0.0173 -0.305008,-0.48447 -0.5937,-0.60937 -0.1388,-0.16231 0.11329,-0.51448 0.261705,-0.3125 -0.08504,0.12897 0.193827,0.14084 0.148387,0.3125 0.165823,0.0455 0.277595,0.20371 0.46472,0.20703 0.134708,0.14008 0.294565,0.27382 0.4803,0.33203 0.16929,0.1257 0.07146,0.27222 0.05467,0.44531 0.111225,0.0888 0.221363,0.13878 0.25765,0.29297 0.195773,0.0742 -0.05104,0.19648 0.04686,0.32813 0.0745,0.0924 0.142828,0.13242 0.214775,0.23828 0.130095,0.0769 0.182758,0.23747 0.253838,0.0625 0.136387,0.13747 0.0184,-0.14725 -0.01952,-0.21094 0.09606,-0.0337 0.02185,-0.2343 0.156212,-0.0859 0.2243,0.005 -0.0058,-0.33313 -0.174995,-0.28515 -0.07634,-0.0726 0.08087,-0.21836 -0.09763,-0.26563 -0.09497,-0.22038 0.11543,-0.2204 0.156183,-0.0508 0.07845,-0.0615 0.02723,-0.27759 0.203062,-0.22266 0.160653,-0.13276 0.32772,0.0448 0.472588,0.0196 0.06497,-0.13396 0.477885,-0.2148 0.328037,-0.008 -0.16927,-0.0195 -0.430117,0.0664 -0.425725,0.21875 0.13317,0.0196 0.07853,0.16333 0.11713,0.25782 0.05441,0.18581 -0.110197,0.0667 -0.11308,0.17968 0.25648,-0.11141 0.172365,0.32024 0.429555,0.29297 0.02395,0.13699 0.244398,-0.11314 0.242083,0.0937 0.165982,0.13108 0.262837,-0.058 0.312412,-0.16015 0.220405,-0.0971 0.354733,0.33562 0.562343,0.0508 0.164047,-0.02 0.1793,-0.24019 0.374937,-0.2461 0.187188,0.006 -0.07759,0.24875 0.08202,0.35938 0.08223,0.27812 -0.0048,0.58917 -0.01563,0.87106 0.01265,0.40501 -0.490612,0.34228 -0.757612,0.3085 -0.18972,0.11178 -0.355645,0.32392 -0.60142,0.19913 -0.225235,0.0241 -0.426508,-0.18177 -0.628825,-0.0234 -0.06538,-0.31448 -0.529858,0.088 -0.554563,-0.26556 -0.31798,-0.10545 -0.746287,0.21339 -0.51555,0.54279 -0.09047,0.18707 -0.326742,0.189 -0.468655,0.0507 -0.172442,-0.12034 -0.378542,-0.10587 -0.566325,-0.1327 -0.09471,-0.16942 -0.15953,-0.35459 -0.390487,-0.36706 -0.164775,-0.17876 -0.47865,0.098 -0.52342,-0.10543 -0.1432,-0.0356 -0.09551,-0.23747 -0.26953,-0.19523 -0.06635,-0.24153 0.329447,-0.27223 0.136287,-0.539 -0.163962,-0.0874 0.113253,-0.32521 -0.148437,-0.31646 -0.170198,-0.14865 -0.35663,0.18979 -0.570313,0.004 -0.193852,-0.1496 -0.434227,0.18109 -0.60547,-0.0508 -0.151517,0.001 -0.30813,0.0496 -0.449217,0.0117 -0.165923,0.0996 -0.401038,0.0116 -0.503908,0.21875 -0.147092,-0.0285 -0.246212,0.0507 -0.359375,0.11719 -0.128527,-0.0483 -0.231332,0.30932 -0.28125,0.0274 0.08672,-0.28507 -0.382434,-0.10355 -0.445312,-0.35157 -0.196331,-0.001 -0.109031,0.30565 -0.308594,0.34763 -0.179321,0.16601 -0.445512,0.17133 -0.546875,0.41387 -0.220032,0.16989 -0.09897,0.48499 -0.320312,0.64434 -0.123794,0.17357 -0.36293,0.2053 -0.5625,0.2147 -0.230772,5e-4 -0.155559,0.42685 -0.457031,0.29291 -0.06925,0.13446 -0.03923,0.34215 -0.210938,0.43352 -0.170062,0.14277 -0.193773,0.38957 -0.40625,0.48813 -0.0066,0.22891 0.183334,0.39162 0.07031,0.59757 0.134311,0.36621 -0.0722,0.72371 -0.265625,1.01935 0.119776,0.1335 0.124153,0.3191 0.04297,0.49209 0.08367,0.18084 0.06399,0.13133 0.128906,0.34758 0.149814,0.38123 0.673144,0.53016 0.644531,0.99578 0.185809,0.20146 0.432392,0.36894 0.558594,0.62482 0.260809,0.0805 0.381505,0.32956 0.632813,0.40608 0.428334,-0.0613 0.857511,0.0177 1.249999,0.16007 0.432013,-0.0953 0.873025,-0.0548 1.308595,-0.0858 0.337103,-0.0557 0.380543,0.31897 0.55078,0.47641 0.307355,0.0661 0.69472,-0.0386 0.933595,0.21862 0.26509,0.27554 -0.06987,0.66351 -0.09766,0.94525 0.221902,0.30605 0.612722,0.4106 0.847657,0.69508 0.06914,0.25532 0.470688,0.46831 0.222605,0.72645 0.243105,0.068 0.219293,0.32924 0.02736,0.453 -0.22463,0.16295 -0.370217,0.637 -0.01563,0.70692 0.234393,0.16144 0.513415,0.30179 0.562333,0.60919 0.188877,0.16896 0.471625,0.2183 0.671767,0.34748 0.44394,0.16547 0.903495,-0.13353 1.367108,-0.0936 0.521992,-0.10925 1.07646,-0.27889 1.464737,-0.64435 0.16585,-0.2436 0.573935,-0.23257 0.699125,-0.48813 -0.06262,-0.17771 -0.02964,-0.24315 0.164025,-0.30852 0.370583,-0.35064 0.92793,-0.45784 1.206775,-0.8747 0.03455,-0.2056 0.235338,-0.50792 -0.04299,-0.61711 0.02248,-0.17438 0.06313,-0.37408 -0.105425,-0.47259 0.156783,-0.53002 0.60869,-0.90061 0.93325,-1.33954 0.140673,-0.36495 0.469568,-0.59114 0.714675,-0.86308 0.306913,-0.5074 0.781895,-1.01999 0.67157,-1.67165 0.03674,-0.1645 -0.0068,-0.52596 -0.179637,-0.2539 -0.32607,0.0534 -0.523688,0.3177 -0.792783,0.46855 -0.136712,0.13963 -0.310777,-0.0914 -0.425717,-0.11718 0.21085,-0.12465 0.01625,-0.26395 -0.15625,-0.29678 -0.208943,-0.10507 -0.322765,-0.34129 -0.589683,-0.32797 -0.24066,-0.14403 -0.222032,-0.61263 -0.570125,-0.61699 -0.05709,-0.3336 -0.120762,-0.74581 -0.456875,-0.90223 -0.207405,-0.15193 -0.231975,-0.4321 -0.413962,-0.62105 -0.1341,-0.21324 -0.209598,-0.48236 -0.437368,-0.6249 -0.09199,-0.12356 -0.183027,-0.29211 -0.19522,-0.43351 0.196223,-0.0349 0.116445,0.24571 0.285088,0.28899 -0.0064,0.23172 0.226005,0.23044 0.363187,0.12498 0.166638,0.0578 0.286138,0.30584 0.417775,0.45301 0.195405,0.14431 0.21367,0.47881 0.51552,0.43349 0.04507,0.14737 0.175033,0.26976 0.214738,0.42179 0.01762,0.39214 0.578532,0.34795 0.605262,0.74197 0.294878,0.0867 0.326433,0.39018 0.308463,0.66001 0.09253,0.18685 0.261835,0.57896 0.495967,0.2655 0.24682,-0.30774 0.6922,-0.41601 0.909975,-0.75372 -0.02127,-0.42139 -0.01713,-0.87353 -0.148355,-1.27331 -0.0223,-0.44345 -0.18181,-0.85494 -0.230332,-1.29678 0.0077,-0.25508 -0.160548,-0.32234 -0.367118,-0.3944 -0.20787,-0.14429 -0.403407,-0.56222 -0.03507,-0.60928 0.245488,0.0437 0.01122,-0.2475 0.03132,-0.37887 -0.09576,-0.36313 -0.239342,-0.70994 -0.359125,-1.04688 -0.07192,-0.12049 -0.09446,-0.22725 -0.152307,-0.39453 -0.222678,0.0523 -0.3706,-0.0433 -0.335868,-0.28125 -0.03762,-0.19664 0.10619,-0.51967 -0.199207,-0.53125 -0.30288,-0.23096 -0.705813,-0.57393 -0.566213,-1.00781 0.11099,-0.20399 0.270273,-0.46062 0.03115,-0.67578 -0.111957,-0.28819 -0.362242,-0.50615 -0.445145,-0.76563 -0.175072,-0.33507 -0.363985,-0.72922 -0.640412,-1.0039 -0.219575,-0.34262 -0.397503,-0.71419 -0.68293,-1.02231 -0.118085,-0.24196 -0.36355,-0.40002 -0.468595,-0.65234 -0.154808,-0.12038 -0.28876,-0.533 -0.495988,-0.38672 0.02511,0.26321 -0.418177,0.29277 -0.355325,0.57031 0.1196,0.23229 -0.3494,0.0871 -0.300687,0.26562 0.241095,0.12832 -0.213638,0.12252 -0.261663,-0.0274 -0.04893,-0.18562 -0.181872,-0.23844 -0.32023,-0.33594 0.02295,-0.22169 0.332438,0.10014 0.499968,0.0273 0.355732,0.0525 0.27733,-0.36715 -1.3e-5,-0.38281 -0.300815,-0.0743 -0.63748,-0.002 -0.860112,-0.24219 -0.111978,-0.0148 -0.204653,-0.0891 -0.316455,-0.10156 z m -4.585937,0.39063 c -0.263,-2.4e-4 0.09374,0.285 -0.15625,0.23437 -0.109055,0.0413 0.120332,0.1807 -0.09375,0.19141 0.06635,0.0374 0.237617,0.31324 0.421875,0.15234 0.23038,-0.0421 0.577997,-0.14648 0.417967,-0.44531 -0.171267,0.0326 -0.29415,-0.0346 -0.464842,0.0391 -0.122628,-0.0179 0.03838,-0.16331 -0.125,-0.17187 z m -4.531251,1.03125 c -0.214295,0.15677 -0.586047,0.27382 -0.523438,0.59375 0.09285,0.0782 0.0181,0.45087 0.152344,0.21484 -0.01935,-0.18153 0.06987,-0.33157 0.199219,-0.39843 -0.07937,-0.21834 0.09971,-0.23466 0.171875,-0.41016 z m 5.632813,0.89062 c -0.205372,-0.007 -0.269047,0.17514 -0.433595,0.24219 0.05389,0.1149 -0.09652,0.14596 -0.03125,0.26953 -0.136822,0.0723 0.160478,0.14368 0.02735,0.29688 0.156265,0.035 0.242275,0.13725 0.191405,0.33203 -0.06371,0.14897 -0.302387,0.0418 -0.203125,0.30469 -0.236415,0.0503 -0.241275,0.13285 -0.0039,0.14843 0.178325,0.14652 -0.163867,0.0613 -0.23047,0.1836 -0.301087,0.18877 0.2163,0.12971 0.367188,0.11719 0.239705,-0.0663 0.534487,0.0688 0.63672,-0.19922 0.1523,-0.17527 0.0176,-0.2842 -0.113283,-0.375 -0.01953,-0.23544 -0.200835,-0.36133 -0.203125,-0.61328 -0.275455,-0.12895 0.123643,-0.27923 0.148438,-0.42579 -0.08327,-0.0559 -0.40816,0.0155 -0.203125,-0.14062 0.07875,-0.0156 0.15238,-0.0914 0.05078,-0.14063 z m -0.832032,0.67969 c -0.173483,0.081 -0.08489,0.34085 -0.273438,0.16406 -0.160527,0.0912 2.5e-4,0.28968 -0.148437,0.41016 -0.24197,0.0737 -0.06412,0.35968 0.125,0.16016 0.25874,0.003 0.416637,-0.21135 0.410157,-0.44532 0.165133,-0.0825 0.08186,-0.34588 -0.113282,-0.28906 z m 2.144532,3.38672 c -0.190867,0.20217 0.1802,0.39205 0.09765,0.082 0.01872,-0.0717 -0.05518,-0.0731 -0.09765,-0.082 z m 0,0 c -0.05631,-0.0272 -0.03276,0.0858 0,0 z m -0.01563,0.43359 c -0.149742,0.0408 -0.1648,0.51612 -0.01563,0.51563 0.190965,-0.0555 0.187733,-0.44728 0.01563,-0.51563 z m 5.14453,1.07813 c -0.118405,0.0252 -0.51051,0.24442 -0.199175,0.24609 0.17413,0.008 0.144705,-0.15823 0.199175,-0.24609 z m -2.046875,0.25391 c -0.260347,0.10844 0.41032,0.32852 0.437433,0.0586 -0.13901,-0.0405 -0.30641,0.0129 -0.437433,-0.0586 z m -13.78124903,1.32031 c 0.16213103,2.13104 0.89794703,4.24108 2.12500003,5.98047 0.178365,-0.26678 0.202841,-0.59279 0.02343,-0.85152 -0.08993,-0.33645 -0.478116,-0.48747 -0.605469,-0.82408 -0.195153,-0.27812 -0.375634,-0.56101 -0.542969,-0.85543 -0.185502,-0.38022 -0.269855,-0.77239 -0.453125,-1.15226 -0.217961,-0.4033 -0.205683,-0.89289 -0.269531,-1.34762 -0.130505,-0.30449 -0.05905,-0.67494 -0.27734403,-0.94956 z m 19.48046903,7.67187 c -0.467757,0.17432 -0.767515,0.59655 -1.17177,0.87876 0.01128,0.26244 -0.05573,0.4501 -0.281217,0.58589 -0.22893,0.24364 0.130755,0.24917 0.269555,0.0899 0.330725,-0.22896 0.455265,-0.67144 0.870962,-0.79677 0.121758,-0.24484 0.224173,-0.49933 0.31247,-0.75773 z"
       id="path3000"
       inkscape:connector-curvature="0"
       sodipodi:nodetypes="cccccccccccccccccccccccccccccccccccccccccccccccccccccccccccccccccccccccccccccccccccccccccccccccccccccccccccccccccccccccccccccccccccccccccccccccccccccccccccccccccccccccccccccccccccccccccccccccccccccccccccccccccccccccccccccccccccccccccccccccccccccccccccccccccccccccccccccccccccccccccccccccccccccccccccccccccccccccccccccccccccccccccccccccccccccccccc" />
    <path
       inkscape:connector-curvature="0"
       id="path3893"
       d="m 28.662063,237.86735 c -0.229578,0.20282 -0.03987,0.59864 -0.191333,0.86327 0.02362,0.31016 -0.184842,0.90697 0.105488,1.01955 0.130035,-0.0717 0.48894,0.0547 0.343745,-0.19527 -0.39057,-0.32001 -0.06286,-0.9163 -0.179658,-1.33981 -0.05057,-0.10787 0.09907,-0.33998 -0.07824,-0.34774 z m 0.84375,0.4375 c -0.328695,0.0249 -0.23991,0.26472 -0.03129,0.35933 -0.144323,0.10974 -0.40697,0.038 -0.23045,0.35157 0.02587,0.3199 0.337187,0.56484 0.320262,0.85937 -0.126325,-0.10761 -0.670902,-0.20271 -0.3867,0.0273 0.222908,0.23968 -0.311055,0.2166 -0.355395,0.44132 -0.373422,0.49764 0.219523,1.35908 0.126423,1.98878 0.182417,1.40019 0.09576,2.85948 -0.02876,4.22993 0.127027,0.28648 0.03271,0.60747 0.124957,0.89059 -0.0815,0.24835 -0.135687,0.54695 -0.45307,0.53118 0.02055,0.36846 -1.021275,1.69097 -0.527355,1.64845 0.189895,-0.0226 0.347185,-0.26003 0.4609,-0.26168 0.15872,0.0203 0.352978,-0.26488 0.527313,-0.39055 0.158842,-0.115 0.231867,-0.41124 0.413992,-0.43745 0.485158,-0.15096 0.957363,-1.49713 1.263818,-2.10626 1.118305,-2.70702 0.394567,-5.79221 -1.224648,-8.13192 z m -1.242188,11.3711 c -0.268757,0.20218 -0.453027,0.5293 -0.79675,0.62479 -0.127905,0.37117 -1.6202,1.78302 -0.851562,1.14455 0.435305,-0.35624 0.915425,-0.68814 1.351337,-1.05435 0.254595,-0.10959 0.488228,-0.37513 0.53118,-0.63664 -0.0703,-0.1229 -0.212192,0.11682 -0.234205,-0.0784 z"
       style="fill:url(#radialGradient3895);fill-opacity:1;stroke:none"
       sodipodi:nodetypes="cccccccccccccccccccccccccccc" />
  </g>
  <g
     style="display:inline"
     inkscape:label="sphere outline"
     id="g3828"
     inkscape:groupmode="layer"
     transform="translate(0,-224)">
    <path
       sodipodi:nodetypes="cccssscc"
       inkscape:connector-curvature="0"
       d="m 24.061019,237.16002 c -2.046153,-4.97392 -5.651418,-8.25231 -11.064325,-9.56488 7.849625,6.02605 9.514315,17.91994 6.461115,21.38477 -1.30155,0.844 -2.636748,1.36026 -4.28868,1.65617 -6.607737,1.18368 -12.923921,-3.2134 -14.107592,-9.82113 -1.18367203,-6.60774 3.213401,-12.92392 9.821137,-14.1076 6.607738,-1.18367 12.910225,3.13694 14.093895,9.74468 z"
       style="fill:none;stroke:#000000;stroke-width:1px;stroke-linecap:butt;stroke-linejoin:miter;stroke-opacity:1"
       id="path3830" />
    <path
       sodipodi:nodetypes="cscc"
       inkscape:connector-curvature="0"
       d="m 26.76474,235.0995 c 7.47848,7.14462 4.338315,12.8747 0.01952,16.44015 -0.570315,0.47084 -1.267662,0.90564 -1.984871,1.19621 6.921096,-3.79375 3.738773,-14.8637 1.954176,-17.63636"
       style="fill:none;stroke:#000000;stroke-width:0.5;stroke-linecap:butt;stroke-linejoin:miter;stroke-opacity:1;stroke-miterlimit:4;stroke-dasharray:none"
       id="path3832" />
    <path
       sodipodi:nodetypes="cccsc"
       inkscape:connector-curvature="0"
       d="m 20.414294,239.97673 6.353831,-4.87289 c 1.714962,2.79457 4.942888,13.6471 -1.905894,17.64459 -1.075652,0.44 -1.778232,0.54614 -2.702187,0.54214 -1.847913,-0.008 -3.844905,-0.73084 -5.897538,-2.90089"
       style="fill:none;stroke:#000000;stroke-width:0.5;stroke-linecap:butt;stroke-linejoin:miter;stroke-opacity:1;display:inline;stroke-miterlimit:4;stroke-dasharray:none"
       id="path3045" />
  </g>
  <g
     inkscape:groupmode="layer"
     id="layer7"
     inkscape:label="shine"
     transform="translate(0,-224)">
    <path
       style="fill:url(#linearGradient3919);fill-opacity:1;stroke:url(#linearGradient3917);stroke-width:1.5;stroke-linecap:butt;stroke-linejoin:miter;stroke-miterlimit:4;stroke-opacity:1;stroke-dasharray:none;display:inline;enable-background:new"
       d="m 13.033154,226.51189 c -0.70912,0.002 -1.429623,0.0658 -2.152343,0.19531 -6.076968,1.08859 -10.28015003,6.51827 -9.99609403,12.52344 10.18766703,3.88989 12.37787903,-0.43108 18.47656203,-2.96484 -1.275607,-3.21447 -3.367465,-6.37203 -6.36328,-8.67188 4.639482,1.12503 7.94982,3.69587 10.089842,7.53906 0.477263,-0.095 0.975785,-0.17565 1.5,-0.24218 -1.60476,-5.03159 -6.306292,-8.39356 -11.554687,-8.37891 z"
       id="path3892"
       inkscape:connector-curvature="0" />
  </g>
</svg>
