<?xml version="1.0" encoding="UTF-8" standalone="no"?>
<!-- Created with Inkscape (http://www.inkscape.org/) -->

<svg
   xmlns:dc="http://purl.org/dc/elements/1.1/"
   xmlns:cc="http://creativecommons.org/ns#"
   xmlns:rdf="http://www.w3.org/1999/02/22-rdf-syntax-ns#"
   xmlns:svg="http://www.w3.org/2000/svg"
   xmlns="http://www.w3.org/2000/svg"
   xmlns:xlink="http://www.w3.org/1999/xlink"
   xmlns:sodipodi="http://sodipodi.sourceforge.net/DTD/sodipodi-0.dtd"
   xmlns:inkscape="http://www.inkscape.org/namespaces/inkscape"
   width="128"
   height="128"
   id="svg2"
   inkscape:label="Pozadí"
   version="1.1"
   inkscape:version="0.48.0 r9654"
   sodipodi:docname="logo-vector-128.svg"
   style="display:inline;enable-background:new"
   inkscape:export-filename="/home/mosra/C++/map2x/artwork/logo/export/logo-128.png"
   inkscape:export-xdpi="90"
   inkscape:export-ydpi="90">
  <defs
     id="defs3">
    <linearGradient
       id="linearGradient3903">
      <stop
         style="stop-color:#ffffff;stop-opacity:0;"
         offset="0"
         id="stop3905" />
      <stop
         id="stop3912"
         offset="0.5"
         style="stop-color:#ffffff;stop-opacity:1;" />
      <stop
         style="stop-color:#ffffff;stop-opacity:0;"
         offset="1"
         id="stop3907" />
    </linearGradient>
    <linearGradient
       id="linearGradient3895">
      <stop
         style="stop-color:#ffffff;stop-opacity:1;"
         offset="0"
         id="stop3897" />
      <stop
         style="stop-color:#ffffff;stop-opacity:0;"
         offset="1"
         id="stop3899" />
    </linearGradient>
    <linearGradient
       id="linearGradient3869">
      <stop
         style="stop-color:#edb88e;stop-opacity:1;"
         offset="0"
         id="stop3871" />
      <stop
         id="stop3878"
         offset="0.5"
         style="stop-color:#c33a20;stop-opacity:1;" />
      <stop
         style="stop-color:#150603;stop-opacity:1;"
         offset="1"
         id="stop3873" />
    </linearGradient>
    <linearGradient
       id="linearGradient3944">
      <stop
         style="stop-color:#c19665;stop-opacity:1;"
         offset="0"
         id="stop3946" />
      <stop
         style="stop-color:#000000;stop-opacity:1;"
         offset="1"
         id="stop3948" />
    </linearGradient>
    <linearGradient
       id="linearGradient3909">
      <stop
         style="stop-color:#dff0fa;stop-opacity:1;"
         offset="0"
         id="stop3911" />
      <stop
         id="stop3931"
         offset="1"
         style="stop-color:#006198;stop-opacity:1;" />
    </linearGradient>
    <linearGradient
       id="linearGradient3877">
      <stop
         id="stop3879"
         offset="0"
         style="stop-color:#fff2da;stop-opacity:1;" />
      <stop
         style="stop-color:#f4db9a;stop-opacity:1;"
         offset="0.51111114"
         id="stop3881" />
      <stop
         id="stop3883"
         offset="1"
         style="stop-color:#d39833;stop-opacity:1;" />
    </linearGradient>
    <linearGradient
       id="linearGradient3847">
      <stop
         style="stop-color:#afceff;stop-opacity:1;"
         offset="0"
         id="stop3849" />
      <stop
         id="stop3855"
         offset="0.50683612"
         style="stop-color:#508eee;stop-opacity:1;" />
      <stop
         style="stop-color:#001b45;stop-opacity:1;"
         offset="1"
         id="stop3851" />
    </linearGradient>
    <linearGradient
       id="linearGradient3848">
      <stop
         style="stop-color:#b1c9ff;stop-opacity:1;"
         offset="0"
         id="stop3850" />
      <stop
         style="stop-color:#b1c9ff;stop-opacity:0;"
         offset="1"
         id="stop3852" />
    </linearGradient>
    <filter
       inkscape:collect="always"
       id="filter3839"
       x="-0.27000001"
       width="1.54"
       y="-0.54000002"
       height="2.0799999"
       color-interpolation-filters="sRGB">
      <feGaussianBlur
         inkscape:collect="always"
         stdDeviation="8.2958776"
         id="feGaussianBlur3841" />
    </filter>
    <radialGradient
       inkscape:collect="always"
       xlink:href="#linearGradient3847"
       id="radialGradient3853"
       cx="84.828728"
       cy="87.145508"
       fx="84.828728"
       fy="87.145508"
       r="96.430199"
       gradientTransform="matrix(0.49998892,-0.00332945,0.00370364,0.55618165,-0.91484472,129.21065)"
       gradientUnits="userSpaceOnUse" />
    <radialGradient
       inkscape:collect="always"
       xlink:href="#linearGradient3877"
       id="radialGradient3875"
       cx="92.093979"
       cy="99.315521"
       fx="92.093979"
       fy="99.315521"
       r="121.44665"
       gradientTransform="matrix(0.5,0,0,0.41034022,-0.57873672,143.66998)"
       gradientUnits="userSpaceOnUse" />
    <radialGradient
       inkscape:collect="always"
       xlink:href="#linearGradient3847"
       id="radialGradient3891"
       cx="224.77557"
       cy="141.61234"
       fx="224.77557"
       fy="141.61234"
       r="26.395712"
       gradientTransform="matrix(1.1831114,0,0,1.3457765,-153.30896,11.425512)"
       gradientUnits="userSpaceOnUse" />
    <radialGradient
       inkscape:collect="always"
       xlink:href="#linearGradient3877"
       id="radialGradient3895"
       gradientUnits="userSpaceOnUse"
       gradientTransform="matrix(0.18317706,0,0,0.19283965,56.147706,176.61202)"
       cx="274.53888"
       cy="133.60275"
       fx="274.53888"
       fy="133.60275"
       r="121.44665" />
    <filter
       inkscape:collect="always"
       id="filter3905"
       x="-0.23999999"
       width="1.48"
       y="-0.71999997"
       height="2.4399998"
       color-interpolation-filters="sRGB">
      <feGaussianBlur
         inkscape:collect="always"
         stdDeviation="11.364216"
         id="feGaussianBlur3907" />
    </filter>
    <radialGradient
       inkscape:collect="always"
       xlink:href="#linearGradient3909"
       id="radialGradient3915"
       cx="125.94925"
       cy="86.854347"
       fx="125.94925"
       fy="86.854347"
       r="51.630356"
       gradientTransform="matrix(-0.8525568,0.0013375,-0.00191598,-1.221288,206.18354,305.62427)"
       gradientUnits="userSpaceOnUse" />
    <radialGradient
       inkscape:collect="always"
       xlink:href="#linearGradient3909"
       id="radialGradient3925"
       cx="107.37955"
       cy="63.617069"
       fx="107.37955"
       fy="63.617069"
       r="44.757305"
       gradientTransform="matrix(0.4999211,-0.0068327,0.01049654,0.76798995,20.289403,125.82202)"
       gradientUnits="userSpaceOnUse" />
    <filter
       inkscape:collect="always"
       id="filter3829"
       color-interpolation-filters="sRGB">
      <feGaussianBlur
         inkscape:collect="always"
         stdDeviation="0.95953497"
         id="feGaussianBlur3831" />
    </filter>
    <filter
       inkscape:collect="always"
       id="filter3837"
       color-interpolation-filters="sRGB">
      <feGaussianBlur
         inkscape:collect="always"
         stdDeviation="0.74459452"
         id="feGaussianBlur3839" />
    </filter>
    <radialGradient
       inkscape:collect="always"
       xlink:href="#linearGradient3869"
       id="radialGradient3876"
       cx="227.47519"
       cy="146.57544"
       fx="227.47519"
       fy="146.57544"
       r="52.122025"
       gradientTransform="matrix(-0.5869536,-0.23858668,0.42799816,-1.0529299,177.58933,412.03753)"
       gradientUnits="userSpaceOnUse" />
    <radialGradient
       inkscape:collect="always"
       xlink:href="#linearGradient3869"
       id="radialGradient3886"
       cx="145.14137"
       cy="73.942093"
       fx="145.14137"
       fy="73.942093"
       r="46.566486"
       gradientTransform="matrix(1.016854,0,0,0.8764798,-76.445287,112.81129)"
       gradientUnits="userSpaceOnUse" />
    <linearGradient
       inkscape:collect="always"
       xlink:href="#linearGradient3903"
       id="linearGradient3917"
       gradientUnits="userSpaceOnUse"
       x1="7.1726875"
       y1="120.48396"
       x2="197.90625"
       y2="120.48396"
       gradientTransform="matrix(0.5,0,0,0.5,-0.57873672,134.08646)" />
    <linearGradient
       inkscape:collect="always"
       xlink:href="#linearGradient3895"
       id="linearGradient3919"
       gradientUnits="userSpaceOnUse"
       x1="77.155663"
       y1="-29.950439"
       x2="77.016068"
       y2="164.04956"
       gradientTransform="matrix(0.5,0,0,0.5,-0.57873672,134.08646)" />
  </defs>
  <sodipodi:namedview
     id="base"
     pagecolor="#ffffff"
     bordercolor="#666666"
     borderopacity="1.0"
     inkscape:pageopacity="0.0"
     inkscape:pageshadow="2"
     inkscape:zoom="1"
     inkscape:cx="-4.4265575"
     inkscape:cy="204.72227"
     inkscape:document-units="px"
     inkscape:current-layer="g3828"
     showgrid="false"
     inkscape:window-width="1920"
     inkscape:window-height="1033"
     inkscape:window-x="-2"
     inkscape:window-y="-3"
     inkscape:window-maximized="1"
     inkscape:snap-page="false"
     inkscape:snap-global="false"
     inkscape:snap-bbox="true"
     inkscape:bbox-nodes="true" />
  <metadata
     id="metadata6">
    <rdf:RDF>
      <cc:Work
         rdf:about="">
        <dc:format>image/svg+xml</dc:format>
        <dc:type
           rdf:resource="http://purl.org/dc/dcmitype/StillImage" />
        <dc:title></dc:title>
      </cc:Work>
    </rdf:RDF>
  </metadata>
  <g
     inkscape:label="render"
     inkscape:groupmode="layer"
     id="layer1"
     transform="translate(0,-924.36218)"
     style="opacity:0.54863808;display:none">
    <image
       y="726.54993"
       x="-83.842659"
       id="image3046"
       xlink:href="file:///home/mosra/C++/map2x/artwork/logo/logo.png"
       height="409.54318"
       width="409.54318" />
  </g>
  <g
     inkscape:groupmode="layer"
     id="layer5"
     inkscape:label="shadow"
     style="opacity:0.43579766;display:inline"
     transform="translate(0,-128)">
    <path
       sodipodi:type="arc"
       style="color:#000000;fill:#000000;fill-opacity:1;fill-rule:nonzero;stroke:none;stroke-width:1;marker:none;visibility:visible;display:inline;overflow:visible;filter:url(#filter3905);enable-background:accumulate"
       id="path3835"
       sodipodi:cx="103.79317"
       sodipodi:cy="199.93654"
       sodipodi:rx="56.821079"
       sodipodi:ry="18.940361"
       d="m 160.61425,199.93654 c 0,10.46047 -25.43967,18.94036 -56.82108,18.94036 -31.381418,0 -56.821082,-8.47989 -56.821082,-18.94036 0,-10.46047 25.439664,-18.94036 56.821082,-18.94036 31.38141,0 56.82108,8.47989 56.82108,18.94036 z"
       transform="matrix(0.5,0,0,0.5,-0.83127472,131.81362)" />
    <path
       sodipodi:type="arc"
       style="color:#000000;fill:#000000;fill-opacity:1;fill-rule:nonzero;stroke:none;stroke-width:1;marker:none;visibility:visible;display:inline;overflow:visible;filter:url(#filter3839);enable-background:accumulate"
       id="path3837"
       sodipodi:cx="158.84648"
       sodipodi:cy="210.54314"
       sodipodi:rx="36.870567"
       sodipodi:ry="18.435284"
       d="m 195.71705,210.54314 c 0,10.18152 -16.50752,18.43528 -36.87057,18.43528 -20.36305,0 -36.87057,-8.25376 -36.87057,-18.43528 0,-10.18153 16.50752,-18.43529 36.87057,-18.43529 20.36305,0 36.87057,8.25376 36.87057,18.43529 z"
       transform="matrix(0.54158175,0,0,0.45719178,2.6270623,143.98332)" />
  </g>
  <g
     inkscape:groupmode="layer"
     id="layer3"
     inkscape:label="sphere inside"
     style="display:inline"
     transform="translate(0,-128)">
    <path
       id="path3858"
       style="fill:url(#radialGradient3915);fill-opacity:1;stroke:#000000;stroke-width:1px;stroke-linecap:butt;stroke-linejoin:miter;stroke-opacity:1"
       d="M 81.430196,190.83646 106.84552,171.3449 c 6.85985,11.17825 19.77155,54.5884 -7.623574,70.57837 -4.30261,1.76 -7.11293,2.18456 -10.80875,2.16852 -7.39165,-0.032 -15.37962,-2.92332 -23.59015,-11.60354"
       inkscape:connector-curvature="0"
       sodipodi:nodetypes="cccsc" />
    <path
       sodipodi:nodetypes="cccc"
       inkscape:connector-curvature="0"
       d="m 96.017096,179.56963 c -8.18461,-19.89569 -22.60567,-33.00924 -44.2573,-38.25953 16.37461,12.22093 26.53449,32.79954 29.92588,49.271 z"
       style="fill:url(#radialGradient3925);fill-opacity:1;stroke:#000000;stroke-width:1px;stroke-linecap:butt;stroke-linejoin:miter;stroke-opacity:1;display:inline"
       id="path3864" />
  </g>
  <g
     inkscape:groupmode="layer"
     id="layer6"
     inkscape:label="compass"
     style="display:inline"
     transform="translate(0,-128)">
    <path
       style="font-size:medium;font-style:normal;font-variant:normal;font-weight:normal;font-stretch:normal;text-indent:0;text-align:start;text-decoration:none;line-height:normal;letter-spacing:normal;word-spacing:normal;text-transform:none;direction:ltr;block-progression:tb;writing-mode:lr-tb;text-anchor:start;baseline-shift:baseline;opacity:0.98054474;color:#000000;fill:url(#radialGradient3876);fill-opacity:1;stroke:none;stroke-width:1;marker:none;visibility:visible;display:inline;overflow:visible;enable-background:accumulate;font-family:Sans;-inkscape-font-specification:Sans"
       d="m 106.79535,171.3815 -5.47457,4.14368 c 19.65857,34.40318 0.62508,80.09693 -32.600804,54.73224 l -3.97503,2.04611 c 18.21147,18.63698 36.302744,13.16767 45.256324,-0.91341 9.30063,-14.62688 10.00688,-39.42556 -3.20592,-60.00862 z"
       id="path3958"
       inkscape:connector-curvature="0"
       sodipodi:nodetypes="ccccsc" />
    <path
       style="font-size:medium;font-style:normal;font-variant:normal;font-weight:normal;font-stretch:normal;text-indent:0;text-align:start;text-decoration:none;line-height:normal;letter-spacing:normal;word-spacing:normal;text-transform:none;direction:ltr;block-progression:tb;writing-mode:lr-tb;text-anchor:start;baseline-shift:baseline;opacity:0.98054474;color:#000000;fill:url(#radialGradient3886);fill-opacity:1;stroke:none;stroke-width:1;marker:none;visibility:visible;display:inline;overflow:visible;enable-background:accumulate;font-family:Sans;-inkscape-font-specification:Sans"
       d="m 50.936886,141.07084 -1.40625,6.40625 c 14.2839,3.14586 31.57388,11.70551 40.99371,36.1358 l 5.57278,-4.10383 c -8.70544,-27.44561 -29.27205,-34.93904 -45.16024,-38.43822 z"
       id="path3954"
       inkscape:connector-curvature="0"
       sodipodi:nodetypes="ccccc" />
    <path
       style="fill:none;stroke:#000000;stroke-width:1;stroke-linecap:butt;stroke-linejoin:miter;stroke-miterlimit:4;stroke-opacity:1;stroke-dasharray:none"
       d="m 63.108766,152.14896 c 12.33693,6.46891 22.28815,15.97417 27.3125,31.75"
       id="path3930"
       inkscape:connector-curvature="0"
       sodipodi:nodetypes="cc" />
    <path
       style="fill:none;stroke:#000000;stroke-width:1;stroke-linecap:butt;stroke-linejoin:miter;stroke-miterlimit:4;stroke-opacity:1;stroke-dasharray:none"
       d="m 66.021886,155.88786 c 15.57388,9.41058 20.79626,22.05756 22.7158,29.25655"
       id="path3934"
       inkscape:connector-curvature="0"
       sodipodi:nodetypes="cc" />
    <path
       style="fill:none;stroke:#000000;stroke-width:1;stroke-linecap:butt;stroke-linejoin:miter;stroke-miterlimit:4;stroke-opacity:1;stroke-dasharray:none"
       d="m 69.689996,160.926 c 11.30689,8.79464 15.51187,18.89114 17.01476,25.89778"
       id="path3936"
       inkscape:connector-curvature="0"
       sodipodi:nodetypes="cc" />
    <path
       style="fill:none;stroke:#000000;stroke-width:1;stroke-linecap:butt;stroke-linejoin:miter;stroke-miterlimit:4;stroke-opacity:1;stroke-dasharray:none"
       d="m 77.858766,168.80521 1.8125,-1.25"
       id="path3938"
       inkscape:connector-curvature="0" />
    <path
       style="fill:none;stroke:#000000;stroke-width:1;stroke-linecap:butt;stroke-linejoin:miter;stroke-miterlimit:4;stroke-opacity:1;stroke-dasharray:none"
       d="m 83.452516,177.49271 2.1875,-0.59375"
       id="path3940"
       inkscape:connector-curvature="0" />
    <path
       style="fill:none;stroke:#000000;stroke-width:1;stroke-linecap:butt;stroke-linejoin:miter;stroke-miterlimit:4;stroke-opacity:1;stroke-dasharray:none"
       d="m 70.046266,161.30521 1.3125,-1.75"
       id="path3942"
       inkscape:connector-curvature="0" />
    <path
       style="fill:none;stroke:#000000;stroke-width:1;stroke-linecap:butt;stroke-linejoin:miter;stroke-miterlimit:4;stroke-opacity:1;stroke-dasharray:none"
       d="m 101.45803,175.42927 c 20.3443,39.25585 -1.856664,77.49394 -31.856424,55.72127"
       id="path3956"
       inkscape:connector-curvature="0"
       sodipodi:nodetypes="cc" />
    <path
       style="fill:none;stroke:#000000;stroke-width:1;stroke-linecap:butt;stroke-linejoin:miter;stroke-miterlimit:4;stroke-opacity:1;stroke-dasharray:none"
       d="m 98.188596,178.03407 c 17.701194,35.02711 -1.06747,66.00415 -25.26964,51.54084"
       id="path3846"
       inkscape:connector-curvature="0"
       sodipodi:nodetypes="cc" />
    <path
       style="fill:none;stroke:#000000;stroke-width:1;stroke-linecap:butt;stroke-linejoin:miter;stroke-miterlimit:4;stroke-opacity:1;stroke-dasharray:none"
       d="m 100.0376,176.57028 c 10.55437,21.52061 8.85481,41.2262 0.21086,51.81418 -6.673344,8.17417 -17.469194,10.1062 -29.409634,2.0379"
       id="path3848"
       inkscape:connector-curvature="0"
       sodipodi:nodetypes="csc" />
    <path
       style="fill:none;stroke:#000000;stroke-width:1;stroke-linecap:butt;stroke-linejoin:miter;stroke-miterlimit:4;stroke-opacity:1;stroke-dasharray:none"
       d="m 102.60002,188.76091 2.07012,-0.54477"
       id="path3850"
       inkscape:connector-curvature="0" />
    <path
       style="fill:none;stroke:#000000;stroke-width:1;stroke-linecap:butt;stroke-linejoin:miter;stroke-miterlimit:4;stroke-opacity:1;stroke-dasharray:none"
       d="m 104.88804,200.14652 2.28802,0.32686"
       id="path3852"
       inkscape:connector-curvature="0" />
    <path
       style="fill:none;stroke:#000000;stroke-width:1;stroke-linecap:butt;stroke-linejoin:miter;stroke-miterlimit:4;stroke-opacity:1;stroke-dasharray:none"
       d="m 104.77909,211.04185 2.12459,1.03506"
       id="path3854"
       inkscape:connector-curvature="0" />
    <path
       style="fill:none;stroke:#000000;stroke-width:1;stroke-linecap:butt;stroke-linejoin:miter;stroke-miterlimit:4;stroke-opacity:1;stroke-dasharray:none"
       d="m 102.16421,220.2484 1.96116,1.79773"
       id="path3856"
       inkscape:connector-curvature="0" />
    <path
       style="fill:none;stroke:#000000;stroke-width:1;stroke-linecap:butt;stroke-linejoin:miter;stroke-miterlimit:4;stroke-opacity:1;stroke-dasharray:none"
       d="m 97.697126,227.27589 1.68877,2.07011"
       id="path3859"
       inkscape:connector-curvature="0" />
    <path
       style="fill:none;stroke:#000000;stroke-width:1;stroke-linecap:butt;stroke-linejoin:miter;stroke-miterlimit:4;stroke-opacity:1;stroke-dasharray:none"
       d="m 91.977076,231.63402 1.25296,2.28802"
       id="path3861"
       inkscape:connector-curvature="0" />
    <path
       style="fill:none;stroke:#000000;stroke-width:1;stroke-linecap:butt;stroke-linejoin:miter;stroke-miterlimit:4;stroke-opacity:1;stroke-dasharray:none"
       d="m 85.439876,233.21384 0.81715,2.39698"
       id="path3863"
       inkscape:connector-curvature="0" />
    <path
       style="fill:none;stroke:#000000;stroke-width:1;stroke-linecap:butt;stroke-linejoin:miter;stroke-miterlimit:4;stroke-opacity:1;stroke-dasharray:none"
       d="m 78.684776,232.17879 0.27238,2.34249"
       id="path3865"
       inkscape:connector-curvature="0" />
    <path
       style="fill:none;stroke:#000000;stroke-width:1;stroke-linecap:butt;stroke-linejoin:miter;stroke-miterlimit:4;stroke-opacity:1;stroke-dasharray:none"
       d="m 71.820716,231.03478 0.16343,-0.87163"
       id="path3867"
       inkscape:connector-curvature="0" />
    <path
       style="fill:#000000;fill-opacity:1;stroke:none"
       d="m 82.594696,196.06037 13.61181,-16.44024 -14.67247,11.13694 z"
       id="path3921"
       inkscape:connector-curvature="0"
       sodipodi:nodetypes="cccc" />
    <path
       style="fill:none;stroke:#000000;stroke-width:1;stroke-linecap:butt;stroke-linejoin:miter;stroke-miterlimit:4;stroke-opacity:1;stroke-dasharray:none"
       d="m 82.594696,196.50231 15.73313,11.49048 -14.93763,-3.97747"
       id="path3923"
       inkscape:connector-curvature="0"
       sodipodi:nodetypes="ccc" />
    <path
       style="fill:#000000;fill-opacity:1;stroke:none"
       d="m 83.036636,200.3914 15.02602,7.42462 -14.76085,-3.8007 z"
       id="path3925"
       inkscape:connector-curvature="0" />
    <path
       style="fill:none;stroke:#000000;stroke-width:1;stroke-linecap:butt;stroke-linejoin:miter;stroke-miterlimit:4;stroke-opacity:1;stroke-dasharray:none"
       d="m 83.301806,208.43474 7.07107,19.88737 -8.04334,-12.28598"
       id="path3927"
       inkscape:connector-curvature="0" />
    <path
       style="fill:#000000;fill-opacity:1;stroke:none"
       d="m 82.771476,213.11932 7.33623,14.67246 -7.77817,-11.66726 z"
       id="path3929"
       inkscape:connector-curvature="0" />
  </g>
  <g
     inkscape:groupmode="layer"
     id="layer2"
     inkscape:label="sphere"
     style="display:inline"
     transform="translate(0,-128)">
    <path
       id="path3839"
       style="fill:url(#radialGradient3853);fill-opacity:1;stroke:none"
       d="m 96.017096,179.56963 c -8.18461,-19.89569 -22.60567,-33.00924 -44.2573,-38.25953 31.3985,24.10419 38.05726,71.67976 25.84446,85.53908 -5.2062,3.37602 -10.54699,5.44103 -17.15472,6.6247 C 34.018588,238.20857 8.7538513,220.62027 4.0191673,194.18933 -0.71551972,167.75838 16.872774,142.49365 43.303716,137.75896 c 26.43095,-4.73468 51.6409,12.54775 56.37558,38.9787 z"
       inkscape:connector-curvature="0"
       sodipodi:nodetypes="cccssscc" />
    <path
       id="path3843"
       style="fill:url(#radialGradient3891);fill-opacity:1;stroke:#000000;stroke-width:1px;stroke-linecap:butt;stroke-linejoin:miter;stroke-opacity:1"
       d="m 106.83198,171.32753 c 29.91391,28.57851 17.35326,51.49882 0.0781,65.76062 -2.28126,1.88333 -5.07065,3.62253 -7.939484,4.78484 C 126.65498,226.698 113.92569,182.4182 106.7873,171.32753"
       inkscape:connector-curvature="0"
       sodipodi:nodetypes="cscc" />
  </g>
  <g
     style="display:inline"
     inkscape:label="continents blur"
     id="g3819"
     inkscape:groupmode="layer"
     transform="translate(0,-128)">
    <path
       sodipodi:nodetypes="cccccccccccccccccccccccccccccccccccccccccccccccccccccccccccccccccccccccccccccccccccccccccccccccccccccccccccccccccccccccccccccccccccccccccccccccccccccccccccccccccccccccccccccccccccccccccccccccccccccccccccccccccccccccccccccccccccccccccccccccccccccccccccccccccccccccccccccccccccccccccccccccccccccccccccccccccccccccccccccccccccccccccccccccccccccccccc"
       inkscape:connector-curvature="0"
       id="path3821"
       d="m 122,18.21875 c 0.59589,1.246885 3.01763,1.488444 3.40585,2.125 -1.21067,-0.362498 -5.31344,-0.491894 -2.4682,1.09375 1.19095,0.441944 3.09624,2.591393 3.9682,0.59375 -2.40754,-1.252086 0.70586,-0.397136 1.5311,0.15625 1.31934,0.961535 3.29397,0.04248 4.31205,1.03125 -1.29143,0.874477 2.84899,1.369404 0.0626,1.09375 -2.06855,-0.548498 -1.97126,1.393397 0,1.46875 1.5082,0.746812 -0.6219,2.401557 -1.65605,1.09375 -1.46902,-0.796551 -5.33625,0.564905 -3.2185,2.15625 1.76666,0.455584 0.79389,2.807087 2.56215,3.3125 0.6036,0.686813 2.11298,1.212626 1.18715,2.53125 28.47746,12.996291 50.07869,38.250282 61.5,67.09375 1.5709,-1.85757 5.99892,-2.811256 4.5626,-5.8125 1.1803,-2.124947 1.5905,2.62788 2.68826,0.227756 C 194.36072,57.205822 161.11211,24.534936 122,18.21875 z m -37.4375,1.6875 C 82.067093,19.835605 79.744866,21.985403 77.5,21.5625 74.500375,20.101503 61.685388,26.97366 56.134035,29.919518 41.337111,38.469502 28.788571,51.114997 20.4375,65.9375 c 2.14555,-0.107138 2.088303,-2.855615 3.84375,-3.78125 0.467284,-1.239917 0.9827,-2.394746 1.375,-0.75 0.536691,-1.318775 1.292974,-2.520857 3.03125,-2.125 1.517352,-0.924379 2.059653,0.614096 0.53125,1.03125 -0.608836,0.924503 -1.553067,1.320995 0.09375,1.59375 0.710996,0.446439 3.150946,0.545478 2.1875,-0.75 -1.381337,0.657053 -0.305344,-2.912654 0.9375,-3.25 0.370751,-1.733331 2.260214,-1.569822 2.53125,-3.28125 -2.438036,0.490811 -2.003673,-1.331569 -0.125,-1.59375 2.337937,0.48462 0.504319,4.761497 4.1875,3.4375 3.978177,-0.519718 3.13835,-5.683394 5.875,-7.75 0.970207,-2.573591 3.907969,-3.846002 5.15625,-5.8125 -1.162312,1.393078 -3.214307,0.237478 -1.4375,-1 2.171291,-1.413035 4.620975,-2.936801 5.5,-5.5 -1.346232,-0.73558 -2.957189,1.864928 -4.625,2.03125 -1.763428,1.444912 -3.014501,4.275623 -5.75,3.65625 -1.422563,0.412365 -2.699849,2.185626 -3.875,2.28125 1.514887,-2.319434 4.218258,-3.018978 5.65625,-5.5 1.693603,-1.618313 3.816256,-2.917426 5.65625,-4.5 2.338741,-1.358859 4.586851,-3.784211 7.5,-3.5625 0.468369,1.396658 -2.350116,1.15639 -1.78125,2.53125 1.503664,0.452792 3.087994,-0.862178 4.25,-1.9375 1.449834,1.065912 3.86651,-1.978024 4.53125,-0.9375 -0.587015,1.204294 -3.131916,1.089339 -3.125,2.03125 2.528282,-1.177149 1.345355,0.599808 -0.15625,0.9375 -1.802115,1.371602 -4.592721,0.04344 -5.53125,2.5 -0.886437,1.252854 -3.859456,2.440694 -3,3.96875 0.261535,-1.054244 2.491575,-2.919576 1.3125,-0.9375 -1.886566,1.784649 2.472565,0.763556 2.71875,-0.59375 0.440855,-1.227845 2.807573,-2.122434 1.3125,-0.40625 0.335182,1.809094 2.970859,-0.79036 3.53125,-1.6875 2.132388,-2.559226 5.119183,-4.052741 7.625,-6.1875 1.834178,-0.326938 2.793169,-1.531849 3.71875,-2.71875 0.849174,-1.144553 -2.978784,-0.839527 -3.625,0.15625 -1.258803,0.561314 -3.014117,1.305383 -4.34375,1.40625 1.859995,-1.901993 4.93155,-2.918159 7.5625,-2.84375 0.795672,0.905097 2.590976,-0.242886 2.75,-1.125 -1.432526,0.515018 -3.938572,-0.256136 -1.21875,-0.03125 2.83331,0.09319 1.210867,-1.400804 -0.4375,-0.46875 -1.38107,-0.124986 -3.876881,2.024642 -4.46875,0.875 2.367504,-1.044602 5.556002,-1.644663 7.71875,-1.9375 0.984159,-0.538149 2.616284,-1.202106 3.71875,-2.03125 0.808617,-0.07107 0.103614,1.621594 -0.53125,1.53125 -1.395464,0.729902 -0.777272,1.511589 -1.96875,1.96875 -1.375023,-0.784991 -4.398544,1.395512 -3.34375,2.59375 1.15661,0.783068 2.587032,-3.053047 2.75,-1.28125 -1.477131,1.528526 2.248557,0.298077 3,0.875 1.421795,-1.267058 3.590391,0.258197 4.8125,-1.21875 2.425885,0.281557 1.423973,-1.140035 -0.15625,-1.34375 -1.756976,-0.140996 -1.832759,-1.06943 -0.4375,-1.71875 0.756405,-0.373124 1.362518,-1.981769 1.3125,-2.375 -0.973458,0.09617 -3.011711,1.280741 -1.6875,-0.21875 -0.236236,-0.103699 -0.628217,-0.204605 -0.9375,-0.28125 z m 36.15625,6.15625 c -0.32395,2.702633 4.56486,2.919017 4.7803,0.59375 -1.7755,0.298871 -3.26466,0.716725 -4.7803,-0.59375 z M 86.4375,26.96875 c -1.407076,0.350923 -1.838313,1.680104 -3.625,1.34375 C 82.072369,27.885139 80.155009,27.07345 81,28.625 c -0.706257,0.573119 -1.501135,1.092586 -1.59375,-0.0625 -1.148753,-0.191333 -2.753,1.114815 -0.875,1.78125 -1.354921,1.218676 -3.590515,2.075958 -5,3.625 -1.892519,0.186716 -1.887057,2.531816 -4.0625,2.21875 -1.601046,0.448411 -0.09188,1.229622 -1.65625,1.90625 -2.043724,1.133178 -4.894253,1.011947 -6.1875,3.34375 -2.258628,0.95632 -2.625938,3.575442 -4.875,4.71875 -1.272851,0.686323 -1.960129,1.943789 -0.6875,2.71875 -1.216563,0.868405 -1.601564,2.909965 0.40625,1.84375 3.83197,-1.641115 7.040918,-5.64026 11.53125,-4.875 2.096148,-1.691418 4.567789,-1.386508 7.03125,-0.96875 2.532415,-0.611652 5.156858,-1.139906 6.8125,-3.25 2.95874,-1.31382 5.364559,-3.42377 7.375,-5.90625 1.797635,-1.455838 3.439186,-3.298036 5.53125,-4 -1.276357,-0.370512 -3.629052,-0.838291 -1.65625,-2.09375 -0.189237,-1.297223 -2.351611,-2.137431 -3.625,-2 -1.287876,0.614086 -1.821908,-0.762869 -3.03125,-0.65625 z m 17.9375,7.21875 c -1.55917,0.278672 -3.82573,0.514765 -2.18735,2.5625 -0.35253,2.490564 1.66712,2.405243 2.03045,0.375 0.69007,-3.080808 1.3706,1.702286 2.34355,-0.28125 0.15692,-0.85325 -1.97669,-1.644796 -1.24985,-1.90625 2.57046,-0.10386 1.37826,-0.963654 -0.53125,-0.625 l -0.40625,-0.125 z m 6.5625,11.6875 c -2.97418,0.604173 -5.30116,2.59712 -7.56115,4.40625 -0.755,1.757945 -2.52487,2.921349 -3.1856,4.78125 -0.385824,1.085908 -1.766891,1.565752 -1.65625,2.625 -1.761092,-0.09667 -2.594379,1.525085 -4.19075,1.6875 -2.411023,0.585996 -0.195814,3.557543 -1.3125,5.0625 -0.01049,1.329295 1.27624,2.955506 2.59375,1.3125 0.914298,-0.801034 2.264953,-1.245135 3.25,-1.40625 0.249955,2.086639 0.340072,5.084733 2.4057,6.0625 1.60468,0.315116 1.88821,-0.639339 2.43675,-1.875 0.60967,-1.591936 0.71285,-3.618541 2.81175,-4 1.22595,-1.708384 -2.41363,-1.679354 -1.9365,-3.71875 0.15568,-2.235766 2.83535,-3.07865 3.2801,-4.8125 0.2799,-1.437745 0.9478,-3.241443 2.9051,-2.5 1.46524,1.420917 -1.21904,2.814632 -1.65465,4.15625 -0.90808,1.316828 -0.15995,3.712513 0.5933,4.84375 2.53269,1.507884 4.88385,-1.742423 7.46785,-1.03125 1.14914,-0.291268 2.22784,0.919199 0.49955,1.28125 -1.47414,2.048728 -4.45657,0.443322 -5.99915,2.25 0.82513,1.041254 2.50109,2.73972 0.9056,3.96875 -1.15724,-0.37079 -3.00705,-2.635013 -2.6555,0.1875 -0.0652,1.951142 -0.0775,4.573268 -2.3735,5.03125 -1.73183,-1.588343 -3.6459,0.256904 -5.4674,0.84375 -1.43167,0.704975 -2.146276,-1.818486 -3.5934,-0.34375 -2.215666,0.408875 -3.698913,-3.149478 -1.21935,-3.875 0.268798,-0.883535 0.341188,-3.601812 -0.96875,-2 -1.708713,0.35309 -1.281868,3.122899 -1.0625,4.5 -0.241209,2.582378 -4.079133,1.118192 -5.125,3.09375 -1.393059,1.122511 -2.583508,2.656678 -4.15625,3.5625 -0.949244,1.524703 -2.997633,2.598079 -4.5625,2.53125 -1.261613,-1.433428 -0.617804,0.457819 -1.3125,1.0625 -1.001163,0.02582 -5.018003,-1.412601 -3.53125,0.65625 2.434703,1.355046 4.242564,4.550353 2.75,7.40625 -0.272645,2.175888 -2.605425,3.178848 -4.34375,1.84375 -2.042609,-0.187532 -4.115066,-0.488452 -5.875,-1.5625 -0.711469,1.149114 -2.612746,0.453883 -1.6875,2.40625 -0.757016,2.15625 -0.918367,5.175336 -2.84375,6.90625 -0.53274,1.16153 1.968727,0.0513 0.90625,1.625 -1.606135,1.74197 0.972023,2.51155 2.4375,1.8125 1.036985,0.58431 0.07157,4.18323 1.96875,2.4375 0.862506,-1.53083 2.73148,0.64554 4.09375,-0.0625 1.458623,0.6015 1.876921,-1.57397 3.1875,-1.84375 0.843937,-1.03514 1.477863,-1.70791 1.46875,-3.125 1.059844,-1.98864 3.293449,-3.517282 5.53125,-3.8125 0.909611,-0.937279 -1.010587,-3.499413 1.34375,-3.15625 1.012861,-1.544589 2.02817,-0.271504 2.78125,0.59375 1.727121,1.019021 2.581338,-1.860056 4.15625,-1.59375 1.451161,-1.700784 3.501166,0.195922 3.75,1.90625 0.595429,2.213203 2.568019,3.292781 4.531,4.21875 1.83247,1.05837 5.36822,3.16194 3.43665,5.78125 -1.39265,1.20161 -3.91288,0.0135 -5.28015,0.9375 0.658714,1.6473 3.16207,1.02536 4.1237,2.5625 0.18816,-1.23952 -0.26412,-2.8666 1.62595,-3 0.87895,-1.12477 2.35348,-2.17849 0.96825,-3.53125 -0.17485,-2.58889 2.15085,0.37017 2.96785,-0.34375 -0.80787,-2.06156 -3.58588,-2.26444 -5.06115,-3.9375 -2.99343,0.138253 -2.44005,-3.875774 -4.7496,-4.875 -1.110387,-1.298476 0.906317,-4.115809 2.09365,-2.5 -0.68035,1.03178 1.55062,1.126774 1.1871,2.5 1.32657,0.363926 2.22076,1.629709 3.71775,1.65625 1.07767,1.120681 2.35652,2.190584 3.8424,2.65625 1.35433,1.005636 0.57166,2.17778 0.4374,3.5625 0.8898,0.71059 1.77091,1.1102 2.0612,2.34375 1.56619,0.59351 -0.40829,1.57182 0.3749,2.625 0.59603,0.73959 1.14263,1.05939 1.7182,1.90625 1.04076,0.61492 1.46207,1.89976 2.0307,0.5 1.0911,1.09979 0.14725,-1.17795 -0.1562,-1.6875 0.76848,-0.2696 0.17474,-1.87439 1.2497,-0.6875 1.79441,0.043 -0.0469,-2.66508 -1.39995,-2.28125 -0.61075,-0.58043 0.64695,-1.74681 -0.781,-2.125 -0.75977,-1.76304 0.92344,-1.76321 1.24945,-0.40625 0.62756,-0.49192 0.21778,-2.220703 1.6245,-1.78125 1.28522,-1.062071 2.62176,0.35826 3.7807,0.15625 0.51974,-1.071724 3.82309,-1.718424 2.6243,-0.0625 -1.35415,-0.15564 -3.44094,0.53106 -3.4058,1.75 1.06536,0.15632 0.62826,1.30657 0.93705,2.0625 0.43528,1.48649 -0.88158,0.53374 -0.90465,1.4375 2.05184,-0.8913 1.37893,2.56185 3.43645,2.34375 0.19166,1.0959 1.95518,-0.90518 1.93665,0.75 1.32787,1.04864 2.10271,-0.46404 2.4993,-1.28125 1.76324,-0.77691 2.83787,2.68498 4.49875,0.40625 1.31238,-0.15954 1.43439,-1.92151 2.9995,-1.96875 1.49749,0.0512 -0.62074,1.98994 0.65615,2.875 0.65781,2.22495 -0.0388,4.71335 -0.1249,6.96845 0.10117,3.24009 -3.9249,2.73829 -6.0609,2.468 -1.51775,0.89424 -2.84516,2.59143 -4.81135,1.59305 -1.80189,0.19259 -3.41207,-1.45413 -5.0306,-0.1875 -0.52302,-2.51579 -4.23887,0.70412 -4.4365,-2.12445 -2.54384,-0.84357 -5.9703,1.70708 -4.1244,4.34235 -0.72375,1.49651 -2.61395,1.51197 -3.74925,0.4059 -1.37953,-0.96276 -3.02833,-0.84701 -4.5306,-1.0616 -0.75765,-1.35541 -1.27623,-2.83672 -3.1239,-2.9365 -1.318188,-1.43011 -3.829196,0.78415 -4.18735,-0.84345 -1.14561,-0.28426 -0.764062,-1.89975 -2.15625,-1.56185 -0.530817,-1.93219 2.635584,-2.17781 1.0903,-4.31195 -1.311693,-0.69962 0.906031,-2.60173 -1.1875,-2.5317 -1.361572,-1.18917 -2.853043,1.5183 -4.5625,0.0312 -1.550816,-1.19682 -3.473809,1.44874 -4.84375,-0.40625 -1.212152,0.0113 -2.465038,0.39676 -3.59375,0.0937 -1.327371,0.79651 -3.208289,0.0925 -4.03125,1.75 -1.176737,-0.22803 -1.969702,0.40574 -2.875,0.93755 -1.028224,-0.38631 -1.850661,2.47452 -2.25,0.2188 0.693735,-2.2806 -3.059479,-0.82846 -3.5625,-2.8126 -1.570646,-0.0129 -0.872251,2.44525 -2.46875,2.78105 -1.434572,1.32807 -3.564095,1.37062 -4.375,3.31095 -1.760257,1.35914 -0.79176,3.87996 -2.5625,5.1547 -0.990354,1.38863 -2.903435,1.64247 -4.5,1.7176 -1.846175,0.006 -1.244468,3.41487 -3.65625,2.3433 -0.554017,1.07567 -0.31385,2.73723 -1.6875,3.46815 -1.360495,1.1422 -1.550184,3.11655 -3.25,3.90505 -0.05271,1.83127 1.46667,3.13298 0.5625,4.78055 1.074488,2.92968 -0.577594,5.78967 -2.125,8.15485 0.958214,1.06798 0.993229,2.55277 0.34375,3.9367 0.669394,1.44672 0.511929,1.05061 1.03125,2.7806 1.198513,3.04986 5.385149,4.24135 5.15625,7.9663 1.486467,1.61162 3.459133,2.95152 4.46875,4.9985 2.086473,0.64369 3.052039,2.63652 5.0625,3.24865 3.426678,-0.48997 6.860093,0.14091 10,1.28055 3.456088,-0.76258 6.984205,-0.43841 10.46875,-0.6868 2.69682,-0.44592 3.044354,2.55182 4.40625,3.81135 2.458844,0.52856 5.557755,-0.30905 7.46875,1.7489 2.120728,2.20436 -0.558944,5.30808 -0.78125,7.56205 1.775208,2.44836 4.901782,3.28476 6.78125,5.56065 0.553149,2.04251 3.76551,3.74643 1.78085,5.8116 1.94483,0.54356 1.75434,2.6339 0.2189,3.624 -1.79705,1.3036 -2.961736,5.09597 -0.125,5.6553 1.87514,1.29156 4.10732,2.41438 4.49865,4.87355 1.51103,1.35167 3.773,1.74641 5.37415,2.77985 3.55152,1.32374 7.22795,-1.06826 10.93685,-0.749 4.17595,-0.87395 8.61168,-2.23112 11.7179,-5.15475 1.3268,-1.94882 4.59149,-1.86061 5.593,-3.9051 -0.50091,-1.42166 -0.23711,-1.94513 1.3122,-2.46815 2.96466,-2.80506 7.42345,-3.6627 9.6542,-6.9976 0.27644,-1.64475 1.8827,-4.06335 -0.34395,-4.93685 0.1798,-1.39503 0.50507,-2.99265 -0.8434,-3.78075 1.25426,-4.24011 4.86951,-7.20485 7.466,-10.7163 1.12538,-2.91956 3.75653,-4.72908 5.7174,-6.90465 2.4553,-4.05915 6.25515,-8.15992 5.37255,-13.37315 0.29395,-1.31601 -0.0547,-4.20769 -1.4371,-2.03125 -2.60856,0.42737 -4.1895,2.54163 -6.34225,3.74845 -1.09371,1.11703 -2.48623,-0.731 -3.40575,-0.9375 1.6868,-0.99719 0.13003,-2.11161 -1.25,-2.3742 -1.67154,-0.84059 -2.58211,-2.73035 -4.71745,-2.62375 -1.92528,-1.15229 -1.77626,-4.90104 -4.561,-4.93595 -0.45671,-2.66877 -0.96611,-5.96646 -3.655,-7.21785 -1.65925,-1.21546 -1.8558,-3.45678 -3.3117,-4.96835 -1.0728,-1.70596 -1.67679,-3.85891 -3.49895,-4.9992 -0.73587,-0.98848 -1.46421,-2.33688 -1.56175,-3.46815 1.56978,-0.27933 0.93155,1.96568 2.2807,2.31195 -0.0512,1.85374 1.80804,1.84356 2.9055,0.99985 1.33309,0.46241 2.2891,2.44675 3.3422,3.6241 1.56324,1.15444 1.70936,3.83045 4.12415,3.4679 0.36055,1.17895 1.40027,2.15811 1.7179,3.37435 0.14108,3.13709 4.62827,2.78357 4.8421,5.93575 2.35902,0.69393 2.61147,3.12145 2.4677,5.28005 0.74029,1.49479 2.09469,4.63167 3.96775,2.124 1.97455,-2.46194 5.53759,-3.32807 7.2798,-6.02975 -0.17023,-3.37109 -0.13709,-6.98826 -1.18685,-10.1865 -0.17832,-3.54757 -1.45448,-6.8395 -1.84265,-10.37425 0.0614,-2.04061 -1.28438,-2.57869 -2.93695,-3.1552 -1.66296,-1.15429 -3.22726,-4.49776 -0.2806,-4.87425 1.96391,0.34982 0.0897,-1.97999 0.2506,-3.03095 -0.76605,-2.90503 -1.91473,-5.67948 -2.873,-8.375 -0.57534,-0.96394 -0.75565,-1.818016 -1.21845,-3.15625 -1.78143,0.418747 -2.96481,-0.346629 -2.68695,-2.25 -0.30095,-1.57315 0.84952,-4.157346 -1.59365,-4.25 -2.42304,-1.84772 -5.6465,-4.591475 -4.5297,-8.0625 0.88792,-1.631908 2.16217,-3.684954 0.24925,-5.40625 -0.89566,-2.305479 -2.89794,-4.049159 -3.56115,-6.125 -1.40059,-2.680547 -2.91188,-5.833795 -5.1233,-8.03125 -1.7566,-2.740921 -3.18002,-5.713457 -5.46345,-8.17845 -0.94468,-1.935681 -2.9084,-3.200141 -3.74875,-5.21875 -1.23847,-0.963009 -2.31008,-4.263955 -3.9679,-3.09375 0.20092,2.105738 -3.34542,2.342152 -2.8426,4.5625 0.9568,1.858319 -2.79521,0.696784 -2.4055,2.125 1.92876,1.026542 -1.7091,0.980124 -2.0933,-0.21875 -0.39149,-1.484985 -1.45499,-1.907522 -2.56185,-2.6875 0.18352,-1.773544 2.6595,0.801063 3.99975,0.21875 2.84585,0.419571 2.21864,-2.937244 -1e-4,-3.0625 -2.40652,-0.59464 -5.09985,-0.0122 -6.8809,-1.9375 -0.89582,-0.118113 -1.63722,-0.712629 -2.53165,-0.8125 z M 74.25,49 c -2.103994,-0.0019 0.749901,2.280012 -1.25,1.875 -0.87244,0.329875 0.962658,1.445606 -0.75,1.53125 0.530833,0.299009 1.900945,2.505929 3.375,1.21875 1.843038,-0.336645 4.623982,-1.171839 3.34375,-3.5625 C 77.598609,50.323782 76.615548,49.785873 75.25,50.375 74.268986,50.232473 75.55704,49.06852 74.25,49 z M 38,57.25 c -1.714362,1.254191 -4.688372,2.190544 -4.1875,4.75 0.742832,0.625483 0.144741,3.606992 1.21875,1.71875 -0.154829,-1.452256 0.558993,-2.65257 1.59375,-3.1875 C 35.990045,58.784604 37.422642,58.654009 38,57.25 z m 45.0625,7.125 c -1.642973,-0.05867 -2.152368,1.401093 -3.46875,1.9375 0.431112,0.919192 -0.772189,1.167704 -0.25,2.15625 -1.094581,0.578066 1.283824,1.149427 0.21875,2.375 1.250119,0.279692 1.938208,1.098037 1.53125,2.65625 -0.50966,1.191754 -2.419107,0.334842 -1.625,2.4375 -1.891325,0.402171 -1.930203,1.062811 -0.03125,1.1875 1.426602,1.172148 -1.31094,0.490336 -1.84375,1.46875 -2.408709,1.510204 1.730404,1.037728 2.9375,0.9375 1.917646,-0.530687 4.275889,0.550616 5.09375,-1.59375 1.218402,-1.402101 0.140825,-2.273603 -0.90625,-3 -0.156263,-1.883495 -1.606683,-2.890602 -1.625,-4.90625 -2.203639,-1.031599 0.98913,-2.233785 1.1875,-3.40625 -0.666156,-0.447553 -3.265275,0.123425 -1.625,-1.125 0.629999,-0.125264 1.21904,-0.730935 0.40625,-1.125 z m -6.65625,5.4375 c -1.387873,0.647932 -0.679147,2.726753 -2.1875,1.3125 -1.28422,0.729897 0.0027,2.317446 -1.1875,3.28125 -1.935767,0.589688 -0.513,2.877436 1,1.28125 2.069914,0.02525 3.333093,-1.690736 3.28125,-3.5625 1.321075,-0.659927 0.654877,-2.767106 -0.90625,-2.3125 z M 93.5625,96.90625 c -1.526936,1.617339 1.441606,3.13642 0.78125,0.65625 0.149747,-0.57342 -0.441459,-0.584872 -0.78125,-0.65625 z m 0,0 c -0.45049,-0.217324 -0.262041,0.686057 0,0 z m -0.125,3.46875 c -1.197924,0.32587 -1.318385,4.12896 -0.125,4.125 1.527726,-0.4438 1.501872,-3.57827 0.125,-4.125 z M 134.59375,109 c -0.94725,0.20193 -4.08408,1.9554 -1.5934,1.96875 1.39304,0.0626 1.15764,-1.2659 1.5934,-1.96875 z m -16.375,2.03125 c -2.08279,0.86752 3.28255,2.62821 3.49945,0.46865 -1.11207,-0.32408 -2.45127,0.10348 -3.49945,-0.46865 z m -110.25,10.5625 c 1.2970484,17.04831 7.183575,33.92864 17,47.8438 1.426921,-2.13428 1.622729,-4.74234 0.1875,-6.8122 -0.71945,-2.69157 -3.824921,-3.89978 -4.84375,-6.5926 -1.561226,-2.22499 -3.005072,-4.48808 -4.34375,-6.8435 -1.484016,-3.04174 -2.158841,-6.17912 -3.625,-9.21805 -1.743689,-3.22643 -1.645468,-7.14312 -2.15625,-10.78095 -1.0440377,-2.43591 -0.4724277,-5.39954 -2.21875,-7.5965 z m 155.84375,61.375 c -3.74205,1.39456 -6.14011,4.77238 -9.37415,7.03005 0.0901,2.09949 -0.44583,3.60082 -2.24975,4.68715 -1.83143,1.94909 1.04604,1.99337 2.15645,0.71875 2.6458,-1.83168 3.64212,-5.37153 6.9677,-6.3741 0.97405,-1.95877 1.79337,-3.99466 2.49975,-6.06185 z"
       style="fill:#000000;fill-opacity:1;stroke:none;filter:url(#filter3829)"
       transform="matrix(0.5,0,0,0.5,-0.57873672,128.58646)" />
    <path
       sodipodi:nodetypes="cccccccccccccccccccccccccccc"
       style="fill:#000000;fill-opacity:1;stroke:none;filter:url(#filter3837)"
       d="m 230,107.625 c -1.83661,1.62255 -0.31894,4.78906 -1.53065,6.9061 0.18905,2.48127 -1.47875,7.25581 0.8439,8.15645 1.04027,-0.57343 3.91152,0.43777 2.74995,-1.56215 -3.12455,-2.56011 -0.50285,-7.33043 -1.43725,-10.71855 -0.40455,-0.86294 0.7926,-2.71983 -0.62595,-2.78185 z m 6.75,3.5 c -2.62956,0.19885 -1.91927,2.11769 -0.2503,2.8746 -1.15457,0.87791 -3.25576,0.30455 -1.8436,2.81255 0.20703,2.55921 2.6975,4.51871 2.5621,6.875 -1.01059,-0.8609 -5.36722,-1.62173 -3.0936,0.21875 1.78326,1.91745 -2.48844,1.73278 -2.84315,3.53055 -2.98738,3.9811 1.75617,10.8726 1.01137,15.91027 1.45935,11.20148 0.7661,22.8758 -0.23007,33.83938 1.01622,2.29188 0.26167,4.85977 0.99965,7.12475 -0.65195,1.98682 -1.0855,4.37563 -3.62455,4.24945 0.16441,2.94763 -8.1702,13.52775 -4.21885,13.18755 1.51916,-0.18072 2.77749,-2.08019 3.6872,-2.0934 1.26976,0.1623 2.82383,-2.11903 4.2185,-3.1244 1.27075,-0.92002 1.85495,-3.28993 3.31195,-3.4996 3.88126,-1.20772 7.65889,-11.97707 10.11053,-16.85005 8.94644,-21.65618 3.15655,-46.33771 -9.79718,-65.0554 z m -9.9375,90.96875 c -2.15006,1.61744 -3.62421,4.23439 -6.374,4.9983 -1.02324,2.96942 -12.96159,14.26416 -6.8125,9.1564 3.48245,-2.8499 7.3234,-5.50506 10.8107,-8.4348 2.03677,-0.87669 3.90582,-3.00102 4.24945,-5.09305 -0.56237,-0.9832 -1.69754,0.93456 -1.87365,-0.62685 z"
       id="path3823"
       inkscape:connector-curvature="0"
       transform="matrix(0.5,0,0,0.5,-0.57873672,128.58646)" />
  </g>
  <g
     inkscape:groupmode="layer"
     id="layer4"
     inkscape:label="continents"
     style="display:inline"
     transform="translate(0,-128)">
    <path
       style="fill:url(#radialGradient3875);fill-opacity:1;stroke:none"
       d="m 60.421266,137.69584 c 0.29794,0.62344 1.50881,0.74422 1.70292,1.0625 -0.60533,-0.18125 -2.65672,-0.24595 -1.2341,0.54687 0.59548,0.22097 1.54812,1.2957 1.9841,0.29688 -1.20377,-0.62605 0.35293,-0.19857 0.76555,0.0781 0.65967,0.48076 1.64699,0.0212 2.15603,0.51562 -0.64572,0.43724 1.42449,0.6847 0.0313,0.54688 -1.03428,-0.27425 -0.98563,0.69669 0,0.73437 0.7541,0.37341 -0.31095,1.20078 -0.82803,0.54688 -0.73451,-0.39828 -2.66812,0.28245 -1.60925,1.07812 0.88333,0.22779 0.39695,1.40354 1.28108,1.65625 0.3018,0.34341 1.05649,0.60631 0.59357,1.26563 14.23873,6.49814 25.03935,19.12514 30.75,33.54688 0.78545,-0.92879 2.99946,-1.40563 2.2813,-2.90625 0.59015,-1.06248 0.79525,1.31394 1.34413,0.11387 -3.03824,-19.58909 -19.66255,-35.92454 -39.2186,-39.08263 z m -18.71875,0.84375 c -1.24771,-0.0353 -2.40882,1.03957 -3.53125,0.82812 -1.49982,-0.7305 -7.907309,2.70558 -10.682986,4.17851 -7.398462,4.27499 -13.672732,10.59774 -17.8482667,18.00899 1.0727747,-0.0536 1.0441507,-1.42781 1.9218747,-1.89062 0.233642,-0.61996 0.49135,-1.19738 0.6875,-0.375 0.268345,-0.65939 0.646487,-1.26043 1.515625,-1.0625 0.758676,-0.46219 1.029826,0.30704 0.265625,0.51562 -0.304418,0.46225 -0.776534,0.6605 0.04687,0.79688 0.355498,0.22321 1.575473,0.27273 1.09375,-0.375 -0.690669,0.32852 -0.152672,-1.45633 0.46875,-1.625 0.185375,-0.86667 1.130107,-0.78491 1.265625,-1.64063 -1.219018,0.24541 -1.001837,-0.66578 -0.0625,-0.79687 1.168968,0.24231 0.252159,2.38074 2.09375,1.71875 1.989088,-0.25986 1.569175,-2.8417 2.9375,-3.875 0.485103,-1.2868 1.953984,-1.92301 2.578125,-2.90625 -0.581156,0.69653 -1.607154,0.11873 -0.71875,-0.5 1.085645,-0.70652 2.310487,-1.46841 2.75,-2.75 -0.673116,-0.36779 -1.478595,0.93246 -2.3125,1.01562 -0.881714,0.72246 -1.507251,2.13781 -2.875,1.82813 -0.711282,0.20618 -1.349925,1.09281 -1.9375,1.14062 0.757443,-1.15972 2.109129,-1.50949 2.828125,-2.75 0.846801,-0.80916 1.908128,-1.45871 2.828125,-2.25 1.16937,-0.67943 2.293425,-1.89211 3.75,-1.78125 0.234184,0.69833 -1.175058,0.5782 -0.890625,1.26563 0.751832,0.22639 1.543997,-0.43109 2.125,-0.96875 0.724917,0.53295 1.933255,-0.98902 2.265625,-0.46875 -0.293508,0.60214 -1.565958,0.54466 -1.5625,1.01562 1.264141,-0.58857 0.672677,0.2999 -0.07813,0.46875 -0.901058,0.6858 -2.296361,0.0217 -2.765625,1.25 -0.443219,0.62643 -1.929728,1.22035 -1.5,1.98438 0.130767,-0.52713 1.245787,-1.45979 0.65625,-0.46875 -0.943283,0.89232 1.236282,0.38177 1.359375,-0.29688 0.220427,-0.61392 1.403786,-1.06122 0.65625,-0.20312 0.167591,0.90454 1.485429,-0.39518 1.765625,-0.84375 1.066194,-1.27962 2.559591,-2.02637 3.8125,-3.09375 0.917093,-0.16347 1.396583,-0.76593 1.859373,-1.35938 0.42459,-0.57228 -1.48939,-0.41976 -1.812498,0.0781 -0.629402,0.28066 -1.507059,0.65269 -2.171875,0.70313 0.929997,-0.951 2.465773,-1.45908 3.781253,-1.42188 0.39783,0.45255 1.29548,-0.12144 1.375,-0.5625 -0.71627,0.25751 -1.96929,-0.12807 -0.60938,-0.0156 1.41666,0.0466 0.60544,-0.7004 -0.21875,-0.23437 -0.69053,-0.0625 -1.93844,1.01232 -2.234373,0.4375 1.183753,-0.52231 2.778003,-0.82234 3.859373,-0.96875 0.49208,-0.26908 1.30814,-0.60106 1.85938,-1.01563 0.40431,-0.0355 0.0518,0.8108 -0.26563,0.76563 -0.69773,0.36495 -0.38863,0.75579 -0.98437,0.98437 -0.68751,-0.39249 -2.19928,0.69776 -1.67188,1.29688 0.57831,0.39153 1.29352,-1.52653 1.375,-0.64063 -0.73856,0.76426 1.12428,0.14904 1.5,0.4375 0.7109,-0.63353 1.7952,0.1291 2.40625,-0.60937 1.21294,0.14077 0.71199,-0.57002 -0.0781,-0.67188 -0.87849,-0.0705 -0.91638,-0.53471 -0.21875,-0.85937 0.3782,-0.18657 0.68126,-0.99089 0.65625,-1.1875 -0.48673,0.0481 -1.50586,0.64037 -0.84375,-0.10938 -0.11812,-0.0519 -0.31411,-0.1023 -0.46875,-0.14062 z m 18.07812,3.07812 c -0.16197,1.35132 2.28243,1.45951 2.39015,0.29688 -0.88775,0.14943 -1.63233,0.35836 -2.39015,-0.29688 z m -17.14062,0.45313 c -0.70354,0.17546 -0.91916,0.84005 -1.8125,0.67187 -0.37007,-0.21368 -1.32875,-0.61952 -0.90625,0.15625 -0.35313,0.28656 -0.75057,0.54629 -0.79688,-0.0312 -0.57437,-0.0957 -1.3765,0.55741 -0.4375,0.89063 -0.67746,0.60933 -1.79526,1.03798 -2.5,1.8125 -0.94626,0.0934 -0.94353,1.2659 -2.031248,1.10937 -0.800523,0.22421 -0.04594,0.61481 -0.828125,0.95313 -1.021862,0.56658 -2.447127,0.50597 -3.09375,1.67187 -1.129314,0.47816 -1.312969,1.78772 -2.4375,2.35938 -0.636426,0.34316 -0.980065,0.97189 -0.34375,1.35937 -0.608282,0.4342 -0.800782,1.45498 0.203125,0.92188 1.915985,-0.82056 3.520459,-2.82013 5.765625,-2.4375 1.048074,-0.84571 2.283893,-0.69326 3.515623,-0.48438 1.26621,-0.30583 2.57843,-0.56995 3.40625,-1.625 1.47937,-0.65691 2.68228,-1.71188 3.6875,-2.95312 0.89882,-0.72792 1.71959,-1.64902 2.76563,-2 -0.63818,-0.18526 -1.81453,-0.41915 -0.82813,-1.04688 -0.0946,-0.64861 -1.1758,-1.06872 -1.8125,-1 -0.64394,0.30704 -0.91095,-0.38143 -1.51562,-0.32812 z m 8.96875,3.60937 c -0.77959,0.13934 -1.91287,0.25738 -1.09368,1.28125 -0.17626,1.24528 0.83356,1.20262 1.01523,0.1875 0.34503,-1.5404 0.6853,0.85114 1.17177,-0.14062 0.0785,-0.42663 -0.98834,-0.8224 -0.62492,-0.95313 1.28523,-0.0519 0.68913,-0.48183 -0.26563,-0.3125 l -0.20312,-0.0625 z m 3.28125,5.84375 c -1.48709,0.30209 -2.65058,1.29856 -3.78058,2.20313 -0.3775,0.87897 -1.26243,1.46067 -1.5928,2.39062 -0.19291,0.54296 -0.88344,0.78288 -0.82812,1.3125 -0.88055,-0.0483 -1.29719,0.76254 -2.09538,0.84375 -1.20551,0.293 -0.0979,1.77877 -0.65625,2.53125 -0.005,0.66465 0.63812,1.47775 1.29688,0.65625 0.45715,-0.40052 1.13247,-0.62257 1.625,-0.70312 0.12497,1.04332 0.17003,2.54236 1.20285,3.03125 0.80234,0.15755 0.9441,-0.31967 1.21837,-0.9375 0.30484,-0.79597 0.35643,-1.80927 1.40588,-2 0.61297,-0.8542 -1.20682,-0.83968 -0.96825,-1.85938 0.0778,-1.11788 1.41767,-1.53932 1.64005,-2.40625 0.13995,-0.71887 0.4739,-1.62072 1.45255,-1.25 0.73262,0.71046 -0.60952,1.40732 -0.82733,2.07813 -0.45404,0.65841 -0.08,1.85625 0.29665,2.42187 1.26635,0.75394 2.44193,-0.87121 3.73393,-0.51562 0.57457,-0.14564 1.11392,0.45959 0.24977,0.64062 -0.73707,1.02436 -2.22828,0.22166 -2.99957,1.125 0.41256,0.52063 1.25054,1.36986 0.4528,1.98438 -0.57862,-0.1854 -1.50353,-1.31751 -1.32775,0.0937 -0.0326,0.97557 -0.0387,2.28663 -1.18675,2.51562 -0.86592,-0.79417 -1.82295,0.12845 -2.7337,0.42188 -0.71584,0.35248 -1.07314,-0.90925 -1.7967,-0.17188 -1.10784,0.20444 -1.84946,-1.57474 -0.60968,-1.9375 0.1344,-0.44177 0.1706,-1.80091 -0.48437,-1 -0.85436,0.17655 -0.64094,1.56145 -0.53125,2.25 -0.12061,1.29119 -2.03957,0.5591 -2.5625,1.54688 -0.69653,0.56125 -1.29176,1.32833 -2.07813,1.78125 -0.47462,0.76235 -1.49881,1.29904 -2.28125,1.26562 -0.6308,-0.71671 -0.3089,0.22891 -0.65625,0.53125 -0.50058,0.0129 -2.509,-0.7063 -1.76562,0.32813 1.21735,0.67752 2.12128,2.27517 1.375,3.70312 -0.13633,1.08794 -1.30272,1.58942 -2.17188,0.92188 -1.0213,-0.0938 -2.05753,-0.24423 -2.937498,-0.78125 -0.355735,0.57455 -1.306373,0.22694 -0.84375,1.20312 -0.378508,1.07813 -0.459184,2.58767 -1.421875,3.45313 -0.26637,0.58076 0.984363,0.0256 0.453125,0.8125 -0.803068,0.87098 0.486011,1.25577 1.21875,0.90625 0.518492,0.29215 0.03578,2.09161 0.984375,1.21875 0.431253,-0.76542 1.365743,0.32277 2.046873,-0.0312 0.72931,0.30075 0.93846,-0.78699 1.59375,-0.92188 0.42197,-0.51757 0.73893,-0.85395 0.73438,-1.5625 0.52992,-0.99432 1.64672,-1.75864 2.76562,-1.90625 0.45481,-0.46864 -0.50529,-1.74971 0.67188,-1.57812 0.50643,-0.7723 1.01408,-0.13576 1.39062,0.29687 0.86356,0.50951 1.29067,-0.93003 2.07813,-0.79687 0.72558,-0.8504 1.75058,0.098 1.875,0.95312 0.29771,1.1066 1.28401,1.64639 2.2655,2.10938 0.91623,0.52918 2.68411,1.58097 1.71832,2.89062 -0.69632,0.60081 -1.95644,0.007 -2.64007,0.46875 0.32935,0.82365 1.58103,0.51268 2.06185,1.28125 0.0941,-0.61976 -0.13206,-1.4333 0.81297,-1.5 0.43948,-0.56238 1.17674,-1.08924 0.48413,-1.76562 -0.0874,-1.29445 1.07542,0.18508 1.48392,-0.17188 -0.40393,-1.03078 -1.79294,-1.13222 -2.53057,-1.96875 -1.49672,0.0691 -1.22003,-1.93789 -2.3748,-2.4375 -0.5552,-0.64924 0.45316,-2.0579 1.04682,-1.25 -0.34017,0.51589 0.77531,0.56339 0.59355,1.25 0.66329,0.18196 1.11038,0.81486 1.85888,0.82813 0.53883,0.56034 1.17826,1.09529 1.9212,1.32812 0.67716,0.50282 0.28583,1.08889 0.2187,1.78125 0.4449,0.3553 0.88545,0.5551 1.0306,1.17188 0.78309,0.29675 -0.20415,0.78591 0.18745,1.3125 0.29801,0.36979 0.57131,0.52969 0.8591,0.95312 0.52038,0.30746 0.73103,0.94988 1.01535,0.25 0.54555,0.5499 0.0736,-0.58897 -0.0781,-0.84375 0.38424,-0.1348 0.0874,-0.93719 0.62485,-0.34375 0.8972,0.0215 -0.0234,-1.33254 -0.69998,-1.14062 -0.30537,-0.29022 0.32348,-0.87341 -0.3905,-1.0625 -0.37988,-0.88152 0.46172,-0.88161 0.62473,-0.20313 0.31378,-0.24596 0.10889,-1.11035 0.81225,-0.89062 0.64261,-0.53104 1.31088,0.17913 1.89035,0.0781 0.25987,-0.53586 1.91154,-0.85921 1.31215,-0.0312 -0.67708,-0.0778 -1.72047,0.26553 -1.7029,0.875 0.53268,0.0782 0.31413,0.65329 0.46852,1.03125 0.21764,0.74325 -0.44079,0.26687 -0.45232,0.71875 1.02592,-0.44565 0.68946,1.28093 1.71822,1.17188 0.0958,0.54795 0.97759,-0.45259 0.96833,0.375 0.66393,0.52432 1.05135,-0.23202 1.24965,-0.64063 0.88162,-0.38845 1.41893,1.34249 2.24937,0.20313 0.65619,-0.0798 0.7172,-0.96076 1.49975,-0.98438 0.74875,0.0256 -0.31037,0.99497 0.32808,1.4375 0.3289,1.11248 -0.0194,2.35668 -0.0625,3.48423 0.0506,1.62004 -1.96245,1.36914 -3.03045,1.234 -0.75888,0.44712 -1.42258,1.29571 -2.40568,0.79652 -0.90094,0.0963 -1.70603,-0.72706 -2.5153,-0.0937 -0.26151,-1.25789 -2.11943,0.35206 -2.21825,-1.06222 -1.27192,-0.42179 -2.98515,0.85354 -2.0622,2.17117 -0.36187,0.74826 -1.30697,0.75599 -1.87462,0.20295 -0.68977,-0.48138 -1.51417,-0.4235 -2.2653,-0.5308 -0.37883,-0.6777 -0.63812,-1.41836 -1.56195,-1.46825 -0.6591,-0.71505 -1.9146,0.39208 -2.09368,-0.42172 -0.5728,-0.14213 -0.38203,-0.94988 -1.07812,-0.78093 -0.26541,-0.96609 1.31779,-1.0889 0.54515,-2.15597 -0.65585,-0.34981 0.45301,-1.30087 -0.59375,-1.26585 -0.68079,-0.59459 -1.42652,0.75915 -2.28125,0.0156 -0.77541,-0.59841 -1.73691,0.72437 -2.42188,-0.20313 -0.60607,0.006 -1.23252,0.19838 -1.79687,0.0468 -0.66369,0.39826 -1.60415,0.0463 -2.01563,0.875 -0.58837,-0.11401 -0.98485,0.20287 -1.4375,0.46878 -0.51411,-0.19316 -0.92533,1.23726 -1.125,0.1094 0.34687,-1.1403 -1.529738,-0.41423 -1.781248,-1.4063 -0.785323,-0.006 -0.436126,1.22262 -1.234375,1.39052 -0.717286,0.66404 -1.782048,0.68531 -2.1875,1.65548 -0.880129,0.67957 -0.39588,1.93998 -1.28125,2.57735 -0.495177,0.69431 -1.451718,0.82123 -2.25,0.8588 -0.923088,0.003 -0.622234,1.70743 -1.828125,1.17165 -0.277009,0.53783 -0.156925,1.36861 -0.84375,1.73407 -0.680248,0.5711 -0.775092,1.55828 -1.625,1.95253 -0.02636,0.91563 0.733335,1.56649 0.28125,2.39027 0.537244,1.46484 -0.288797,2.89484 -1.0625,4.07743 0.479107,0.53399 0.496614,1.27638 0.171875,1.96835 0.334697,0.72336 0.255964,0.5253 0.515625,1.3903 0.599256,1.52493 2.692574,2.12067 2.578125,3.98315 0.743233,0.80581 1.729566,1.47576 2.234375,2.49925 1.043236,0.32184 1.526019,1.31826 2.53125,1.62432 1.713339,-0.24498 3.430046,0.0705 4.999998,0.64028 1.72805,-0.38129 3.4921,-0.21921 5.23438,-0.3434 1.34841,-0.22296 1.52217,1.27591 2.20312,1.90567 1.22942,0.26428 2.77888,-0.15452 3.73438,0.87445 1.06036,1.10218 -0.27948,2.65404 -0.39063,3.78103 0.88761,1.22418 2.45089,1.64238 3.39063,2.78032 0.27657,1.02126 1.88275,1.87322 0.89042,2.9058 0.97242,0.27178 0.87717,1.31695 0.10945,1.812 -0.89852,0.6518 -1.48087,2.54799 -0.0625,2.82765 0.93757,0.64578 2.05366,1.20719 2.24933,2.43678 0.75551,0.67583 1.8865,0.8732 2.68707,1.38992 1.77576,0.66187 3.61398,-0.53413 5.46843,-0.3745 2.08797,-0.43697 4.30584,-1.11556 5.85895,-2.57737 0.6634,-0.97441 2.29574,-0.93031 2.7965,-1.95255 -0.25046,-0.71083 -0.11856,-0.97257 0.6561,-1.23408 1.48233,-1.40253 3.71172,-1.83135 4.8271,-3.4988 0.13822,-0.82237 0.94135,-2.03167 -0.17198,-2.46842 0.0899,-0.69752 0.25254,-1.49633 -0.4217,-1.89038 0.62713,-2.12005 2.43476,-3.60242 3.733,-5.35815 0.56269,-1.45978 1.87827,-2.36454 2.8587,-3.45232 1.22765,-2.02958 3.12758,-4.07996 2.68628,-6.68658 0.14697,-0.658 -0.0273,-2.10384 -0.71855,-1.01562 -1.30428,0.21368 -2.09475,1.27081 -3.17113,1.87422 -0.54685,0.55852 -1.24311,-0.3655 -1.70287,-0.46875 0.8434,-0.49859 0.065,-1.0558 -0.625,-1.1871 -0.83577,-0.42029 -1.29106,-1.36517 -2.35873,-1.31187 -0.96264,-0.57615 -0.88813,-2.45052 -2.2805,-2.46798 -0.22835,-1.33438 -0.48305,-2.98323 -1.8275,-3.60892 -0.82962,-0.60773 -0.9279,-1.72839 -1.65585,-2.48418 -0.5364,-0.85298 -0.83839,-1.92945 -1.74947,-2.4996 -0.36794,-0.49424 -0.73211,-1.16844 -0.78088,-1.73407 0.78489,-0.13967 0.46578,0.98284 1.14035,1.15597 -0.0256,0.92687 0.90402,0.92178 1.45275,0.49993 0.66655,0.2312 1.14455,1.22337 1.6711,1.81205 0.78162,0.57722 0.85468,1.91522 2.06208,1.73395 0.18027,0.58947 0.70013,1.07905 0.85895,1.68717 0.0705,1.56855 2.31413,1.39179 2.42105,2.96788 1.17951,0.34696 1.30573,1.56072 1.23385,2.64002 0.37014,0.7474 1.04734,2.31584 1.98387,1.062 0.98728,-1.23097 2.7688,-1.66403 3.6399,-3.01487 -0.0851,-1.68555 -0.0685,-3.49413 -0.59342,-5.09325 -0.0892,-1.77379 -0.72724,-3.41975 -0.92133,-5.18713 0.0307,-1.0203 -0.64219,-1.28934 -1.46847,-1.5776 -0.83148,-0.57714 -1.61363,-2.24888 -0.1403,-2.43712 0.98195,0.17491 0.0449,-0.99 0.1253,-1.51548 -0.38303,-1.45251 -0.95737,-2.83974 -1.4365,-4.1875 -0.28767,-0.48197 -0.37783,-0.90901 -0.60923,-1.57812 -0.89071,0.20937 -1.4824,-0.17332 -1.34347,-1.125 -0.15048,-0.78658 0.42476,-2.07868 -0.79683,-2.125 -1.21152,-0.92386 -2.82325,-2.29574 -2.26485,-4.03125 0.44396,-0.81596 1.08109,-1.84248 0.12463,-2.70313 -0.44783,-1.15274 -1.44897,-2.02458 -1.78058,-3.0625 -0.70029,-1.34027 -1.45594,-2.9169 -2.56165,-4.01562 -0.8783,-1.37047 -1.59001,-2.85673 -2.73172,-4.08923 -0.47234,-0.96784 -1.4542,-1.60007 -1.87438,-2.60937 -0.61923,-0.48151 -1.15504,-2.13198 -1.98395,-1.54688 0.10046,1.05287 -1.67271,1.17108 -1.4213,2.28125 0.4784,0.92916 -1.3976,0.34839 -1.20275,1.0625 0.96438,0.51327 -0.85455,0.49006 -1.04665,-0.10937 -0.19574,-0.7425 -0.72749,-0.95377 -1.28092,-1.34375 0.0918,-0.88678 1.32975,0.40053 1.99987,0.10937 1.42293,0.20979 1.10932,-1.46862 -5e-5,-1.53125 -1.20326,-0.29732 -2.54992,-0.006 -3.44045,-0.96875 -0.44791,-0.0591 -0.81861,-0.35631 -1.26582,-0.40625 z m -18.34375,1.5625 c -1.052,-9.5e-4 0.37495,1.14001 -0.625,0.9375 -0.43622,0.16494 0.48133,0.7228 -0.375,0.76563 0.26541,0.1495 0.95047,1.25296 1.6875,0.60937 0.92152,-0.16832 2.31199,-0.58592 1.67187,-1.78125 -0.68507,0.13064 -1.1766,-0.13831 -1.85937,0.15625 -0.49051,-0.0713 0.15352,-0.65324 -0.5,-0.6875 z m -18.125003,4.125 c -0.857181,0.6271 -2.344186,1.09527 -2.09375,2.375 0.371416,0.31274 0.07237,1.8035 0.609375,0.85938 -0.07742,-0.72613 0.279496,-1.32629 0.796875,-1.59375 -0.317478,-0.87333 0.398821,-0.93863 0.6875,-1.64063 z m 22.531253,3.5625 c -0.82149,-0.0293 -1.07619,0.70055 -1.73438,0.96875 0.21556,0.4596 -0.38609,0.58385 -0.125,1.07813 -0.54729,0.28903 0.64191,0.57471 0.10938,1.1875 0.62506,0.13984 0.9691,0.54901 0.76562,1.32812 -0.25483,0.59588 -1.20955,0.16742 -0.8125,1.21875 -0.94566,0.20109 -0.9651,0.53141 -0.0156,0.59375 0.7133,0.58607 -0.65547,0.24517 -0.92188,0.73438 -1.20435,0.7551 0.8652,0.51886 1.46875,0.46875 0.95882,-0.26535 2.13795,0.2753 2.54688,-0.79688 0.6092,-0.70105 0.0704,-1.1368 -0.45313,-1.5 -0.0781,-0.94175 -0.80334,-1.4453 -0.8125,-2.45312 -1.10182,-0.5158 0.49457,-1.1169 0.59375,-1.70313 -0.33308,-0.22378 -1.63264,0.0617 -0.8125,-0.5625 0.315,-0.0626 0.60952,-0.36547 0.20313,-0.5625 z m -3.32813,2.71875 c -0.69393,0.32397 -0.33957,1.36338 -1.09375,0.65625 -0.64211,0.36495 10e-4,1.15872 -0.59375,1.64063 -0.96788,0.29484 -0.2565,1.43871 0.5,0.64062 1.03496,0.0126 1.66655,-0.84537 1.64063,-1.78125 0.66053,-0.32996 0.32744,-1.38355 -0.45313,-1.15625 z m 8.57813,13.54688 c -0.76347,0.80867 0.7208,1.56821 0.39062,0.32812 0.0749,-0.28671 -0.22073,-0.29244 -0.39062,-0.32812 z m 0,0 c -0.22525,-0.10867 -0.13102,0.34302 0,0 z m -0.0625,1.73437 c -0.59897,0.16294 -0.6592,2.06448 -0.0625,2.0625 0.76386,-0.2219 0.75093,-1.78913 0.0625,-2.0625 z m 20.57812,4.3125 c -0.47362,0.10097 -2.04204,0.9777 -0.7967,0.98438 0.69652,0.0313 0.57882,-0.63295 0.7967,-0.98438 z m -8.1875,1.01563 c -1.04139,0.43376 1.64128,1.3141 1.74973,0.23432 -0.55604,-0.16204 -1.22564,0.0517 -1.74973,-0.23432 z m -55.1249977,5.28125 c 0.648524,8.52415 3.591787,16.96432 8.4999997,23.9219 0.71346,-1.06714 0.811364,-2.37117 0.09375,-3.4061 -0.359725,-1.34579 -1.912461,-1.94989 -2.4218747,-3.2963 -0.780613,-1.1125 -1.502536,-2.24404 -2.171875,-3.42175 -0.742008,-1.52087 -1.079421,-3.08956 -1.8125,-4.60903 -0.871845,-1.61321 -0.822734,-3.57156 -1.078125,-5.39047 -0.522019,-1.21796 -0.236214,-2.69977 -1.109375,-3.79825 z m 77.9218777,30.6875 c -1.87103,0.69728 -3.07006,2.38619 -4.68708,3.51502 0.0451,1.04975 -0.22291,1.80041 -1.12487,2.34358 -0.91572,0.97454 0.52302,0.99668 1.07822,0.35937 1.3229,-0.91584 1.82106,-2.68576 3.48385,-3.18705 0.48703,-0.97938 0.89669,-1.99733 1.24988,-3.03092 z"
       id="path3000"
       inkscape:connector-curvature="0"
       sodipodi:nodetypes="cccccccccccccccccccccccccccccccccccccccccccccccccccccccccccccccccccccccccccccccccccccccccccccccccccccccccccccccccccccccccccccccccccccccccccccccccccccccccccccccccccccccccccccccccccccccccccccccccccccccccccccccccccccccccccccccccccccccccccccccccccccccccccccccccccccccccccccccccccccccccccccccccccccccccccccccccccccccccccccccccccccccccccccccccccccccccc" />
    <path
       inkscape:connector-curvature="0"
       id="path3893"
       d="m 114.42127,182.39896 c -0.91831,0.81128 -0.15947,2.39453 -0.76533,3.45305 0.0945,1.24064 -0.73937,3.62791 0.42195,4.07823 0.52014,-0.28672 1.95576,0.21888 1.37498,-0.78108 -1.56228,-1.28005 -0.25143,-3.66521 -0.71863,-5.35927 -0.20227,-0.43147 0.3963,-1.35992 -0.31297,-1.39093 z m 3.375,1.75 c -1.31478,0.0994 -0.95964,1.05885 -0.12515,1.4373 -0.57729,0.43896 -1.62788,0.15228 -0.9218,1.40628 0.10351,1.2796 1.34875,2.25935 1.28105,3.4375 -0.5053,-0.43045 -2.68361,-0.81087 -1.5468,0.10937 0.89163,0.95873 -1.24422,0.86639 -1.42158,1.76528 -1.49369,1.99055 0.87809,5.4363 0.50569,7.95513 0.72967,5.60074 0.38305,11.4379 -0.11504,16.91969 0.50811,1.14594 0.13084,2.42989 0.49983,3.56238 -0.32598,0.99341 -0.54275,2.18781 -1.81228,2.12472 0.0822,1.47382 -4.0851,6.76388 -2.10942,6.59378 0.75958,-0.0904 1.38874,-1.0401 1.8436,-1.0467 0.63488,0.0812 1.41191,-1.05952 2.10925,-1.5622 0.63537,-0.46001 0.92747,-1.64497 1.65597,-1.7498 1.94063,-0.60386 3.82945,-5.98854 5.05527,-8.42503 4.47322,-10.82809 1.57827,-23.16885 -4.89859,-32.5277 z m -4.96875,45.48438 c -1.07503,0.80872 -1.81211,2.11719 -3.187,2.49915 -0.51162,1.48471 -6.4808,7.13208 -3.40625,4.5782 1.74122,-1.42495 3.6617,-2.75253 5.40535,-4.2174 1.01838,-0.43835 1.95291,-1.50051 2.12472,-2.54653 -0.28118,-0.4916 -0.84877,0.46728 -0.93682,-0.31342 z"
       style="fill:url(#radialGradient3895);fill-opacity:1;stroke:none"
       sodipodi:nodetypes="cccccccccccccccccccccccccccc" />
  </g>
  <g
     style="display:inline"
     inkscape:label="sphere outline"
     id="g3828"
     inkscape:groupmode="layer"
     transform="translate(0,-128)">
    <path
       sodipodi:nodetypes="cccssscc"
       inkscape:connector-curvature="0"
       d="m 96.017096,179.56963 c -8.18461,-19.89569 -22.60567,-33.00924 -44.2573,-38.25953 31.3985,24.10419 38.05726,71.67976 25.84446,85.53908 -5.2062,3.37602 -10.54699,5.44103 -17.15472,6.6247 C 34.018588,238.20857 8.7538523,220.62027 4.0191673,194.18933 -0.71551872,167.75838 16.872774,142.49365 43.303716,137.75896 c 26.43095,-4.73468 51.6409,12.54775 56.37558,38.9787 z"
       style="fill:none;stroke:#000000;stroke-width:1px;stroke-linecap:butt;stroke-linejoin:miter;stroke-opacity:1"
       id="path3830" />
    <path
       sodipodi:nodetypes="cscc"
       inkscape:connector-curvature="0"
       d="m 106.83198,171.32753 c 29.91391,28.57851 17.35326,51.49882 0.0781,65.76062 -2.28126,1.88333 -5.07065,3.62253 -7.939484,4.78484 C 126.65498,226.698 113.92569,182.4182 106.7873,171.32753"
       style="fill:none;stroke:#000000;stroke-width:1px;stroke-linecap:butt;stroke-linejoin:miter;stroke-opacity:1"
       id="path3832" />
    <path
       sodipodi:nodetypes="cccsc"
       inkscape:connector-curvature="0"
       d="M 81.430196,190.83646 106.84552,171.3449 c 6.85985,11.17825 19.77155,54.5884 -7.623574,70.57837 -4.30261,1.76 -7.11293,2.18456 -10.80875,2.16852 -7.39165,-0.032 -15.37962,-2.92332 -23.59015,-11.60354"
       style="fill:none;stroke:#000000;stroke-width:1px;stroke-linecap:butt;stroke-linejoin:miter;stroke-opacity:1;display:inline"
       id="path3045" />
  </g>
  <g
     inkscape:groupmode="layer"
     id="layer7"
     inkscape:label="shine"
     transform="translate(0,-128)">
    <path
       style="fill:url(#linearGradient3919);fill-opacity:1;stroke:url(#linearGradient3917);stroke-width:1.5;stroke-linecap:butt;stroke-linejoin:miter;stroke-miterlimit:4;stroke-opacity:1;stroke-dasharray:none;display:inline;enable-background:new"
       d="m 51.905636,136.97709 c -2.83648,0.008 -5.71849,0.26339 -8.60937,0.78125 -24.307874,4.35437 -41.1206027,26.07308 -39.9843777,50.09375 40.7506677,15.55956 49.5115177,-1.72431 73.9062477,-11.85938 -5.10243,-12.85786 -13.46986,-25.48812 -25.45312,-34.6875 18.55793,4.50011 31.79928,14.78349 40.35937,30.15625 1.90905,-0.38016 3.90314,-0.70263 6,-0.96875 -6.41904,-20.12635 -25.22517,-33.57422 -46.21875,-33.51562 z"
       id="path3892"
       inkscape:connector-curvature="0" />
  </g>
</svg>
