<?xml version="1.0" encoding="UTF-8" standalone="no"?>
<!-- Created with Inkscape (http://www.inkscape.org/) -->

<svg
   xmlns:dc="http://purl.org/dc/elements/1.1/"
   xmlns:cc="http://creativecommons.org/ns#"
   xmlns:rdf="http://www.w3.org/1999/02/22-rdf-syntax-ns#"
   xmlns:svg="http://www.w3.org/2000/svg"
   xmlns="http://www.w3.org/2000/svg"
   xmlns:xlink="http://www.w3.org/1999/xlink"
   xmlns:sodipodi="http://sodipodi.sourceforge.net/DTD/sodipodi-0.dtd"
   xmlns:inkscape="http://www.inkscape.org/namespaces/inkscape"
   width="64"
   height="64"
   id="svg2"
   inkscape:label="Pozadí"
   version="1.1"
   inkscape:version="0.48.0 r9654"
   sodipodi:docname="logo-vector-64.svg"
   style="display:inline;enable-background:new"
   inkscape:export-filename="/home/mosra/C++/map2x/artwork/logo/export/logo-64.png"
   inkscape:export-xdpi="90"
   inkscape:export-ydpi="90">
  <defs
     id="defs3">
    <linearGradient
       id="linearGradient3903">
      <stop
         style="stop-color:#ffffff;stop-opacity:0;"
         offset="0"
         id="stop3905" />
      <stop
         id="stop3912"
         offset="0.5"
         style="stop-color:#ffffff;stop-opacity:1;" />
      <stop
         style="stop-color:#ffffff;stop-opacity:0;"
         offset="1"
         id="stop3907" />
    </linearGradient>
    <linearGradient
       id="linearGradient3895">
      <stop
         style="stop-color:#ffffff;stop-opacity:1;"
         offset="0"
         id="stop3897" />
      <stop
         style="stop-color:#ffffff;stop-opacity:0;"
         offset="1"
         id="stop3899" />
    </linearGradient>
    <linearGradient
       id="linearGradient3869">
      <stop
         style="stop-color:#edb88e;stop-opacity:1;"
         offset="0"
         id="stop3871" />
      <stop
         id="stop3878"
         offset="0.5"
         style="stop-color:#c33a20;stop-opacity:1;" />
      <stop
         style="stop-color:#150603;stop-opacity:1;"
         offset="1"
         id="stop3873" />
    </linearGradient>
    <linearGradient
       id="linearGradient3944">
      <stop
         style="stop-color:#c19665;stop-opacity:1;"
         offset="0"
         id="stop3946" />
      <stop
         style="stop-color:#000000;stop-opacity:1;"
         offset="1"
         id="stop3948" />
    </linearGradient>
    <linearGradient
       id="linearGradient3909">
      <stop
         style="stop-color:#dff0fa;stop-opacity:1;"
         offset="0"
         id="stop3911" />
      <stop
         id="stop3931"
         offset="1"
         style="stop-color:#006198;stop-opacity:1;" />
    </linearGradient>
    <linearGradient
       id="linearGradient3877">
      <stop
         id="stop3879"
         offset="0"
         style="stop-color:#fff2da;stop-opacity:1;" />
      <stop
         style="stop-color:#f4db9a;stop-opacity:1;"
         offset="0.51111114"
         id="stop3881" />
      <stop
         id="stop3883"
         offset="1"
         style="stop-color:#d39833;stop-opacity:1;" />
    </linearGradient>
    <linearGradient
       id="linearGradient3847">
      <stop
         style="stop-color:#afceff;stop-opacity:1;"
         offset="0"
         id="stop3849" />
      <stop
         id="stop3855"
         offset="0.50683612"
         style="stop-color:#508eee;stop-opacity:1;" />
      <stop
         style="stop-color:#001b45;stop-opacity:1;"
         offset="1"
         id="stop3851" />
    </linearGradient>
    <linearGradient
       id="linearGradient3848">
      <stop
         style="stop-color:#b1c9ff;stop-opacity:1;"
         offset="0"
         id="stop3850" />
      <stop
         style="stop-color:#b1c9ff;stop-opacity:0;"
         offset="1"
         id="stop3852" />
    </linearGradient>
    <filter
       inkscape:collect="always"
       id="filter3839"
       x="-0.27000001"
       width="1.54"
       y="-0.54000002"
       height="2.0799999"
       color-interpolation-filters="sRGB">
      <feGaussianBlur
         inkscape:collect="always"
         stdDeviation="8.2958776"
         id="feGaussianBlur3841" />
    </filter>
    <radialGradient
       inkscape:collect="always"
       xlink:href="#linearGradient3847"
       id="radialGradient3853"
       cx="84.828728"
       cy="87.145508"
       fx="84.828728"
       fy="87.145508"
       r="96.430199"
       gradientTransform="matrix(0.24999446,-0.00166473,0.00185182,0.27809083,-0.1036721,192.9238)"
       gradientUnits="userSpaceOnUse" />
    <radialGradient
       inkscape:collect="always"
       xlink:href="#linearGradient3877"
       id="radialGradient3875"
       cx="92.093979"
       cy="99.315521"
       fx="92.093979"
       fy="99.315521"
       r="121.44665"
       gradientTransform="matrix(0.25,0,0,0.20517011,0.0643819,200.15346)"
       gradientUnits="userSpaceOnUse" />
    <radialGradient
       inkscape:collect="always"
       xlink:href="#linearGradient3847"
       id="radialGradient3891"
       cx="224.77557"
       cy="141.61234"
       fx="224.77557"
       fy="141.61234"
       r="26.395712"
       gradientTransform="matrix(0.5915557,0,0,0.67288825,-76.30073,134.03123)"
       gradientUnits="userSpaceOnUse" />
    <radialGradient
       inkscape:collect="always"
       xlink:href="#linearGradient3877"
       id="radialGradient3895"
       gradientUnits="userSpaceOnUse"
       gradientTransform="matrix(0.09158853,0,0,0.09641982,28.427603,216.62448)"
       cx="274.53888"
       cy="133.60275"
       fx="274.53888"
       fy="133.60275"
       r="121.44665" />
    <filter
       inkscape:collect="always"
       id="filter3905"
       x="-0.23999999"
       width="1.48"
       y="-0.71999997"
       height="2.4399998"
       color-interpolation-filters="sRGB">
      <feGaussianBlur
         inkscape:collect="always"
         stdDeviation="11.364216"
         id="feGaussianBlur3907" />
    </filter>
    <radialGradient
       inkscape:collect="always"
       xlink:href="#linearGradient3909"
       id="radialGradient3915"
       cx="125.94925"
       cy="86.854347"
       fx="125.94925"
       fy="86.854347"
       r="51.630356"
       gradientTransform="matrix(-0.4262784,6.6875e-4,-9.5799e-4,-0.610644,103.44552,281.13061)"
       gradientUnits="userSpaceOnUse" />
    <radialGradient
       inkscape:collect="always"
       xlink:href="#linearGradient3909"
       id="radialGradient3925"
       cx="107.37955"
       cy="63.617069"
       fx="107.37955"
       fy="63.617069"
       r="44.757305"
       gradientTransform="matrix(0.24996055,-0.00341635,0.00524827,0.38399498,10.498451,191.22948)"
       gradientUnits="userSpaceOnUse" />
    <filter
       inkscape:collect="always"
       id="filter3829"
       color-interpolation-filters="sRGB">
      <feGaussianBlur
         inkscape:collect="always"
         stdDeviation="0.95953497"
         id="feGaussianBlur3831" />
    </filter>
    <filter
       inkscape:collect="always"
       id="filter3837"
       color-interpolation-filters="sRGB">
      <feGaussianBlur
         inkscape:collect="always"
         stdDeviation="0.74459452"
         id="feGaussianBlur3839" />
    </filter>
    <radialGradient
       inkscape:collect="always"
       xlink:href="#linearGradient3869"
       id="radialGradient3876"
       cx="227.47519"
       cy="146.57544"
       fx="227.47519"
       fy="146.57544"
       r="52.122025"
       gradientTransform="matrix(-0.2934768,-0.11929334,0.21399908,-0.52646495,89.14841,334.33724)"
       gradientUnits="userSpaceOnUse" />
    <radialGradient
       inkscape:collect="always"
       xlink:href="#linearGradient3869"
       id="radialGradient3886"
       cx="145.14137"
       cy="73.942093"
       fx="145.14137"
       fy="73.942093"
       r="46.566486"
       gradientTransform="matrix(0.508427,0,0,0.4382399,-37.868894,184.72412)"
       gradientUnits="userSpaceOnUse" />
    <linearGradient
       inkscape:collect="always"
       xlink:href="#linearGradient3903"
       id="linearGradient3917"
       gradientUnits="userSpaceOnUse"
       x1="7.1726875"
       y1="120.48396"
       x2="197.90625"
       y2="120.48396"
       gradientTransform="matrix(0.25,0,0,0.25,0.0643819,195.3617)" />
    <linearGradient
       inkscape:collect="always"
       xlink:href="#linearGradient3895"
       id="linearGradient3919"
       gradientUnits="userSpaceOnUse"
       x1="77.155663"
       y1="-29.950439"
       x2="77.016068"
       y2="164.04956"
       gradientTransform="matrix(0.25,0,0,0.25,0.0643819,195.3617)" />
  </defs>
  <sodipodi:namedview
     id="base"
     pagecolor="#ffffff"
     bordercolor="#666666"
     borderopacity="1.0"
     inkscape:pageopacity="0.0"
     inkscape:pageshadow="2"
     inkscape:zoom="1"
     inkscape:cx="-260.58291"
     inkscape:cy="88.791197"
     inkscape:document-units="px"
     inkscape:current-layer="g3828"
     showgrid="false"
     inkscape:window-width="1920"
     inkscape:window-height="1033"
     inkscape:window-x="-2"
     inkscape:window-y="-3"
     inkscape:window-maximized="1"
     inkscape:snap-page="false"
     inkscape:snap-global="false"
     inkscape:snap-bbox="true"
     inkscape:bbox-nodes="true" />
  <metadata
     id="metadata6">
    <rdf:RDF>
      <cc:Work
         rdf:about="">
        <dc:format>image/svg+xml</dc:format>
        <dc:type
           rdf:resource="http://purl.org/dc/dcmitype/StillImage" />
        <dc:title></dc:title>
      </cc:Work>
    </rdf:RDF>
  </metadata>
  <g
     inkscape:label="render"
     inkscape:groupmode="layer"
     id="layer1"
     transform="translate(0,-988.36218)"
     style="opacity:0.54863808;display:none">
    <image
       y="726.54993"
       x="-83.842659"
       id="image3046"
       xlink:href="file:///home/mosra/C++/map2x/artwork/logo/logo.png"
       height="409.54318"
       width="409.54318" />
  </g>
  <g
     inkscape:groupmode="layer"
     id="layer5"
     inkscape:label="shadow"
     style="opacity:0.43579766;display:inline"
     transform="translate(0,-192)">
    <path
       sodipodi:type="arc"
       style="color:#000000;fill:#000000;fill-opacity:1;fill-rule:nonzero;stroke:none;stroke-width:1;marker:none;visibility:visible;display:inline;overflow:visible;filter:url(#filter3905);enable-background:accumulate"
       id="path3835"
       sodipodi:cx="103.79317"
       sodipodi:cy="199.93654"
       sodipodi:rx="56.821079"
       sodipodi:ry="18.940361"
       d="m 160.61425,199.93654 c 0,10.46047 -25.43967,18.94036 -56.82108,18.94036 -31.381418,0 -56.821082,-8.47989 -56.821082,-18.94036 0,-10.46047 25.439664,-18.94036 56.821082,-18.94036 31.38141,0 56.82108,8.47989 56.82108,18.94036 z"
       transform="matrix(0.25,0,0,0.25,-0.0618871,194.22528)" />
    <path
       sodipodi:type="arc"
       style="color:#000000;fill:#000000;fill-opacity:1;fill-rule:nonzero;stroke:none;stroke-width:1;marker:none;visibility:visible;display:inline;overflow:visible;filter:url(#filter3839);enable-background:accumulate"
       id="path3837"
       sodipodi:cx="158.84648"
       sodipodi:cy="210.54314"
       sodipodi:rx="36.870567"
       sodipodi:ry="18.435284"
       d="m 195.71705,210.54314 c 0,10.18152 -16.50752,18.43528 -36.87057,18.43528 -20.36305,0 -36.87057,-8.25376 -36.87057,-18.43528 0,-10.18153 16.50752,-18.43529 36.87057,-18.43529 20.36305,0 36.87057,8.25376 36.87057,18.43529 z"
       transform="matrix(0.27079088,0,0,0.22859589,1.6672809,200.31013)" />
  </g>
  <g
     inkscape:groupmode="layer"
     id="layer3"
     inkscape:label="sphere inside"
     style="display:inline"
     transform="translate(0,-192)">
    <path
       id="path3858"
       style="fill:url(#radialGradient3915);fill-opacity:1;stroke:#000000;stroke-width:1px;stroke-linecap:butt;stroke-linejoin:miter;stroke-opacity:1"
       d="m 41.068848,223.7367 12.707662,-9.74578 c 3.429925,5.58913 9.885775,27.2942 -3.811787,35.28919 -2.151305,0.88 -3.556465,1.09228 -5.404375,1.08426 -3.695825,-0.016 -7.68981,-1.46166 -11.795075,-5.80177"
       inkscape:connector-curvature="0"
       sodipodi:nodetypes="cccsc" />
    <path
       sodipodi:nodetypes="cccc"
       inkscape:connector-curvature="0"
       d="m 48.362298,218.10329 c -4.092305,-9.94785 -11.302835,-16.50462 -22.12865,-19.12977 8.187305,6.11047 13.267245,16.39977 14.96294,24.6355 z"
       style="fill:url(#radialGradient3925);fill-opacity:1;stroke:#000000;stroke-width:1px;stroke-linecap:butt;stroke-linejoin:miter;stroke-opacity:1;display:inline"
       id="path3864" />
  </g>
  <g
     inkscape:groupmode="layer"
     id="layer6"
     inkscape:label="compass"
     style="display:inline"
     transform="translate(0,-192)">
    <path
       style="font-size:medium;font-style:normal;font-variant:normal;font-weight:normal;font-stretch:normal;text-indent:0;text-align:start;text-decoration:none;line-height:normal;letter-spacing:normal;word-spacing:normal;text-transform:none;direction:ltr;block-progression:tb;writing-mode:lr-tb;text-anchor:start;baseline-shift:baseline;opacity:0.98054474;color:#000000;fill:url(#radialGradient3876);fill-opacity:1;stroke:none;stroke-width:1;marker:none;visibility:visible;display:inline;overflow:visible;enable-background:accumulate;font-family:Sans;-inkscape-font-specification:Sans"
       d="m 53.751425,214.00922 -2.737285,2.07184 c 9.829285,17.20159 0.31254,40.04847 -16.300402,27.36612 l -1.987515,1.02306 c 9.105735,9.31849 18.151372,6.58383 22.628162,-0.45671 4.650315,-7.31344 5.00344,-19.71278 -1.60296,-30.00431 z"
       id="path3958"
       inkscape:connector-curvature="0"
       sodipodi:nodetypes="ccccsc" />
    <path
       style="font-size:medium;font-style:normal;font-variant:normal;font-weight:normal;font-stretch:normal;text-indent:0;text-align:start;text-decoration:none;line-height:normal;letter-spacing:normal;word-spacing:normal;text-transform:none;direction:ltr;block-progression:tb;writing-mode:lr-tb;text-anchor:start;baseline-shift:baseline;opacity:0.98054474;color:#000000;fill:url(#radialGradient3886);fill-opacity:1;stroke:none;stroke-width:1;marker:none;visibility:visible;display:inline;overflow:visible;enable-background:accumulate;font-family:Sans;-inkscape-font-specification:Sans"
       d="m 25.822193,198.85389 -0.703125,3.20313 c 7.14195,1.57293 15.78694,5.85275 20.496855,18.0679 l 2.78639,-2.05192 c -4.35272,-13.7228 -14.636025,-17.46952 -22.58012,-19.21911 z"
       id="path3954"
       inkscape:connector-curvature="0"
       sodipodi:nodetypes="ccccc" />
    <path
       style="fill:none;stroke:#000000;stroke-width:0.5;stroke-linecap:butt;stroke-linejoin:miter;stroke-miterlimit:4;stroke-opacity:1;stroke-dasharray:none"
       d="m 31.908133,204.39295 c 6.168465,3.23446 11.144075,7.98709 13.65625,15.875"
       id="path3930"
       inkscape:connector-curvature="0"
       sodipodi:nodetypes="cc" />
    <path
       style="fill:none;stroke:#000000;stroke-width:0.5;stroke-linecap:butt;stroke-linejoin:miter;stroke-miterlimit:4;stroke-opacity:1;stroke-dasharray:none"
       d="m 51.082765,216.03311 c 10.17215,19.62792 -0.928332,38.74697 -15.928212,27.86063"
       id="path3956"
       inkscape:connector-curvature="0"
       sodipodi:nodetypes="cc" />
    <path
       style="fill:none;stroke:#000000;stroke-width:1;stroke-linecap:butt;stroke-linejoin:miter;stroke-miterlimit:4;stroke-opacity:1;stroke-dasharray:none"
       d="m 36.264108,243.83586 0.08172,-0.43581"
       id="path3867"
       inkscape:connector-curvature="0" />
    <path
       style="fill:#000000;fill-opacity:1;stroke:none"
       d="m 41.651098,226.34866 6.805905,-8.22012 -7.336235,5.56847 z"
       id="path3921"
       inkscape:connector-curvature="0"
       sodipodi:nodetypes="cccc" />
    <path
       style="fill:none;stroke:#000000;stroke-width:1;stroke-linecap:butt;stroke-linejoin:miter;stroke-miterlimit:4;stroke-opacity:1;stroke-dasharray:none"
       d="m 41.651098,226.56963 7.866565,5.74524 -7.468815,-1.98874"
       id="path3923"
       inkscape:connector-curvature="0"
       sodipodi:nodetypes="ccc" />
    <path
       style="fill:#000000;fill-opacity:1;stroke:none"
       d="m 41.872068,228.51417 7.51301,3.71231 -7.380425,-1.90035 z"
       id="path3925"
       inkscape:connector-curvature="0" />
    <path
       style="fill:none;stroke:#000000;stroke-width:1;stroke-linecap:butt;stroke-linejoin:miter;stroke-miterlimit:4;stroke-opacity:1;stroke-dasharray:none"
       d="m 42.004653,232.53584 3.535535,9.94369 -4.02167,-6.14299"
       id="path3927"
       inkscape:connector-curvature="0" />
    <path
       style="fill:#000000;fill-opacity:1;stroke:none"
       d="m 41.739488,234.87813 3.668115,7.33623 -3.889085,-5.83363 z"
       id="path3929"
       inkscape:connector-curvature="0" />
  </g>
  <g
     inkscape:groupmode="layer"
     id="layer2"
     inkscape:label="sphere"
     style="display:inline"
     transform="translate(0,-192)">
    <path
       id="path3839"
       style="fill:url(#radialGradient3853);fill-opacity:1;stroke:none"
       d="m 48.362298,218.10329 c -4.092305,-9.94785 -11.302835,-16.50462 -22.12865,-19.12977 15.69925,12.0521 19.02863,35.83988 12.92223,42.76954 -2.6031,1.68801 -5.273495,2.72052 -8.57736,3.31235 -13.215474,2.36735 -25.8478421,-6.4268 -28.2151841,-19.64227 -2.367344,-13.21548 6.426803,-25.84784 19.6422741,-28.21519 13.215475,-2.36734 25.82045,6.27388 28.18779,19.48935 z"
       inkscape:connector-curvature="0"
       sodipodi:nodetypes="cccssscc" />
    <path
       id="path3843"
       style="fill:url(#radialGradient3891);fill-opacity:1;stroke:#000000;stroke-width:1px;stroke-linecap:butt;stroke-linejoin:miter;stroke-opacity:1"
       d="m 53.76974,213.98224 c 14.95696,14.28925 8.67663,25.74941 0.03905,32.88031 -1.14063,0.94166 -2.535325,1.81126 -3.969742,2.39242 13.842192,-7.5875 7.477547,-29.7274 3.908352,-35.27273"
       inkscape:connector-curvature="0"
       sodipodi:nodetypes="cscc" />
  </g>
  <g
     style="display:inline"
     inkscape:label="continents blur"
     id="g3819"
     inkscape:groupmode="layer"
     transform="translate(0,-192)">
    <path
       sodipodi:nodetypes="cccccccccccccccccccccccccccccccccccccccccccccccccccccccccccccccccccccccccccccccccccccccccccccccccccccccccccccccccccccccccccccccccccccccccccccccccccccccccccccccccccccccccccccccccccccccccccccccccccccccccccccccccccccccccccccccccccccccccccccccccccccccccccccccccccccccccccccccccccccccccccccccccccccccccccccccccccccccccccccccccccccccccccccccccccccccccc"
       inkscape:connector-curvature="0"
       id="path3821"
       d="m 122,18.21875 c 0.59589,1.246885 3.01763,1.488444 3.40585,2.125 -1.21067,-0.362498 -5.31344,-0.491894 -2.4682,1.09375 1.19095,0.441944 3.09624,2.591393 3.9682,0.59375 -2.40754,-1.252086 0.70586,-0.397136 1.5311,0.15625 1.31934,0.961535 3.29397,0.04248 4.31205,1.03125 -1.29143,0.874477 2.84899,1.369404 0.0626,1.09375 -2.06855,-0.548498 -1.97126,1.393397 0,1.46875 1.5082,0.746812 -0.6219,2.401557 -1.65605,1.09375 -1.46902,-0.796551 -5.33625,0.564905 -3.2185,2.15625 1.76666,0.455584 0.79389,2.807087 2.56215,3.3125 0.6036,0.686813 2.11298,1.212626 1.18715,2.53125 28.47746,12.996291 50.07869,38.250282 61.5,67.09375 1.5709,-1.85757 5.99892,-2.811256 4.5626,-5.8125 1.1803,-2.124947 1.5905,2.62788 2.68826,0.227756 C 194.36072,57.205822 161.11211,24.534936 122,18.21875 z m -37.4375,1.6875 C 82.067093,19.835605 79.744866,21.985403 77.5,21.5625 74.500375,20.101503 61.685388,26.97366 56.134035,29.919518 41.337111,38.469502 28.788571,51.114997 20.4375,65.9375 c 2.14555,-0.107138 2.088303,-2.855615 3.84375,-3.78125 0.467284,-1.239917 0.9827,-2.394746 1.375,-0.75 0.536691,-1.318775 1.292974,-2.520857 3.03125,-2.125 1.517352,-0.924379 2.059653,0.614096 0.53125,1.03125 -0.608836,0.924503 -1.553067,1.320995 0.09375,1.59375 0.710996,0.446439 3.150946,0.545478 2.1875,-0.75 -1.381337,0.657053 -0.305344,-2.912654 0.9375,-3.25 0.370751,-1.733331 2.260214,-1.569822 2.53125,-3.28125 -2.438036,0.490811 -2.003673,-1.331569 -0.125,-1.59375 2.337937,0.48462 0.504319,4.761497 4.1875,3.4375 3.978177,-0.519718 3.13835,-5.683394 5.875,-7.75 0.970207,-2.573591 3.907969,-3.846002 5.15625,-5.8125 -1.162312,1.393078 -3.214307,0.237478 -1.4375,-1 2.171291,-1.413035 4.620975,-2.936801 5.5,-5.5 -1.346232,-0.73558 -2.957189,1.864928 -4.625,2.03125 -1.763428,1.444912 -3.014501,4.275623 -5.75,3.65625 -1.422563,0.412365 -2.699849,2.185626 -3.875,2.28125 1.514887,-2.319434 4.218258,-3.018978 5.65625,-5.5 1.693603,-1.618313 3.816256,-2.917426 5.65625,-4.5 2.338741,-1.358859 4.586851,-3.784211 7.5,-3.5625 0.468369,1.396658 -2.350116,1.15639 -1.78125,2.53125 1.503664,0.452792 3.087994,-0.862178 4.25,-1.9375 1.449834,1.065912 3.86651,-1.978024 4.53125,-0.9375 -0.587015,1.204294 -3.131916,1.089339 -3.125,2.03125 2.528282,-1.177149 1.345355,0.599808 -0.15625,0.9375 -1.802115,1.371602 -4.592721,0.04344 -5.53125,2.5 -0.886437,1.252854 -3.859456,2.440694 -3,3.96875 0.261535,-1.054244 2.491575,-2.919576 1.3125,-0.9375 -1.886566,1.784649 2.472565,0.763556 2.71875,-0.59375 0.440855,-1.227845 2.807573,-2.122434 1.3125,-0.40625 0.335182,1.809094 2.970859,-0.79036 3.53125,-1.6875 2.132388,-2.559226 5.119183,-4.052741 7.625,-6.1875 1.834178,-0.326938 2.793169,-1.531849 3.71875,-2.71875 0.849174,-1.144553 -2.978784,-0.839527 -3.625,0.15625 -1.258803,0.561314 -3.014117,1.305383 -4.34375,1.40625 1.859995,-1.901993 4.93155,-2.918159 7.5625,-2.84375 0.795672,0.905097 2.590976,-0.242886 2.75,-1.125 -1.432526,0.515018 -3.938572,-0.256136 -1.21875,-0.03125 2.83331,0.09319 1.210867,-1.400804 -0.4375,-0.46875 -1.38107,-0.124986 -3.876881,2.024642 -4.46875,0.875 2.367504,-1.044602 5.556002,-1.644663 7.71875,-1.9375 0.984159,-0.538149 2.616284,-1.202106 3.71875,-2.03125 0.808617,-0.07107 0.103614,1.621594 -0.53125,1.53125 -1.395464,0.729902 -0.777272,1.511589 -1.96875,1.96875 -1.375023,-0.784991 -4.398544,1.395512 -3.34375,2.59375 1.15661,0.783068 2.587032,-3.053047 2.75,-1.28125 -1.477131,1.528526 2.248557,0.298077 3,0.875 1.421795,-1.267058 3.590391,0.258197 4.8125,-1.21875 2.425885,0.281557 1.423973,-1.140035 -0.15625,-1.34375 -1.756976,-0.140996 -1.832759,-1.06943 -0.4375,-1.71875 0.756405,-0.373124 1.362518,-1.981769 1.3125,-2.375 -0.973458,0.09617 -3.011711,1.280741 -1.6875,-0.21875 -0.236236,-0.103699 -0.628217,-0.204605 -0.9375,-0.28125 z m 36.15625,6.15625 c -0.32395,2.702633 4.56486,2.919017 4.7803,0.59375 -1.7755,0.298871 -3.26466,0.716725 -4.7803,-0.59375 z M 86.4375,26.96875 c -1.407076,0.350923 -1.838313,1.680104 -3.625,1.34375 C 82.072369,27.885139 80.155009,27.07345 81,28.625 c -0.706257,0.573119 -1.501135,1.092586 -1.59375,-0.0625 -1.148753,-0.191333 -2.753,1.114815 -0.875,1.78125 -1.354921,1.218676 -3.590515,2.075958 -5,3.625 -1.892519,0.186716 -1.887057,2.531816 -4.0625,2.21875 -1.601046,0.448411 -0.09188,1.229622 -1.65625,1.90625 -2.043724,1.133178 -4.894253,1.011947 -6.1875,3.34375 -2.258628,0.95632 -2.625938,3.575442 -4.875,4.71875 -1.272851,0.686323 -1.960129,1.943789 -0.6875,2.71875 -1.216563,0.868405 -1.601564,2.909965 0.40625,1.84375 3.83197,-1.641115 7.040918,-5.64026 11.53125,-4.875 2.096148,-1.691418 4.567789,-1.386508 7.03125,-0.96875 2.532415,-0.611652 5.156858,-1.139906 6.8125,-3.25 2.95874,-1.31382 5.364559,-3.42377 7.375,-5.90625 1.797635,-1.455838 3.439186,-3.298036 5.53125,-4 -1.276357,-0.370512 -3.629052,-0.838291 -1.65625,-2.09375 -0.189237,-1.297223 -2.351611,-2.137431 -3.625,-2 -1.287876,0.614086 -1.821908,-0.762869 -3.03125,-0.65625 z m 17.9375,7.21875 c -1.55917,0.278672 -3.82573,0.514765 -2.18735,2.5625 -0.35253,2.490564 1.66712,2.405243 2.03045,0.375 0.69007,-3.080808 1.3706,1.702286 2.34355,-0.28125 0.15692,-0.85325 -1.97669,-1.644796 -1.24985,-1.90625 2.57046,-0.10386 1.37826,-0.963654 -0.53125,-0.625 l -0.40625,-0.125 z m 6.5625,11.6875 c -2.97418,0.604173 -5.30116,2.59712 -7.56115,4.40625 -0.755,1.757945 -2.52487,2.921349 -3.1856,4.78125 -0.385824,1.085908 -1.766891,1.565752 -1.65625,2.625 -1.761092,-0.09667 -2.594379,1.525085 -4.19075,1.6875 -2.411023,0.585996 -0.195814,3.557543 -1.3125,5.0625 -0.01049,1.329295 1.27624,2.955506 2.59375,1.3125 0.914298,-0.801034 2.264953,-1.245135 3.25,-1.40625 0.249955,2.086639 0.340072,5.084733 2.4057,6.0625 1.60468,0.315116 1.88821,-0.639339 2.43675,-1.875 0.60967,-1.591936 0.71285,-3.618541 2.81175,-4 1.22595,-1.708384 -2.41363,-1.679354 -1.9365,-3.71875 0.15568,-2.235766 2.83535,-3.07865 3.2801,-4.8125 0.2799,-1.437745 0.9478,-3.241443 2.9051,-2.5 1.46524,1.420917 -1.21904,2.814632 -1.65465,4.15625 -0.90808,1.316828 -0.15995,3.712513 0.5933,4.84375 2.53269,1.507884 4.88385,-1.742423 7.46785,-1.03125 1.14914,-0.291268 2.22784,0.919199 0.49955,1.28125 -1.47414,2.048728 -4.45657,0.443322 -5.99915,2.25 0.82513,1.041254 2.50109,2.73972 0.9056,3.96875 -1.15724,-0.37079 -3.00705,-2.635013 -2.6555,0.1875 -0.0652,1.951142 -0.0775,4.573268 -2.3735,5.03125 -1.73183,-1.588343 -3.6459,0.256904 -5.4674,0.84375 -1.43167,0.704975 -2.146276,-1.818486 -3.5934,-0.34375 -2.215666,0.408875 -3.698913,-3.149478 -1.21935,-3.875 0.268798,-0.883535 0.341188,-3.601812 -0.96875,-2 -1.708713,0.35309 -1.281868,3.122899 -1.0625,4.5 -0.241209,2.582378 -4.079133,1.118192 -5.125,3.09375 -1.393059,1.122511 -2.583508,2.656678 -4.15625,3.5625 -0.949244,1.524703 -2.997633,2.598079 -4.5625,2.53125 -1.261613,-1.433428 -0.617804,0.457819 -1.3125,1.0625 -1.001163,0.02582 -5.018003,-1.412601 -3.53125,0.65625 2.434703,1.355046 4.242564,4.550353 2.75,7.40625 -0.272645,2.175888 -2.605425,3.178848 -4.34375,1.84375 -2.042609,-0.187532 -4.115066,-0.488452 -5.875,-1.5625 -0.711469,1.149114 -2.612746,0.453883 -1.6875,2.40625 -0.757016,2.15625 -0.918367,5.175336 -2.84375,6.90625 -0.53274,1.16153 1.968727,0.0513 0.90625,1.625 -1.606135,1.74197 0.972023,2.51155 2.4375,1.8125 1.036985,0.58431 0.07157,4.18323 1.96875,2.4375 0.862506,-1.53083 2.73148,0.64554 4.09375,-0.0625 1.458623,0.6015 1.876921,-1.57397 3.1875,-1.84375 0.843937,-1.03514 1.477863,-1.70791 1.46875,-3.125 1.059844,-1.98864 3.293449,-3.517282 5.53125,-3.8125 0.909611,-0.937279 -1.010587,-3.499413 1.34375,-3.15625 1.012861,-1.544589 2.02817,-0.271504 2.78125,0.59375 1.727121,1.019021 2.581338,-1.860056 4.15625,-1.59375 1.451161,-1.700784 3.501166,0.195922 3.75,1.90625 0.595429,2.213203 2.568019,3.292781 4.531,4.21875 1.83247,1.05837 5.36822,3.16194 3.43665,5.78125 -1.39265,1.20161 -3.91288,0.0135 -5.28015,0.9375 0.658714,1.6473 3.16207,1.02536 4.1237,2.5625 0.18816,-1.23952 -0.26412,-2.8666 1.62595,-3 0.87895,-1.12477 2.35348,-2.17849 0.96825,-3.53125 -0.17485,-2.58889 2.15085,0.37017 2.96785,-0.34375 -0.80787,-2.06156 -3.58588,-2.26444 -5.06115,-3.9375 -2.99343,0.138253 -2.44005,-3.875774 -4.7496,-4.875 -1.110387,-1.298476 0.906317,-4.115809 2.09365,-2.5 -0.68035,1.03178 1.55062,1.126774 1.1871,2.5 1.32657,0.363926 2.22076,1.629709 3.71775,1.65625 1.07767,1.120681 2.35652,2.190584 3.8424,2.65625 1.35433,1.005636 0.57166,2.17778 0.4374,3.5625 0.8898,0.71059 1.77091,1.1102 2.0612,2.34375 1.56619,0.59351 -0.40829,1.57182 0.3749,2.625 0.59603,0.73959 1.14263,1.05939 1.7182,1.90625 1.04076,0.61492 1.46207,1.89976 2.0307,0.5 1.0911,1.09979 0.14725,-1.17795 -0.1562,-1.6875 0.76848,-0.2696 0.17474,-1.87439 1.2497,-0.6875 1.79441,0.043 -0.0469,-2.66508 -1.39995,-2.28125 -0.61075,-0.58043 0.64695,-1.74681 -0.781,-2.125 -0.75977,-1.76304 0.92344,-1.76321 1.24945,-0.40625 0.62756,-0.49192 0.21778,-2.220703 1.6245,-1.78125 1.28522,-1.062071 2.62176,0.35826 3.7807,0.15625 0.51974,-1.071724 3.82309,-1.718424 2.6243,-0.0625 -1.35415,-0.15564 -3.44094,0.53106 -3.4058,1.75 1.06536,0.15632 0.62826,1.30657 0.93705,2.0625 0.43528,1.48649 -0.88158,0.53374 -0.90465,1.4375 2.05184,-0.8913 1.37893,2.56185 3.43645,2.34375 0.19166,1.0959 1.95518,-0.90518 1.93665,0.75 1.32787,1.04864 2.10271,-0.46404 2.4993,-1.28125 1.76324,-0.77691 2.83787,2.68498 4.49875,0.40625 1.31238,-0.15954 1.43439,-1.92151 2.9995,-1.96875 1.49749,0.0512 -0.62074,1.98994 0.65615,2.875 0.65781,2.22495 -0.0388,4.71335 -0.1249,6.96845 0.10117,3.24009 -3.9249,2.73829 -6.0609,2.468 -1.51775,0.89424 -2.84516,2.59143 -4.81135,1.59305 -1.80189,0.19259 -3.41207,-1.45413 -5.0306,-0.1875 -0.52302,-2.51579 -4.23887,0.70412 -4.4365,-2.12445 -2.54384,-0.84357 -5.9703,1.70708 -4.1244,4.34235 -0.72375,1.49651 -2.61395,1.51197 -3.74925,0.4059 -1.37953,-0.96276 -3.02833,-0.84701 -4.5306,-1.0616 -0.75765,-1.35541 -1.27623,-2.83672 -3.1239,-2.9365 -1.318188,-1.43011 -3.829196,0.78415 -4.18735,-0.84345 -1.14561,-0.28426 -0.764062,-1.89975 -2.15625,-1.56185 -0.530817,-1.93219 2.635584,-2.17781 1.0903,-4.31195 -1.311693,-0.69962 0.906031,-2.60173 -1.1875,-2.5317 -1.361572,-1.18917 -2.853043,1.5183 -4.5625,0.0312 -1.550816,-1.19682 -3.473809,1.44874 -4.84375,-0.40625 -1.212152,0.0113 -2.465038,0.39676 -3.59375,0.0937 -1.327371,0.79651 -3.208289,0.0925 -4.03125,1.75 -1.176737,-0.22803 -1.969702,0.40574 -2.875,0.93755 -1.028224,-0.38631 -1.850661,2.47452 -2.25,0.2188 0.693735,-2.2806 -3.059479,-0.82846 -3.5625,-2.8126 -1.570646,-0.0129 -0.872251,2.44525 -2.46875,2.78105 -1.434572,1.32807 -3.564095,1.37062 -4.375,3.31095 -1.760257,1.35914 -0.79176,3.87996 -2.5625,5.1547 -0.990354,1.38863 -2.903435,1.64247 -4.5,1.7176 -1.846175,0.006 -1.244468,3.41487 -3.65625,2.3433 -0.554017,1.07567 -0.31385,2.73723 -1.6875,3.46815 -1.360495,1.1422 -1.550184,3.11655 -3.25,3.90505 -0.05271,1.83127 1.46667,3.13298 0.5625,4.78055 1.074488,2.92968 -0.577594,5.78967 -2.125,8.15485 0.958214,1.06798 0.993229,2.55277 0.34375,3.9367 0.669394,1.44672 0.511929,1.05061 1.03125,2.7806 1.198513,3.04986 5.385149,4.24135 5.15625,7.9663 1.486467,1.61162 3.459133,2.95152 4.46875,4.9985 2.086473,0.64369 3.052039,2.63652 5.0625,3.24865 3.426678,-0.48997 6.860093,0.14091 10,1.28055 3.456088,-0.76258 6.984205,-0.43841 10.46875,-0.6868 2.69682,-0.44592 3.044354,2.55182 4.40625,3.81135 2.458844,0.52856 5.557755,-0.30905 7.46875,1.7489 2.120728,2.20436 -0.558944,5.30808 -0.78125,7.56205 1.775208,2.44836 4.901782,3.28476 6.78125,5.56065 0.553149,2.04251 3.76551,3.74643 1.78085,5.8116 1.94483,0.54356 1.75434,2.6339 0.2189,3.624 -1.79705,1.3036 -2.961736,5.09597 -0.125,5.6553 1.87514,1.29156 4.10732,2.41438 4.49865,4.87355 1.51103,1.35167 3.773,1.74641 5.37415,2.77985 3.55152,1.32374 7.22795,-1.06826 10.93685,-0.749 4.17595,-0.87395 8.61168,-2.23112 11.7179,-5.15475 1.3268,-1.94882 4.59149,-1.86061 5.593,-3.9051 -0.50091,-1.42166 -0.23711,-1.94513 1.3122,-2.46815 2.96466,-2.80506 7.42345,-3.6627 9.6542,-6.9976 0.27644,-1.64475 1.8827,-4.06335 -0.34395,-4.93685 0.1798,-1.39503 0.50507,-2.99265 -0.8434,-3.78075 1.25426,-4.24011 4.86951,-7.20485 7.466,-10.7163 1.12538,-2.91956 3.75653,-4.72908 5.7174,-6.90465 2.4553,-4.05915 6.25515,-8.15992 5.37255,-13.37315 0.29395,-1.31601 -0.0547,-4.20769 -1.4371,-2.03125 -2.60856,0.42737 -4.1895,2.54163 -6.34225,3.74845 -1.09371,1.11703 -2.48623,-0.731 -3.40575,-0.9375 1.6868,-0.99719 0.13003,-2.11161 -1.25,-2.3742 -1.67154,-0.84059 -2.58211,-2.73035 -4.71745,-2.62375 -1.92528,-1.15229 -1.77626,-4.90104 -4.561,-4.93595 -0.45671,-2.66877 -0.96611,-5.96646 -3.655,-7.21785 -1.65925,-1.21546 -1.8558,-3.45678 -3.3117,-4.96835 -1.0728,-1.70596 -1.67679,-3.85891 -3.49895,-4.9992 -0.73587,-0.98848 -1.46421,-2.33688 -1.56175,-3.46815 1.56978,-0.27933 0.93155,1.96568 2.2807,2.31195 -0.0512,1.85374 1.80804,1.84356 2.9055,0.99985 1.33309,0.46241 2.2891,2.44675 3.3422,3.6241 1.56324,1.15444 1.70936,3.83045 4.12415,3.4679 0.36055,1.17895 1.40027,2.15811 1.7179,3.37435 0.14108,3.13709 4.62827,2.78357 4.8421,5.93575 2.35902,0.69393 2.61147,3.12145 2.4677,5.28005 0.74029,1.49479 2.09469,4.63167 3.96775,2.124 1.97455,-2.46194 5.53759,-3.32807 7.2798,-6.02975 -0.17023,-3.37109 -0.13709,-6.98826 -1.18685,-10.1865 -0.17832,-3.54757 -1.45448,-6.8395 -1.84265,-10.37425 0.0614,-2.04061 -1.28438,-2.57869 -2.93695,-3.1552 -1.66296,-1.15429 -3.22726,-4.49776 -0.2806,-4.87425 1.96391,0.34982 0.0897,-1.97999 0.2506,-3.03095 -0.76605,-2.90503 -1.91473,-5.67948 -2.873,-8.375 -0.57534,-0.96394 -0.75565,-1.818016 -1.21845,-3.15625 -1.78143,0.418747 -2.96481,-0.346629 -2.68695,-2.25 -0.30095,-1.57315 0.84952,-4.157346 -1.59365,-4.25 -2.42304,-1.84772 -5.6465,-4.591475 -4.5297,-8.0625 0.88792,-1.631908 2.16217,-3.684954 0.24925,-5.40625 -0.89566,-2.305479 -2.89794,-4.049159 -3.56115,-6.125 -1.40059,-2.680547 -2.91188,-5.833795 -5.1233,-8.03125 -1.7566,-2.740921 -3.18002,-5.713457 -5.46345,-8.17845 -0.94468,-1.935681 -2.9084,-3.200141 -3.74875,-5.21875 -1.23847,-0.963009 -2.31008,-4.263955 -3.9679,-3.09375 0.20092,2.105738 -3.34542,2.342152 -2.8426,4.5625 0.9568,1.858319 -2.79521,0.696784 -2.4055,2.125 1.92876,1.026542 -1.7091,0.980124 -2.0933,-0.21875 -0.39149,-1.484985 -1.45499,-1.907522 -2.56185,-2.6875 0.18352,-1.773544 2.6595,0.801063 3.99975,0.21875 2.84585,0.419571 2.21864,-2.937244 -1e-4,-3.0625 -2.40652,-0.59464 -5.09985,-0.0122 -6.8809,-1.9375 -0.89582,-0.118113 -1.63722,-0.712629 -2.53165,-0.8125 z M 74.25,49 c -2.103994,-0.0019 0.749901,2.280012 -1.25,1.875 -0.87244,0.329875 0.962658,1.445606 -0.75,1.53125 0.530833,0.299009 1.900945,2.505929 3.375,1.21875 1.843038,-0.336645 4.623982,-1.171839 3.34375,-3.5625 C 77.598609,50.323782 76.615548,49.785873 75.25,50.375 74.268986,50.232473 75.55704,49.06852 74.25,49 z M 38,57.25 c -1.714362,1.254191 -4.688372,2.190544 -4.1875,4.75 0.742832,0.625483 0.144741,3.606992 1.21875,1.71875 -0.154829,-1.452256 0.558993,-2.65257 1.59375,-3.1875 C 35.990045,58.784604 37.422642,58.654009 38,57.25 z m 45.0625,7.125 c -1.642973,-0.05867 -2.152368,1.401093 -3.46875,1.9375 0.431112,0.919192 -0.772189,1.167704 -0.25,2.15625 -1.094581,0.578066 1.283824,1.149427 0.21875,2.375 1.250119,0.279692 1.938208,1.098037 1.53125,2.65625 -0.50966,1.191754 -2.419107,0.334842 -1.625,2.4375 -1.891325,0.402171 -1.930203,1.062811 -0.03125,1.1875 1.426602,1.172148 -1.31094,0.490336 -1.84375,1.46875 -2.408709,1.510204 1.730404,1.037728 2.9375,0.9375 1.917646,-0.530687 4.275889,0.550616 5.09375,-1.59375 1.218402,-1.402101 0.140825,-2.273603 -0.90625,-3 -0.156263,-1.883495 -1.606683,-2.890602 -1.625,-4.90625 -2.203639,-1.031599 0.98913,-2.233785 1.1875,-3.40625 -0.666156,-0.447553 -3.265275,0.123425 -1.625,-1.125 0.629999,-0.125264 1.21904,-0.730935 0.40625,-1.125 z m -6.65625,5.4375 c -1.387873,0.647932 -0.679147,2.726753 -2.1875,1.3125 -1.28422,0.729897 0.0027,2.317446 -1.1875,3.28125 -1.935767,0.589688 -0.513,2.877436 1,1.28125 2.069914,0.02525 3.333093,-1.690736 3.28125,-3.5625 1.321075,-0.659927 0.654877,-2.767106 -0.90625,-2.3125 z M 93.5625,96.90625 c -1.526936,1.617339 1.441606,3.13642 0.78125,0.65625 0.149747,-0.57342 -0.441459,-0.584872 -0.78125,-0.65625 z m 0,0 c -0.45049,-0.217324 -0.262041,0.686057 0,0 z m -0.125,3.46875 c -1.197924,0.32587 -1.318385,4.12896 -0.125,4.125 1.527726,-0.4438 1.501872,-3.57827 0.125,-4.125 z M 134.59375,109 c -0.94725,0.20193 -4.08408,1.9554 -1.5934,1.96875 1.39304,0.0626 1.15764,-1.2659 1.5934,-1.96875 z m -16.375,2.03125 c -2.08279,0.86752 3.28255,2.62821 3.49945,0.46865 -1.11207,-0.32408 -2.45127,0.10348 -3.49945,-0.46865 z m -110.25,10.5625 c 1.2970484,17.04831 7.183575,33.92864 17,47.8438 1.426921,-2.13428 1.622729,-4.74234 0.1875,-6.8122 -0.71945,-2.69157 -3.824921,-3.89978 -4.84375,-6.5926 -1.561226,-2.22499 -3.005072,-4.48808 -4.34375,-6.8435 -1.484016,-3.04174 -2.158841,-6.17912 -3.625,-9.21805 -1.743689,-3.22643 -1.645468,-7.14312 -2.15625,-10.78095 -1.0440377,-2.43591 -0.4724277,-5.39954 -2.21875,-7.5965 z m 155.84375,61.375 c -3.74205,1.39456 -6.14011,4.77238 -9.37415,7.03005 0.0901,2.09949 -0.44583,3.60082 -2.24975,4.68715 -1.83143,1.94909 1.04604,1.99337 2.15645,0.71875 2.6458,-1.83168 3.64212,-5.37153 6.9677,-6.3741 0.97405,-1.95877 1.79337,-3.99466 2.49975,-6.06185 z"
       style="fill:#000000;fill-opacity:1;stroke:none;filter:url(#filter3829)"
       transform="matrix(0.25,0,0,0.25,0.0643819,192.6117)" />
    <path
       sodipodi:nodetypes="cccccccccccccccccccccccccccc"
       style="fill:#000000;fill-opacity:1;stroke:none;filter:url(#filter3837)"
       d="m 230,107.625 c -1.83661,1.62255 -0.31894,4.78906 -1.53065,6.9061 0.18905,2.48127 -1.47875,7.25581 0.8439,8.15645 1.04027,-0.57343 3.91152,0.43777 2.74995,-1.56215 -3.12455,-2.56011 -0.50285,-7.33043 -1.43725,-10.71855 -0.40455,-0.86294 0.7926,-2.71983 -0.62595,-2.78185 z m 6.75,3.5 c -2.62956,0.19885 -1.91927,2.11769 -0.2503,2.8746 -1.15457,0.87791 -3.25576,0.30455 -1.8436,2.81255 0.20703,2.55921 2.6975,4.51871 2.5621,6.875 -1.01059,-0.8609 -5.36722,-1.62173 -3.0936,0.21875 1.78326,1.91745 -2.48844,1.73278 -2.84315,3.53055 -2.98738,3.9811 1.75617,10.8726 1.01137,15.91027 1.45935,11.20148 0.7661,22.8758 -0.23007,33.83938 1.01622,2.29188 0.26167,4.85977 0.99965,7.12475 -0.65195,1.98682 -1.0855,4.37563 -3.62455,4.24945 0.16441,2.94763 -8.1702,13.52775 -4.21885,13.18755 1.51916,-0.18072 2.77749,-2.08019 3.6872,-2.0934 1.26976,0.1623 2.82383,-2.11903 4.2185,-3.1244 1.27075,-0.92002 1.85495,-3.28993 3.31195,-3.4996 3.88126,-1.20772 7.65889,-11.97707 10.11053,-16.85005 8.94644,-21.65618 3.15655,-46.33771 -9.79718,-65.0554 z m -9.9375,90.96875 c -2.15006,1.61744 -3.62421,4.23439 -6.374,4.9983 -1.02324,2.96942 -12.96159,14.26416 -6.8125,9.1564 3.48245,-2.8499 7.3234,-5.50506 10.8107,-8.4348 2.03677,-0.87669 3.90582,-3.00102 4.24945,-5.09305 -0.56237,-0.9832 -1.69754,0.93456 -1.87365,-0.62685 z"
       id="path3823"
       inkscape:connector-curvature="0"
       transform="matrix(0.25,0,0,0.25,0.0643819,192.6117)" />
  </g>
  <g
     inkscape:groupmode="layer"
     id="layer4"
     inkscape:label="continents"
     style="display:inline"
     transform="translate(0,-192)">
    <path
       style="fill:url(#radialGradient3875);fill-opacity:1;stroke:none"
       d="m 30.564383,197.16639 c 0.14897,0.31172 0.754405,0.37211 0.85146,0.53125 -0.302665,-0.0906 -1.32836,-0.12297 -0.61705,0.27344 0.29774,0.11048 0.77406,0.64785 0.99205,0.14844 -0.601885,-0.31303 0.176465,-0.0993 0.382775,0.0391 0.329835,0.24038 0.823495,0.0106 1.078015,0.25781 -0.32286,0.21862 0.712245,0.34235 0.01565,0.27344 -0.51714,-0.13713 -0.492815,0.34834 0,0.36718 0.37705,0.18671 -0.155475,0.60039 -0.414015,0.27344 -0.367255,-0.19914 -1.33406,0.14123 -0.804625,0.53906 0.441665,0.1139 0.198475,0.70177 0.64054,0.82813 0.1509,0.1717 0.528245,0.30315 0.296785,0.63281 7.119365,3.24907 12.519675,9.56257 15.375,16.77344 0.392725,-0.46439 1.49973,-0.70281 1.14065,-1.45312 0.295075,-0.53124 0.397625,0.65697 0.672065,0.0569 -1.51912,-9.79454 -9.831275,-17.96227 -19.6093,-19.54131 z m -9.359375,0.42188 c -0.623855,-0.0177 -1.20441,0.51978 -1.765625,0.41406 -0.74991,-0.36525 -3.953655,1.35279 -5.341493,2.08925 -3.699231,2.1375 -6.8363661,5.29887 -8.9241331,9.0045 0.536387,-0.0268 0.522075,-0.71391 0.960937,-0.94531 0.116821,-0.30998 0.245675,-0.59869 0.34375,-0.1875 0.134172,-0.3297 0.323243,-0.63022 0.757812,-0.53125 0.379338,-0.2311 0.514913,0.15352 0.132813,0.25781 -0.152209,0.23112 -0.388267,0.33025 0.02343,0.39844 0.177749,0.1116 0.787736,0.13636 0.546875,-0.1875 -0.345335,0.16426 -0.07634,-0.72817 0.234375,-0.8125 0.09269,-0.43334 0.565053,-0.39246 0.632812,-0.82032 -0.609509,0.12271 -0.500918,-0.33289 -0.03125,-0.39843 0.584484,0.12115 0.12608,1.19037 1.046875,0.85937 0.9945441,-0.12993 0.7845881,-1.42085 1.4687501,-1.9375 0.242552,-0.6434 0.976992,-0.9615 1.289063,-1.45312 -0.290578,0.34826 -0.803577,0.0594 -0.359375,-0.25 0.542822,-0.35326 1.155243,-0.73421 1.375,-1.375 -0.336558,-0.1839 -0.739298,0.46623 -1.15625,0.50781 -0.440857,0.36123 -0.753626,1.0689 -1.4375,0.91406 -0.355641,0.10309 -0.674963,0.54641 -0.96875,0.57031 0.378721,-0.57986 1.054564,-0.75474 1.414062,-1.375 0.423401,-0.40458 0.954064,-0.72935 1.414063,-1.125 0.584685,-0.33971 1.146712,-0.94605 1.875,-0.89062 0.117092,0.34916 -0.587529,0.2891 -0.445313,0.63281 0.375916,0.1132 0.771999,-0.21554 1.0625,-0.48437 0.362459,0.26647 0.966628,-0.49451 1.132813,-0.23438 -0.146754,0.30107 -0.782979,0.27233 -0.78125,0.50781 0.63207,-0.29428 0.336338,0.14995 -0.03907,0.23438 -0.450529,0.3429 -1.148181,0.0108 -1.382813,0.625 -0.221609,0.31321 -0.964864,0.61017 -0.75,0.99219 0.06538,-0.26357 0.622894,-0.7299 0.328125,-0.23438 -0.471641,0.44616 0.618141,0.19089 0.679688,-0.14844 0.110213,-0.30696 0.701893,-0.53061 0.328125,-0.10156 0.0838,0.45227 0.742714,-0.19759 0.882812,-0.42187 0.533097,-0.63981 1.279796,-1.01319 1.90625,-1.54688 0.458547,-0.0817 0.698292,-0.38296 0.929687,-0.67969 0.212295,-0.28614 -0.744695,-0.20988 -0.906249,0.0391 -0.314701,0.14033 -0.75353,0.32635 -1.085938,0.35157 0.464999,-0.4755 1.232887,-0.72954 1.890627,-0.71094 0.198915,0.22627 0.64774,-0.0607 0.6875,-0.28125 -0.358135,0.12875 -0.984645,-0.064 -0.30469,-0.008 0.70833,0.0233 0.30272,-0.3502 -0.109375,-0.11719 -0.345265,-0.0312 -0.96922,0.50616 -1.117187,0.21875 0.591877,-0.26115 1.389002,-0.41117 1.929687,-0.48437 0.24604,-0.13454 0.65407,-0.30053 0.92969,-0.50782 0.202155,-0.0178 0.0259,0.4054 -0.132815,0.38282 -0.348865,0.18247 -0.194315,0.37789 -0.492185,0.49218 -0.343755,-0.19624 -1.09964,0.34888 -0.83594,0.64844 0.289155,0.19577 0.64676,-0.76326 0.6875,-0.32031 -0.36928,0.38213 0.56214,0.0745 0.75,0.21875 0.35545,-0.31677 0.8976,0.0645 1.203125,-0.30469 0.60647,0.0704 0.355995,-0.28501 -0.03905,-0.33594 -0.439245,-0.0352 -0.45819,-0.26735 -0.109375,-0.42968 0.1891,-0.0933 0.34063,-0.49545 0.328125,-0.59375 -0.243365,0.024 -0.75293,0.32018 -0.421875,-0.0547 -0.05906,-0.026 -0.157055,-0.0512 -0.234375,-0.0703 z m 9.03906,1.53906 c -0.08098,0.67566 1.141215,0.72975 1.195075,0.14844 -0.443875,0.0747 -0.816165,0.17918 -1.195075,-0.14844 z m -8.57031,0.22656 c -0.35177,0.0877 -0.45958,0.42003 -0.90625,0.33594 -0.185035,-0.10684 -0.664375,-0.30976 -0.453125,0.0781 -0.176565,0.14328 -0.375285,0.27315 -0.39844,-0.0156 -0.287185,-0.0478 -0.68825,0.27871 -0.21875,0.44532 -0.33873,0.30466 -0.89763,0.51899 -1.25,0.90625 -0.47313,0.0467 -0.471765,0.63295 -1.015624,0.55468 -0.400262,0.11211 -0.02297,0.30741 -0.414063,0.47657 -0.510931,0.28329 -1.223563,0.25298 -1.546875,0.83593 -0.564657,0.23908 -0.656484,0.89386 -1.21875,1.17969 -0.318213,0.17158 -0.490032,0.48595 -0.171875,0.67969 -0.304141,0.2171 -0.400391,0.72749 0.101563,0.46094 0.957992,-0.41028 1.760229,-1.41007 2.882812,-1.21875 0.524037,-0.42286 1.141947,-0.34663 1.757812,-0.24219 0.633105,-0.15292 1.289215,-0.28498 1.703125,-0.8125 0.739685,-0.32846 1.34114,-0.85594 1.84375,-1.47656 0.44941,-0.36396 0.859795,-0.82451 1.382815,-1 -0.31909,-0.0926 -0.907265,-0.20958 -0.414065,-0.52344 -0.0473,-0.32431 -0.5879,-0.53436 -0.90625,-0.5 -0.32197,0.15352 -0.455475,-0.19072 -0.75781,-0.16406 z m 4.484375,1.80469 c -0.389795,0.0697 -0.956435,0.12869 -0.54684,0.64062 -0.08813,0.62264 0.41678,0.60131 0.507615,0.0937 0.172515,-0.7702 0.34265,0.42557 0.585885,-0.0703 0.03925,-0.21331 -0.49417,-0.4112 -0.31246,-0.47656 0.642615,-0.026 0.344565,-0.24092 -0.132815,-0.15625 l -0.10156,-0.0312 z m 1.640625,2.92187 c -0.743545,0.15105 -1.32529,0.64928 -1.89029,1.10157 -0.18875,0.43948 -0.631215,0.73033 -0.7964,1.19531 -0.09646,0.27148 -0.44172,0.39144 -0.41406,0.65625 -0.440275,-0.0242 -0.648595,0.38127 -1.04769,0.42187 -0.602755,0.1465 -0.04895,0.88939 -0.328125,1.26563 -0.0025,0.33232 0.31906,0.73887 0.64844,0.32812 0.228575,-0.20026 0.566235,-0.31128 0.8125,-0.35156 0.06248,0.52166 0.08501,1.27118 0.601425,1.51563 0.40117,0.0788 0.47205,-0.15984 0.609185,-0.46875 0.15242,-0.39799 0.178215,-0.90464 0.70294,-1 0.306485,-0.4271 -0.60341,-0.41984 -0.484125,-0.92969 0.0389,-0.55894 0.708835,-0.76966 0.820025,-1.20313 0.06997,-0.35943 0.23695,-0.81036 0.726275,-0.625 0.36631,0.35523 -0.30476,0.70366 -0.413665,1.03907 -0.22702,0.3292 -0.04,0.92812 0.148325,1.21093 0.633175,0.37697 1.220965,-0.4356 1.866965,-0.25781 0.287285,-0.0728 0.55696,0.2298 0.124885,0.32031 -0.368535,0.51218 -1.11414,0.11083 -1.499785,0.5625 0.20628,0.26032 0.62527,0.68493 0.2264,0.99219 -0.28931,-0.0927 -0.751765,-0.65875 -0.663875,0.0469 -0.0163,0.48779 -0.01935,1.14332 -0.593375,1.25781 -0.43296,-0.39708 -0.911475,0.0642 -1.36685,0.21094 -0.35792,0.17624 -0.53657,-0.45462 -0.89835,-0.0859 -0.55392,0.10222 -0.92473,-0.78737 -0.30484,-0.96875 0.0672,-0.22088 0.0853,-0.90045 -0.242185,-0.5 -0.42718,0.0883 -0.32047,0.78073 -0.265625,1.125 -0.0603,0.6456 -1.019785,0.27955 -1.28125,0.77344 -0.348265,0.28063 -0.64588,0.66417 -1.039065,0.89063 -0.23731,0.38117 -0.749405,0.64952 -1.140625,0.63281 -0.3154,-0.35836 -0.15445,0.11445 -0.328125,0.26562 -0.25029,0.006 -1.2545,-0.35315 -0.88281,0.16407 0.608675,0.33876 1.06064,1.13758 0.6875,1.85156 -0.06817,0.54397 -0.65136,0.79471 -1.08594,0.46094 -0.51065,-0.0469 -1.028765,-0.12212 -1.468749,-0.39063 -0.177868,0.28728 -0.653187,0.11347 -0.421875,0.60156 -0.189254,0.53907 -0.229592,1.29384 -0.710938,1.72657 -0.133185,0.29038 0.492182,0.0128 0.226563,0.40625 -0.401534,0.43549 0.243005,0.62788 0.609375,0.45312 0.259246,0.14608 0.01789,1.04581 0.492187,0.60938 0.215627,-0.38271 0.682872,0.16138 1.023437,-0.0156 0.364655,0.15037 0.46923,-0.3935 0.796875,-0.46094 0.210985,-0.25879 0.369465,-0.42698 0.36719,-0.78125 0.26496,-0.49716 0.82336,-0.87932 1.38281,-0.95313 0.227405,-0.23432 -0.252645,-0.87485 0.33594,-0.78906 0.253215,-0.38615 0.50704,-0.0679 0.69531,0.14844 0.43178,0.25475 0.645335,-0.46502 1.039065,-0.39844 0.36279,-0.4252 0.87529,0.049 0.9375,0.47656 0.148855,0.5533 0.642005,0.8232 1.13275,1.05469 0.458115,0.26459 1.342055,0.79049 0.85916,1.44531 -0.34816,0.30041 -0.97822,0.004 -1.320035,0.23438 0.164675,0.41182 0.790515,0.25634 1.030925,0.64062 0.04705,-0.30988 -0.06603,-0.71665 0.406485,-0.75 0.21974,-0.28119 0.58837,-0.54462 0.242065,-0.88281 -0.0437,-0.64722 0.53771,0.0925 0.74196,-0.0859 -0.201965,-0.51539 -0.89647,-0.56611 -1.265285,-0.98437 -0.74836,0.0345 -0.610015,-0.96895 -1.1874,-1.21875 -0.2776,-0.32462 0.22658,-1.02895 0.52341,-0.625 -0.170085,0.25794 0.387655,0.28169 0.296775,0.625 0.331645,0.091 0.55519,0.40743 0.92944,0.41406 0.269415,0.28017 0.58913,0.54765 0.9606,0.66406 0.33858,0.25141 0.142915,0.54445 0.10935,0.89063 0.22245,0.17765 0.442725,0.27755 0.5153,0.58594 0.391545,0.14837 -0.102075,0.39295 0.09372,0.65625 0.149005,0.18489 0.285655,0.26484 0.42955,0.47656 0.26019,0.15373 0.365515,0.47494 0.507675,0.125 0.272775,0.27495 0.0368,-0.29449 -0.03905,-0.42188 0.19212,-0.0674 0.0437,-0.46859 0.312425,-0.17187 0.4486,0.0108 -0.0117,-0.66627 -0.34999,-0.57031 -0.152685,-0.14511 0.16174,-0.43671 -0.19525,-0.53125 -0.18994,-0.44076 0.23086,-0.44081 0.312365,-0.10157 0.15689,-0.12298 0.05445,-0.55517 0.406125,-0.44531 0.321305,-0.26552 0.65544,0.0896 0.945175,0.0391 0.129935,-0.26793 0.95577,-0.4296 0.656075,-0.0156 -0.33854,-0.0389 -0.860235,0.13277 -0.85145,0.4375 0.26634,0.0391 0.157065,0.32665 0.23426,0.51563 0.10882,0.37162 -0.220395,0.13343 -0.22616,0.35937 0.51296,-0.22282 0.34473,0.64047 0.85911,0.58594 0.0479,0.27398 0.488795,-0.22629 0.484165,0.1875 0.331965,0.26216 0.525675,-0.11601 0.624825,-0.32031 0.44081,-0.19423 0.709465,0.67124 1.124685,0.10156 0.328095,-0.0399 0.3586,-0.48038 0.749875,-0.49219 0.374375,0.0128 -0.155185,0.49749 0.16404,0.71875 0.16445,0.55624 -0.0097,1.17834 -0.03125,1.74212 0.0253,0.81002 -0.981225,0.68457 -1.515225,0.617 -0.37944,0.22356 -0.71129,0.64785 -1.20284,0.39826 -0.45047,0.0481 -0.853015,-0.36353 -1.25765,-0.0469 -0.130755,-0.62895 -1.059715,0.17603 -1.109125,-0.53111 -0.63596,-0.2109 -1.492575,0.42677 -1.0311,1.08558 -0.180935,0.37413 -0.653485,0.378 -0.93731,0.10148 -0.344885,-0.24069 -0.757085,-0.21175 -1.13265,-0.2654 -0.189415,-0.33885 -0.31906,-0.70918 -0.780975,-0.73413 -0.32955,-0.35752 -0.9573,0.19604 -1.04684,-0.21086 -0.2864,-0.0711 -0.191015,-0.47494 -0.53906,-0.39046 -0.132705,-0.48305 0.658895,-0.54445 0.272575,-1.07799 -0.327925,-0.1749 0.226505,-0.65043 -0.296875,-0.63292 -0.340395,-0.2973 -0.71326,0.37957 -1.140625,0.008 -0.387705,-0.29921 -0.868455,0.36218 -1.21094,-0.10157 -0.303035,0.003 -0.61626,0.0992 -0.898435,0.0234 -0.331845,0.19913 -0.802075,0.0232 -1.007815,0.4375 -0.294185,-0.057 -0.492425,0.10144 -0.71875,0.23439 -0.257055,-0.0966 -0.462665,0.61863 -0.5625,0.0547 0.173435,-0.57015 -0.764869,-0.20711 -0.890624,-0.70315 -0.392662,-0.003 -0.218063,0.61131 -0.617188,0.69526 -0.358643,0.33202 -0.891024,0.34266 -1.09375,0.82774 -0.440064,0.33979 -0.19794,0.96999 -0.640625,1.28868 -0.247588,0.34715 -0.725859,0.41061 -1.125,0.4294 -0.461544,0.001 -0.311117,0.85371 -0.914062,0.58582 -0.138505,0.26892 -0.07846,0.68431 -0.421875,0.86704 -0.340124,0.28555 -0.387546,0.77914 -0.8125,0.97626 -0.01318,0.45782 0.366667,0.78325 0.140625,1.19514 0.268622,0.73242 -0.144399,1.44742 -0.53125,2.03871 0.239553,0.267 0.248307,0.63819 0.08594,0.98418 0.167349,0.36168 0.127982,0.26265 0.257813,0.69515 0.299628,0.76246 1.346287,1.06033 1.289062,1.99157 0.371617,0.40291 0.864783,0.73788 1.117188,1.24963 0.521618,0.16092 0.763009,0.65913 1.265625,0.81216 0.856669,-0.12249 1.715023,0.0353 2.499999,0.32014 0.864025,-0.19065 1.74605,-0.10961 2.61719,-0.1717 0.674205,-0.11148 0.761085,0.63795 1.10156,0.95283 0.61471,0.13214 1.38944,-0.0773 1.86719,0.43723 0.53018,0.55109 -0.13974,1.32702 -0.195315,1.89051 0.443805,0.61209 1.225445,0.82119 1.695315,1.39016 0.138285,0.51063 0.941375,0.93661 0.44521,1.4529 0.48621,0.13589 0.438585,0.65848 0.05473,0.906 -0.44926,0.3259 -0.740435,1.274 -0.03125,1.41383 0.468785,0.32289 1.02683,0.60359 1.124665,1.21839 0.377755,0.33791 0.94325,0.4366 1.343535,0.69496 0.88788,0.33093 1.80699,-0.26707 2.734215,-0.18725 1.043985,-0.21849 2.15292,-0.55778 2.929475,-1.28869 0.3317,-0.4872 1.14787,-0.46515 1.39825,-0.97627 -0.12523,-0.35542 -0.05928,-0.48629 0.32805,-0.61704 0.741165,-0.70127 1.85586,-0.91568 2.41355,-1.7494 0.06911,-0.41119 0.470675,-1.01584 -0.08599,-1.23421 0.04495,-0.34876 0.12627,-0.74817 -0.21085,-0.94519 0.313565,-1.06003 1.21738,-1.80121 1.8665,-2.67908 0.281345,-0.72989 0.939135,-1.18227 1.42935,-1.72616 0.613825,-1.01479 1.56379,-2.03998 1.34314,-3.34329 0.07349,-0.329 -0.01365,-1.05192 -0.359275,-0.50781 -0.65214,0.10684 -1.047375,0.63541 -1.585565,0.93711 -0.273425,0.27926 -0.621555,-0.18275 -0.851435,-0.23437 0.4217,-0.2493 0.0325,-0.5279 -0.3125,-0.59355 -0.417885,-0.21015 -0.64553,-0.68259 -1.179365,-0.65594 -0.48132,-0.28807 -0.444065,-1.22526 -1.14025,-1.23399 -0.114175,-0.66719 -0.241525,-1.49161 -0.91375,-1.80446 -0.41481,-0.30386 -0.46395,-0.86419 -0.827925,-1.24209 -0.2682,-0.42649 -0.419195,-0.96472 -0.874735,-1.2498 -0.18397,-0.24712 -0.366055,-0.58422 -0.39044,-0.86703 0.392445,-0.0698 0.23289,0.49142 0.570175,0.57798 -0.0128,0.46344 0.45201,0.46089 0.726375,0.24997 0.333275,0.1156 0.572275,0.61168 0.83555,0.90602 0.39081,0.28861 0.42734,0.95761 1.03104,0.86698 0.09013,0.29473 0.350065,0.53952 0.429475,0.84358 0.03525,0.78428 1.157065,0.6959 1.210525,1.48394 0.589755,0.17348 0.652865,0.78036 0.616925,1.32001 0.18507,0.3737 0.52367,1.15792 0.991935,0.531 0.49364,-0.61548 1.3844,-0.83201 1.81995,-1.50743 -0.04255,-0.84278 -0.03425,-1.74707 -0.29671,-2.54663 -0.0446,-0.88689 -0.36362,-1.70987 -0.460665,-2.59356 0.01535,-0.51015 -0.321095,-0.64467 -0.734235,-0.7888 -0.41574,-0.28857 -0.806815,-1.12444 -0.07015,-1.21856 0.490975,0.0875 0.02245,-0.495 0.06265,-0.75774 -0.191515,-0.72626 -0.478685,-1.41987 -0.71825,-2.09375 -0.143835,-0.24099 -0.188915,-0.45451 -0.304615,-0.78906 -0.445355,0.10468 -0.7412,-0.0867 -0.671735,-0.5625 -0.07524,-0.39329 0.21238,-1.03934 -0.398415,-1.0625 -0.60576,-0.46193 -1.411625,-1.14787 -1.132425,-2.01563 0.22198,-0.40798 0.540545,-0.92124 0.06231,-1.35156 -0.223915,-0.57637 -0.724485,-1.01229 -0.89029,-1.53125 -0.350145,-0.67014 -0.72797,-1.45845 -1.280825,-2.00781 -0.43915,-0.68524 -0.795005,-1.42837 -1.36586,-2.04462 -0.23617,-0.48392 -0.7271,-0.80003 -0.93719,-1.30468 -0.309615,-0.24076 -0.57752,-1.06599 -0.991975,-0.77344 0.05023,0.52643 -0.836355,0.58554 -0.71065,1.14062 0.2392,0.46458 -0.6988,0.1742 -0.601375,0.53125 0.48219,0.25664 -0.427275,0.24503 -0.523325,-0.0547 -0.09787,-0.37125 -0.363745,-0.47689 -0.64046,-0.67188 0.0459,-0.44339 0.664875,0.20027 0.999935,0.0547 0.711465,0.10489 0.55466,-0.73431 -2.5e-5,-0.76563 -0.60163,-0.14866 -1.27496,-0.003 -1.720225,-0.48437 -0.223955,-0.0296 -0.409305,-0.17816 -0.63291,-0.20313 z m -9.171875,0.78125 c -0.526,-4.7e-4 0.187475,0.57001 -0.3125,0.46875 -0.21811,0.0825 0.240665,0.3614 -0.1875,0.38282 0.132705,0.0747 0.475235,0.62648 0.84375,0.30468 0.46076,-0.0842 1.155995,-0.29296 0.835935,-0.89062 -0.342535,0.0653 -0.5883,-0.0692 -0.929685,0.0781 -0.245255,-0.0357 0.07676,-0.32662 -0.25,-0.34375 z m -9.0625021,2.0625 c -0.42859,0.31355 -1.172093,0.54764 -1.046875,1.1875 0.185708,0.15637 0.03619,0.90175 0.304688,0.42969 -0.03871,-0.36306 0.139748,-0.66314 0.398437,-0.79687 -0.158739,-0.43667 0.199411,-0.46932 0.34375,-0.82032 z m 11.2656271,1.78125 c -0.410745,-0.0146 -0.538095,0.35028 -0.86719,0.48438 0.10778,0.2298 -0.193045,0.29192 -0.0625,0.53906 -0.273645,0.14452 0.320955,0.28736 0.05469,0.59375 0.31253,0.0699 0.48455,0.27451 0.38281,0.66406 -0.127415,0.29794 -0.604775,0.0837 -0.40625,0.60938 -0.47283,0.10054 -0.48255,0.2657 -0.0078,0.29687 0.35665,0.29304 -0.327735,0.12259 -0.46094,0.36719 -0.602175,0.37755 0.4326,0.25943 0.734375,0.23438 0.47941,-0.13268 1.068975,0.13765 1.27344,-0.39844 0.3046,-0.35053 0.0352,-0.5684 -0.226565,-0.75 -0.03905,-0.47088 -0.40167,-0.72265 -0.40625,-1.22656 -0.55091,-0.2579 0.247285,-0.55845 0.296875,-0.85157 -0.16654,-0.11189 -0.81632,0.0309 -0.40625,-0.28125 0.1575,-0.0313 0.30476,-0.18273 0.101565,-0.28125 z m -1.664065,1.35938 c -0.346965,0.16198 -0.169785,0.68169 -0.546875,0.32812 -0.321055,0.18248 5e-4,0.57936 -0.296875,0.82032 -0.48394,0.14742 -0.12825,0.71935 0.25,0.32031 0.51748,0.006 0.833275,-0.42269 0.820315,-0.89063 0.330265,-0.16498 0.16372,-0.69177 -0.226565,-0.57812 z m 4.289065,6.77344 c -0.381735,0.40433 0.3604,0.7841 0.19531,0.16406 0.03745,-0.14336 -0.110365,-0.14622 -0.19531,-0.16406 z m 0,0 c -0.112625,-0.0543 -0.06551,0.17151 0,0 z m -0.03125,0.86718 c -0.299485,0.0815 -0.3296,1.03224 -0.03125,1.03125 0.38193,-0.11095 0.375465,-0.89456 0.03125,-1.03125 z m 10.28906,2.15625 c -0.23681,0.0505 -1.02102,0.48885 -0.39835,0.49219 0.34826,0.0157 0.28941,-0.31647 0.39835,-0.49219 z m -4.09375,0.50782 c -0.520695,0.21688 0.82064,0.65705 0.874865,0.11716 -0.27802,-0.081 -0.61282,0.0259 -0.874865,-0.11716 z m -27.5624991,2.64062 c 0.324262,4.26208 1.795894,8.48216 4.25,11.96095 0.35673,-0.53357 0.405682,-1.18558 0.04687,-1.70305 -0.179863,-0.67289 -0.956231,-0.97494 -1.210937,-1.64815 -0.390307,-0.55625 -0.751268,-1.12202 -1.085938,-1.71087 -0.371004,-0.76044 -0.53971,-1.54478 -0.90625,-2.30452 -0.435922,-0.8066 -0.411367,-1.78578 -0.539062,-2.69523 -0.26101,-0.60898 -0.118107,-1.34989 -0.554688,-1.89913 z m 38.9609391,15.34375 c -0.935515,0.34864 -1.53503,1.1931 -2.34354,1.75751 0.02255,0.52488 -0.111455,0.90021 -0.562435,1.17179 -0.45786,0.48727 0.26151,0.49834 0.53911,0.17969 0.66145,-0.45792 0.91053,-1.34288 1.741925,-1.59353 0.243515,-0.48969 0.448345,-0.99866 0.62494,-1.51546 z"
       id="path3000"
       inkscape:connector-curvature="0"
       sodipodi:nodetypes="cccccccccccccccccccccccccccccccccccccccccccccccccccccccccccccccccccccccccccccccccccccccccccccccccccccccccccccccccccccccccccccccccccccccccccccccccccccccccccccccccccccccccccccccccccccccccccccccccccccccccccccccccccccccccccccccccccccccccccccccccccccccccccccccccccccccccccccccccccccccccccccccccccccccccccccccccccccccccccccccccccccccccccccccccccccccccc" />
    <path
       inkscape:connector-curvature="0"
       id="path3893"
       d="m 57.564385,219.51795 c -0.459155,0.40564 -0.07973,1.19727 -0.382665,1.72653 0.04725,0.62032 -0.369685,1.81395 0.210975,2.03911 0.26007,-0.14336 0.97788,0.10944 0.68749,-0.39054 -0.78114,-0.64002 -0.125715,-1.8326 -0.359315,-2.67963 -0.101135,-0.21574 0.19815,-0.67996 -0.156485,-0.69547 z m 1.6875,0.875 c -0.65739,0.0497 -0.47982,0.52943 -0.06257,0.71865 -0.288645,0.21948 -0.81394,0.0761 -0.4609,0.70314 0.05175,0.6398 0.674375,1.12968 0.640525,1.71875 -0.25265,-0.21522 -1.341805,-0.40543 -0.7734,0.0547 0.445815,0.47936 -0.62211,0.43319 -0.71079,0.88264 -0.746845,0.99527 0.439045,2.71815 0.252845,3.97756 0.364835,2.80037 0.191525,5.71895 -0.05752,8.45985 0.254055,0.57297 0.06542,1.21494 0.249915,1.78119 -0.16299,0.4967 -0.271375,1.0939 -0.90614,1.06236 0.0411,0.73691 -2.04255,3.38194 -1.05471,3.29689 0.37979,-0.0452 0.69437,-0.52005 0.9218,-0.52335 0.31744,0.0406 0.705955,-0.52976 1.054625,-0.7811 0.317685,-0.23001 0.463735,-0.82249 0.827985,-0.8749 0.970315,-0.30193 1.914725,-2.99427 2.527635,-4.21252 2.23661,-5.41404 0.789135,-11.58442 -2.449295,-16.26385 z m -2.484375,22.74219 c -0.537515,0.40436 -0.906055,1.0586 -1.5935,1.24958 -0.25581,0.74235 -3.2404,3.56604 -1.703125,2.2891 0.87061,-0.71248 1.83085,-1.37627 2.702675,-2.1087 0.50919,-0.21918 0.976455,-0.75026 1.06236,-1.27327 -0.14059,-0.2458 -0.424385,0.23364 -0.46841,-0.15671 z"
       style="fill:url(#radialGradient3895);fill-opacity:1;stroke:none"
       sodipodi:nodetypes="cccccccccccccccccccccccccccc" />
  </g>
  <g
     style="display:inline"
     inkscape:label="sphere outline"
     id="g3828"
     inkscape:groupmode="layer"
     transform="translate(0,-192)">
    <path
       sodipodi:nodetypes="cccssscc"
       inkscape:connector-curvature="0"
       d="m 48.362298,218.10329 c -4.092305,-9.94785 -11.302835,-16.50462 -22.12865,-19.12977 15.69925,12.0521 19.02863,35.83988 12.92223,42.76954 -2.6031,1.68801 -5.273495,2.72052 -8.57736,3.31235 -13.215474,2.36735 -25.8478421,-6.4268 -28.2151841,-19.64227 -2.367343,-13.21548 6.426803,-25.84784 19.6422741,-28.21519 13.215475,-2.36734 25.82045,6.27388 28.18779,19.48935 z"
       style="fill:none;stroke:#000000;stroke-width:1px;stroke-linecap:butt;stroke-linejoin:miter;stroke-opacity:1"
       id="path3830" />
    <path
       sodipodi:nodetypes="cscc"
       inkscape:connector-curvature="0"
       d="m 53.76974,213.98224 c 14.95696,14.28925 8.67663,25.74941 0.03905,32.88031 -1.14063,0.94166 -2.535325,1.81126 -3.969742,2.39242 13.842192,-7.5875 7.477547,-29.7274 3.908352,-35.27273"
       style="fill:none;stroke:#000000;stroke-width:0.5;stroke-linecap:butt;stroke-linejoin:miter;stroke-opacity:1;stroke-miterlimit:4;stroke-dasharray:none"
       id="path3832" />
    <path
       sodipodi:nodetypes="cccsc"
       inkscape:connector-curvature="0"
       d="m 41.068848,223.7367 12.707662,-9.74578 c 3.429925,5.58913 9.885775,27.2942 -3.811787,35.28919 -2.151305,0.88 -3.556465,1.09228 -5.404375,1.08426 -3.695825,-0.016 -7.68981,-1.46166 -11.795075,-5.80177"
       style="fill:none;stroke:#000000;stroke-width:1px;stroke-linecap:butt;stroke-linejoin:miter;stroke-opacity:1;display:inline"
       id="path3045" />
  </g>
  <g
     inkscape:groupmode="layer"
     id="layer7"
     inkscape:label="shine"
     transform="translate(0,-192)">
    <path
       style="fill:url(#linearGradient3919);fill-opacity:1;stroke:url(#linearGradient3917);stroke-width:1.5;stroke-linecap:butt;stroke-linejoin:miter;stroke-miterlimit:4;stroke-opacity:1;stroke-dasharray:none;display:inline;enable-background:new"
       d="m 26.306568,196.80702 c -1.41824,0.004 -2.859245,0.13169 -4.304685,0.39062 -12.1539371,2.17719 -20.5603011,13.03654 -19.9921891,25.04688 20.3753341,7.77978 24.7557591,-0.86216 36.9531241,-5.92969 -2.551215,-6.42893 -6.73493,-12.74406 -12.72656,-17.34375 9.278965,2.25005 15.89964,7.39174 20.179685,15.07812 0.954525,-0.19008 1.95157,-0.35131 3,-0.48437 -3.20952,-10.06318 -12.612585,-16.78711 -23.109375,-16.75781 z"
       id="path3892"
       inkscape:connector-curvature="0" />
  </g>
</svg>
