<?xml version="1.0" encoding="UTF-8" standalone="no"?>
<!-- Created with Inkscape (http://www.inkscape.org/) -->

<svg
   xmlns:dc="http://purl.org/dc/elements/1.1/"
   xmlns:cc="http://creativecommons.org/ns#"
   xmlns:rdf="http://www.w3.org/1999/02/22-rdf-syntax-ns#"
   xmlns:svg="http://www.w3.org/2000/svg"
   xmlns="http://www.w3.org/2000/svg"
   xmlns:xlink="http://www.w3.org/1999/xlink"
   xmlns:sodipodi="http://sodipodi.sourceforge.net/DTD/sodipodi-0.dtd"
   xmlns:inkscape="http://www.inkscape.org/namespaces/inkscape"
   width="16"
   height="16"
   id="svg2"
   inkscape:label="Pozadí"
   version="1.1"
   inkscape:version="0.48.0 r9654"
   sodipodi:docname="logo-vector-16.svg"
   style="display:inline;enable-background:new"
   inkscape:export-filename="/home/mosra/C++/map2x/artwork/logo/export/logo-16.png"
   inkscape:export-xdpi="90"
   inkscape:export-ydpi="90">
  <defs
     id="defs3">
    <linearGradient
       id="linearGradient3903">
      <stop
         style="stop-color:#ffffff;stop-opacity:0;"
         offset="0"
         id="stop3905" />
      <stop
         id="stop3912"
         offset="0.5"
         style="stop-color:#ffffff;stop-opacity:1;" />
      <stop
         style="stop-color:#ffffff;stop-opacity:0;"
         offset="1"
         id="stop3907" />
    </linearGradient>
    <linearGradient
       id="linearGradient3895">
      <stop
         style="stop-color:#ffffff;stop-opacity:1;"
         offset="0"
         id="stop3897" />
      <stop
         style="stop-color:#ffffff;stop-opacity:0;"
         offset="1"
         id="stop3899" />
    </linearGradient>
    <linearGradient
       id="linearGradient3869">
      <stop
         style="stop-color:#edb88e;stop-opacity:1;"
         offset="0"
         id="stop3871" />
      <stop
         id="stop3878"
         offset="0.5"
         style="stop-color:#c33a20;stop-opacity:1;" />
      <stop
         style="stop-color:#150603;stop-opacity:1;"
         offset="1"
         id="stop3873" />
    </linearGradient>
    <linearGradient
       id="linearGradient3944">
      <stop
         style="stop-color:#c19665;stop-opacity:1;"
         offset="0"
         id="stop3946" />
      <stop
         style="stop-color:#000000;stop-opacity:1;"
         offset="1"
         id="stop3948" />
    </linearGradient>
    <linearGradient
       id="linearGradient3909">
      <stop
         style="stop-color:#dff0fa;stop-opacity:1;"
         offset="0"
         id="stop3911" />
      <stop
         id="stop3931"
         offset="1"
         style="stop-color:#006198;stop-opacity:1;" />
    </linearGradient>
    <linearGradient
       id="linearGradient3877">
      <stop
         id="stop3879"
         offset="0"
         style="stop-color:#fff2da;stop-opacity:1;" />
      <stop
         style="stop-color:#f4db9a;stop-opacity:1;"
         offset="0.51111114"
         id="stop3881" />
      <stop
         id="stop3883"
         offset="1"
         style="stop-color:#d39833;stop-opacity:1;" />
    </linearGradient>
    <linearGradient
       id="linearGradient3847">
      <stop
         style="stop-color:#afceff;stop-opacity:1;"
         offset="0"
         id="stop3849" />
      <stop
         id="stop3855"
         offset="0.50683612"
         style="stop-color:#508eee;stop-opacity:1;" />
      <stop
         style="stop-color:#001b45;stop-opacity:1;"
         offset="1"
         id="stop3851" />
    </linearGradient>
    <linearGradient
       id="linearGradient3848">
      <stop
         style="stop-color:#b1c9ff;stop-opacity:1;"
         offset="0"
         id="stop3850" />
      <stop
         style="stop-color:#b1c9ff;stop-opacity:0;"
         offset="1"
         id="stop3852" />
    </linearGradient>
    <filter
       inkscape:collect="always"
       id="filter3839"
       x="-0.27000001"
       width="1.54"
       y="-0.54000002"
       height="2.0799999"
       color-interpolation-filters="sRGB">
      <feGaussianBlur
         inkscape:collect="always"
         stdDeviation="8.2958776"
         id="feGaussianBlur3841" />
    </filter>
    <radialGradient
       inkscape:collect="always"
       xlink:href="#linearGradient3847"
       id="radialGradient3853"
       cx="84.828728"
       cy="87.145508"
       fx="84.828728"
       fy="87.145508"
       r="96.430199"
       gradientTransform="matrix(0.06249861,-4.161825e-4,4.62955e-4,0.0695227,0.02107394,240.50472)"
       gradientUnits="userSpaceOnUse" />
    <radialGradient
       inkscape:collect="always"
       xlink:href="#linearGradient3877"
       id="radialGradient3875"
       cx="92.093979"
       cy="99.315521"
       fx="92.093979"
       fy="99.315521"
       r="121.44665"
       gradientTransform="matrix(0.0625,0,0,0.05129252,0.06308744,242.31214)"
       gradientUnits="userSpaceOnUse" />
    <radialGradient
       inkscape:collect="always"
       xlink:href="#linearGradient3847"
       id="radialGradient3891"
       cx="224.77557"
       cy="141.61234"
       fx="224.77557"
       fy="141.61234"
       r="26.395712"
       gradientTransform="matrix(0.14788893,0,0,0.16822207,-19.02819,225.78157)"
       gradientUnits="userSpaceOnUse" />
    <radialGradient
       inkscape:collect="always"
       xlink:href="#linearGradient3877"
       id="radialGradient3895"
       gradientUnits="userSpaceOnUse"
       gradientTransform="matrix(0.02289713,0,0,0.02410496,7.153893,246.42989)"
       cx="274.53888"
       cy="133.60275"
       fx="274.53888"
       fy="133.60275"
       r="121.44665" />
    <filter
       inkscape:collect="always"
       id="filter3905"
       x="-0.23999999"
       width="1.48"
       y="-0.71999997"
       height="2.4399998"
       color-interpolation-filters="sRGB">
      <feGaussianBlur
         inkscape:collect="always"
         stdDeviation="11.364216"
         id="feGaussianBlur3907" />
    </filter>
    <radialGradient
       inkscape:collect="always"
       xlink:href="#linearGradient3909"
       id="radialGradient3915"
       cx="125.94925"
       cy="86.854347"
       fx="125.94925"
       fy="86.854347"
       r="51.630356"
       gradientTransform="matrix(-0.1065696,1.671875e-4,-2.394975e-4,-0.152661,25.908372,262.55642)"
       gradientUnits="userSpaceOnUse" />
    <radialGradient
       inkscape:collect="always"
       xlink:href="#linearGradient3909"
       id="radialGradient3925"
       cx="107.37955"
       cy="63.617069"
       fx="107.37955"
       fy="63.617069"
       r="44.757305"
       gradientTransform="matrix(0.06249013,-8.54085e-4,0.00131207,0.09599875,2.671605,240.08114)"
       gradientUnits="userSpaceOnUse" />
    <filter
       inkscape:collect="always"
       id="filter3829"
       color-interpolation-filters="sRGB">
      <feGaussianBlur
         inkscape:collect="always"
         stdDeviation="0.95953497"
         id="feGaussianBlur3831" />
    </filter>
    <filter
       inkscape:collect="always"
       id="filter3837"
       color-interpolation-filters="sRGB">
      <feGaussianBlur
         inkscape:collect="always"
         stdDeviation="0.74459452"
         id="feGaussianBlur3839" />
    </filter>
    <radialGradient
       inkscape:collect="always"
       xlink:href="#linearGradient3869"
       id="radialGradient3876"
       cx="227.47519"
       cy="146.57544"
       fx="227.47519"
       fy="146.57544"
       r="52.122025"
       gradientTransform="matrix(-0.0733692,-0.02982333,0.05349977,-0.13161624,22.334094,275.85808)"
       gradientUnits="userSpaceOnUse" />
    <radialGradient
       inkscape:collect="always"
       xlink:href="#linearGradient3869"
       id="radialGradient3886"
       cx="145.14137"
       cy="73.942093"
       fx="145.14137"
       fy="73.942093"
       r="46.566486"
       gradientTransform="matrix(0.12710675,0,0,0.10955998,-9.4202315,238.4548)"
       gradientUnits="userSpaceOnUse" />
    <linearGradient
       inkscape:collect="always"
       xlink:href="#linearGradient3895"
       id="linearGradient3919"
       gradientUnits="userSpaceOnUse"
       x1="77.155663"
       y1="-29.950439"
       x2="77.016068"
       y2="164.04956"
       gradientTransform="matrix(0.0625,0,0,0.0625,0.06308754,241.11419)" />
  </defs>
  <sodipodi:namedview
     id="base"
     pagecolor="#ffffff"
     bordercolor="#666666"
     borderopacity="1.0"
     inkscape:pageopacity="0.0"
     inkscape:pageshadow="2"
     inkscape:zoom="1"
     inkscape:cx="-144.47236"
     inkscape:cy="-48.602122"
     inkscape:document-units="px"
     inkscape:current-layer="layer7"
     showgrid="false"
     inkscape:window-width="1920"
     inkscape:window-height="1033"
     inkscape:window-x="0"
     inkscape:window-y="0"
     inkscape:window-maximized="1"
     inkscape:snap-page="false"
     inkscape:snap-global="false"
     inkscape:snap-bbox="true"
     inkscape:bbox-nodes="true" />
  <metadata
     id="metadata6">
    <rdf:RDF>
      <cc:Work
         rdf:about="">
        <dc:format>image/svg+xml</dc:format>
        <dc:type
           rdf:resource="http://purl.org/dc/dcmitype/StillImage" />
        <dc:title></dc:title>
      </cc:Work>
    </rdf:RDF>
  </metadata>
  <g
     inkscape:label="render"
     inkscape:groupmode="layer"
     id="layer1"
     transform="translate(0,-1036.3622)"
     style="opacity:0.54863808;display:none">
    <image
       y="726.54993"
       x="-83.842659"
       id="image3046"
       xlink:href="file:///home/mosra/C++/map2x/artwork/logo/logo.png"
       height="409.54318"
       width="409.54318" />
  </g>
  <g
     inkscape:groupmode="layer"
     id="layer5"
     inkscape:label="shadow"
     style="opacity:0.43579766;display:inline"
     transform="translate(0,-240)">
    <path
       sodipodi:type="arc"
       style="color:#000000;fill:#000000;fill-opacity:1;fill-rule:nonzero;stroke:none;stroke-width:1;marker:none;visibility:visible;display:inline;overflow:visible;filter:url(#filter3905);enable-background:accumulate"
       id="path3835"
       sodipodi:cx="103.79317"
       sodipodi:cy="199.93654"
       sodipodi:rx="56.821079"
       sodipodi:ry="18.940361"
       d="m 160.61425,199.93654 a 56.821079,18.940361 0 1 1 -113.642162,0 56.821079,18.940361 0 1 1 113.642162,0 z"
       transform="matrix(0.0625,0,0,0.0625,0.03152044,240.83009)" />
    <path
       sodipodi:type="arc"
       style="color:#000000;fill:#000000;fill-opacity:1;fill-rule:nonzero;stroke:none;stroke-width:1;marker:none;visibility:visible;display:inline;overflow:visible;filter:url(#filter3839);enable-background:accumulate"
       id="path3837"
       sodipodi:cx="158.84648"
       sodipodi:cy="210.54314"
       sodipodi:rx="36.870567"
       sodipodi:ry="18.435284"
       d="m 195.71705,210.54314 a 36.870567,18.435284 0 1 1 -73.74114,0 36.870567,18.435284 0 1 1 73.74114,0 z"
       transform="matrix(0.06769772,0,0,0.05714897,0.46381244,242.3513)" />
  </g>
  <g
     inkscape:groupmode="layer"
     id="layer3"
     inkscape:label="sphere inside"
     style="display:inline"
     transform="translate(0,-240)">
    <path
       id="path3858"
       style="fill:url(#radialGradient3915);fill-opacity:1;stroke:#000000;stroke-width:0.5;stroke-linecap:butt;stroke-linejoin:miter;stroke-miterlimit:4;stroke-opacity:1;stroke-dasharray:none"
       d="m 10.314204,248.20794 3.176916,-2.43644 c 0.857481,1.39728 2.471443,6.82355 -0.952948,8.82229 -0.537826,0.22 -0.889116,0.27307 -1.351093,0.27107 -0.923957,-0.004 -1.922452,-0.36542 -2.948769,-1.45044"
       inkscape:connector-curvature="0"
       sodipodi:nodetypes="cccsc" />
    <path
       sodipodi:nodetypes="cccc"
       inkscape:connector-curvature="0"
       d="m 12.137566,246.79959 c -1.023076,-2.48696 -2.825708,-4.12616 -5.532162,-4.78244 2.046826,1.52761 3.316811,4.09994 3.740735,6.15887 z"
       style="fill:url(#radialGradient3925);fill-opacity:1;stroke:#000000;stroke-width:0.5;stroke-linecap:butt;stroke-linejoin:miter;stroke-miterlimit:4;stroke-opacity:1;stroke-dasharray:none;display:inline"
       id="path3864" />
  </g>
  <g
     inkscape:groupmode="layer"
     id="layer6"
     inkscape:label="compass"
     style="display:inline"
     transform="translate(0,-240)">
    <path
       style="font-size:medium;font-style:normal;font-variant:normal;font-weight:normal;font-stretch:normal;text-indent:0;text-align:start;text-decoration:none;line-height:normal;letter-spacing:normal;word-spacing:normal;text-transform:none;direction:ltr;block-progression:tb;writing-mode:lr-tb;text-anchor:start;baseline-shift:baseline;opacity:0.98054474;color:#000000;fill:url(#radialGradient3876);fill-opacity:1;stroke:none;stroke-width:1;marker:none;visibility:visible;display:inline;overflow:visible;enable-background:accumulate;font-family:Sans;-inkscape-font-specification:Sans"
       d="m 13.484848,245.77608 -1.215571,0.98671 c 2.457321,4.30039 0.10938,8.91836 -4.043851,5.74778 l 0.0031,0.88076 c 2.276433,2.32962 4.537843,1.64596 5.65704,-0.11418 1.162579,-1.82836 1.25086,-4.92819 -0.40074,-7.50107 z"
       id="path3958"
       inkscape:connector-curvature="0"
       sodipodi:nodetypes="ccccsc" />
    <path
       style="font-size:medium;font-style:normal;font-variant:normal;font-weight:normal;font-stretch:normal;text-indent:0;text-align:start;text-decoration:none;line-height:normal;letter-spacing:normal;word-spacing:normal;text-transform:none;direction:ltr;block-progression:tb;writing-mode:lr-tb;text-anchor:start;baseline-shift:baseline;opacity:0.98054474;color:#000000;fill:url(#radialGradient3886);fill-opacity:1;stroke:none;stroke-width:1;marker:none;visibility:visible;display:inline;overflow:visible;enable-background:accumulate;font-family:Sans;-inkscape-font-specification:Sans"
       d="m 6.50254,241.98724 -0.706111,1.68467 c 1.785487,0.39323 4.079317,1.02124 5.256796,4.07503 l 1.094345,-0.95492 c -1.08818,-3.4307 -3.659006,-4.36738 -5.64503,-4.80478 z"
       id="path3954"
       inkscape:connector-curvature="0"
       sodipodi:nodetypes="ccccc" />
  </g>
  <g
     inkscape:groupmode="layer"
     id="layer2"
     inkscape:label="sphere"
     style="display:inline"
     transform="translate(0,-240)">
    <path
       id="path3839"
       style="fill:url(#radialGradient3853);fill-opacity:1;stroke:none"
       d="m 12.137566,246.79959 c -1.023076,-2.48696 -2.825708,-4.12615 -5.532162,-4.78244 3.924812,3.01303 4.757157,8.95997 3.230557,10.69239 -0.650775,0.422 -1.318373,0.68013 -2.14434,0.82808 -3.303868,0.59184 -6.46196,-1.6067 -7.05379546,-4.91056 -0.5918361,-3.30387 1.60670046,-6.46196 4.91056846,-7.0538 3.303869,-0.59184 6.455112,1.56847 7.046947,4.87234 z"
       inkscape:connector-curvature="0"
       sodipodi:nodetypes="cccssscc" />
    <path
       id="path3843"
       style="fill:url(#radialGradient3891);fill-opacity:1;stroke:#000000;stroke-width:0.5;stroke-linecap:butt;stroke-linejoin:miter;stroke-miterlimit:4;stroke-opacity:1;stroke-dasharray:none"
       d="m 13.489427,245.76933 c 3.73924,3.57231 2.169157,6.43735 0.0098,8.22007 -0.285157,0.23542 -0.633831,0.45282 -0.992436,0.59811 3.460548,-1.89688 1.869387,-7.43185 0.977089,-8.81818"
       inkscape:connector-curvature="0"
       sodipodi:nodetypes="cscc" />
  </g>
  <g
     style="display:inline"
     inkscape:label="continents blur"
     id="g3819"
     inkscape:groupmode="layer"
     transform="translate(0,-240)">
    <path
       sodipodi:nodetypes="cccccccccccccccccccccccccccccccccccccccccccccccccccccccccccccccccccccccccccccccccccccccccccccccccccccccccccccccccccccccccccccccccccccccccccccccccccccccccccccccccccccccccccccccccccccccccccccccccccccccccccccccccccccccccccccccccccccccccccccccccccccccccccccccccccccccccccccccccccccccccccccccccccccccccccccccccccccccccccccccccccccccccccccccccccccccccc"
       inkscape:connector-curvature="0"
       id="path3821"
       d="m 122,18.21875 c 0.59589,1.246885 3.01763,1.488444 3.40585,2.125 -1.21067,-0.362498 -5.31344,-0.491894 -2.4682,1.09375 1.19095,0.441944 3.09624,2.591393 3.9682,0.59375 -2.40754,-1.252086 0.70586,-0.397136 1.5311,0.15625 1.31934,0.961535 3.29397,0.04248 4.31205,1.03125 -1.29143,0.874477 2.84899,1.369404 0.0626,1.09375 -2.06855,-0.548498 -1.97126,1.393397 0,1.46875 1.5082,0.746812 -0.6219,2.401557 -1.65605,1.09375 -1.46902,-0.796551 -5.33625,0.564905 -3.2185,2.15625 1.76666,0.455584 0.79389,2.807087 2.56215,3.3125 0.6036,0.686813 2.11298,1.212626 1.18715,2.53125 28.47746,12.996291 50.07869,38.250282 61.5,67.09375 1.5709,-1.85757 5.99892,-2.811256 4.5626,-5.8125 1.1803,-2.124947 1.5905,2.62788 2.68826,0.227756 C 194.36072,57.205822 161.11211,24.534936 122,18.21875 z m -37.4375,1.6875 C 82.067093,19.835605 79.744866,21.985403 77.5,21.5625 74.500375,20.101503 61.685388,26.97366 56.134035,29.919518 41.337111,38.469502 28.788571,51.114997 20.4375,65.9375 c 2.14555,-0.107138 2.088303,-2.855615 3.84375,-3.78125 0.467284,-1.239917 0.9827,-2.394746 1.375,-0.75 0.536691,-1.318775 1.292974,-2.520857 3.03125,-2.125 1.517352,-0.924379 2.059653,0.614096 0.53125,1.03125 -0.608836,0.924503 -1.553067,1.320995 0.09375,1.59375 0.710996,0.446439 3.150946,0.545478 2.1875,-0.75 -1.381337,0.657053 -0.305344,-2.912654 0.9375,-3.25 0.370751,-1.733331 2.260214,-1.569822 2.53125,-3.28125 -2.438036,0.490811 -2.003673,-1.331569 -0.125,-1.59375 2.337937,0.48462 0.504319,4.761497 4.1875,3.4375 3.978177,-0.519718 3.13835,-5.683394 5.875,-7.75 0.970207,-2.573591 3.907969,-3.846002 5.15625,-5.8125 -1.162312,1.393078 -3.214307,0.237478 -1.4375,-1 2.171291,-1.413035 4.620975,-2.936801 5.5,-5.5 -1.346232,-0.73558 -2.957189,1.864928 -4.625,2.03125 -1.763428,1.444912 -3.014501,4.275623 -5.75,3.65625 -1.422563,0.412365 -2.699849,2.185626 -3.875,2.28125 1.514887,-2.319434 4.218258,-3.018978 5.65625,-5.5 1.693603,-1.618313 3.816256,-2.917426 5.65625,-4.5 2.338741,-1.358859 4.586851,-3.784211 7.5,-3.5625 0.468369,1.396658 -2.350116,1.15639 -1.78125,2.53125 1.503664,0.452792 3.087994,-0.862178 4.25,-1.9375 1.449834,1.065912 3.86651,-1.978024 4.53125,-0.9375 -0.587015,1.204294 -3.131916,1.089339 -3.125,2.03125 2.528282,-1.177149 1.345355,0.599808 -0.15625,0.9375 -1.802115,1.371602 -4.592721,0.04344 -5.53125,2.5 -0.886437,1.252854 -3.859456,2.440694 -3,3.96875 0.261535,-1.054244 2.491575,-2.919576 1.3125,-0.9375 -1.886566,1.784649 2.472565,0.763556 2.71875,-0.59375 0.440855,-1.227845 2.807573,-2.122434 1.3125,-0.40625 0.335182,1.809094 2.970859,-0.79036 3.53125,-1.6875 2.132388,-2.559226 5.119183,-4.052741 7.625,-6.1875 1.834178,-0.326938 2.793169,-1.531849 3.71875,-2.71875 0.849174,-1.144553 -2.978784,-0.839527 -3.625,0.15625 -1.258803,0.561314 -3.014117,1.305383 -4.34375,1.40625 1.859995,-1.901993 4.93155,-2.918159 7.5625,-2.84375 0.795672,0.905097 2.590976,-0.242886 2.75,-1.125 -1.432526,0.515018 -3.938572,-0.256136 -1.21875,-0.03125 2.83331,0.09319 1.210867,-1.400804 -0.4375,-0.46875 -1.38107,-0.124986 -3.876881,2.024642 -4.46875,0.875 2.367504,-1.044602 5.556002,-1.644663 7.71875,-1.9375 0.984159,-0.538149 2.616284,-1.202106 3.71875,-2.03125 0.808617,-0.07107 0.103614,1.621594 -0.53125,1.53125 -1.395464,0.729902 -0.777272,1.511589 -1.96875,1.96875 -1.375023,-0.784991 -4.398544,1.395512 -3.34375,2.59375 1.15661,0.783068 2.587032,-3.053047 2.75,-1.28125 -1.477131,1.528526 2.248557,0.298077 3,0.875 1.421795,-1.267058 3.590391,0.258197 4.8125,-1.21875 2.425885,0.281557 1.423973,-1.140035 -0.15625,-1.34375 -1.756976,-0.140996 -1.832759,-1.06943 -0.4375,-1.71875 0.756405,-0.373124 1.362518,-1.981769 1.3125,-2.375 -0.973458,0.09617 -3.011711,1.280741 -1.6875,-0.21875 -0.236236,-0.103699 -0.628217,-0.204605 -0.9375,-0.28125 z m 36.15625,6.15625 c -0.32395,2.702633 4.56486,2.919017 4.7803,0.59375 -1.7755,0.298871 -3.26466,0.716725 -4.7803,-0.59375 z M 86.4375,26.96875 c -1.407076,0.350923 -1.838313,1.680104 -3.625,1.34375 C 82.072369,27.885139 80.155009,27.07345 81,28.625 c -0.706257,0.573119 -1.501135,1.092586 -1.59375,-0.0625 -1.148753,-0.191333 -2.753,1.114815 -0.875,1.78125 -1.354921,1.218676 -3.590515,2.075958 -5,3.625 -1.892519,0.186716 -1.887057,2.531816 -4.0625,2.21875 -1.601046,0.448411 -0.09188,1.229622 -1.65625,1.90625 -2.043724,1.133178 -4.894253,1.011947 -6.1875,3.34375 -2.258628,0.95632 -2.625938,3.575442 -4.875,4.71875 -1.272851,0.686323 -1.960129,1.943789 -0.6875,2.71875 -1.216563,0.868405 -1.601564,2.909965 0.40625,1.84375 3.83197,-1.641115 7.040918,-5.64026 11.53125,-4.875 2.096148,-1.691418 4.567789,-1.386508 7.03125,-0.96875 2.532415,-0.611652 5.156858,-1.139906 6.8125,-3.25 2.95874,-1.31382 5.364559,-3.42377 7.375,-5.90625 1.797635,-1.455838 3.439186,-3.298036 5.53125,-4 -1.276357,-0.370512 -3.629052,-0.838291 -1.65625,-2.09375 -0.189237,-1.297223 -2.351611,-2.137431 -3.625,-2 -1.287876,0.614086 -1.821908,-0.762869 -3.03125,-0.65625 z m 17.9375,7.21875 c -1.55917,0.278672 -3.82573,0.514765 -2.18735,2.5625 -0.35253,2.490564 1.66712,2.405243 2.03045,0.375 0.69007,-3.080808 1.3706,1.702286 2.34355,-0.28125 0.15692,-0.85325 -1.97669,-1.644796 -1.24985,-1.90625 2.57046,-0.10386 1.37826,-0.963654 -0.53125,-0.625 l -0.40625,-0.125 z m 6.5625,11.6875 c -2.97418,0.604173 -5.30116,2.59712 -7.56115,4.40625 -0.755,1.757945 -2.52487,2.921349 -3.1856,4.78125 -0.385824,1.085908 -1.766891,1.565752 -1.65625,2.625 -1.761092,-0.09667 -2.594379,1.525085 -4.19075,1.6875 -2.411023,0.585996 -0.195814,3.557543 -1.3125,5.0625 -0.01049,1.329295 1.27624,2.955506 2.59375,1.3125 0.914298,-0.801034 2.264953,-1.245135 3.25,-1.40625 0.249955,2.086639 0.340072,5.084733 2.4057,6.0625 1.60468,0.315116 1.88821,-0.639339 2.43675,-1.875 0.60967,-1.591936 0.71285,-3.618541 2.81175,-4 1.22595,-1.708384 -2.41363,-1.679354 -1.9365,-3.71875 0.15568,-2.235766 2.83535,-3.07865 3.2801,-4.8125 0.2799,-1.437745 0.9478,-3.241443 2.9051,-2.5 1.46524,1.420917 -1.21904,2.814632 -1.65465,4.15625 -0.90808,1.316828 -0.15995,3.712513 0.5933,4.84375 2.53269,1.507884 4.88385,-1.742423 7.46785,-1.03125 1.14914,-0.291268 2.22784,0.919199 0.49955,1.28125 -1.47414,2.048728 -4.45657,0.443322 -5.99915,2.25 0.82513,1.041254 2.50109,2.73972 0.9056,3.96875 -1.15724,-0.37079 -3.00705,-2.635013 -2.6555,0.1875 -0.0652,1.951142 -0.0775,4.573268 -2.3735,5.03125 -1.73183,-1.588343 -3.6459,0.256904 -5.4674,0.84375 -1.43167,0.704975 -2.146276,-1.818486 -3.5934,-0.34375 -2.215666,0.408875 -3.698913,-3.149478 -1.21935,-3.875 0.268798,-0.883535 0.341188,-3.601812 -0.96875,-2 -1.708713,0.35309 -1.281868,3.122899 -1.0625,4.5 -0.241209,2.582378 -4.079133,1.118192 -5.125,3.09375 -1.393059,1.122511 -2.583508,2.656678 -4.15625,3.5625 -0.949244,1.524703 -2.997633,2.598079 -4.5625,2.53125 -1.261613,-1.433428 -0.617804,0.457819 -1.3125,1.0625 -1.001163,0.02582 -5.018003,-1.412601 -3.53125,0.65625 2.434703,1.355046 4.242564,4.550353 2.75,7.40625 -0.272645,2.175888 -2.605425,3.178848 -4.34375,1.84375 -2.042609,-0.187532 -4.115066,-0.488452 -5.875,-1.5625 -0.711469,1.149114 -2.612746,0.453883 -1.6875,2.40625 -0.757016,2.15625 -0.918367,5.175336 -2.84375,6.90625 -0.53274,1.16153 1.968727,0.0513 0.90625,1.625 -1.606135,1.74197 0.972023,2.51155 2.4375,1.8125 1.036985,0.58431 0.07157,4.18323 1.96875,2.4375 0.862506,-1.53083 2.73148,0.64554 4.09375,-0.0625 1.458623,0.6015 1.876921,-1.57397 3.1875,-1.84375 0.843937,-1.03514 1.477863,-1.70791 1.46875,-3.125 1.059844,-1.98864 3.293449,-3.517282 5.53125,-3.8125 0.909611,-0.937279 -1.010587,-3.499413 1.34375,-3.15625 1.012861,-1.544589 2.02817,-0.271504 2.78125,0.59375 1.727121,1.019021 2.581338,-1.860056 4.15625,-1.59375 1.451161,-1.700784 3.501166,0.195922 3.75,1.90625 0.595429,2.213203 2.568019,3.292781 4.531,4.21875 1.83247,1.05837 5.36822,3.16194 3.43665,5.78125 -1.39265,1.20161 -3.91288,0.0135 -5.28015,0.9375 0.658714,1.6473 3.16207,1.02536 4.1237,2.5625 0.18816,-1.23952 -0.26412,-2.8666 1.62595,-3 0.87895,-1.12477 2.35348,-2.17849 0.96825,-3.53125 -0.17485,-2.58889 2.15085,0.37017 2.96785,-0.34375 -0.80787,-2.06156 -3.58588,-2.26444 -5.06115,-3.9375 -2.99343,0.138253 -2.44005,-3.875774 -4.7496,-4.875 -1.110387,-1.298476 0.906317,-4.115809 2.09365,-2.5 -0.68035,1.03178 1.55062,1.126774 1.1871,2.5 1.32657,0.363926 2.22076,1.629709 3.71775,1.65625 1.07767,1.120681 2.35652,2.190584 3.8424,2.65625 1.35433,1.005636 0.57166,2.17778 0.4374,3.5625 0.8898,0.71059 1.77091,1.1102 2.0612,2.34375 1.56619,0.59351 -0.40829,1.57182 0.3749,2.625 0.59603,0.73959 1.14263,1.05939 1.7182,1.90625 1.04076,0.61492 1.46207,1.89976 2.0307,0.5 1.0911,1.09979 0.14725,-1.17795 -0.1562,-1.6875 0.76848,-0.2696 0.17474,-1.87439 1.2497,-0.6875 1.79441,0.043 -0.0469,-2.66508 -1.39995,-2.28125 -0.61075,-0.58043 0.64695,-1.74681 -0.781,-2.125 -0.75977,-1.76304 0.92344,-1.76321 1.24945,-0.40625 0.62756,-0.49192 0.21778,-2.220703 1.6245,-1.78125 1.28522,-1.062071 2.62176,0.35826 3.7807,0.15625 0.51974,-1.071724 3.82309,-1.718424 2.6243,-0.0625 -1.35415,-0.15564 -3.44094,0.53106 -3.4058,1.75 1.06536,0.15632 0.62826,1.30657 0.93705,2.0625 0.43528,1.48649 -0.88158,0.53374 -0.90465,1.4375 2.05184,-0.8913 1.37893,2.56185 3.43645,2.34375 0.19166,1.0959 1.95518,-0.90518 1.93665,0.75 1.32787,1.04864 2.10271,-0.46404 2.4993,-1.28125 1.76324,-0.77691 2.83787,2.68498 4.49875,0.40625 1.31238,-0.15954 1.43439,-1.92151 2.9995,-1.96875 1.49749,0.0512 -0.62074,1.98994 0.65615,2.875 0.65781,2.22495 -0.0388,4.71335 -0.1249,6.96845 0.10117,3.24009 -3.9249,2.73829 -6.0609,2.468 -1.51775,0.89424 -2.84516,2.59143 -4.81135,1.59305 -1.80189,0.19259 -3.41207,-1.45413 -5.0306,-0.1875 -0.52302,-2.51579 -4.23887,0.70412 -4.4365,-2.12445 -2.54384,-0.84357 -5.9703,1.70708 -4.1244,4.34235 -0.72375,1.49651 -2.61395,1.51197 -3.74925,0.4059 -1.37953,-0.96276 -3.02833,-0.84701 -4.5306,-1.0616 -0.75765,-1.35541 -1.27623,-2.83672 -3.1239,-2.9365 -1.318188,-1.43011 -3.829196,0.78415 -4.18735,-0.84345 -1.14561,-0.28426 -0.764062,-1.89975 -2.15625,-1.56185 -0.530817,-1.93219 2.635584,-2.17781 1.0903,-4.31195 -1.311693,-0.69962 0.906031,-2.60173 -1.1875,-2.5317 -1.361572,-1.18917 -2.853043,1.5183 -4.5625,0.0312 -1.550816,-1.19682 -3.473809,1.44874 -4.84375,-0.40625 -1.212152,0.0113 -2.465038,0.39676 -3.59375,0.0937 -1.327371,0.79651 -3.208289,0.0925 -4.03125,1.75 -1.176737,-0.22803 -1.969702,0.40574 -2.875,0.93755 -1.028224,-0.38631 -1.850661,2.47452 -2.25,0.2188 0.693735,-2.2806 -3.059479,-0.82846 -3.5625,-2.8126 -1.570646,-0.0129 -0.872251,2.44525 -2.46875,2.78105 -1.434572,1.32807 -3.564095,1.37062 -4.375,3.31095 -1.760257,1.35914 -0.79176,3.87996 -2.5625,5.1547 -0.990354,1.38863 -2.903435,1.64247 -4.5,1.7176 -1.846175,0.006 -1.244468,3.41487 -3.65625,2.3433 -0.554017,1.07567 -0.31385,2.73723 -1.6875,3.46815 -1.360495,1.1422 -1.550184,3.11655 -3.25,3.90505 -0.05271,1.83127 1.46667,3.13298 0.5625,4.78055 1.074488,2.92968 -0.577594,5.78967 -2.125,8.15485 0.958214,1.06798 0.993229,2.55277 0.34375,3.9367 0.669394,1.44672 0.511929,1.05061 1.03125,2.7806 1.198513,3.04986 5.385149,4.24135 5.15625,7.9663 1.486467,1.61162 3.459133,2.95152 4.46875,4.9985 2.086473,0.64369 3.052039,2.63652 5.0625,3.24865 3.426678,-0.48997 6.860093,0.14091 10,1.28055 3.456088,-0.76258 6.984205,-0.43841 10.46875,-0.6868 2.69682,-0.44592 3.044354,2.55182 4.40625,3.81135 2.458844,0.52856 5.557755,-0.30905 7.46875,1.7489 2.120728,2.20436 -0.558944,5.30808 -0.78125,7.56205 1.775208,2.44836 4.901782,3.28476 6.78125,5.56065 0.553149,2.04251 3.76551,3.74643 1.78085,5.8116 1.94483,0.54356 1.75434,2.6339 0.2189,3.624 -1.79705,1.3036 -2.961736,5.09597 -0.125,5.6553 1.87514,1.29156 4.10732,2.41438 4.49865,4.87355 1.51103,1.35167 3.773,1.74641 5.37415,2.77985 3.55152,1.32374 7.22795,-1.06826 10.93685,-0.749 4.17595,-0.87395 8.61168,-2.23112 11.7179,-5.15475 1.3268,-1.94882 4.59149,-1.86061 5.593,-3.9051 -0.50091,-1.42166 -0.23711,-1.94513 1.3122,-2.46815 2.96466,-2.80506 7.42345,-3.6627 9.6542,-6.9976 0.27644,-1.64475 1.8827,-4.06335 -0.34395,-4.93685 0.1798,-1.39503 0.50507,-2.99265 -0.8434,-3.78075 1.25426,-4.24011 4.86951,-7.20485 7.466,-10.7163 1.12538,-2.91956 3.75653,-4.72908 5.7174,-6.90465 2.4553,-4.05915 6.25515,-8.15992 5.37255,-13.37315 0.29395,-1.31601 -0.0547,-4.20769 -1.4371,-2.03125 -2.60856,0.42737 -4.1895,2.54163 -6.34225,3.74845 -1.09371,1.11703 -2.48623,-0.731 -3.40575,-0.9375 1.6868,-0.99719 0.13003,-2.11161 -1.25,-2.3742 -1.67154,-0.84059 -2.58211,-2.73035 -4.71745,-2.62375 -1.92528,-1.15229 -1.77626,-4.90104 -4.561,-4.93595 -0.45671,-2.66877 -0.96611,-5.96646 -3.655,-7.21785 -1.65925,-1.21546 -1.8558,-3.45678 -3.3117,-4.96835 -1.0728,-1.70596 -1.67679,-3.85891 -3.49895,-4.9992 -0.73587,-0.98848 -1.46421,-2.33688 -1.56175,-3.46815 1.56978,-0.27933 0.93155,1.96568 2.2807,2.31195 -0.0512,1.85374 1.80804,1.84356 2.9055,0.99985 1.33309,0.46241 2.2891,2.44675 3.3422,3.6241 1.56324,1.15444 1.70936,3.83045 4.12415,3.4679 0.36055,1.17895 1.40027,2.15811 1.7179,3.37435 0.14108,3.13709 4.62827,2.78357 4.8421,5.93575 2.35902,0.69393 2.61147,3.12145 2.4677,5.28005 0.74029,1.49479 2.09469,4.63167 3.96775,2.124 1.97455,-2.46194 5.53759,-3.32807 7.2798,-6.02975 -0.17023,-3.37109 -0.13709,-6.98826 -1.18685,-10.1865 -0.17832,-3.54757 -1.45448,-6.8395 -1.84265,-10.37425 0.0614,-2.04061 -1.28438,-2.57869 -2.93695,-3.1552 -1.66296,-1.15429 -3.22726,-4.49776 -0.2806,-4.87425 1.96391,0.34982 0.0897,-1.97999 0.2506,-3.03095 -0.76605,-2.90503 -1.91473,-5.67948 -2.873,-8.375 -0.57534,-0.96394 -0.75565,-1.818016 -1.21845,-3.15625 -1.78143,0.418747 -2.96481,-0.346629 -2.68695,-2.25 -0.30095,-1.57315 0.84952,-4.157346 -1.59365,-4.25 -2.42304,-1.84772 -5.6465,-4.591475 -4.5297,-8.0625 0.88792,-1.631908 2.16217,-3.684954 0.24925,-5.40625 -0.89566,-2.305479 -2.89794,-4.049159 -3.56115,-6.125 -1.40059,-2.680547 -2.91188,-5.833795 -5.1233,-8.03125 -1.7566,-2.740921 -3.18002,-5.713457 -5.46345,-8.17845 -0.94468,-1.935681 -2.9084,-3.200141 -3.74875,-5.21875 -1.23847,-0.963009 -2.31008,-4.263955 -3.9679,-3.09375 0.20092,2.105738 -3.34542,2.342152 -2.8426,4.5625 0.9568,1.858319 -2.79521,0.696784 -2.4055,2.125 1.92876,1.026542 -1.7091,0.980124 -2.0933,-0.21875 -0.39149,-1.484985 -1.45499,-1.907522 -2.56185,-2.6875 0.18352,-1.773544 2.6595,0.801063 3.99975,0.21875 2.84585,0.419571 2.21864,-2.937244 -1e-4,-3.0625 -2.40652,-0.59464 -5.09985,-0.0122 -6.8809,-1.9375 -0.89582,-0.118113 -1.63722,-0.712629 -2.53165,-0.8125 z M 74.25,49 c -2.103994,-0.0019 0.749901,2.280012 -1.25,1.875 -0.87244,0.329875 0.962658,1.445606 -0.75,1.53125 0.530833,0.299009 1.900945,2.505929 3.375,1.21875 1.843038,-0.336645 4.623982,-1.171839 3.34375,-3.5625 C 77.598609,50.323782 76.615548,49.785873 75.25,50.375 74.268986,50.232473 75.55704,49.06852 74.25,49 z M 38,57.25 c -1.714362,1.254191 -4.688372,2.190544 -4.1875,4.75 0.742832,0.625483 0.144741,3.606992 1.21875,1.71875 -0.154829,-1.452256 0.558993,-2.65257 1.59375,-3.1875 C 35.990045,58.784604 37.422642,58.654009 38,57.25 z m 45.0625,7.125 c -1.642973,-0.05867 -2.152368,1.401093 -3.46875,1.9375 0.431112,0.919192 -0.772189,1.167704 -0.25,2.15625 -1.094581,0.578066 1.283824,1.149427 0.21875,2.375 1.250119,0.279692 1.938208,1.098037 1.53125,2.65625 -0.50966,1.191754 -2.419107,0.334842 -1.625,2.4375 -1.891325,0.402171 -1.930203,1.062811 -0.03125,1.1875 1.426602,1.172148 -1.31094,0.490336 -1.84375,1.46875 -2.408709,1.510204 1.730404,1.037728 2.9375,0.9375 1.917646,-0.530687 4.275889,0.550616 5.09375,-1.59375 1.218402,-1.402101 0.140825,-2.273603 -0.90625,-3 -0.156263,-1.883495 -1.606683,-2.890602 -1.625,-4.90625 -2.203639,-1.031599 0.98913,-2.233785 1.1875,-3.40625 -0.666156,-0.447553 -3.265275,0.123425 -1.625,-1.125 0.629999,-0.125264 1.21904,-0.730935 0.40625,-1.125 z m -6.65625,5.4375 c -1.387873,0.647932 -0.679147,2.726753 -2.1875,1.3125 -1.28422,0.729897 0.0027,2.317446 -1.1875,3.28125 -1.935767,0.589688 -0.513,2.877436 1,1.28125 2.069914,0.02525 3.333093,-1.690736 3.28125,-3.5625 1.321075,-0.659927 0.654877,-2.767106 -0.90625,-2.3125 z M 93.5625,96.90625 c -1.526936,1.617339 1.441606,3.13642 0.78125,0.65625 0.149747,-0.57342 -0.441459,-0.584872 -0.78125,-0.65625 z m 0,0 c -0.45049,-0.217324 -0.262041,0.686057 0,0 z m -0.125,3.46875 c -1.197924,0.32587 -1.318385,4.12896 -0.125,4.125 1.527726,-0.4438 1.501872,-3.57827 0.125,-4.125 z M 134.59375,109 c -0.94725,0.20193 -4.08408,1.9554 -1.5934,1.96875 1.39304,0.0626 1.15764,-1.2659 1.5934,-1.96875 z m -16.375,2.03125 c -2.08279,0.86752 3.28255,2.62821 3.49945,0.46865 -1.11207,-0.32408 -2.45127,0.10348 -3.49945,-0.46865 z m -110.25,10.5625 c 1.2970484,17.04831 7.183575,33.92864 17,47.8438 1.426921,-2.13428 1.622729,-4.74234 0.1875,-6.8122 -0.71945,-2.69157 -3.824921,-3.89978 -4.84375,-6.5926 -1.561226,-2.22499 -3.005072,-4.48808 -4.34375,-6.8435 -1.484016,-3.04174 -2.158841,-6.17912 -3.625,-9.21805 -1.743689,-3.22643 -1.645468,-7.14312 -2.15625,-10.78095 -1.0440377,-2.43591 -0.4724277,-5.39954 -2.21875,-7.5965 z m 155.84375,61.375 c -3.74205,1.39456 -6.14011,4.77238 -9.37415,7.03005 0.0901,2.09949 -0.44583,3.60082 -2.24975,4.68715 -1.83143,1.94909 1.04604,1.99337 2.15645,0.71875 2.6458,-1.83168 3.64212,-5.37153 6.9677,-6.3741 0.97405,-1.95877 1.79337,-3.99466 2.49975,-6.06185 z"
       style="fill:#000000;fill-opacity:1;stroke:none;filter:url(#filter3829)"
       transform="matrix(0.0625,0,0,0.0625,0.06308744,240.4267)" />
    <path
       sodipodi:nodetypes="cccccccccccccccccccccccccccc"
       style="fill:#000000;fill-opacity:1;stroke:none;filter:url(#filter3837)"
       d="m 230,107.625 c -1.83661,1.62255 -0.31894,4.78906 -1.53065,6.9061 0.18905,2.48127 -1.47875,7.25581 0.8439,8.15645 1.04027,-0.57343 3.91152,0.43777 2.74995,-1.56215 -3.12455,-2.56011 -0.50285,-7.33043 -1.43725,-10.71855 -0.40455,-0.86294 0.7926,-2.71983 -0.62595,-2.78185 z m 6.75,3.5 c -2.62956,0.19885 -1.91927,2.11769 -0.2503,2.8746 -1.15457,0.87791 -3.25576,0.30455 -1.8436,2.81255 0.20703,2.55921 2.6975,4.51871 2.5621,6.875 -1.01059,-0.8609 -5.36722,-1.62173 -3.0936,0.21875 1.78326,1.91745 -2.48844,1.73278 -2.84315,3.53055 -2.98738,3.9811 1.75617,10.8726 1.01137,15.91027 1.45935,11.20148 0.7661,22.8758 -0.23007,33.83938 1.01622,2.29188 0.26167,4.85977 0.99965,7.12475 -0.65195,1.98682 -1.0855,4.37563 -3.62455,4.24945 0.16441,2.94763 -8.1702,13.52775 -4.21885,13.18755 1.51916,-0.18072 2.77749,-2.08019 3.6872,-2.0934 1.26976,0.1623 2.82383,-2.11903 4.2185,-3.1244 1.27075,-0.92002 1.85495,-3.28993 3.31195,-3.4996 3.88126,-1.20772 7.65889,-11.97707 10.11053,-16.85005 8.94644,-21.65618 3.15655,-46.33771 -9.79718,-65.0554 z m -9.9375,90.96875 c -2.15006,1.61744 -3.62421,4.23439 -6.374,4.9983 -1.02324,2.96942 -12.96159,14.26416 -6.8125,9.1564 3.48245,-2.8499 7.3234,-5.50506 10.8107,-8.4348 2.03677,-0.87669 3.90582,-3.00102 4.24945,-5.09305 -0.56237,-0.9832 -1.69754,0.93456 -1.87365,-0.62685 z"
       id="path3823"
       inkscape:connector-curvature="0"
       transform="matrix(0.0625,0,0,0.0625,0.06308744,240.4267)" />
  </g>
  <g
     inkscape:groupmode="layer"
     id="layer4"
     inkscape:label="continents"
     style="display:inline"
     transform="translate(0,-240)">
    <path
       style="fill:url(#radialGradient3875);fill-opacity:1;stroke:none"
       d="m 7.688088,241.56537 c 0.03725,0.0779 0.188601,0.093 0.212865,0.13281 -0.07567,-0.0226 -0.33209,-0.0307 -0.154263,0.0684 0.07443,0.0276 0.193515,0.16196 0.248013,0.0371 -0.150472,-0.0783 0.04411,-0.0248 0.09569,0.01 0.08246,0.0601 0.205874,0.002 0.269504,0.0644 -0.08071,0.0547 0.178061,0.0856 0.0039,0.0684 -0.129285,-0.0343 -0.123204,0.0871 0,0.0918 0.09426,0.0467 -0.03887,0.1501 -0.103504,0.0684 -0.09181,-0.0498 -0.333515,0.0353 -0.201156,0.13476 0.110416,0.0285 0.04962,0.17545 0.160135,0.20704 0.03773,0.0429 0.132061,0.0758 0.0742,0.1582 1.779842,0.81227 3.129919,2.39064 3.84375,4.19336 0.09818,-0.1161 0.374933,-0.1757 0.285163,-0.36328 0.07377,-0.13281 0.09941,0.16424 0.168016,0.0142 -0.37978,-2.44864 -2.457819,-4.49057 -4.902325,-4.88533 z m -2.339844,0.10547 c -0.155964,-0.004 -0.301103,0.12994 -0.441406,0.10351 -0.187478,-0.0913 -0.988414,0.3382 -1.335374,0.52232 -0.924807,0.53437 -1.709091,1.32471 -2.2310325,2.25112 0.1340965,-0.007 0.1305185,-0.17848 0.240234,-0.23633 0.029205,-0.0775 0.061419,-0.14967 0.085937,-0.0469 0.033545,-0.0824 0.080811,-0.15755 0.189453,-0.13281 0.094834,-0.0578 0.1287285,0.0384 0.033205,0.0645 -0.038055,0.0578 -0.097067,0.0826 0.00586,0.0996 0.044435,0.0279 0.196934,0.0341 0.1367185,-0.0469 -0.086334,0.0411 -0.019085,-0.18204 0.058594,-0.20312 0.02317,-0.10834 0.141263,-0.0981 0.158203,-0.20508 -0.1523775,0.0307 -0.1252295,-0.0832 -0.0078,-0.0996 0.146121,0.0303 0.03152,0.29759 0.261719,0.21484 0.248635,-0.0325 0.196147,-0.35521 0.367186,-0.48437 0.06064,-0.16085 0.244249,-0.24038 0.322267,-0.36328 -0.07264,0.0871 -0.200894,0.0148 -0.08984,-0.0625 0.135706,-0.0883 0.288811,-0.18355 0.34375,-0.34375 -0.08414,-0.046 -0.184825,0.11656 -0.289062,0.12695 -0.110214,0.0903 -0.188407,0.26723 -0.359375,0.22852 -0.08891,0.0257 -0.168742,0.1366 -0.242188,0.14257 0.09468,-0.14496 0.26364,-0.18868 0.353516,-0.34375 0.10585,-0.10114 0.238516,-0.18233 0.353516,-0.28125 0.146171,-0.0849 0.286678,-0.23651 0.46875,-0.22265 0.02928,0.0873 -0.146883,0.0723 -0.111329,0.1582 0.09398,0.0283 0.193,-0.0539 0.265625,-0.12109 0.09061,0.0666 0.241657,-0.12363 0.283204,-0.0586 -0.03669,0.0753 -0.195745,0.0681 -0.195313,0.12696 0.158018,-0.0736 0.08408,0.0375 -0.0098,0.0586 -0.112632,0.0857 -0.287045,0.002 -0.345703,0.15625 -0.0554,0.0783 -0.241216,0.15254 -0.1875,0.24805 0.01635,-0.0659 0.155723,-0.18248 0.08203,-0.0586 -0.11791,0.11154 0.154534,0.0477 0.169921,-0.0371 0.02755,-0.0767 0.175474,-0.13265 0.08203,-0.0254 0.02095,0.11307 0.185679,-0.0494 0.220703,-0.10546 0.133275,-0.15996 0.319949,-0.2533 0.476564,-0.38672 0.114637,-0.0205 0.174573,-0.0957 0.232421,-0.16993 0.05307,-0.0715 -0.186173,-0.0525 -0.226563,0.01 -0.07868,0.0351 -0.188382,0.0816 -0.271483,0.0879 0.11625,-0.11888 0.308222,-0.18239 0.472657,-0.17774 0.04973,0.0566 0.161934,-0.0152 0.171875,-0.0703 -0.08953,0.0322 -0.246162,-0.016 -0.07617,-0.002 0.177083,0.006 0.07568,-0.0875 -0.02735,-0.0293 -0.08632,-0.008 -0.242305,0.12654 -0.279296,0.0547 0.147968,-0.0653 0.34725,-0.10279 0.482421,-0.12109 0.06151,-0.0336 0.163518,-0.0751 0.232423,-0.12695 0.05054,-0.005 0.0065,0.10135 -0.0332,0.0957 -0.08722,0.0456 -0.04858,0.0945 -0.123047,0.12305 -0.08594,-0.049 -0.27491,0.0872 -0.208985,0.16211 0.07229,0.049 0.16169,-0.19082 0.171875,-0.0801 -0.09232,0.0955 0.140535,0.0187 0.1875,0.0547 0.08886,-0.0792 0.224399,0.0162 0.300782,-0.0762 0.151617,0.0176 0.089,-0.0712 -0.0098,-0.084 -0.109812,-0.009 -0.114548,-0.0668 -0.02735,-0.10742 0.04728,-0.0233 0.08516,-0.12386 0.08203,-0.14844 -0.06084,0.006 -0.188231,0.08 -0.105468,-0.0137 -0.01476,-0.006 -0.03926,-0.0128 -0.05859,-0.0175 z m 2.259765,0.38476 c -0.02025,0.16892 0.285304,0.18244 0.298769,0.0371 -0.110969,0.0187 -0.204042,0.0448 -0.298769,-0.0371 z m -2.142578,0.0566 c -0.08794,0.0219 -0.114895,0.10501 -0.226562,0.084 -0.04626,-0.0267 -0.166094,-0.0774 -0.113281,0.0196 -0.04414,0.0358 -0.09382,0.0683 -0.09961,-0.004 -0.0718,-0.0119 -0.172063,0.0697 -0.05469,0.11133 -0.08468,0.0762 -0.224407,0.12975 -0.3125,0.22656 -0.118282,0.0117 -0.117941,0.15824 -0.253906,0.13867 -0.100065,0.028 -0.0057,0.0769 -0.103516,0.11914 -0.127732,0.0708 -0.30589,0.0633 -0.386718,0.20899 -0.141165,0.0598 -0.164121,0.22346 -0.304688,0.29492 -0.07955,0.0429 -0.122508,0.12149 -0.04297,0.16992 -0.07604,0.0543 -0.100097,0.18187 0.02539,0.11524 0.239498,-0.10257 0.440057,-0.35252 0.720703,-0.30469 0.131009,-0.10572 0.285487,-0.0867 0.439453,-0.0606 0.158276,-0.0383 0.322304,-0.0712 0.425781,-0.20312 0.184922,-0.0821 0.335285,-0.21399 0.460938,-0.36914 0.112352,-0.091 0.214949,-0.20613 0.345704,-0.25 -0.07977,-0.0231 -0.226817,-0.0524 -0.103517,-0.13086 -0.01182,-0.0811 -0.146975,-0.13359 -0.226562,-0.125 -0.08049,0.0384 -0.113869,-0.0477 -0.189453,-0.041 z m 1.121094,0.45118 c -0.09745,0.0174 -0.239109,0.0322 -0.13671,0.16015 -0.02203,0.15566 0.104195,0.15033 0.126904,0.0234 0.04313,-0.19255 0.08566,0.10639 0.146471,-0.0176 0.0098,-0.0533 -0.123542,-0.1028 -0.07812,-0.11914 0.160654,-0.007 0.08614,-0.0602 -0.0332,-0.0391 l -0.02539,-0.008 z m 0.410156,0.73046 c -0.185886,0.0378 -0.331322,0.16232 -0.472572,0.2754 -0.04719,0.10987 -0.157804,0.18258 -0.1991,0.29882 -0.02412,0.0679 -0.11043,0.0979 -0.103515,0.16407 -0.110069,-0.006 -0.162149,0.0953 -0.261923,0.10546 -0.150688,0.0367 -0.01224,0.22235 -0.08203,0.31641 -6e-4,0.0831 0.07976,0.18472 0.16211,0.082 0.05714,-0.0501 0.141559,-0.0778 0.203125,-0.0879 0.01562,0.13042 0.02126,0.3178 0.150356,0.37891 0.100293,0.0197 0.118013,-0.0399 0.152297,-0.11719 0.0381,-0.0995 0.04455,-0.22616 0.175735,-0.25 0.07662,-0.10677 -0.150853,-0.10496 -0.121032,-0.23242 0.0097,-0.13974 0.177209,-0.19242 0.205007,-0.30078 0.01749,-0.0899 0.05924,-0.20259 0.181568,-0.15625 0.09158,0.0888 -0.07619,0.17591 -0.103416,0.25976 -0.05675,0.0823 -0.01,0.23203 0.03708,0.30274 0.158294,0.0942 0.305242,-0.1089 0.466742,-0.0645 0.07182,-0.0182 0.13924,0.0574 0.03122,0.0801 -0.09213,0.12805 -0.278535,0.0277 -0.374946,0.14063 0.05157,0.0651 0.156317,0.17123 0.0566,0.24804 -0.07233,-0.0232 -0.187942,-0.16468 -0.165969,0.0117 -0.0041,0.12195 -0.0048,0.28583 -0.148344,0.31446 -0.10824,-0.0993 -0.227869,0.0161 -0.341712,0.0527 -0.08948,0.0441 -0.134143,-0.11365 -0.224588,-0.0214 -0.13848,0.0256 -0.231182,-0.19684 -0.07621,-0.24219 0.0168,-0.0552 0.02132,-0.22511 -0.06055,-0.125 -0.106795,0.0221 -0.08012,0.19519 -0.06641,0.28125 -0.01507,0.1614 -0.254947,0.0699 -0.320313,0.19336 -0.08707,0.0702 -0.16147,0.16605 -0.259766,0.22266 -0.05933,0.0953 -0.187351,0.16238 -0.285156,0.1582 -0.07885,-0.0896 -0.03861,0.0286 -0.08203,0.0664 -0.06257,0.002 -0.313625,-0.0883 -0.220702,0.041 0.152169,0.0847 0.26516,0.28439 0.171875,0.46289 -0.01704,0.13599 -0.16284,0.19867 -0.271485,0.11523 -0.127663,-0.0117 -0.257191,-0.0306 -0.367187,-0.0977 -0.04447,0.0718 -0.163297,0.0283 -0.105469,0.15039 -0.04731,0.13477 -0.0574,0.32346 -0.177735,0.43165 -0.0333,0.0726 0.123046,0.003 0.05664,0.10156 -0.100383,0.10887 0.06075,0.15697 0.152344,0.11328 0.06481,0.0365 0.0045,0.26145 0.123047,0.15234 0.05391,-0.0957 0.170718,0.0403 0.255859,-0.004 0.09116,0.0376 0.117307,-0.0984 0.199219,-0.11523 0.05275,-0.0647 0.09237,-0.10675 0.0918,-0.19531 0.06624,-0.12429 0.20584,-0.21983 0.345703,-0.23829 0.05685,-0.0586 -0.06316,-0.21871 0.08399,-0.19726 0.0633,-0.0965 0.12676,-0.017 0.173827,0.0371 0.107945,0.0637 0.161334,-0.11626 0.259766,-0.0996 0.0907,-0.1063 0.218823,0.0122 0.234375,0.11914 0.03721,0.13832 0.160502,0.2058 0.283188,0.26367 0.114529,0.0661 0.335514,0.19762 0.21479,0.36133 -0.08704,0.0751 -0.244555,0.001 -0.330009,0.0586 0.04117,0.10296 0.197629,0.0641 0.257731,0.16016 0.01176,-0.0775 -0.01651,-0.17916 0.101622,-0.1875 0.05494,-0.0703 0.147092,-0.13616 0.06052,-0.2207 -0.01092,-0.16181 0.134427,0.0231 0.18549,-0.0214 -0.05049,-0.12885 -0.224118,-0.14153 -0.316321,-0.2461 -0.18709,0.009 -0.152504,-0.24223 -0.29685,-0.30468 -0.0694,-0.0812 0.05664,-0.25724 0.130852,-0.15625 -0.04252,0.0645 0.09691,0.0704 0.07419,0.15625 0.08291,0.0228 0.138797,0.10185 0.23236,0.10351 0.06735,0.07 0.147282,0.13691 0.24015,0.16602 0.08465,0.0628 0.03573,0.13611 0.02733,0.22265 0.05561,0.0444 0.110681,0.0694 0.128825,0.14649 0.09789,0.0371 -0.02552,0.0982 0.02343,0.16406 0.03725,0.0462 0.07141,0.0662 0.107387,0.11914 0.06505,0.0385 0.09138,0.11874 0.126919,0.0312 0.06819,0.0687 0.0092,-0.0736 -0.0098,-0.10547 0.04803,-0.0169 0.01093,-0.11715 0.07811,-0.0429 0.11215,0.002 -0.0029,-0.16656 -0.0875,-0.14257 -0.03817,-0.0363 0.04043,-0.10918 -0.04882,-0.13282 -0.04748,-0.11019 0.05771,-0.1102 0.07809,-0.0254 0.03923,-0.0308 0.01361,-0.13879 0.101531,-0.11133 0.08033,-0.0664 0.16386,0.0224 0.236294,0.01 0.03248,-0.067 0.238943,-0.1074 0.164019,-0.004 -0.08464,-0.01 -0.215059,0.0332 -0.212863,0.10938 0.06658,0.01 0.03927,0.0817 0.05856,0.12891 0.02721,0.0929 -0.0551,0.0334 -0.05654,0.0898 0.12824,-0.0557 0.08618,0.16012 0.214778,0.14648 0.01197,0.0685 0.122199,-0.0566 0.121041,0.0469 0.08299,0.0655 0.131419,-0.029 0.156206,-0.0801 0.110203,-0.0486 0.177367,0.16781 0.281172,0.0254 0.08202,-0.01 0.08965,-0.1201 0.187468,-0.12305 0.09359,0.003 -0.03879,0.12437 0.04101,0.17969 0.04112,0.13906 -0.0024,0.29458 -0.0078,0.43553 0.0063,0.2025 -0.245306,0.17114 -0.378806,0.15425 -0.09486,0.0559 -0.177822,0.16196 -0.30071,0.0996 -0.112617,0.0121 -0.213254,-0.0909 -0.314412,-0.0117 -0.03269,-0.15724 -0.264929,0.044 -0.277282,-0.13278 -0.15899,-0.0527 -0.373143,0.1067 -0.257775,0.2714 -0.04523,0.0935 -0.163371,0.0945 -0.234327,0.0254 -0.08622,-0.0602 -0.189271,-0.0529 -0.283163,-0.0663 -0.04735,-0.0847 -0.07977,-0.1773 -0.195243,-0.18353 -0.08239,-0.0894 -0.239325,0.049 -0.26171,-0.0527 -0.0716,-0.0178 -0.04776,-0.11873 -0.134765,-0.0976 -0.03317,-0.12077 0.164723,-0.13612 0.06814,-0.2695 -0.08198,-0.0437 0.05663,-0.16261 -0.07422,-0.15823 -0.0851,-0.0743 -0.178315,0.0949 -0.285157,0.002 -0.09693,-0.0748 -0.217113,0.0905 -0.302735,-0.0254 -0.07576,5e-4 -0.154065,0.0248 -0.224608,0.006 -0.08296,0.0498 -0.200519,0.006 -0.251954,0.10937 -0.07355,-0.0143 -0.123106,0.0254 -0.179688,0.0586 -0.06426,-0.0241 -0.115666,0.15466 -0.140625,0.0137 0.04336,-0.14254 -0.191217,-0.0518 -0.222656,-0.17579 -0.09816,-5e-4 -0.05452,0.15283 -0.154297,0.17382 -0.08966,0.083 -0.222756,0.0857 -0.273437,0.20693 -0.110016,0.085 -0.04948,0.2425 -0.160156,0.32217 -0.0619,0.0868 -0.181465,0.10265 -0.28125,0.10735 -0.115386,2.5e-4 -0.07778,0.21343 -0.228516,0.14646 -0.03463,0.0672 -0.01961,0.17107 -0.105469,0.21676 -0.08503,0.0714 -0.09689,0.19478 -0.203125,0.24406 -0.0033,0.11446 0.09167,0.19581 0.03515,0.29879 0.06716,0.1831 -0.0361,0.36185 -0.132812,0.50967 0.05989,0.0667 0.06208,0.15955 0.02149,0.24605 0.04183,0.0904 0.032,0.0657 0.06445,0.17379 0.07491,0.19061 0.336572,0.26508 0.322265,0.49789 0.09291,0.10073 0.216196,0.18447 0.279297,0.31241 0.130405,0.0403 0.190753,0.16478 0.316407,0.20304 0.214167,-0.0307 0.428755,0.009 0.624999,0.08 0.216007,-0.0477 0.436513,-0.0274 0.654298,-0.0429 0.168551,-0.0279 0.190271,0.15949 0.27539,0.23821 0.153677,0.0331 0.34736,-0.0193 0.466797,0.10931 0.132545,0.13777 -0.03493,0.33175 -0.04883,0.47262 0.110951,0.15303 0.306361,0.2053 0.423829,0.34754 0.03457,0.12766 0.235344,0.23416 0.111302,0.36323 0.121553,0.034 0.109647,0.16462 0.01368,0.2265 -0.112315,0.0815 -0.185108,0.3185 -0.0078,0.35346 0.117197,0.0807 0.256708,0.15089 0.281167,0.30459 0.09444,0.0845 0.235812,0.10915 0.335883,0.17374 0.22197,0.0827 0.451748,-0.0668 0.683554,-0.0468 0.260996,-0.0546 0.53823,-0.13944 0.732369,-0.32217 0.08292,-0.1218 0.286967,-0.11629 0.349562,-0.24407 -0.03131,-0.0888 -0.01482,-0.12157 0.08201,-0.15426 0.185291,-0.17532 0.463965,-0.22892 0.603387,-0.43735 0.01727,-0.1028 0.117669,-0.25396 -0.0215,-0.30855 0.01124,-0.0872 0.03157,-0.18704 -0.05271,-0.2363 0.07839,-0.26501 0.304345,-0.4503 0.466625,-0.66977 0.07034,-0.18247 0.234784,-0.29557 0.357337,-0.43154 0.153457,-0.2537 0.390948,-0.50999 0.335785,-0.83582 0.01837,-0.0822 -0.0034,-0.26298 -0.08982,-0.12695 -0.163035,0.0267 -0.261844,0.15885 -0.396392,0.23427 -0.06836,0.0698 -0.155388,-0.0457 -0.212858,-0.0586 0.105425,-0.0623 0.0081,-0.13197 -0.07813,-0.14839 -0.104472,-0.0525 -0.161383,-0.17064 -0.294842,-0.16398 -0.12033,-0.072 -0.111016,-0.30632 -0.285062,-0.3085 -0.02854,-0.1668 -0.06038,-0.3729 -0.228438,-0.45111 -0.103702,-0.076 -0.115987,-0.21605 -0.206981,-0.31053 -0.06705,-0.10662 -0.104799,-0.24118 -0.218684,-0.31245 -0.046,-0.0618 -0.09151,-0.14605 -0.09761,-0.21675 0.09811,-0.0174 0.05822,0.12285 0.142544,0.14449 -0.0032,0.11586 0.113003,0.11522 0.181594,0.0625 0.08332,0.0289 0.143069,0.15292 0.208887,0.22651 0.0977,0.0721 0.106835,0.2394 0.25776,0.21674 0.02254,0.0737 0.08752,0.13488 0.107369,0.2109 0.0088,0.19607 0.289266,0.17397 0.302631,0.37098 0.147439,0.0434 0.163217,0.19509 0.154232,0.33001 0.04626,0.0934 0.130917,0.28948 0.247983,0.13275 0.12341,-0.15387 0.3461,-0.20801 0.454988,-0.37686 -0.01063,-0.2107 -0.0086,-0.43677 -0.07418,-0.63666 -0.01115,-0.22172 -0.0909,-0.42747 -0.115166,-0.64839 0.0038,-0.12754 -0.08027,-0.16117 -0.183559,-0.1972 -0.103935,-0.0721 -0.201703,-0.28111 -0.01754,-0.30464 0.122744,0.0219 0.0056,-0.12375 0.01566,-0.18943 -0.04788,-0.18157 -0.119671,-0.35497 -0.179562,-0.52344 -0.03596,-0.0602 -0.04723,-0.11363 -0.07615,-0.19727 -0.111339,0.0262 -0.1853,-0.0216 -0.167934,-0.14062 -0.01881,-0.0983 0.05309,-0.25984 -0.0996,-0.26563 -0.15144,-0.11548 -0.352907,-0.28696 -0.283107,-0.5039 0.05549,-0.102 0.135137,-0.23031 0.01557,-0.33789 -0.05598,-0.1441 -0.181121,-0.25308 -0.222572,-0.38282 -0.08754,-0.16753 -0.181993,-0.36461 -0.320206,-0.50195 -0.109788,-0.17131 -0.198752,-0.35709 -0.341465,-0.51115 -0.05904,-0.12098 -0.181775,-0.20001 -0.234298,-0.32617 -0.0774,-0.0602 -0.14438,-0.2665 -0.247994,-0.19336 0.01256,0.1316 -0.209088,0.14638 -0.177662,0.28515 0.0598,0.11615 -0.1747,0.0436 -0.150344,0.13281 0.120548,0.0642 -0.106819,0.0613 -0.130831,-0.0137 -0.02446,-0.0928 -0.09094,-0.11922 -0.160115,-0.16797 0.01147,-0.11084 0.166219,0.0501 0.249984,0.0136 0.177866,0.0263 0.138665,-0.18357 -7e-6,-0.1914 -0.150407,-0.0371 -0.31874,-10e-4 -0.430056,-0.1211 -0.05599,-0.007 -0.102326,-0.0445 -0.158227,-0.0508 z m -2.292968,0.19532 c -0.1315,-1.2e-4 0.04687,0.1425 -0.07813,0.11718 -0.05453,0.0207 0.06017,0.0904 -0.04687,0.0957 0.03317,0.0187 0.118808,0.15662 0.210937,0.0762 0.11519,-0.0211 0.288999,-0.0732 0.208984,-0.22266 -0.08563,0.0163 -0.147075,-0.0173 -0.232421,0.0196 -0.06131,-0.009 0.01919,-0.0816 -0.0625,-0.0859 z m -2.265626,0.51562 c -0.107147,0.0784 -0.293023,0.13691 -0.261719,0.29688 0.04643,0.0391 0.0091,0.22543 0.07617,0.10742 -0.0097,-0.0908 0.03493,-0.16579 0.09961,-0.19922 -0.03968,-0.10917 0.04986,-0.11733 0.08594,-0.20508 z m 2.816407,0.44531 c -0.102686,-0.004 -0.134524,0.0876 -0.216798,0.1211 0.02694,0.0574 -0.04826,0.073 -0.01563,0.13476 -0.06841,0.0361 0.08024,0.0718 0.01368,0.14844 0.07813,0.0175 0.121138,0.0686 0.0957,0.16602 -0.03185,0.0745 -0.151194,0.0209 -0.101563,0.15234 -0.118207,0.0251 -0.120637,0.0664 -0.002,0.0742 0.08916,0.0733 -0.08193,0.0307 -0.115235,0.0918 -0.150543,0.0944 0.10815,0.0648 0.183594,0.0586 0.119853,-0.0332 0.267244,0.0344 0.31836,-0.0996 0.07615,-0.0876 0.0088,-0.1421 -0.05664,-0.1875 -0.0098,-0.11772 -0.100418,-0.18066 -0.101563,-0.30664 -0.137727,-0.0645 0.06182,-0.13961 0.07422,-0.21289 -0.04164,-0.028 -0.20408,0.008 -0.101562,-0.0703 0.03938,-0.008 0.07619,-0.0457 0.02539,-0.0703 z m -0.416016,0.33985 c -0.08674,0.0405 -0.04244,0.17042 -0.136719,0.082 -0.08026,0.0456 1.25e-4,0.14484 -0.07422,0.20508 -0.120985,0.0369 -0.03206,0.17984 0.0625,0.0801 0.12937,0.001 0.208319,-0.10568 0.205079,-0.22266 0.08257,-0.0412 0.04093,-0.17294 -0.05664,-0.14453 z m 1.072266,1.69336 c -0.09543,0.10108 0.0901,0.19602 0.04882,0.041 0.0094,-0.0359 -0.02759,-0.0366 -0.04882,-0.041 z m 0,0 c -0.02815,-0.0136 -0.01638,0.0429 0,0 z m -0.0078,0.21679 c -0.07487,0.0204 -0.0824,0.25806 -0.0078,0.25782 0.09548,-0.0277 0.09387,-0.22364 0.0078,-0.25782 z m 2.572265,0.53907 c -0.0592,0.0126 -0.255255,0.12221 -0.09959,0.12304 0.08706,0.004 0.07235,-0.0791 0.09959,-0.12304 z m -1.023438,0.12695 c -0.130173,0.0542 0.20516,0.16426 0.218717,0.0293 -0.06951,-0.0203 -0.153205,0.006 -0.218717,-0.0293 z m -6.89062406,0.66016 c 0.081066,1.06552 0.44897356,2.12054 1.06250006,2.99023 0.089182,-0.13339 0.1014205,-0.29639 0.011715,-0.42576 -0.044965,-0.16822 -0.239058,-0.24373 -0.3027345,-0.41204 -0.097577,-0.13906 -0.187817,-0.2805 -0.2714845,-0.42771 -0.092766,-0.19007 -0.13494246,-0.38616 -0.22657746,-0.57609 -0.1089805,-0.20165 -0.1028415,-0.44645 -0.1347655,-0.67381 -0.0652525,-0.15225 -0.029525,-0.33747 -0.1386721,-0.47478 z m 9.74023406,3.83593 c -0.233878,0.0872 -0.383757,0.29828 -0.585885,0.43938 0.0056,0.13122 -0.02786,0.22505 -0.140608,0.29295 -0.114465,0.12182 0.06538,0.12458 0.134777,0.045 0.165363,-0.11448 0.227633,-0.33572 0.435481,-0.39839 0.06088,-0.12242 0.112087,-0.24966 0.156235,-0.37886 z"
       id="path3000"
       inkscape:connector-curvature="0"
       sodipodi:nodetypes="cccccccccccccccccccccccccccccccccccccccccccccccccccccccccccccccccccccccccccccccccccccccccccccccccccccccccccccccccccccccccccccccccccccccccccccccccccccccccccccccccccccccccccccccccccccccccccccccccccccccccccccccccccccccccccccccccccccccccccccccccccccccccccccccccccccccccccccccccccccccccccccccccccccccccccccccccccccccccccccccccccccccccccccccccccccccccc" />
    <path
       inkscape:connector-curvature="0"
       id="path3893"
       d="m 14.438088,247.15326 c -0.114789,0.10141 -0.01994,0.29932 -0.09567,0.43163 0.01181,0.15508 -0.09242,0.45349 0.05274,0.50978 0.06502,-0.0358 0.24447,0.0274 0.171872,-0.0976 -0.195285,-0.16 -0.03143,-0.45815 -0.08983,-0.6699 -0.02529,-0.0539 0.04953,-0.16999 -0.03912,-0.17387 z m 0.421875,0.21875 c -0.164347,0.0125 -0.119955,0.13236 -0.01564,0.17966 -0.07216,0.0549 -0.203485,0.019 -0.115225,0.17579 0.01293,0.15995 0.168594,0.28242 0.160131,0.42968 -0.06316,-0.0538 -0.335451,-0.10135 -0.19335,0.0137 0.111454,0.11984 -0.155527,0.1083 -0.177697,0.22066 -0.186711,0.24882 0.109761,0.67954 0.06321,0.99439 0.09121,0.7001 0.04788,1.42974 -0.01438,2.11497 0.06351,0.14324 0.01636,0.30373 0.06248,0.44529 -0.04075,0.12418 -0.06784,0.27348 -0.226535,0.26559 0.01028,0.18423 -0.510638,0.84549 -0.263678,0.82423 0.09495,-0.0113 0.173593,-0.13002 0.23045,-0.13084 0.07936,0.0101 0.176489,-0.13244 0.263657,-0.19528 0.07942,-0.0575 0.115933,-0.20562 0.206996,-0.21872 0.242579,-0.0755 0.478681,-0.74857 0.631909,-1.05313 0.559152,-1.35351 0.197283,-2.89611 -0.612324,-4.06596 z m -0.621094,5.68555 c -0.134378,0.10109 -0.226513,0.26465 -0.398375,0.31239 -0.06395,0.18559 -0.8101,0.89151 -0.425781,0.57228 0.217653,-0.17812 0.457713,-0.34407 0.675669,-0.52718 0.127297,-0.0548 0.244114,-0.18756 0.26559,-0.31832 -0.03515,-0.0615 -0.106096,0.0584 -0.117103,-0.0392 z"
       style="fill:url(#radialGradient3895);fill-opacity:1;stroke:none"
       sodipodi:nodetypes="cccccccccccccccccccccccccccc" />
  </g>
  <g
     style="display:inline"
     inkscape:label="sphere outline"
     id="g3828"
     inkscape:groupmode="layer"
     transform="translate(0,-240)">
    <path
       sodipodi:nodetypes="cccssscc"
       inkscape:connector-curvature="0"
       d="m 12.137566,246.79959 c -1.023076,-2.48696 -2.825708,-4.12616 -5.532162,-4.78244 3.924812,3.01302 4.757157,8.95997 3.230558,10.69238 -0.650776,0.422 -1.318375,0.68014 -2.14434,0.82809 -3.303869,0.59184 -6.461961,-1.6067 -7.05379646,-4.91057 -0.591836,-3.30387 1.60670046,-6.46196 4.91056846,-7.0538 3.303869,-0.59183 6.455112,1.56847 7.046948,4.87235 z"
       style="fill:none;stroke:#000000;stroke-width:1px;stroke-linecap:butt;stroke-linejoin:miter;stroke-opacity:1"
       id="path3830" />
    <path
       sodipodi:nodetypes="cscc"
       inkscape:connector-curvature="0"
       d="m 13.489427,245.76933 c 3.73924,3.57231 2.169157,6.43735 0.0098,8.22007 -0.285157,0.23542 -0.633831,0.45282 -0.992436,0.59811 3.460548,-1.89688 1.869387,-7.43185 0.977089,-8.81818"
       style="fill:none;stroke:#000000;stroke-width:0.5;stroke-linecap:butt;stroke-linejoin:miter;stroke-miterlimit:4;stroke-opacity:1;stroke-dasharray:none"
       id="path3832" />
    <path
       sodipodi:nodetypes="cccsc"
       inkscape:connector-curvature="0"
       d="m 10.314204,248.20794 3.176916,-2.43644 c 0.857481,1.39728 2.471443,6.82355 -0.952948,8.82229 -0.537826,0.22 -0.889116,0.27307 -1.351093,0.27107 -0.923957,-0.004 -1.922452,-0.36542 -2.948769,-1.45044"
       style="fill:none;stroke:#000000;stroke-width:0.5;stroke-linecap:butt;stroke-linejoin:miter;stroke-miterlimit:4;stroke-opacity:1;stroke-dasharray:none;display:inline"
       id="path3045" />
  </g>
  <g
     inkscape:groupmode="layer"
     id="layer7"
     inkscape:label="shine"
     transform="translate(0,-240)"
     style="display:inline">
    <path
       style="fill:url(#linearGradient3919);fill-opacity:1;stroke:none;display:inline;enable-background:new"
       d="m 6.623634,241.47552 c -0.35456,0.001 -0.714811,0.0329 -1.076171,0.0977 -3.038484,0.54429 -5.14007546,3.25913 -4.99804746,6.26172 5.09383346,1.94494 6.18893946,-0.21554 9.23828146,-1.48242 -0.637804,-1.60724 -1.683733,-3.18602 -3.18164,-4.33594 2.31974,0.56251 3.97491,1.84794 5.044921,3.76953 0.238631,-0.0475 0.487892,-0.0878 0.75,-0.12109 -0.80238,-2.5158 -3.153146,-4.19678 -5.777344,-4.18946 z"
       id="path3892"
       inkscape:connector-curvature="0" />
  </g>
</svg>
