<?xml version="1.0" encoding="UTF-8" standalone="no"?>
<!-- Created with Inkscape (http://www.inkscape.org/) -->

<svg
   xmlns:dc="http://purl.org/dc/elements/1.1/"
   xmlns:cc="http://creativecommons.org/ns#"
   xmlns:rdf="http://www.w3.org/1999/02/22-rdf-syntax-ns#"
   xmlns:svg="http://www.w3.org/2000/svg"
   xmlns="http://www.w3.org/2000/svg"
   xmlns:xlink="http://www.w3.org/1999/xlink"
   xmlns:sodipodi="http://sodipodi.sourceforge.net/DTD/sodipodi-0.dtd"
   xmlns:inkscape="http://www.inkscape.org/namespaces/inkscape"
   width="256"
   height="256"
   id="svg2"
   inkscape:label="Pozadí"
   version="1.1"
   inkscape:version="0.48.0 r9654"
   sodipodi:docname="loading.svg"
   inkscape:export-filename="/home/mosra/C++/kompas/artwork/icons/export/loading-256.png"
   inkscape:export-xdpi="90"
   inkscape:export-ydpi="90"
   style="display:inline;enable-background:new">
  <defs
     id="defs3">
    <linearGradient
       id="linearGradient6499">
      <stop
         style="stop-color:#ffffff;stop-opacity:1;"
         offset="0"
         id="stop6501" />
      <stop
         id="stop6509"
         offset="0.68148148"
         style="stop-color:#ffffff;stop-opacity:1;" />
      <stop
         style="stop-color:#e6e6e6;stop-opacity:1;"
         offset="1"
         id="stop6503" />
    </linearGradient>
    <linearGradient
       inkscape:collect="always"
       xlink:href="#linearGradient7553"
       id="linearGradient5374"
       gradientUnits="userSpaceOnUse"
       gradientTransform="matrix(0.75,0,0,0.75,-0.24999951,127.74999)"
       x1="5.7526746"
       y1="451.22672"
       x2="35.519711"
       y2="493.65311" />
    <linearGradient
       id="linearGradient7553">
      <stop
         id="stop7555"
         offset="0"
         style="stop-color:#7b7b7b;stop-opacity:1;" />
      <stop
         id="stop7559"
         offset="1"
         style="stop-color:#202020;stop-opacity:1;" />
    </linearGradient>
    <linearGradient
       id="linearGradient3909-3">
      <stop
         style="stop-color:#ededed;stop-opacity:1;"
         offset="0"
         id="stop3911-6" />
      <stop
         id="stop3931-6"
         offset="1"
         style="stop-color:#4c4c4c;stop-opacity:1;" />
    </linearGradient>
    <linearGradient
       id="linearGradient4807-9">
      <stop
         id="stop4809-90"
         offset="0"
         style="stop-color:#6a6a6a;stop-opacity:1;" />
      <stop
         style="stop-color:#313131;stop-opacity:1;"
         offset="1"
         id="stop4811-4" />
    </linearGradient>
    <clipPath
       clipPathUnits="userSpaceOnUse"
       id="clipPath5412">
      <use
         transform="translate(-105.14928,-903.97792)"
         x="0"
         y="0"
         xlink:href="#path4099"
         id="use5414"
         width="1"
         height="1" />
    </clipPath>
    <radialGradient
       inkscape:collect="always"
       xlink:href="#linearGradient3835"
       id="radialGradient5354"
       gradientUnits="userSpaceOnUse"
       gradientTransform="matrix(1.27178,0,0,1.2199417,-49.371125,-24.470578)"
       cx="196.76289"
       cy="111.74201"
       fx="196.76289"
       fy="111.74201"
       r="149.49538" />
    <linearGradient
       id="linearGradient3835">
      <stop
         style="stop-color:#fffcea;stop-opacity:1;"
         offset="0"
         id="stop3837" />
      <stop
         id="stop3843"
         offset="0.60816848"
         style="stop-color:#ffe679;stop-opacity:1;" />
      <stop
         style="stop-color:#e86600;stop-opacity:1;"
         offset="1"
         id="stop3839" />
    </linearGradient>
    <linearGradient
       inkscape:collect="always"
       xlink:href="#linearGradient7553"
       id="linearGradient5356"
       gradientUnits="userSpaceOnUse"
       x1="50.297611"
       y1="-17.582394"
       x2="363.42596"
       y2="305.72217" />
    <linearGradient
       id="linearGradient4369">
      <stop
         id="stop4371"
         offset="0"
         style="stop-color:#f68b00;stop-opacity:1;" />
      <stop
         id="stop4373"
         offset="1"
         style="stop-color:#9b3a00;stop-opacity:1;" />
    </linearGradient>
    <linearGradient
       inkscape:collect="always"
       xlink:href="#linearGradient7417-6"
       id="linearGradient5358"
       gradientUnits="userSpaceOnUse"
       x1="117.87679"
       y1="276.92542"
       x2="414.45981"
       y2="201.57877" />
    <linearGradient
       id="linearGradient7417-6">
      <stop
         style="stop-color:#f68b00;stop-opacity:0;"
         offset="0"
         id="stop7419-6" />
      <stop
         id="stop7421-10"
         offset="0.48195887"
         style="stop-color:#cb6600;stop-opacity:1;" />
      <stop
         style="stop-color:#d67900;stop-opacity:0;"
         offset="1"
         id="stop7423-4" />
    </linearGradient>
    <linearGradient
       inkscape:collect="always"
       xlink:href="#linearGradient7417-4"
       id="linearGradient5360"
       gradientUnits="userSpaceOnUse"
       x1="117.87679"
       y1="276.92542"
       x2="414.45981"
       y2="201.57877" />
    <linearGradient
       id="linearGradient7417-4">
      <stop
         style="stop-color:#f68b00;stop-opacity:0;"
         offset="0"
         id="stop7419-4" />
      <stop
         id="stop7421-8"
         offset="0.48195887"
         style="stop-color:#cb6600;stop-opacity:1;" />
      <stop
         style="stop-color:#d67900;stop-opacity:0;"
         offset="1"
         id="stop7423-8" />
    </linearGradient>
    <linearGradient
       inkscape:collect="always"
       xlink:href="#linearGradient7417-41"
       id="linearGradient5362"
       gradientUnits="userSpaceOnUse"
       x1="117.87679"
       y1="276.92542"
       x2="414.45981"
       y2="201.57877" />
    <linearGradient
       id="linearGradient7417-41">
      <stop
         style="stop-color:#f68b00;stop-opacity:0;"
         offset="0"
         id="stop7419-0" />
      <stop
         id="stop7421-0"
         offset="0.48195887"
         style="stop-color:#cb6600;stop-opacity:1;" />
      <stop
         style="stop-color:#d67900;stop-opacity:0;"
         offset="1"
         id="stop7423-41" />
    </linearGradient>
    <linearGradient
       inkscape:collect="always"
       xlink:href="#linearGradient7417"
       id="linearGradient5364"
       gradientUnits="userSpaceOnUse"
       x1="117.87679"
       y1="276.92542"
       x2="414.45981"
       y2="201.57877" />
    <linearGradient
       id="linearGradient7417">
      <stop
         style="stop-color:#f68b00;stop-opacity:0;"
         offset="0"
         id="stop7419" />
      <stop
         id="stop7421"
         offset="0.48195887"
         style="stop-color:#cb6600;stop-opacity:1;" />
      <stop
         style="stop-color:#d67900;stop-opacity:0;"
         offset="1"
         id="stop7423" />
    </linearGradient>
    <linearGradient
       inkscape:collect="always"
       xlink:href="#linearGradient7417-9"
       id="linearGradient5366"
       gradientUnits="userSpaceOnUse"
       x1="117.87679"
       y1="276.92542"
       x2="414.45981"
       y2="201.57877" />
    <linearGradient
       id="linearGradient7417-9">
      <stop
         style="stop-color:#f68b00;stop-opacity:0;"
         offset="0"
         id="stop7419-3" />
      <stop
         id="stop7421-1"
         offset="0.48195887"
         style="stop-color:#cb6600;stop-opacity:1;" />
      <stop
         style="stop-color:#d67900;stop-opacity:0;"
         offset="1"
         id="stop7423-7" />
    </linearGradient>
    <linearGradient
       inkscape:collect="always"
       xlink:href="#linearGradient5191-9"
       id="linearGradient5368"
       gradientUnits="userSpaceOnUse"
       gradientTransform="matrix(0.18944985,0,0,0.18944985,-10.278875,4.8670438)"
       x1="281.22943"
       y1="-65.088364"
       x2="111.38038"
       y2="230.50438" />
    <linearGradient
       id="linearGradient5191-9">
      <stop
         style="stop-color:#ffffff;stop-opacity:1;"
         offset="0"
         id="stop5193-9" />
      <stop
         style="stop-color:#ffffff;stop-opacity:0;"
         offset="1"
         id="stop5195-1" />
    </linearGradient>
    <linearGradient
       inkscape:collect="always"
       xlink:href="#linearGradient10596"
       id="linearGradient5370"
       gradientUnits="userSpaceOnUse"
       gradientTransform="matrix(0.18944985,0,0,0.18944985,-10.278875,4.8670438)"
       x1="60.854492"
       y1="113.05902"
       x2="363.42596"
       y2="169.80229" />
    <linearGradient
       id="linearGradient10596">
      <stop
         id="stop10598"
         offset="0"
         style="stop-color:#ffffff;stop-opacity:0;" />
      <stop
         style="stop-color:#ffffff;stop-opacity:1;"
         offset="0.47986993"
         id="stop10600" />
      <stop
         id="stop10602"
         offset="1"
         style="stop-color:#ffffff;stop-opacity:0;" />
    </linearGradient>
    <linearGradient
       y2="493.65311"
       x2="35.519711"
       y1="451.22672"
       x1="5.7526746"
       gradientTransform="matrix(0.75,0,0,0.75,-0.24999951,127.74999)"
       gradientUnits="userSpaceOnUse"
       id="linearGradient4412"
       xlink:href="#linearGradient7553"
       inkscape:collect="always" />
    <radialGradient
       inkscape:collect="always"
       xlink:href="#linearGradient3909-3"
       id="radialGradient4562"
       gradientUnits="userSpaceOnUse"
       gradientTransform="matrix(1.3099553,0,0,1.3824407,-145.58671,-209.23658)"
       cx="193.89226"
       cy="232.69435"
       fx="193.89226"
       fy="232.69435"
       r="71.352692" />
    <linearGradient
       inkscape:collect="always"
       xlink:href="#linearGradient4807-9"
       id="linearGradient4564"
       gradientUnits="userSpaceOnUse"
       gradientTransform="matrix(0.11328296,0,0,0.11328269,14.669266,99.72607)"
       x1="984.28363"
       y1="-311.21033"
       x2="849.47089"
       y2="664.96747" />
    <linearGradient
       id="linearGradient3895">
      <stop
         style="stop-color:#ffffff;stop-opacity:1;"
         offset="0"
         id="stop3897" />
      <stop
         style="stop-color:#ffffff;stop-opacity:0;"
         offset="1"
         id="stop3899" />
    </linearGradient>
    <linearGradient
       id="linearGradient3903">
      <stop
         style="stop-color:#ffffff;stop-opacity:0;"
         offset="0"
         id="stop3905" />
      <stop
         id="stop3912"
         offset="0.5"
         style="stop-color:#ffffff;stop-opacity:1;" />
      <stop
         style="stop-color:#ffffff;stop-opacity:0;"
         offset="1"
         id="stop3907" />
    </linearGradient>
    <linearGradient
       id="linearGradient5194">
      <stop
         style="stop-color:#1f388c;stop-opacity:1;"
         offset="0"
         id="stop5196" />
      <stop
         style="stop-color:#050620;stop-opacity:1;"
         offset="1"
         id="stop5198" />
    </linearGradient>
    <radialGradient
       inkscape:collect="always"
       xlink:href="#linearGradient3877"
       id="radialGradient5836"
       gradientUnits="userSpaceOnUse"
       gradientTransform="matrix(1.0463028,0,0,0.85868025,-7.190341,25.049702)"
       cx="92.093979"
       cy="99.315521"
       fx="92.093979"
       fy="99.315521"
       r="121.44665" />
    <linearGradient
       id="linearGradient3877">
      <stop
         id="stop3879"
         offset="0"
         style="stop-color:#fcfcfc;stop-opacity:1;" />
      <stop
         style="stop-color:#e7e7e7;stop-opacity:1;"
         offset="0.51111114"
         id="stop3881" />
      <stop
         id="stop3883"
         offset="1"
         style="stop-color:#acacac;stop-opacity:1;" />
    </linearGradient>
    <linearGradient
       inkscape:collect="always"
       xlink:href="#linearGradient3895"
       id="linearGradient5407"
       gradientUnits="userSpaceOnUse"
       gradientTransform="matrix(0.65155594,0,0,0.65155619,59.179266,60.983436)"
       x1="77.155663"
       y1="-29.950439"
       x2="77.016068"
       y2="164.04956" />
    <linearGradient
       inkscape:collect="always"
       xlink:href="#linearGradient3903"
       id="linearGradient5409"
       gradientUnits="userSpaceOnUse"
       gradientTransform="matrix(0.65155594,0,0,0.65155619,59.179266,60.983436)"
       x1="7.1726875"
       y1="120.48396"
       x2="197.90625"
       y2="120.48396" />
    <radialGradient
       inkscape:collect="always"
       xlink:href="#linearGradient3877"
       id="radialGradient5427"
       gradientUnits="userSpaceOnUse"
       gradientTransform="matrix(0.65155594,0,0,0.53471943,59.179266,73.471846)"
       cx="92.093979"
       cy="99.315521"
       fx="92.093979"
       fy="99.315521"
       r="121.44665" />
    <radialGradient
       inkscape:collect="always"
       xlink:href="#linearGradient3847"
       id="radialGradient5953"
       gradientUnits="userSpaceOnUse"
       gradientTransform="matrix(1.0462796,-0.00696722,0.00775026,1.1638688,-7.8936829,-5.2079796)"
       cx="84.828728"
       cy="87.145508"
       fx="84.828728"
       fy="87.145508"
       r="96.430199" />
    <linearGradient
       id="linearGradient3847">
      <stop
         style="stop-color:#d7d7d7;stop-opacity:1;"
         offset="0"
         id="stop3849" />
      <stop
         id="stop3855"
         offset="0.50683612"
         style="stop-color:#9f9f9f;stop-opacity:1;" />
      <stop
         style="stop-color:#232323;stop-opacity:1;"
         offset="1"
         id="stop3851" />
    </linearGradient>
    <radialGradient
       r="96.430199"
       fy="87.145508"
       fx="84.828728"
       cy="87.145508"
       cx="84.828728"
       gradientTransform="matrix(0.65797731,-0.0043815,0.00487393,0.73192602,58.190136,53.78015)"
       gradientUnits="userSpaceOnUse"
       id="radialGradient5465"
       xlink:href="#linearGradient3847"
       inkscape:collect="always" />
    <linearGradient
       inkscape:collect="always"
       xlink:href="#linearGradient7553"
       id="linearGradient6302"
       gradientUnits="userSpaceOnUse"
       gradientTransform="matrix(2.2756198,0,0,2.2756169,61.345146,-957.55164)"
       x1="5.7526746"
       y1="451.22672"
       x2="35.519711"
       y2="493.65311" />
    <linearGradient
       inkscape:collect="always"
       xlink:href="#linearGradient3895-9"
       id="linearGradient5251"
       gradientUnits="userSpaceOnUse"
       gradientTransform="matrix(0.65155594,0,0,0.65155619,59.757453,60.983441)"
       x1="77.155663"
       y1="-29.950439"
       x2="77.016068"
       y2="164.04956" />
    <linearGradient
       id="linearGradient3895-9">
      <stop
         style="stop-color:#ffffff;stop-opacity:1;"
         offset="0"
         id="stop3897-3" />
      <stop
         style="stop-color:#ffffff;stop-opacity:0;"
         offset="1"
         id="stop3899-6" />
    </linearGradient>
    <linearGradient
       inkscape:collect="always"
       xlink:href="#linearGradient3903-3"
       id="linearGradient5253"
       gradientUnits="userSpaceOnUse"
       gradientTransform="matrix(0.65155594,0,0,0.65155619,59.757453,60.983441)"
       x1="7.1726875"
       y1="120.48396"
       x2="197.90625"
       y2="120.48396" />
    <linearGradient
       id="linearGradient3903-3">
      <stop
         style="stop-color:#ffffff;stop-opacity:0;"
         offset="0"
         id="stop3905-6" />
      <stop
         id="stop3912-3"
         offset="0.5"
         style="stop-color:#ffffff;stop-opacity:1;" />
      <stop
         style="stop-color:#ffffff;stop-opacity:0;"
         offset="1"
         id="stop3907-3" />
    </linearGradient>
    <linearGradient
       inkscape:collect="always"
       xlink:href="#linearGradient7553"
       id="linearGradient5216-8"
       x1="100.31952"
       y1="16.614422"
       x2="296.82278"
       y2="210.21353"
       gradientUnits="userSpaceOnUse" />
    <linearGradient
       id="linearGradient5194-2">
      <stop
         style="stop-color:#1f388c;stop-opacity:1;"
         offset="0"
         id="stop5196-2" />
      <stop
         style="stop-color:#050620;stop-opacity:1;"
         offset="1"
         id="stop5198-3" />
    </linearGradient>
    <radialGradient
       inkscape:collect="always"
       xlink:href="#linearGradient3877"
       id="radialGradient5836-4"
       gradientUnits="userSpaceOnUse"
       gradientTransform="matrix(0.65155594,0,0,0.53471942,59.757453,73.471851)"
       cx="92.093979"
       cy="99.315521"
       fx="92.093979"
       fy="99.315521"
       r="121.44665" />
    <linearGradient
       id="linearGradient3877-5">
      <stop
         id="stop3879-4"
         offset="0"
         style="stop-color:#fff2da;stop-opacity:1;" />
      <stop
         style="stop-color:#f4db9a;stop-opacity:1;"
         offset="0.51111114"
         id="stop3881-3" />
      <stop
         id="stop3883-3"
         offset="1"
         style="stop-color:#d39833;stop-opacity:1;" />
    </linearGradient>
    <radialGradient
       inkscape:collect="always"
       xlink:href="#linearGradient3847-5"
       id="radialGradient5953-4"
       gradientUnits="userSpaceOnUse"
       gradientTransform="matrix(1.0462796,-0.00696722,0.00775026,1.1638688,-7.8936829,-5.2079796)"
       cx="84.828728"
       cy="87.145508"
       fx="84.828728"
       fy="87.145508"
       r="96.430199" />
    <linearGradient
       id="linearGradient3847-5">
      <stop
         style="stop-color:#afceff;stop-opacity:1;"
         offset="0"
         id="stop3849-6" />
      <stop
         id="stop3855-5"
         offset="0.50683612"
         style="stop-color:#508eee;stop-opacity:1;" />
      <stop
         style="stop-color:#001b45;stop-opacity:1;"
         offset="1"
         id="stop3851-4" />
    </linearGradient>
    <radialGradient
       r="96.430199"
       fy="87.145508"
       fx="84.828728"
       cy="87.145508"
       cx="84.828728"
       gradientTransform="matrix(0.65154149,-0.00433864,0.00482626,0.72476717,59.319467,54.629711)"
       gradientUnits="userSpaceOnUse"
       id="radialGradient6384"
       xlink:href="#linearGradient3847"
       inkscape:collect="always" />
    <radialGradient
       inkscape:collect="always"
       xlink:href="#linearGradient6499"
       id="radialGradient6505"
       cx="127.63277"
       cy="127.66012"
       fx="127.63277"
       fy="127.66012"
       r="127.63277"
       gradientUnits="userSpaceOnUse"
       gradientTransform="matrix(1.0028773,0,0,1.0028773,-1.4060615e-5,-0.02743008)" />
  </defs>
  <sodipodi:namedview
     id="base"
     pagecolor="#ffffff"
     bordercolor="#666666"
     borderopacity="1.0"
     inkscape:pageopacity="0.0"
     inkscape:pageshadow="2"
     inkscape:zoom="1"
     inkscape:cx="-45.387295"
     inkscape:cy="81.844588"
     inkscape:document-units="px"
     inkscape:current-layer="layer12"
     showgrid="false"
     inkscape:window-width="1920"
     inkscape:window-height="1033"
     inkscape:window-x="-2"
     inkscape:window-y="-3"
     inkscape:window-maximized="1"
     inkscape:snap-page="true" />
  <metadata
     id="metadata6">
    <rdf:RDF>
      <cc:Work
         rdf:about="">
        <dc:format>image/svg+xml</dc:format>
        <dc:type
           rdf:resource="http://purl.org/dc/dcmitype/StillImage" />
        <dc:title></dc:title>
      </cc:Work>
    </rdf:RDF>
  </metadata>
  <g
     inkscape:groupmode="layer"
     id="layer12"
     inkscape:label="background">
    <rect
       style="color:#000000;fill:url(#radialGradient6505);fill-opacity:1;stroke:none;stroke-width:20;marker:none;visibility:visible;display:inline;overflow:visible;enable-background:accumulate"
       id="rect6497"
       width="256"
       height="256"
       x="0"
       y="-2.5080632e-14" />
  </g>
  <g
     inkscape:groupmode="layer"
     id="layer6"
     inkscape:label="notfound"
     style="display:none">
    <g
       inkscape:groupmode="layer"
       id="layer9"
       inkscape:label="notfound planet"
       style="opacity:0.66600001;display:inline">
      <path
         style="fill:url(#radialGradient6384);fill-opacity:1;stroke:none;display:inline;enable-background:new"
         d="m 128.10975,64.750251 c -0.51456,0.002 -1.03098,0.006 -1.54744,0.0204 -0.57092,0.0137 -1.14327,0.0323 -1.71034,0.0611 -7.67988,0.3893 -14.98501,2.16448 -21.70496,5.04957 -0.96219,0.41309 -1.91365,0.84444 -2.85056,1.30311 -0.342367,0.16761 -0.679191,0.33546 -1.018058,0.50903 -0.128473,0.0656 -0.25894,0.13721 -0.386859,0.20361 -0.457215,0.23818 -0.913602,0.48408 -1.364198,0.733 -0.763613,0.42184 -1.516148,0.85108 -2.260083,1.30311 -0.142092,0.0861 -0.286278,0.1775 -0.427586,0.26469 -0.434909,0.26902 -0.875273,0.53529 -1.303109,0.81445 -0.284143,0.1854 -0.574207,0.3803 -0.855167,0.57011 -0.239318,0.16153 -0.475816,0.32404 -0.712639,0.48867 -0.17817,0.12397 -0.352559,0.24075 -0.529389,0.3665 -0.146669,0.1042 -0.281902,0.22039 -0.427584,0.32578 -0.415733,0.30094 -0.833976,0.60555 -1.242028,0.91625 -0.323201,0.24609 -0.638686,0.50124 -0.956974,0.75336 -0.08028,0.0636 -0.164382,0.11927 -0.244333,0.18325 -0.0075,0.006 -0.01291,0.0144 -0.02036,0.0204 -0.05289,0.0424 -0.110141,0.0796 -0.162888,0.12217 -0.191742,0.15454 -0.380218,0.31159 -0.570112,0.46831 -0.14456,0.11936 -0.284159,0.24591 -0.427584,0.3665 -0.39066,0.32826 -0.778048,0.66025 -1.160583,0.99769 -0.286949,0.25312 -0.572875,0.51553 -0.855168,0.77372 -0.184252,0.16873 -0.367596,0.33823 -0.54975,0.50903 -0.05258,0.0493 -0.110494,0.0931 -0.162889,0.14253 -0.08698,0.082 -0.178177,0.16185 -0.264695,0.24433 -0.138765,0.13251 -0.269712,0.27351 -0.407222,0.40723 -0.225127,0.21857 -0.450046,0.42968 -0.671917,0.65155 -0.138892,0.1391 -0.269671,0.28725 -0.407223,0.42759 -0.71027,0.72349 -1.401678,1.4626 -2.076835,2.21936 -0.283977,0.3183 -0.577568,0.63295 -0.855167,0.95697 -0.137672,0.16102 -0.271187,0.32632 -0.407222,0.48867 -0.0218,0.026 -0.03933,0.0554 -0.06108,0.0815 -0.09286,0.11096 -0.192947,0.21416 -0.285056,0.32577 -0.126095,0.15308 -0.241856,0.31408 -0.3665,0.46831 -0.957241,1.18225 -1.877112,2.39437 -2.748751,3.64464 -0.291447,0.41805 -0.573625,0.83707 -0.855168,1.26239 -0.555697,0.83949 -1.092382,1.69866 -1.608529,2.5655 -1.553415,2.6089 -2.92076,5.331419 -4.092586,8.164819 -0.389,0.94058 -0.755122,1.88781 -1.0995,2.85056 -0.16231,0.45375 -0.336479,0.90572 -0.488667,1.36419 -0.01764,0.0529 -0.02322,0.10991 -0.04072,0.16289 -0.01815,0.0549 -0.04308,0.10789 -0.06108,0.16289 -0.289972,0.88958 -0.563255,1.80164 -0.814445,2.70803 -0.136866,0.49387 -0.261733,0.98773 -0.386861,1.48636 -0.09689,0.38612 -0.195286,0.77171 -0.285056,1.16059 -0.0506,0.21782 -0.09421,0.43302 -0.142528,0.65156 -0.01212,0.0548 -0.02874,0.10802 -0.04072,0.16289 -0.131526,0.60655 -0.252481,1.2196 -0.366501,1.83249 -0.02758,0.14826 -0.0549,0.29933 -0.08144,0.44795 -0.153141,0.85109 -0.288889,1.70514 -0.407222,2.5655 -0.02615,0.19169 -0.05701,0.37789 -0.08144,0.57011 -0.0087,0.0675 -0.01193,0.13607 -0.02036,0.20362 -0.05714,0.46142 -0.115721,0.9201 -0.162889,1.38455 -0.02419,0.23618 -0.03954,0.47587 -0.06108,0.71264 -0.0049,0.0541 -0.01557,0.1087 -0.02036,0.16289 -0.02135,0.24354 -0.04249,0.48866 -0.06108,0.733 -0.0031,0.0404 0.003,0.0818 0,0.12217 -0.0368,0.4961 -0.0765,0.98714 -0.101805,1.48635 -0.0014,0.0272 0.0014,0.0544 0,0.0815 -0.02537,0.51328 -0.048,1.03101 -0.06108,1.54744 -1.7e-4,0.007 1.67e-4,0.0135 0,0.0203 -0.0044,0.17447 0.0029,0.35458 0,0.52939 -0.0058,0.35799 -0.02066,0.72015 -0.02036,1.07913 -2e-6,0.007 0,0.0136 0,0.0203 5.85e-4,0.51476 0.0071,1.0308 0.02036,1.54745 6.22e-4,0.0271 -6.85e-4,0.0543 0,0.0814 0.01355,0.50319 0.03541,1.00193 0.06108,1.50672 0.002,0.0405 -0.0021,0.0817 0,0.12217 0.02596,0.49192 0.06422,0.99308 0.101805,1.48637 0.003,0.0406 -0.0031,0.0816 0,0.12217 0.162234,2.13216 0.446407,4.24397 0.814445,6.31194 0.0023,0.0131 -0.0024,0.0276 0,0.0407 0.185829,1.04033 0.395257,2.0728 0.631195,3.09489 0.0033,0.0143 0.01704,0.0265 0.02036,0.0407 0.114936,0.49628 0.21962,0.97425 0.346139,1.466 0.0105,0.0409 0.03015,0.0813 0.04072,0.12217 0.383041,1.47634 0.818363,2.94516 1.303113,4.37764 0.02518,0.0747 0.056,0.14941 0.08144,0.22397 0.170818,0.49855 0.346574,0.99352 0.529389,1.48637 0.148936,0.40151 0.291152,0.80368 0.447945,1.2013 0.03747,0.0954 0.08426,0.1899 0.122167,0.28506 0.15295,0.38234 0.308163,0.7616 0.468306,1.14022 0.04373,0.10378 0.09828,0.20196 0.142528,0.30542 0.158269,0.36864 0.303282,0.7345 0.468305,1.0995 0.05204,0.1156 0.110185,0.23094 0.16289,0.34614 0.434292,0.94532 0.885432,1.89024 1.364195,2.80983 0.171514,0.32945 0.352288,0.65132 0.529389,0.97734 0.114764,0.21179 0.229093,0.42099 0.346139,0.6312 0.01189,0.0214 0.0288,0.0397 0.04072,0.061 0.194071,0.34681 0.39011,0.69569 0.590472,1.03842 0.206166,0.35267 0.418452,0.7105 0.631195,1.05878 0.130994,0.21478 0.253448,0.4386 0.386862,0.65156 0.108439,0.17279 0.215722,0.33736 0.325778,0.50903 0.09211,0.14394 0.191838,0.28449 0.285055,0.42758 0.1854,0.28415 0.380299,0.57421 0.570111,0.85517 0.228289,0.33822 0.45782,0.66446 0.692279,0.99769 0.03402,0.0483 0.06766,0.0943 0.101805,0.14253 0.08167,0.11531 0.161914,0.23141 0.244334,0.34614 0.08827,0.12292 0.175591,0.24427 0.264695,0.3665 0.06292,0.0863 0.119913,0.17873 0.18325,0.26469 0.149345,0.20268 0.296254,0.41002 0.447944,0.61084 0.04637,0.0613 0.09594,0.12205 0.142528,0.18325 0.198985,0.26144 0.407901,0.51549 0.610834,0.77372 0.427366,0.54352 0.858997,1.0803 1.303112,1.60853 0.207955,0.24759 0.419542,0.48867 0.631195,0.733 0.122877,0.1417 0.242422,0.28705 0.3665,0.42759 0.21181,0.24021 0.436183,0.47567 0.651556,0.71264 0.144526,0.1588 0.281516,0.3314 0.427584,0.48867 0.326969,0.35243 0.662876,0.6935 0.997695,1.03841 0.219814,0.22644 0.448769,0.44877 0.671917,0.67192 0.135731,0.13547 0.27031,0.27302 0.407222,0.40722 0.361664,0.35522 0.729434,0.71226 1.099501,1.05878 0.290188,0.27172 0.580265,0.54816 0.875528,0.81444 0.08187,0.0737 0.162095,0.15075 0.244334,0.22398 0.23432,0.20911 0.475211,0.40516 0.712639,0.61083 0.329287,0.28465 0.662764,0.55707 0.997695,0.83481 0.03718,0.0308 0.06455,0.0711 0.101806,0.10181 0.0858,0.071 0.178519,0.13308 0.264694,0.2036 0.120774,0.0986 0.245018,0.18734 0.366501,0.28506 0.08984,0.0723 0.17447,0.1522 0.264694,0.22397 0.910544,0.72602 1.839038,1.44167 2.789474,2.11756 0.155561,0.11038 0.311761,0.2168 0.468306,0.32578 0.417339,0.29116 0.837796,0.57388 1.262389,0.85517 0.421685,0.27936 0.854078,0.54499 1.282753,0.81444 0.271351,0.17057 0.540336,0.34248 0.81444,0.50903 0.160625,0.0975 0.327178,0.189 0.488669,0.28505 1.301408,0.7749 2.631325,1.51688 3.990783,2.19901 1.365807,0.68532 2.754027,1.3063 4.174027,1.89358 0.46734,0.19328 0.93203,0.38777 1.40492,0.57011 0.95185,0.36704 1.91789,0.71666 2.89128,1.03842 0.96883,0.32025 1.9431,0.62175 2.932,0.8959 0.37533,0.10404 0.76213,0.20813 1.14023,0.30541 0.11498,0.0298 0.23093,0.0524 0.34613,0.0814 0.39246,0.0986 0.78562,0.19379 1.18095,0.28505 0.40445,0.0938 0.81474,0.19911 1.22167,0.28505 0.14236,0.03 0.28486,0.0525 0.42758,0.0814 1.33958,0.27336 2.68836,0.48551 4.05186,0.67192 0.11042,0.0151 0.21522,0.0466 0.32578,0.061 0.0673,0.009 0.13627,0.0118 0.20361,0.0203 0.0617,0.008 0.12158,0.0126 0.18325,0.0203 0.46808,0.0581 0.93373,0.11503 1.40492,0.16288 0.29018,0.0297 0.58446,0.0559 0.87553,0.0814 0.24355,0.0214 0.48866,0.0425 0.733,0.061 0.0336,0.002 0.0682,-0.002 0.10181,0 0.50282,0.0375 1.00068,0.0761 1.50671,0.1018 0.0203,0.001 0.0408,-0.001 0.0611,0 1.0467,0.0521 2.09652,0.0808 3.15598,0.0815 1.58476,-6.3e-4 3.1839,-0.0612 4.78486,-0.18325 1.63032,-0.12039 3.23191,-0.30834 4.82559,-0.54975 0.53816,-0.0815 1.07491,-0.16973 1.60854,-0.2647 0.0133,-0.002 0.0274,0.002 0.0407,0 0.83348,-0.14888 1.6622,-0.3279 2.48406,-0.50902 0.71686,-0.158 1.43039,-0.30663 2.13792,-0.48867 0.007,-0.001 0.014,0.001 0.0203,0 5.55443,-1.37617 10.4394,-3.3523 15.16903,-6.10834 0.0212,-0.0119 0.0399,-0.0288 0.061,-0.0407 19.27357,-10.86953 32.29274,-31.51476 32.29274,-55.21939 0,-5.64715 -0.75202,-11.11885 -2.13792,-16.32963 -0.0885,-0.34191 -0.17085,-0.67883 -0.2647,-1.01805 -0.009,-0.033 -0.0109,-0.0689 -0.0203,-0.10181 -7.35452,-26.412699 -30.87703,-44.564239 -57.68306,-45.853259 -0.027,-0.001 -0.0545,10e-4 -0.0815,0 -0.51663,-0.0242 -1.02846,-0.0495 -1.54744,-0.0611 -0.007,-1.7e-4 -0.0136,1.7e-4 -0.0203,0 -0.17525,-0.004 -0.3539,0.002 -0.52939,0 -0.36316,-0.006 -0.73489,-0.0204 -1.09951,-0.0204 z"
         id="path5843-9"
         inkscape:connector-curvature="0" />
      <path
         style="fill:url(#radialGradient5836-4);fill-opacity:1;stroke:none;display:inline;enable-background:new"
         d="m 139.24728,65.686861 c 0.38826,0.81242 1.96642,0.96981 2.21936,1.38456 -0.78882,-0.23619 -3.46236,-0.3205 -1.60852,0.71264 0.77596,0.28795 2.01773,1.68844 2.58586,0.38686 -1.56865,-0.81581 0.46,-0.25876 0.99769,0.1018 0.85962,0.6265 2.1465,0.0277 2.80983,0.67192 -0.84144,0.56977 1.85622,0.89224 0.0407,0.71264 -1.34778,-0.35738 -1.28439,0.90788 0,0.95697 0.98268,0.48659 -0.40534,1.56475 -1.07914,0.71264 -0.95715,-0.51899 -3.47703,0.36807 -2.0972,1.40492 1.15109,0.29684 0.51749,1.82898 1.66961,2.15828 0.39328,0.4475 1.37696,0.7901 0.77373,1.64925 0.0746,0.034 0.14955,0.0675 0.22398,0.10181 -0.45421,0.15012 -0.8644,0.34311 -1.11986,0.71264 -0.30037,0.35819 -0.33613,1.14208 0.2036,1.42528 0.58405,0.66754 1.13379,0.80587 1.87322,1.34383 0.61729,0.53146 1.47642,0.59885 2.03612,1.01806 0.38348,0.46805 -0.0508,0.49459 -0.40722,0.28505 -1.03465,-0.0325 -1.80965,-0.63414 -2.80984,-0.20361 -0.26787,0.17769 -0.49686,0.36281 0.0407,0.52939 0.68796,0.10543 0.37424,0.96246 -0.24434,0.69228 -1.10756,-0.45491 -1.39949,0.71634 -2.17864,1.18095 -0.20918,0.29441 -0.32677,0.81175 -0.59047,1.11986 -0.17891,-0.0326 -0.36758,-4.3e-4 -0.57011,0.14253 0.13091,1.372 -2.18048,1.52604 -1.85286,2.97272 0.6234,1.2108 -1.82173,0.454 -1.56781,1.38456 1.25669,0.66885 -1.11387,0.6386 -1.36419,-0.14253 -0.25508,-0.96755 -0.94843,-1.24286 -1.66962,-1.75106 0.11957,-1.15556 1.73298,0.52194 2.60623,0.14253 1.85423,0.27338 1.44563,-1.91378 0,-1.99539 -1.56799,-0.38744 -3.319,-0.008 -4.47945,-1.26239 -0.58368,-0.077 -1.06648,-0.46432 -1.64925,-0.52939 -1.93785,0.39365 -3.45488,1.69217 -4.92739,2.87092 -0.49193,1.1454 -1.64634,1.90342 -2.07684,3.11525 -0.25138,0.70753 -1.15122,1.02018 -1.07914,1.71034 -1.14744,-0.063 -1.68826,0.99368 -2.72838,1.0995 -1.57092,0.38181 -0.12759,2.31794 -0.85517,3.2985 -0.007,0.86611 0.83154,1.92568 1.68997,0.85517 0.59572,-0.52192 1.47574,-0.81128 2.11756,-0.91625 0.16286,1.35956 0.22193,3.31299 1.5678,3.95006 1.04554,0.20531 1.23076,-0.41656 1.58817,-1.22167 0.39724,-1.03724 0.46495,-2.35768 1.83251,-2.60622 0.79877,-1.11311 -1.57327,-1.09419 -1.2624,-2.42298 0.10144,-1.45673 1.84814,-2.00591 2.13792,-3.13561 0.18237,-0.93677 0.61829,-2.11198 1.89358,-1.62889 0.95469,0.9258 -0.79531,1.83389 -1.07914,2.70803 -0.59166,0.85798 -0.10392,2.41891 0.38686,3.15598 1.65019,0.98246 3.18269,-1.1353 4.86632,-0.67192 0.74872,-0.18978 1.45185,0.59891 0.32577,0.8348 -0.96048,1.33486 -2.90425,0.28885 -3.90933,1.466 0.53762,0.67844 1.63002,1.78509 0.59047,2.58587 -0.75401,-0.24159 -1.95975,-1.71686 -1.7307,0.12216 -0.0425,1.271289 -0.0514,2.979739 -1.54744,3.278149 -1.12838,-1.0349 -2.37639,0.16738 -3.56319,0.54975 -0.93282,0.45933 -1.39866,-1.18485 -2.34153,-0.22398 -1.44363,0.26641 -2.40966,-2.05205 -0.79409,-2.524769 0.17514,-0.57568 0.2223,-2.34679 -0.63119,-1.30312 -1.11332,0.23006 -0.83522,2.034749 -0.69228,2.932009 -0.15717,1.68256 -2.65779,0.72856 -3.33923,2.01575 -0.90765,0.73137 -1.6833,1.73097 -2.70803,2.32117 -0.61848,0.99343 -1.95312,1.69279 -2.97272,1.64925 -0.82201,-0.93396 -0.40253,0.29829 -0.85517,0.69228 -0.65232,0.0168 -3.26951,-0.92039 -2.30081,0.42758 1.58635,0.88289 2.76427,2.96481 1.79178,4.82559 -0.17764,1.41771 -1.69758,2.07119 -2.8302,1.20131 -1.33087,-0.12219 -2.68119,-0.31826 -3.82789,-1.01806 -0.46356,0.74871 -1.70235,0.29573 -1.09949,1.5678 -0.49324,1.40493 -0.59837,3.37203 -1.85287,4.49981 -0.34711,0.7568 1.28274,0.0334 0.59047,1.05878 -1.04648,1.13499 0.63333,1.63642 1.58817,1.18094 0.67566,0.38071 0.0466,2.72561 1.28275,1.58818 0.56197,-0.99743 1.77971,0.4206 2.66731,-0.0407 0.95037,0.39191 1.22292,-1.02553 2.07683,-1.20131 0.54987,-0.67445 0.96291,-1.1128 0.95698,-2.03611 0.69054,-1.29571 2.14586,-2.2917 3.60392,-2.48405 0.59266,-0.6107 -0.65846,-2.28006 0.87553,-2.05648 0.65993,-1.00638 1.32146,-0.1769 1.81214,0.38686 1.12531,0.66396 1.68188,-1.21193 2.70802,-1.03841 0.94552,-1.10816 2.28121,0.12765 2.44334,1.24203 0.38796,1.44202 1.67337,2.14543 2.95236,2.74875 1.19396,0.68959 3.49825,2.06018 2.23972,3.7668 -0.90738,0.78292 -2.55017,0.009 -3.44102,0.61084 0.42918,1.0733 2.06111,0.66808 2.68766,1.66961 0.1226,-0.80762 -0.1727,-1.86775 1.05878,-1.95467 0.57268,-0.73285 1.53376,-1.41941 0.6312,-2.30081 -0.11393,-1.6868 1.40198,0.24119 1.9343,-0.22397 -0.52637,-1.34322 -2.33727,-1.4754 -3.2985,-2.5655 -1.95039,0.0901 -1.59009,-2.52528 -3.09489,-3.17634 -0.72348,-0.84603 0.59059,-2.68167 1.3642,-1.62888 -0.44329,0.67226 1.01057,0.73415 0.77372,1.62888 0.86434,0.23712 1.4476,1.06185 2.42297,1.07915 0.70217,0.73018 1.53628,1.42729 2.50442,1.73069 0.88242,0.65523 0.37253,1.41895 0.28506,2.32117 0.57975,0.46298 1.15469,0.72335 1.34383,1.52708 1.02046,0.3867 -0.26596,1.02413 0.24433,1.71034 0.38836,0.48188 0.74485,0.69025 1.11986,1.24202 0.67812,0.40066 0.95298,1.23781 1.32348,0.32578 0.71091,0.71658 0.0959,-0.7675 -0.1018,-1.0995 0.5007,-0.17566 0.11405,-1.22127 0.81444,-0.44794 1.16916,0.028 -0.0347,-1.73645 -0.91625,-1.48636 -0.39794,-0.37819 0.42136,-1.13815 -0.50903,-1.38456 -0.49504,-1.14871 0.60203,-1.14883 0.81444,-0.2647 0.40889,-0.32051 0.14223,-1.44691 1.05878,-1.16058 0.8374,-0.69199 1.70859,0.23343 2.4637,0.10181 0.33864,-0.69829 2.49141,-1.11965 1.71034,-0.0407 -0.88231,-0.10142 -2.24226,0.34601 -2.21937,1.14022 0.69414,0.10185 0.40964,0.8513 0.61083,1.34383 0.28361,0.96853 -0.57544,0.34776 -0.59047,0.93662 1.33689,-0.58074 0.89914,1.66918 2.23973,1.52708 0.12487,0.71404 1.27446,-0.58978 1.26239,0.48866 0.86518,0.68325 1.37049,-0.30234 1.62889,-0.8348 1.14884,-0.50621 1.84984,1.74942 2.932,0.26469 0.85509,-0.10395 0.93491,-1.25197 1.95467,-1.28275 0.9757,0.0334 -0.40439,1.29656 0.42758,1.87322 0.4286,1.44968 -0.0253,3.07121 -0.0814,4.54054 0.0659,2.1111 -2.55834,1.78464 -3.95006,1.60853 -0.9889,0.58264 -1.85454,1.68892 -3.13562,1.03842 -1.17403,0.12547 -2.22357,-0.94745 -3.27814,-0.12217 -0.34077,-1.63918 -2.76251,0.45841 -2.89127,-1.38456 -1.65746,-0.54963 -3.89038,1.11317 -2.68768,2.8302 -0.47156,0.97506 -1.70362,0.98536 -2.44333,0.26469 -0.89884,-0.62729 -1.97355,-0.55246 -2.95236,-0.69227 -0.49365,-0.88313 -0.83225,-1.84893 -2.03611,-1.91395 -0.85888,-0.9318 -2.49504,0.51072 -2.7284,-0.54975 -0.74642,-0.18521 -0.49783,-1.23822 -1.40491,-1.01806 -0.34586,-1.25893 1.71948,-1.41932 0.71264,-2.80984 -0.85464,-0.45584 0.59033,-1.69487 -0.77373,-1.64925 -0.88714,-0.77481 -1.85892,0.98929 -2.97272,0.0203 -1.01044,-0.77979 -2.26338,0.94394 -3.15597,-0.2647 -0.78979,0.007 -1.60611,0.25855 -2.34154,0.061 -0.86485,0.51898 -2.09038,0.0603 -2.62658,1.14023 -0.76671,-0.14858 -1.28337,0.26433 -1.87322,0.61083 -0.66995,-0.25171 -1.20582,1.61225 -1.46601,0.14253 0.45201,-1.48594 -1.99342,-0.53973 -2.32116,-1.8325 -1.02337,-0.008 -0.56832,1.59335 -1.60853,1.81214 -0.93471,0.86531 -2.32221,0.89404 -2.85056,2.15828 -1.146908,0.88555 -0.515878,2.52901 -1.669614,3.35958 -0.645271,0.90477 -1.891749,1.07091 -2.932,1.11986 -1.202888,0.004 -0.810841,2.22528 -2.382251,1.52709 -0.360973,0.70086 -0.20449,1.78385 -1.0995,2.26008 -0.886439,0.74422 -1.010032,2.0314 -2.117557,2.54515 -0.03434,1.19317 0.955617,2.04176 0.3665,3.11525 0.70009,1.90885 -0.376334,3.77321 -1.384556,5.31425 0.62433,0.69586 0.647144,1.6638 0.223972,2.56551 0.436148,0.94262 0.333551,0.68495 0.671918,1.81214 0.780898,1.98716 3.508725,2.76507 3.359585,5.19208 0.968517,1.05007 2.253815,1.92407 2.91164,3.25779 1.359452,0.4194 1.988576,1.69836 3.298503,2.09719 2.23267,-0.31924 4.46973,0.0923 6.51556,0.83482 2.25183,-0.49687 4.5506,-0.28611 6.82098,-0.44796 1.75713,-0.29053 1.98357,1.66341 2.87092,2.48407 1.60207,0.34438 3.62119,-0.20065 4.86631,1.14021 1.38177,1.43627 -0.36419,3.45881 -0.50903,4.9274 1.15665,1.59525 3.19378,2.14142 4.41836,3.62428 0.36041,1.33081 2.4537,2.4416 1.16059,3.78717 1.26716,0.35416 1.14295,1.71679 0.14252,2.36189 -1.17088,0.84937 -1.92974,3.32094 -0.0814,3.68537 1.22175,0.84152 2.67702,1.57405 2.932,3.17633 0.98452,0.8807 2.45887,1.1388 3.50211,1.81215 2.31402,0.86248 4.70984,-0.69669 7.12639,-0.48867 2.72087,-0.56943 5.61155,-1.45468 7.63543,-3.35958 0.86448,-1.26977 2.9921,-1.21305 3.64464,-2.54515 -0.32637,-0.92629 -0.1543,-1.26775 0.85516,-1.60853 1.93165,-1.82765 4.83814,-2.38802 6.29159,-4.5609 0.18011,-1.07164 1.22682,-2.64792 -0.22397,-3.21705 0.11715,-0.90894 0.32885,-1.95021 -0.54975,-2.46369 0.81722,-2.76268 3.17455,-4.69597 4.86631,-6.98388 0.73324,-1.90225 2.44847,-3.06194 3.72608,-4.47945 1.18568,-1.96018 2.85094,-3.93611 3.40031,-6.21014 0.33522,-0.34282 0.54581,-0.82422 0.77372,-1.18095 0.16331,-0.89851 0.49722,-1.70576 0.46831,-2.6673 -0.0847,-0.52769 0.30175,-1.43039 -0.16289,-1.7307 -0.36859,0.16282 -0.50743,0.68653 -0.87553,0.95698 -0.0643,0.12438 -0.19959,0.22035 -0.34614,0.30542 -0.13577,-0.094 -0.33124,-0.0265 -0.57011,0.28505 -0.0115,0.006 -0.03,0.0144 -0.0407,0.0203 -0.002,0.0138 0.002,0.0268 0,0.0407 -0.0309,0.043 -0.0488,0.0911 -0.0815,0.14253 -1.69961,0.27846 -2.73066,1.65702 -4.1333,2.44333 -0.71261,0.72782 -1.62024,-0.47628 -2.21936,-0.61083 1.09904,-0.64972 0.0847,-1.37635 -0.81445,-1.54744 -1.0891,-0.54769 -1.68323,-1.7798 -3.07452,-1.71034 -1.25443,-0.75078 -1.15832,-3.19431 -2.97273,-3.21706 -0.29757,-1.73885 -0.63029,-3.88806 -2.38225,-4.70342 -1.08109,-0.79194 -1.20968,-2.25255 -2.15828,-3.23742 -0.69899,-1.11152 -1.09321,-2.51482 -2.28044,-3.25778 -0.47947,-0.64405 -0.95451,-1.523 -1.01806,-2.26008 1.0228,-0.182 0.60731,1.2811 1.48636,1.50672 -0.0334,1.20782 1.17853,1.20128 1.89358,0.65156 0.86859,0.30128 1.49249,1.59478 2.17864,2.36188 1.01854,0.75218 1.1143,2.49632 2.68767,2.26009 0.23492,0.76816 0.91291,1.40655 1.11986,2.199 0.0919,2.04399 3.01666,1.81479 3.15598,3.86862 1.53703,0.45214 1.7022,2.03458 1.60853,3.44103 0.48234,0.97394 1.36545,3.01844 2.58586,1.38456 1.28653,-1.6041 3.60899,-2.1694 4.74414,-3.9297 -0.003,-0.0668 0.003,-0.13652 0,-0.20362 0.0749,-0.029 0.15162,-0.0564 0.22397,-0.1018 0.64742,-0.5784 1.38361,-1.20931 1.54745,-2.28044 0.10315,-0.59057 0.67497,-0.81084 0.93661,-1.34384 0.20393,-0.51735 0.99343,-0.79496 1.42528,-1.0995 0.0911,-0.76538 0.41723,-1.43543 1.05878,-1.66962 0.53384,-0.39169 0.12471,-1.56171 0.85516,-1.79178 0.44157,-0.42345 -0.065,-1.41615 0.16289,-2.05647 0.15593,-0.9404 0.88786,-1.97004 0.65156,-2.91164 -0.34539,-1.10314 -1.72609,-0.57799 -2.68767,-0.77372 -0.45503,-0.25623 -1.55484,-0.58657 -1.05878,-1.38456 -0.0228,-0.37445 0.0797,-1.05888 -0.48866,-0.89589 -0.4943,0.53816 -0.32573,1.70437 -0.65156,2.40261 -0.0866,0.78942 -0.75934,1.14186 -1.0995,1.75106 -0.68342,0.29561 -1.37291,0.52809 -1.58817,-0.28506 -0.34056,-0.53374 -0.30626,-1.79975 -1.26239,-1.34383 -0.0196,0.007 -0.0414,0.0134 -0.061,0.0203 -0.19633,-0.87764 -0.94734,-1.17047 -1.85286,-1.48636 -1.08351,-0.75209 -2.10316,-2.93104 -0.18325,-3.17634 0.35067,0.0625 0.49594,-0.0162 0.54976,-0.16289 0.0925,0.12035 0.22157,0.22729 0.36649,0.32578 0.30956,0.28708 0.63205,0.62258 0.77373,1.0995 0.68278,0.3974 1.41817,0.8805 2.36189,0.93661 0.43549,0.14695 1.38624,0.37447 1.79177,0.16289 0.6838,-0.20588 0.48718,-1.3571 1.2624,-1.38455 0.29078,0.48846 0.27644,1.28242 1.18094,0.93661 0.92398,-0.24173 1.73994,-0.58123 2.5655,-0.81445 0.56162,-0.57393 1.12029,-0.69098 1.58817,-1.42528 0.74055,-0.41386 1.23674,-1.39199 2.19901,-1.30311 0.62568,0.74402 1.22803,1.11497 2.17863,1.50672 0.3591,0.57043 0.69837,1.06871 1.28275,1.34384 0.97432,-0.0148 0.71416,0.26881 1.466,0.32578 0.58815,0.35191 0.36333,1.3181 0.61084,1.95466 0.25678,0.97372 0.72451,1.93614 1.18094,2.76912 0.17989,0.80275 0.92397,1.24032 1.18095,1.99539 0.49036,0.33312 0.0453,1.34926 0.57011,1.71034 0.0847,0.45235 0.46806,0.52445 0.61083,0.0407 0.65532,-0.55539 0.37467,-2.05322 0.61084,-3.01344 0.22166,-0.84664 0.0618,-1.67006 -0.12217,-2.4637 0.022,-1.70481 -0.6132,-3.10519 -0.40723,-4.82559 0.0164,-1.19006 0.31851,-2.39496 0.0814,-3.5632 0.0387,-0.88759 0.36074,-1.7141 0.20361,-2.68767 0.1088,-0.87927 0.004,-1.76015 -0.32578,-2.42297 0.48236,-0.42931 0.78839,-0.92433 0.61084,-1.58817 -6.3e-4,-0.0146 0.001,-0.0258 0,-0.0407 -0.0577,-0.30568 0.22327,-0.63303 0.4683,-0.57012 0.004,0.004 0.0164,-0.004 0.0203,0 0.008,0.002 0.0124,0.0168 0.0203,0.0204 0.072,0.074 0.13621,0.17888 0.20362,0.28506 0.0919,0.79304 0.32753,1.73112 0.71264,2.30081 0.0671,0.76655 0.6568,0.7185 0.57011,0 -0.0957,-0.68184 -0.3791,-1.23438 -0.61084,-1.81214 0.0773,-0.0677 0.15493,-0.19139 0.24433,-0.38686 C 186.3945,91.083271 164.73098,69.802221 139.24726,65.686871 z m -24.39262,1.0995 c -1.6259,-0.046 -3.13896,1.35469 -4.60162,1.07914 -1.95442,-0.95192 -10.309991,3.51703 -13.927011,5.43642 -9.641022,5.5708 -17.811211,13.81869 -23.252401,23.47639 1.397946,-0.0698 1.360647,-1.8606 2.504418,-2.4637 0.304462,-0.80788 0.640284,-1.56031 0.89589,-0.48867 0.349684,-0.85925 0.842445,-1.64248 1.975029,-1.38455 0.98864,-0.60229 1.34198,0.40011 0.346139,0.67191 -0.396691,0.60237 -1.01191,0.86071 0.06108,1.03842 0.463254,0.29088 2.053018,0.35541 1.425279,-0.48866 -0.900018,0.4281 -0.198949,-1.89776 0.610834,-2.11756 0.241565,-1.12937 1.472656,-1.02283 1.649251,-2.13792 -1.588517,0.31979 -1.305505,-0.86759 -0.08145,-1.03842 1.523297,0.31576 0.328593,3.10238 2.728391,2.23973 2.592005,-0.33863 2.044811,-3.70306 3.827891,-5.04957 0.632144,-1.67683 2.54626,-2.50588 3.359585,-3.78717 -0.757311,0.90767 -2.0943,0.15473 -0.936611,-0.65155 1.414717,-0.92067 3.010823,-1.91349 3.583559,-3.58356 -0.877148,-0.47927 -1.926776,1.2151 -3.013448,1.32347 -1.148972,0.94144 -1.964116,2.78581 -3.746447,2.38225 -0.926879,0.26868 -1.759102,1.42406 -2.524779,1.48637 0.987034,-1.51124 2.748432,-1.96704 3.685363,-3.58356 1.103477,-1.05442 2.486505,-1.90087 3.685364,-2.93201 1.523818,-0.88537 2.988591,-2.46562 4.886667,-2.32116 0.305171,0.91 -1.53123,0.75345 -1.16058,1.64925 0.979716,0.29502 2.011997,-0.56176 2.769109,-1.26239 0.944648,0.6945 2.519248,-1.2888 2.952368,-0.61084 -0.38247,0.78467 -2.04062,0.70977 -2.03611,1.32348 1.64731,-0.76698 0.87657,0.39081 -0.10181,0.61083 -1.174183,0.89368 -2.992413,0.0283 -3.60392,1.62889 -0.577562,0.81631 -2.514652,1.59025 -1.954669,2.58587 0.170408,-0.6869 1.6234,-1.90227 0.855166,-0.61084 -1.229204,1.1628 1.611013,0.4975 1.77142,-0.38686 0.287243,-0.80001 1.82929,-1.38289 0.855166,-0.26469 0.218389,1.17872 1.935687,-0.51497 2.300807,-1.09951 1.38937,-1.66748 3.33543,-2.64058 4.96812,-4.0315 1.19506,-0.21302 1.8199,-0.99809 2.42297,-1.77142 0.55328,-0.74574 -1.94084,-0.547 -2.36189,0.10181 -0.82018,0.36572 -1.96387,0.85053 -2.8302,0.91625 1.21189,-1.23926 3.21319,-1.90135 4.9274,-1.85286 0.51842,0.58972 1.68816,-0.15826 1.79177,-0.73301 -0.93337,0.33557 -2.5662,-0.16688 -0.79408,-0.0204 1.84606,0.0607 0.78895,-0.9127 -0.28506,-0.30542 -0.89984,-0.0814 -2.526,1.31917 -2.91164,0.57012 1.54256,-0.68062 3.62005,-1.07159 5.0292,-1.26239 0.64123,-0.35064 1.70466,-0.78324 2.42297,-1.32348 0.52686,-0.0463 0.0675,1.05656 -0.34614,0.9977 -0.90921,0.47557 -0.50643,0.98488 -1.28274,1.28275 -0.89591,-0.51147 -2.8659,0.90925 -2.17865,1.68997 0.7536,0.51022 1.6856,-1.98923 1.79178,-0.8348 -0.96243,0.99592 1.46506,0.19421 1.95467,0.57011 0.92638,-0.82556 2.33934,0.16823 3.13561,-0.79409 1.5806,0.18345 0.9278,-0.74279 -0.1018,-0.87552 -1.14477,-0.0919 -1.19414,-0.6968 -0.28506,-1.11987 0.49284,-0.24311 0.88776,-1.29123 0.85517,-1.54744 -0.63426,0.0627 -1.9623,0.83447 -1.0995,-0.14253 -0.15392,-0.0676 -0.40932,-0.13331 -0.61083,-0.18325 z m 23.55781,4.01114 c -0.21107,1.76092 2.97488,1.90191 3.11526,0.38687 -1.15685,0.19473 -2.12773,0.46698 -3.11526,-0.38687 z m -22.33614,0.59048 c -0.91679,0.22864 -1.19777,1.09468 -2.3619,0.87553 -0.48223,-0.27845 -1.7315,-0.80732 -1.18095,0.20361 -0.46016,0.37342 -0.97807,0.71188 -1.03841,-0.0407 -0.74848,-0.12467 -1.79373,0.72636 -0.57011,1.16058 -0.88281,0.79404 -2.33942,1.3526 -3.25778,2.36189 -1.23309,0.12166 -1.22952,1.64962 -2.64695,1.44564 -1.04317,0.29217 -0.0598,0.80117 -1.07914,1.24203 -1.3316,0.73833 -3.18888,0.65934 -4.0315,2.17864 -1.471623,0.6231 -1.710948,2.3296 -3.176338,3.07453 -0.829335,0.44718 -1.277134,1.26649 -0.447942,1.77142 -0.792657,0.56582 -1.043508,1.89601 0.264694,1.20131 2.496742,-1.06928 4.587546,-3.67495 7.513256,-3.17634 1.36575,-1.10205 2.97617,-0.90338 4.58125,-0.63119 1.65001,-0.39853 3.35998,-0.74272 4.43873,-2.11756 1.92778,-0.85603 3.49531,-2.23078 4.80523,-3.84825 1.17126,-0.94856 2.24082,-2.14886 3.60391,-2.60623 -0.83162,-0.24141 -2.36453,-0.54619 -1.07914,-1.3642 -0.1233,-0.84521 -1.5322,-1.39265 -2.36189,-1.30311 -0.83912,0.40011 -1.18708,-0.49705 -1.97502,-0.42758 z m 23.88359,4.37764 c -0.72688,0.0596 -0.0115,0.88776 -0.20361,1.14022 -0.53127,0.18552 -0.33529,0.78241 -0.54975,1.18095 -0.0664,0.59331 0.62088,0.82646 0.40722,1.34383 0.44645,0.19021 0.27775,0.81578 0.44795,1.24203 0.53734,0.58632 1.60158,0.57973 2.4026,0.733 0.50278,0.0645 1.06445,-0.28304 0.61084,-0.67191 -1.04951,-0.0577 -1.97678,-0.5501 -2.26008,-1.38456 -0.35184,-0.54398 -0.16614,-1.31987 -0.40722,-1.91395 -0.19957,-0.67053 0.67376,-1.18557 -0.0814,-1.54744 -0.0734,-0.10991 -0.24681,-0.0591 -0.3665,-0.12217 z m -12.19631,0.32578 c -1.01589,0.18157 -2.49277,0.3354 -1.42528,1.66961 -0.2297,1.62274 1.08674,1.56715 1.32347,0.24433 0.44962,-2.00732 0.89315,1.10914 1.52709,-0.18325 0.10224,-0.55594 -1.28802,-1.07167 -0.81445,-1.24203 1.6748,-0.0677 0.89801,-0.62787 -0.34614,-0.40722 l -0.26469,-0.0814 z m -19.62813,9.65118 c -1.37086,-0.001 0.4886,1.48555 -0.81444,1.22166 -0.56844,0.21493 0.62722,0.9419 -0.48867,0.9977 0.34587,0.19482 1.23857,1.63275 2.199,0.79408 1.20084,-0.21934 3.01279,-0.76352 2.17864,-2.32117 -0.89272,0.17024 -1.53324,-0.18023 -2.42297,0.20361 -0.63918,-0.0929 0.20005,-0.85124 -0.65156,-0.89588 z m -23.618901,5.37533 c -1.117002,0.81718 -3.054736,1.42727 -2.728389,3.09489 0.483996,0.40754 0.09431,2.35016 0.794083,1.11987 -0.10088,-0.94623 0.364215,-1.7283 1.038417,-2.07684 -0.413708,-1.13804 0.519709,-1.22313 0.895889,-2.13792 z m 29.360751,4.64234 c -1.07049,-0.0382 -1.40239,0.91289 -2.26009,1.26239 0.28089,0.59891 -0.50313,0.76083 -0.16289,1.40492 -0.71319,0.37664 0.83648,0.74891 0.14252,1.54745 0.81453,0.182229 1.26286,0.715429 0.9977,1.730689 -0.33207,0.77649 -1.57618,0.21817 -1.05878,1.58817 -1.2323,0.26203 -1.25763,0.69248 -0.0204,0.77373 0.92951,0.76371 -0.85416,0.31948 -1.20131,0.95696 -1.5694,0.98399 1.12746,0.67614 1.91395,0.61084 1.24946,-0.34577 2.78598,0.35876 3.31886,-1.03842 0.79386,-0.91355 0.0918,-1.48138 -0.59047,-1.95467 -0.10182,-1.2272 -1.04685,-1.88339 -1.05878,-3.196689 -1.43579,-0.67215 0.64448,-1.45544 0.77372,-2.21936 -0.43404,-0.29161 -2.1275,0.0804 -1.05877,-0.733 0.41047,-0.0816 0.79427,-0.47625 0.26469,-0.73301 z m -4.15368,3.50211 c -0.0589,0.006 -0.11968,0.0222 -0.18325,0.0407 -0.90427,0.42217 -0.4425,1.776629 -1.42528,0.855169 -0.83674,0.47557 0.002,1.50995 -0.77372,2.13792 -1.26126,0.38421 -0.33425,1.87481 0.65155,0.8348 1.34867,0.0164 2.1717,-1.1016 2.13792,-2.32116 0.80696,-0.40311 0.47543,-1.639099 -0.40722,-1.547449 z m 48.70381,7.330009 c 0.17049,0.007 0.3215,0.0568 0.44794,0.16289 -0.0103,0.97899 -0.95508,1.70824 -0.40722,2.60623 0.58994,0.41038 1.43023,0.52338 2.03611,1.14022 0.13437,0.51594 0.66002,0.89316 0.81445,1.466 0.61649,0.22067 0.12629,-1.13035 0.65155,-0.61083 0.45503,0.24509 1.31702,0.42115 1.18095,1.0995 -0.45019,0.245 -1.12531,0.63732 -0.57011,1.14022 0.59735,0.21392 0.8752,0.85748 1.30311,1.30311 0.23948,0.86317 0.66267,1.70217 0.65156,2.60623 -0.55638,0.48097 -1.07236,1.1883 -1.91395,0.89589 -0.19121,-0.0681 -0.42591,-0.12311 -0.65156,-0.14253 -0.0433,-0.13337 -0.0702,-0.23676 -0.12216,-0.38686 -1.16071,0.27284 -1.9321,-0.22585 -1.75106,-1.466 -0.19609,-1.025 0.55345,-2.70875 -1.03842,-2.76911 -1.57874,-1.2039 -3.68002,-2.99161 -2.95236,-5.25318 0.28632,-0.52623 0.62598,-1.12951 0.75336,-1.73069 0.45583,0.18014 1.07767,-0.0825 1.56781,-0.0611 z m -37.79024,10.34346 c -0.0976,0.007 -0.10258,0.14255 -0.0611,0.18325 -0.66892,0.9864 1.05951,1.79691 0.65155,0.26469 0.0976,-0.37361 -0.28763,-0.38107 -0.50902,-0.42758 -0.0367,-0.0177 -0.057,-0.0221 -0.0815,-0.0204 z m 0,2.28045 c -0.78052,0.21231 -0.859,2.69024 -0.0815,2.68766 0.9954,-0.28916 0.97855,-2.33144 0.0815,-2.68766 z m 26.81559,5.61966 c -0.61719,0.13156 -2.66123,1.27405 -1.03841,1.28275 0.90764,0.0408 0.75449,-0.8248 1.03841,-1.28275 z m -10.66922,1.32347 c -1.35706,0.56524 2.13912,1.7125 2.28044,0.30542 -0.72457,-0.21115 -1.5975,0.0674 -2.28044,-0.30542 z m -71.83405,6.88207 c 0.845099,11.10793 4.680501,22.10638 11.076451,31.17289 0.929719,-1.39061 1.057299,-3.0901 0.122167,-4.43873 -0.468762,-1.75371 -2.49215,-2.54167 -3.155974,-4.2962 -1.017226,-1.44971 -1.957973,-2.92439 -2.830197,-4.45909 -0.966919,-1.98186 -1.406606,-4.02649 -2.36189,-6.00653 -1.136111,-2.1022 -1.072115,-4.65434 -1.404917,-7.02459 -0.68025,-1.58713 -0.307814,-3.51631 -1.44564,-4.94775 z m 101.54092,39.98926 c -2.43816,0.90863 -4.00118,3.11026 -6.10834,4.58126 0.0587,1.36793 -0.29064,2.34636 -1.466,3.05416 -1.19328,1.26994 0.68143,1.2988 1.40493,0.46831 1.72388,-1.19344 2.37373,-3.50044 4.54053,-4.15367 0.63464,-1.27625 1.16863,-2.60318 1.62888,-3.95006 z"
         id="path5779-1"
         inkscape:connector-curvature="0" />
      <path
         sodipodi:type="arc"
         style="color:#000000;fill:none;stroke:url(#linearGradient5216-8);stroke-width:1.54637742px;stroke-linecap:butt;stroke-linejoin:miter;stroke-miterlimit:4;stroke-opacity:1;stroke-dasharray:none;stroke-dashoffset:0;marker:none;visibility:visible;display:inline;overflow:visible;enable-background:accumulate"
         id="path5865"
         sodipodi:cx="199.5"
         sodipodi:cy="113.5"
         sodipodi:rx="98"
         sodipodi:ry="98"
         d="m 297.5,113.5 a 98,98 0 1 1 -196,0 98,98 0 1 1 196,0 z"
         transform="matrix(0.64667255,0,0,0.6466728,-0.89172164,54.728701)" />
      <path
         inkscape:connector-curvature="0"
         id="path5958-9"
         d="m 128.15047,64.750251 c -3.69625,0.0103 -7.45183,0.34323 -11.21898,1.01805 -31.675878,5.67424 -53.584747,33.97616 -52.104118,65.277779 62.916598,26.22075 72.396038,-17.40577 123.551298,-22.62121 -8.36473,-26.226899 -32.87122,-43.750979 -60.2282,-43.674619 z"
         style="fill:url(#linearGradient5251);fill-opacity:1;stroke:url(#linearGradient5253);stroke-width:1.49999988;stroke-linecap:butt;stroke-linejoin:miter;stroke-miterlimit:4;stroke-opacity:1;stroke-dasharray:none;display:inline;enable-background:new"
         sodipodi:nodetypes="ssccs" />
    </g>
    <g
       inkscape:groupmode="layer"
       id="layer8"
       inkscape:label="sign"
       style="opacity:0.25;display:inline">
      <path
         sodipodi:type="arc"
         style="color:#000000;fill:none;stroke:#000000;stroke-width:20;stroke-miterlimit:4;stroke-opacity:1;stroke-dasharray:none;marker:none;visibility:visible;display:inline;overflow:visible;enable-background:accumulate"
         id="path6286"
         sodipodi:cx="154.5"
         sodipodi:cy="137.5"
         sodipodi:rx="86.5"
         sodipodi:ry="86.5"
         d="m 241,137.5 a 86.5,86.5 0 1 1 -173,0 86.5,86.5 0 1 1 173,0 z"
         transform="translate(-26.5,-9.5)" />
      <path
         style="color:#000000;fill:none;stroke:#000000;stroke-width:20;stroke-linecap:butt;stroke-linejoin:miter;stroke-miterlimit:4;stroke-opacity:1;stroke-dasharray:none;stroke-dashoffset:0;marker:none;visibility:visible;display:inline;overflow:visible;enable-background:accumulate"
         d="M 189.16474,66.335263 66.835263,188.66474"
         id="path6304"
         inkscape:connector-curvature="0" />
    </g>
  </g>
  <g
     inkscape:groupmode="layer"
     id="layer10"
     inkscape:label="loading"
     style="opacity:0.66600001;display:inline">
    <path
       style="fill:url(#radialGradient5465);fill-opacity:1;stroke:none;display:inline;enable-background:new"
       d="m 127.41708,64.5134 c -17.53614,0 -33.414284,7.101794 -44.906254,18.59375 -5.15355,5.153575 -9.41668,11.172457 -12.5625,17.84375 8.22722,-15.994131 27.00073,-29.118565 57.187504,-31.8125 l 0,0.375 c -7.8123,10.565416 -13.92346,27.463077 -18,45.25 -0.003,0.0181 0.006,0.0126 0,0.0312 -0.20662,0.90258 -0.39753,1.81221 -0.59375,2.71875 -0.0273,0.13229 -0.0653,0.27394 -0.0937,0.40625 -0.11256,0.52406 -0.20373,1.03754 -0.3125,1.5625 -0.21694,1.04634 -0.45329,2.07679 -0.65625,3.125 -0.0351,0.18204 -0.059,0.38045 -0.0937,0.5625 -0.19357,1.01223 -0.38224,2.0196 -0.5625,3.03125 -0.0242,0.13228 -0.0392,0.27393 -0.0625,0.40625 -0.12501,0.70708 -0.25676,1.41916 -0.375,2.125 -0.0765,0.45703 -0.14471,0.91869 -0.21875,1.375 -0.10954,0.67659 -0.20922,1.3255 -0.3125,2 -0.0798,0.52108 -0.17384,1.04298 -0.25,1.5625 -0.0846,0.57739 -0.13864,1.14364 -0.21875,1.71875 -0.0604,0.43277 -0.16111,0.8812 -0.21875,1.3125 -0.009,0.0771 0.009,0.17264 0,0.25 -0.13624,1.02691 -0.28492,2.04567 -0.40625,3.0625 -0.12561,1.05067 -0.234,2.08744 -0.34375,3.125 -0.0983,0.9276 -0.19599,1.83465 -0.28125,2.75 -0.0121,0.12774 -0.0207,0.27882 -0.0312,0.40625 -0.0242,0.25608 -0.0401,0.49513 -0.0625,0.75 -0.082,0.93492 -0.15048,1.89306 -0.21875,2.8125 -0.0679,0.91595 -0.16445,1.78873 -0.21875,2.6875 -0.0489,0.80854 -0.0561,1.613 -0.0937,2.40625 -0.0242,0.53062 -0.0738,1.07045 -0.0937,1.59375 -0.0316,0.82101 -0.0434,1.63575 -0.0625,2.4375 -0.002,0.0964 0.002,0.18507 0,0.28125 -0.0152,0.69112 -0.0252,1.35572 -0.0312,2.03125 -0.003,0.36212 -0.0312,0.73632 -0.0312,1.09375 -0.002,1.72558 0.0319,3.39426 0.0937,5 0.001,0.0313 -10e-4,0.0623 0,0.0937 0.45861,11.62222 2.61162,19.90034 6.65625,21.5 l 0,0.0937 c 0.5023,0.1426 0.99273,0.30703 1.5,0.4375 1.01453,0.26093 2.029,0.47602 3.0625,0.6875 4.13398,0.84592 8.42847,1.3125 12.8125,1.3125 35.07237,0 63.5,-28.42774 63.5,-63.5 0,-35.072318 -28.42763,-63.5 -63.5,-63.5 z"
       id="path5843"
       inkscape:connector-curvature="0" />
    <path
       style="color:#000000;fill:url(#radialGradient4562);fill-opacity:1;fill-rule:nonzero;stroke:url(#linearGradient4564);stroke-width:0.99999994px;stroke-linecap:butt;stroke-linejoin:miter;stroke-miterlimit:4;stroke-opacity:1;stroke-dasharray:none;stroke-dashoffset:0;marker:none;visibility:visible;display:inline;overflow:visible;enable-background:accumulate"
       d="m 127.14649,69.15298 c -76.368684,6.81535 -79.814064,80.36596 -23.74401,98.34236 -1.11125,-28.20629 7.73933,-76.328012 23.74401,-97.972861 l 0,-0.369499 z"
       id="path4095"
       inkscape:connector-curvature="0" />
    <path
       style="color:#000000;fill:none;stroke:url(#linearGradient6302);stroke-width:0.99999994;stroke-miterlimit:4;stroke-opacity:1;marker:none;visibility:visible;display:inline;overflow:visible;enable-background:accumulate"
       d="m 127.42017,64.50001 c -17.53614,0 -33.409444,7.106297 -44.901414,18.598253 -5.15355,5.153575 -9.43096,11.188024 -12.57677,17.859317 8.22721,-15.994131 27.01773,-29.110665 57.204504,-31.8046 l 0,0.369499 c -7.8123,10.565416 -13.91961,27.442908 -17.99615,45.229831 -0.003,0.0181 -0.009,0.0363 -0.0152,0.055 -0.20662,0.90258 -0.40594,1.80311 -0.60216,2.70965 -0.0273,0.13229 -0.0538,0.26459 -0.0823,0.3969 -0.11256,0.52406 -0.21968,1.04882 -0.32845,1.57378 -0.21694,1.04634 -0.44022,2.08575 -0.64318,3.13396 -0.0351,0.18204 -0.061,0.36534 -0.0958,0.54739 -0.19357,1.01223 -0.38084,2.02648 -0.5611,3.03813 -0.0242,0.13228 -0.0452,0.26458 -0.0685,0.3969 -0.12501,0.70708 -0.23758,1.41534 -0.35582,2.12118 -0.0765,0.45703 -0.15868,0.91224 -0.23272,1.36855 -0.10954,0.67659 -0.21148,1.35093 -0.31476,2.02543 -0.0798,0.52108 -0.17022,1.04058 -0.24638,1.5601 -0.0846,0.57739 -0.15261,1.14925 -0.23272,1.72436 -0.0604,0.43277 -0.13381,0.86881 -0.19145,1.30011 -0.009,0.0771 -0.0182,0.15536 -0.0273,0.23272 -0.13624,1.02691 -0.26185,2.04867 -0.38318,3.0655 -0.12561,1.05067 -0.24607,2.09636 -0.35582,3.13392 -0.0983,0.9276 -0.18842,1.84907 -0.27368,2.76442 -0.0121,0.12774 -0.0303,0.25578 -0.0409,0.38321 -0.0242,0.25608 -0.0461,0.5115 -0.0685,0.76637 -0.082,0.93492 -0.1508,1.87235 -0.21907,2.79179 -0.0679,0.91595 -0.13715,1.81091 -0.19145,2.70968 -0.0489,0.80854 -0.0855,1.61535 -0.12319,2.4086 -0.0242,0.53062 -0.0486,1.0642 -0.0685,1.5875 -0.0316,0.82101 -0.0631,1.63423 -0.0822,2.43598 -0.002,0.0964 0.002,0.19115 0,0.28733 -0.0152,0.69112 -0.0213,1.36358 -0.0273,2.03911 -0.003,0.36212 -0.0152,0.7237 -0.0152,1.08113 -0.002,1.72558 0.034,3.40307 0.0958,5.00881 0.001,0.0313 -0.001,0.0644 0,0.0959 0.45861,11.62222 2.6064,19.87251 6.65103,21.47217 l -0.0152,0.1235 c 0.5023,0.1426 0.99812,0.28005 1.50539,0.41052 1.01453,0.26093 2.04569,0.50018 3.07919,0.71166 4.13398,0.84592 8.41169,1.28642 12.79572,1.28642 35.07237,0 63.49974,-28.42738 63.49974,-63.49964 0,-35.072318 -28.42737,-63.499657 -63.49974,-63.499657 z"
       id="path4099"
       inkscape:connector-curvature="0" />
    <path
       style="fill:url(#radialGradient5427);fill-opacity:1;stroke:none;display:inline;enable-background:new"
       d="m 138.66708,65.7009 c 0.38826,0.81241 1.9658,0.96025 2.21875,1.375 -0.78883,-0.23618 -3.44758,-0.31438 -1.59375,0.71875 0.77596,0.28796 1.99437,1.67657 2.5625,0.375 -1.56865,-0.81581 0.46231,-0.26681 1,0.09375 0.85963,0.62649 2.14917,0.04328 2.8125,0.6875 -0.84145,0.56977 1.87801,0.89835 0.0625,0.71875 -1.34778,-0.35738 -1.28439,0.8884 0,0.9375 0.98267,0.48659 -0.41995,1.57086 -1.09375,0.71875 -0.95715,-0.519 -3.47359,0.3694 -2.09375,1.40625 1.15108,0.29684 0.50413,1.82694 1.65625,2.15625 0.39328,0.4475 1.38447,0.79709 0.78125,1.65625 0.0746,0.034 0.14432,0.05945 0.21875,0.09375 -0.45421,0.15013 -0.86953,0.34923 -1.125,0.71875 -0.30036,0.3582 -0.32099,1.15431 0.21875,1.4375 0.58404,0.66754 1.13557,0.80579 1.875,1.34375 0.61728,0.53145 1.47155,0.5808 2.03125,1 0.38349,0.46806 -0.0497,0.49079 -0.40625,0.28125 -1.03465,-0.0325 -1.81231,-0.61803 -2.8125,-0.1875 -0.26787,0.17769 -0.50631,0.36466 0.0312,0.53125 0.68796,0.10543 0.39983,0.95768 -0.21875,0.6875 -1.10756,-0.45491 -1.40836,0.7229 -2.1875,1.1875 -0.20918,0.29442 -0.33005,0.78563 -0.59375,1.09375 -0.17891,-0.0326 -0.35997,0.01329 -0.5625,0.15625 0.13091,1.37201 -2.20262,1.52207 -1.875,2.96875 0.6234,1.210797 -1.81642,0.444443 -1.5625,1.375 1.25669,0.66886 -1.09343,0.65613 -1.34375,-0.125 -0.25508,-0.967547 -0.96632,-1.2418 -1.6875,-1.75 0.11957,-1.15556 1.75175,0.50441 2.625,0.125 1.85423,0.27337 1.44563,-1.88714 0,-1.96875 -1.56799,-0.38744 -3.33955,-0.02686 -4.5,-1.28125 -0.58368,-0.077 -1.07348,-0.46618 -1.65625,-0.53125 -1.93785,0.39365 -3.43375,1.69625 -4.90625,2.875 -0.49193,1.1454 -1.66325,1.913173 -2.09375,3.125 -0.25139,0.70753 -1.13459,0.99735 -1.0625,1.6875 -1.14745,-0.063 -1.70988,1.01917 -2.75,1.125 -1.57092,0.38181 -0.11616,2.30068 -0.84375,3.28125 -0.007,0.86611 0.82906,1.94551 1.6875,0.875 0.59571,-0.52192 1.48319,-0.83252 2.125,-0.9375 0.16286,1.35957 0.21663,3.33168 1.5625,3.96875 1.04554,0.20532 1.23634,-0.41365 1.59375,-1.21875 0.39724,-1.03724 0.4762,-2.37646 1.84375,-2.625 0.79878,-1.11311 -1.59213,-1.07747 -1.28125,-2.40625 0.10144,-1.45673 1.86647,-2.02655 2.15625,-3.15625 0.18237,-0.93678 0.59971,-2.108097 1.875,-1.625 0.95469,0.9258 -0.77867,1.84462 -1.0625,2.71875 -0.59166,0.85799 -0.11578,2.41919 0.375,3.15625 1.65019,0.98247 3.19137,-1.15087 4.875,-0.6875 0.74872,-0.18977 1.43858,0.60785 0.3125,0.84375 -0.96048,1.33486 -2.90117,0.2916 -3.90625,1.46875 0.53763,0.67844 1.6333,1.79297 0.59375,2.59375 -0.75401,-0.24158 -1.9478,-1.714027 -1.71875,0.125 -0.0425,1.27128 -0.0665,2.9516 -1.5625,3.25 -1.12838,-1.03489 -2.37569,0.18013 -3.5625,0.5625 -0.93282,0.45932 -1.40087,-1.17962 -2.34375,-0.21875 -1.44363,0.26641 -2.39683,-2.05853 -0.78125,-2.53125 0.17513,-0.57567 0.19725,-2.35617 -0.65625,-1.3125 -1.11332,0.23006 -0.83043,2.04024 -0.6875,2.9375 -0.15716,1.68256 -2.66231,0.74407 -3.34375,2.03125 -0.90766,0.73138 -1.66277,1.72231 -2.6875,2.3125 -0.61849,0.99343 -1.94915,1.69979 -2.96875,1.65625 -0.82201,-0.93396 -0.42237,0.29352 -0.875,0.6875 -0.12892,0.003 -0.35418,-0.0476 -0.59375,-0.0937 -0.14431,0.55105 -0.26591,1.10222 -0.40625,1.65625 0.79816,1.02685 1.16859,2.40822 0.5,3.6875 -0.12583,1.00422 -0.92316,1.62622 -1.78125,1.59375 -0.18153,0.79891 -0.3575,1.60351 -0.53125,2.40625 -0.0273,0.13229 -0.0653,0.27394 -0.0937,0.40625 -0.11256,0.52406 -0.20373,1.03754 -0.3125,1.5625 -0.21694,1.04634 -0.45329,2.07679 -0.65625,3.125 -0.0351,0.18204 -0.059,0.38045 -0.0937,0.5625 -0.0258,0.13489 -0.0369,0.2713 -0.0625,0.40625 0.0217,-0.009 0.0412,-0.0202 0.0625,-0.0312 0.95037,0.39191 1.20859,-1.01172 2.0625,-1.1875 0.54987,-0.67445 0.97469,-1.10794 0.96875,-2.03125 0.69055,-1.29571 2.1357,-2.30764 3.59375,-2.5 0.59267,-0.61069 -0.65898,-2.28609 0.875,-2.0625 0.65994,-1.00639 1.32183,-0.15751 1.8125,0.40625 1.12532,0.66395 1.69261,-1.20476 2.71875,-1.03125 0.94551,-1.10815 2.27537,0.10438 2.4375,1.21875 0.38795,1.44203 1.65851,2.14667 2.9375,2.75 1.19396,0.68958 3.50853,2.07462 2.25,3.78125 -0.90738,0.78292 -2.54664,-0.008 -3.4375,0.59375 0.42919,1.0733 2.06094,0.68597 2.6875,1.6875 0.1226,-0.80762 -0.16899,-1.88183 1.0625,-1.96875 0.57268,-0.73285 1.52757,-1.39985 0.625,-2.28125 -0.11392,-1.6868 1.40518,0.21515 1.9375,-0.25 -0.52637,-1.34322 -2.35128,-1.47241 -3.3125,-2.5625 -1.95039,0.0901 -1.58895,-2.5052 -3.09375,-3.15625 -0.72348,-0.84603 0.60139,-2.67779 1.375,-1.625 -0.44328,0.67227 1.0181,0.73027 0.78125,1.625 0.86435,0.23712 1.43088,1.04521 2.40625,1.0625 0.70217,0.73019 1.53186,1.44659 2.5,1.75 0.88242,0.65523 0.39998,1.41028 0.3125,2.3125 0.57976,0.46298 1.15461,0.72752 1.34375,1.53125 1.02046,0.3867 -0.29154,1.00129 0.21875,1.6875 0.38835,0.48188 0.74999,0.69823 1.125,1.25 0.67812,0.40066 0.97325,1.25578 1.34375,0.34375 0.71091,0.71658 0.0727,-0.793 -0.125,-1.125 0.5007,-0.17566 0.11212,-1.21082 0.8125,-0.4375 1.16917,0.028 -0.0247,-1.71885 -0.90625,-1.46875 -0.39794,-0.37819 0.43038,-1.15984 -0.5,-1.40625 -0.49504,-1.14872 0.60009,-1.13413 0.8125,-0.25 0.40889,-0.32051 0.14595,-1.44258 1.0625,-1.15625 0.8374,-0.692 1.71364,0.22537 2.46875,0.0937 0.33864,-0.69829 2.46857,-1.11021 1.6875,-0.0312 -0.88231,-0.10141 -2.24165,0.33078 -2.21875,1.125 0.69414,0.10185 0.42381,0.85122 0.625,1.34375 0.28361,0.96853 -0.57872,0.34865 -0.59375,0.9375 1.33689,-0.58073 0.90941,1.67335 2.25,1.53125 0.12487,0.71404 1.26208,-0.57844 1.25,0.5 0.86519,0.68325 1.3666,-0.31129 1.625,-0.84375 1.14884,-0.50621 1.85534,1.73473 2.9375,0.25 0.85509,-0.10395 0.91775,-1.25048 1.9375,-1.28125 0.9757,0.0334 -0.39447,1.29834 0.4375,1.875 0.4286,1.44968 -0.006,3.06193 -0.0625,4.53125 0.0659,2.11111 -2.57702,1.80111 -3.96875,1.625 -0.9889,0.58264 -1.84392,1.68176 -3.125,1.03125 -1.17404,0.12548 -2.22669,-0.95028 -3.28125,-0.125 -0.34078,-1.63918 -2.77749,0.46797 -2.90625,-1.375 -1.65745,-0.54963 -3.8902,1.12672 -2.6875,2.84375 -0.47157,0.97505 -1.69778,0.97066 -2.4375,0.25 -0.89884,-0.62729 -1.95869,-0.54769 -2.9375,-0.6875 -0.49365,-0.88313 -0.82739,-1.84124 -2.03125,-1.90625 -0.85888,-0.9318 -2.51665,0.49798 -2.75,-0.5625 -0.74643,-0.18521 -0.49916,-1.25141 -1.40625,-1.03125 -0.34586,-1.25893 1.72559,-1.39073 0.71875,-2.78125 -0.85464,-0.45584 0.5828,-1.70188 -0.78125,-1.65625 -0.88714,-0.77481 -1.85494,0.96899 -2.96875,0 -1.01044,-0.7798 -2.26366,0.95864 -3.15625,-0.25 -0.78979,0.007 -1.60833,0.26005 -2.34375,0.0625 -0.86486,0.51898 -2.08879,0.0451 -2.625,1.125 -0.76671,-0.14858 -1.28515,0.2785 -1.875,0.625 -0.46896,-0.1762 -0.86726,0.65947 -1.15625,0.6875 -0.10179,0.59284 -0.2134,1.18969 -0.3125,1.78125 -0.0765,0.45703 -0.14471,0.91869 -0.21875,1.375 -0.10954,0.67659 -0.20922,1.3255 -0.3125,2 -0.0798,0.52108 -0.17384,1.04298 -0.25,1.5625 -0.0846,0.57739 -0.13864,1.14364 -0.21875,1.71875 -0.0604,0.43277 -0.16111,0.8812 -0.21875,1.3125 -0.009,0.0771 0.009,0.17264 0,0.25 -0.13624,1.02691 -0.28492,2.04567 -0.40625,3.0625 -0.12561,1.05067 -0.234,2.08744 -0.34375,3.125 -0.0983,0.9276 -0.19599,1.83465 -0.28125,2.75 -0.0121,0.12774 -0.0207,0.27882 -0.0312,0.40625 -0.0242,0.25608 -0.0401,0.49513 -0.0625,0.75 -0.082,0.93492 -0.15048,1.89306 -0.21875,2.8125 -0.0679,0.91595 -0.16445,1.78873 -0.21875,2.6875 -0.0489,0.80854 -0.0561,1.613 -0.0937,2.40625 -0.0242,0.53062 -0.0738,1.07045 -0.0937,1.59375 -0.0316,0.82101 -0.0434,1.63575 -0.0625,2.4375 -0.002,0.0964 0.002,0.18507 0,0.28125 -0.0152,0.69112 -0.0252,1.35572 -0.0312,2.03125 -0.003,0.36212 -0.0312,0.73632 -0.0312,1.09375 -2.2e-4,0.18936 -6.8e-4,0.37432 0,0.5625 0.71307,0.15883 1.41558,0.34761 2.09375,0.59375 2.25184,-0.49686 4.54212,-0.27565 6.8125,-0.4375 1.75713,-0.29053 1.98765,1.6481 2.875,2.46875 1.60207,0.34439 3.62988,-0.18461 4.875,1.15625 1.38177,1.43627 -0.38641,3.43766 -0.53125,4.90625 1.15665,1.59524 3.21292,2.14214 4.4375,3.625 0.36041,1.33081 2.44937,2.43568 1.15625,3.78125 1.26718,0.35416 1.12543,1.7299 0.125,2.375 -1.17087,0.84937 -1.91083,3.32307 -0.0625,3.6875 1.22176,0.84153 2.68253,1.58522 2.9375,3.1875 0.98452,0.88069 2.45676,1.13916 3.5,1.8125 2.31401,0.86249 4.70844,-0.70802 7.125,-0.5 2.72086,-0.56943 5.60113,-1.47009 7.625,-3.375 0.86449,-1.26976 3.0037,-1.19915 3.65625,-2.53125 -0.32638,-0.92629 -0.16571,-1.28422 0.84375,-1.625 1.93164,-1.82766 4.82779,-2.35837 6.28125,-4.53125 0.18011,-1.07164 1.23204,-2.64962 -0.21875,-3.21875 0.11715,-0.90894 0.34736,-1.95527 -0.53125,-2.46875 0.81723,-2.76268 3.15199,-4.71209 4.84375,-7 0.73325,-1.90225 2.47239,-3.05124 3.75,-4.46875 1.18568,-1.96018 2.82563,-3.94472 3.375,-6.21875 0.33521,-0.34282 0.55334,-0.83077 0.78125,-1.1875 0.16331,-0.89851 0.49766,-1.6947 0.46875,-2.65625 -0.0847,-0.52768 0.30839,-1.41844 -0.15625,-1.71875 -0.36859,0.16282 -0.5069,0.66706 -0.875,0.9375 -0.0643,0.12439 -0.1972,0.22744 -0.34375,0.3125 -0.13577,-0.094 -0.32363,-0.0303 -0.5625,0.28125 -0.0115,0.006 -0.0517,0.0254 -0.0625,0.0312 -0.002,0.0138 0.002,0.0173 0,0.0312 -0.0309,0.043 -0.0298,0.10482 -0.0625,0.15625 -1.69961,0.27846 -2.75362,1.65119 -4.15625,2.4375 -0.71262,0.72782 -1.61964,-0.49045 -2.21875,-0.625 1.09904,-0.64973 0.0867,-1.36017 -0.8125,-1.53125 -1.0891,-0.54769 -1.67121,-1.78821 -3.0625,-1.71875 -1.25443,-0.75078 -1.15433,-3.196 -2.96875,-3.21875 -0.29757,-1.73885 -0.62303,-3.87215 -2.375,-4.6875 -1.08109,-0.79194 -1.20765,-2.26513 -2.15625,-3.25 -0.69899,-1.11152 -1.09402,-2.50704 -2.28125,-3.25 -0.47946,-0.64405 -0.96769,-1.54417 -1.03125,-2.28125 1.02281,-0.182 0.62095,1.30563 1.5,1.53125 -0.0334,1.20782 1.15994,1.20597 1.875,0.65625 0.86858,0.30128 1.50136,1.57665 2.1875,2.34375 1.01855,0.75218 1.11412,2.48623 2.6875,2.25 0.23492,0.76816 0.91805,1.4263 1.125,2.21875 0.0919,2.04399 3.01693,1.82117 3.15625,3.875 1.53704,0.45214 1.68743,2.03105 1.59375,3.4375 0.48234,0.97394 1.37335,3.00889 2.59375,1.375 1.28654,-1.60409 3.61486,-2.1772 4.75,-3.9375 -0.003,-0.0668 0.003,-0.1204 0,-0.1875 0.0749,-0.029 0.1464,-0.0483 0.21875,-0.0937 0.64742,-0.5784 1.36741,-1.21013 1.53125,-2.28125 0.10315,-0.59057 0.67585,-0.81075 0.9375,-1.34375 0.20393,-0.51735 1.00565,-0.82046 1.4375,-1.125 0.0911,-0.76538 0.42096,-1.42206 1.0625,-1.65625 0.53385,-0.39169 0.1133,-1.55118 0.84375,-1.78125 0.44157,-0.42345 -0.0716,-1.42218 0.15625,-2.0625 0.15593,-0.9404 0.89254,-1.96465 0.65625,-2.90625 -0.34539,-1.10314 -1.72592,-0.58552 -2.6875,-0.78125 -0.45503,-0.25623 -1.55856,-0.57701 -1.0625,-1.375 -0.0228,-0.37445 0.0996,-1.06924 -0.46875,-0.90625 -0.4943,0.53816 -0.33043,1.70801 -0.65625,2.40625 -0.0866,0.78941 -0.75359,1.1408 -1.09375,1.75 -0.68342,0.29561 -1.3785,0.5319 -1.59375,-0.28125 -0.34056,-0.53374 -0.29387,-1.79967 -1.25,-1.34375 -0.0196,0.007 -0.0429,-0.007 -0.0625,0 -0.19634,-0.87764 -0.96948,-1.15285 -1.875,-1.46875 -1.08351,-0.75208 -2.10741,-2.9422 -0.1875,-3.1875 0.35067,0.0625 0.50868,-0.01 0.5625,-0.15625 0.0925,0.12035 0.23008,0.21401 0.375,0.3125 0.30956,0.28708 0.63957,0.64808 0.78125,1.125 0.68278,0.3974 1.40004,0.85014 2.34375,0.90625 0.4355,0.14695 1.37572,0.39907 1.78125,0.1875 0.6838,-0.20588 0.50603,-1.37879 1.28125,-1.40625 0.29078,0.48847 0.28299,1.28331 1.1875,0.9375 0.92398,-0.24173 1.73693,-0.57928 2.5625,-0.8125 0.56162,-0.57393 1.12587,-0.67195 1.59375,-1.40625 0.74055,-0.41386 1.22524,-1.40138 2.1875,-1.3125 0.62569,0.74402 1.2369,1.10825 2.1875,1.5 0.35909,0.57043 0.69687,1.06861 1.28125,1.34375 0.97431,-0.0148 0.71691,0.28678 1.46875,0.34375 0.58815,0.35191 0.34623,1.30094 0.59375,1.9375 0.25678,0.97372 0.73107,1.94827 1.1875,2.78125 0.17989,0.80275 0.93051,1.24493 1.1875,2 0.49036,0.33312 0.0377,1.32642 0.5625,1.6875 0.0847,0.45235 0.45098,0.54625 0.59375,0.0625 0.65532,-0.55539 0.38883,-2.07102 0.625,-3.03125 0.22166,-0.84663 0.059,-1.67512 -0.125,-2.46875 0.022,-1.70481 -0.61223,-3.09209 -0.40625,-4.8125 0.0164,-1.19006 0.33076,-2.39426 0.0937,-3.5625 0.0387,-0.8876 0.34462,-1.71393 0.1875,-2.6875 0.1088,-0.87928 0.0173,-1.77469 -0.3125,-2.4375 0.48236,-0.42931 0.7713,-0.89866 0.59375,-1.5625 -6.3e-4,-0.0146 0.001,-0.0476 0,-0.0625 -0.0577,-0.30567 0.22372,-0.62541 0.46875,-0.5625 0.004,0.004 0.0273,-0.004 0.0312,0 0.008,0.002 0.0233,0.0276 0.0312,0.0312 0.072,0.074 0.1201,0.17507 0.1875,0.28125 0.0919,0.79304 0.33364,1.71155 0.71875,2.28125 0.0671,0.76655 0.64919,0.7185 0.5625,0 -0.0957,-0.68185 -0.36201,-1.23475 -0.59375,-1.8125 0.0773,-0.0677 0.12935,-0.17952 0.21875,-0.375 -0.35648,-2.29845 -0.86658,-4.56107 -1.5,-6.78125 -0.0272,-0.0914 -0.0349,-0.19007 -0.0625,-0.28125 -0.0425,-0.14629 -0.0813,-0.2916 -0.125,-0.4375 -0.0532,-0.17101 -0.13291,-0.32961 -0.1875,-0.5 -0.26277,-0.8202 -0.51767,-1.6322 -0.8125,-2.4375 -1.42433,-3.89035 -3.22251,-7.6025 -5.34375,-11.09375 -0.53031,-0.872813 -1.08571,-1.749205 -1.65625,-2.59375 -0.034,-0.05037 -0.0596,-0.105983 -0.0937,-0.15625 -0.53873,-0.79255 -1.1144,-1.546157 -1.6875,-2.3125 -0.38713,-0.51767 -0.78511,-1.025961 -1.1875,-1.53125 -0.0327,-0.04058 -0.061,-0.0845 -0.0937,-0.125 -0.47041,-0.581559 -0.94689,-1.153765 -1.4375,-1.71875 -0.52478,-0.604335 -1.04668,-1.196641 -1.59375,-1.78125 -0.54707,-0.584609 -1.11899,-1.185906 -1.6875,-1.75 -9.09623,-9.025501 -20.88313,-15.348575 -33.625,-17.40625 z m -24.375,1.09375 c -1.62589,-0.046 -3.16234,1.33804 -4.625,1.0625 -1.95442,-0.95192 -10.289234,3.51811 -13.906254,5.4375 -9.22682,5.33145 -17.10163,13.125412 -22.53125,22.25 3.72327,-5.308161 8.7447,-10.172745 15.09375,-14.25 -0.19511,0.01365 -0.40221,-0.01206 -0.625,-0.0625 -0.92688,0.26868 -1.76557,1.4377 -2.53125,1.5 0.98703,-1.51124 2.75057,-1.97722 3.6875,-3.59375 1.10348,-1.05442 2.48864,-1.90636 3.6875,-2.9375 1.52383,-0.88537 2.97692,-2.45695 4.875,-2.3125 0.30516,0.91 -1.5269,0.76046 -1.15625,1.65625 0.97972,0.29502 1.99289,-0.54936 2.75,-1.25 0.94465,0.69451 2.535634,-1.30296 2.968754,-0.625 -0.38247,0.78467 -2.035764,0.6988 -2.031254,1.3125 0.955304,-0.444786 1.083754,-0.229057 0.843754,0.0625 1.30971,-0.507179 2.64735,-1.015707 4.03125,-1.46875 0.0685,-0.05611 0.1513,-0.09879 0.21875,-0.15625 1.19507,-0.21302 1.80318,-1.00792 2.40625,-1.78125 0.55328,-0.74574 -1.9227,-0.5238 -2.34375,0.125 -0.82018,0.36573 -1.97742,0.84053 -2.84375,0.90625 1.21189,-1.23925 3.22328,-1.89223 4.9375,-1.84375 0.51842,0.58972 1.67764,-0.17525 1.78125,-0.75 -0.93337,0.33556 -2.55337,-0.14649 -0.78125,0 1.84606,0.0607 0.79276,-0.91978 -0.28125,-0.3125 -0.89984,-0.0814 -2.55186,1.31156 -2.9375,0.5625 1.54257,-0.68061 3.6221,-1.0592 5.03125,-1.25 0.64124,-0.35063 1.71918,-0.80352 2.4375,-1.34375 0.52686,-0.0463 0.0699,1.05887 -0.34375,1 -0.90923,0.47558 -0.50494,0.98338 -1.28125,1.28125 -0.89591,-0.51147 -2.87475,0.90678 -2.1875,1.6875 0.7536,0.51021 1.67507,-1.96692 1.78125,-0.8125 -0.96243,0.99592 1.47914,0.18661 1.96875,0.5625 0.45496,-0.405446 1.03476,-0.368721 1.59375,-0.34375 0.0101,4.52e-4 0.0212,-4.44e-4 0.0312,0 0.42211,-0.0905 0.85351,-0.164156 1.28125,-0.25 0.0808,-0.05765 0.14713,-0.100951 0.21875,-0.1875 1.5806,0.18345 0.93585,-0.74227 -0.0937,-0.875 -1.14477,-0.0919 -1.19034,-0.70193 -0.28125,-1.125 0.49284,-0.24311 0.87634,-1.30628 0.84375,-1.5625 -0.63426,0.0627 -1.95655,0.852 -1.09375,-0.125 -0.15392,-0.0676 -0.39224,-0.13757 -0.59375,-0.1875 z m 23.53125,4 c -0.21107,1.76092 2.98462,1.89004 3.125,0.375 -1.15685,0.19473 -2.13747,0.47885 -3.125,-0.375 z m 1.5625,4.96875 c -0.72689,0.0596 -0.0266,0.90378 -0.21875,1.15625 -0.53127,0.18551 -0.31679,0.7577 -0.53125,1.15625 -0.0664,0.5933 0.6199,0.82638 0.40625,1.34375 0.44644,0.19021 0.2673,0.82375 0.4375,1.25 0.53734,0.58632 1.60523,0.59673 2.40625,0.75 0.50278,0.0645 1.07861,-0.29862 0.625,-0.6875 -1.04951,-0.0577 -1.99795,-0.54054 -2.28125,-1.375 -0.35184,-0.54398 -0.16517,-1.34342 -0.40625,-1.9375 -0.19957,-0.67053 0.69276,-1.16937 -0.0625,-1.53125 -0.0734,-0.1099 -0.25532,-0.06194 -0.375,-0.125 z m -12.1875,0.3125 c -1.01589,0.18158 -2.505,0.35328 -1.4375,1.6875 -0.22969,1.62274 1.07577,1.57282 1.3125,0.25 0.44962,-2.00732 0.89731,1.10489 1.53125,-0.1875 0.10224,-0.55594 -1.28607,-1.07965 -0.8125,-1.25 1.6748,-0.0677 0.9004,-0.6269 -0.34375,-0.40625 l -0.25,-0.09375 z m -29.093754,0.03125 c -0.65595,0.07687 -1.26644,0.195086 -1.65625,0.75 0.54882,-0.253324 1.09263,-0.506712 1.65625,-0.75 z m -4,1.34375 c -0.80338,0.0047 -1.73666,1.311426 -2.6875,1.40625 -0.45529,0.373058 -0.84984,0.883184 -1.28125,1.34375 1.33549,-0.795782 2.71113,-1.585355 4.15625,-2.3125 0.0524,-0.115281 0.11431,-0.221442 0.15625,-0.34375 -0.10964,-0.05991 -0.22898,-0.09443 -0.34375,-0.09375 z m 19.875004,19.71875 c -0.0544,0.166089 -0.10225,0.333363 -0.15625,0.5 0.13324,-0.149618 0.25602,-0.288387 0.28125,-0.4375 -0.0318,-0.02137 -0.0813,-0.04753 -0.125,-0.0625 z m -0.71875,2.25 c -0.63726,2.03921 -1.23296,4.11539 -1.8125,6.21875 0.0541,-0.005 0.14404,0.004 0.1875,0 1.24945,-0.34578 2.81087,0.36592 3.34375,-1.03125 0.79386,-0.91355 0.0885,-1.49546 -0.59375,-1.96875 -0.10181,-1.2272 -1.05056,-1.87419 -1.0625,-3.1875 -0.0276,-0.0129 -0.0375,-0.0182 -0.0625,-0.0312 z m 44.1875,7.1875 c 0.13435,-0.0188 0.28372,-0.005 0.40625,0 0.17049,0.007 0.31106,0.0502 0.4375,0.15625 -0.0103,0.97899 -0.95411,1.69576 -0.40625,2.59375 0.58994,0.41039 1.42537,0.5394 2.03125,1.15625 0.13437,0.51593 0.65807,0.89591 0.8125,1.46875 0.61649,0.22066 0.13098,-1.14452 0.65625,-0.625 0.45502,0.24508 1.32357,0.4154 1.1875,1.09375 -0.45019,0.24501 -1.1177,0.65334 -0.5625,1.15625 0.59734,0.21392 0.85334,0.83562 1.28125,1.28125 0.23948,0.86316 0.66736,1.72094 0.65625,2.625 -0.55638,0.48097 -1.06466,1.16741 -1.90625,0.875 -0.19122,-0.0681 -0.43061,-0.10558 -0.65625,-0.125 -0.0433,-0.13337 -0.0731,-0.25614 -0.125,-0.40625 -1.1607,0.27284 -1.93104,-0.19734 -1.75,-1.4375 -0.19609,-1.02499 0.56062,-2.72088 -1.03125,-2.78125 -1.57874,-1.20389 -3.66516,-2.98843 -2.9375,-5.25 0.28632,-0.52623 0.62262,-1.14882 0.75,-1.75 0.34187,0.1351 0.75321,0.0251 1.15625,-0.0312 z m -37.375,10.34375 c -0.0976,0.007 -0.10397,0.11555 -0.0625,0.15625 -0.66891,0.9864 1.03296,1.81347 0.625,0.28125 0.0976,-0.37361 -0.27861,-0.391 -0.5,-0.4375 -0.0367,-0.0177 -0.0381,-0.002 -0.0625,0 z m 0,2.25 c -0.78051,0.21232 -0.87125,2.69008 -0.0937,2.6875 0.9954,-0.28916 0.99081,-2.33127 0.0937,-2.6875 z m 26.8125,5.625 c -0.61718,0.13156 -2.68532,1.27255 -1.0625,1.28125 0.90764,0.0408 0.77858,-0.8233 1.0625,-1.28125 z m -10.6875,1.34375 c -1.35706,0.56524 2.13993,1.68833 2.28125,0.28125 -0.72457,-0.21116 -1.59831,0.0916 -2.28125,-0.28125 z m 29.71875,46.875 c -2.43816,0.90863 -4.01784,3.09151 -6.125,4.5625 0.0587,1.36794 -0.29339,2.3547 -1.46875,3.0625 -1.19328,1.26994 0.68275,1.29923 1.40625,0.46875 1.72388,-1.19344 2.3957,-3.50302 4.5625,-4.15625 0.63465,-1.27625 1.16475,-2.59062 1.625,-3.9375 z"
       id="path5779"
       inkscape:connector-curvature="0" />
    <path
       style="fill:url(#linearGradient5407);fill-opacity:1;stroke:url(#linearGradient5409);stroke-width:1.49999988;stroke-linecap:butt;stroke-linejoin:miter;stroke-miterlimit:4;stroke-opacity:1;stroke-dasharray:none;display:inline;enable-background:new"
       d="m 127.57333,64.7634 c -3.69625,0.0103 -7.45161,0.32517 -11.21875,1 C 97.547016,69.132474 82.174166,80.486069 73.104576,95.7009 82.521046,82.155218 100.33091,71.530531 127.13583,69.1384 l 0,0.375 c -7.8123,10.565416 -13.92346,27.463077 -18,45.25 -0.003,0.0181 0.006,0.0126 0,0.0312 -0.20662,0.90258 -0.39753,1.81221 -0.59375,2.71875 -0.0273,0.13229 -0.0653,0.27394 -0.0937,0.40625 -0.11256,0.52406 -0.20373,1.03754 -0.3125,1.5625 -0.21694,1.04634 -0.45329,2.07679 -0.65625,3.125 -0.0351,0.18204 -0.0589,0.38045 -0.0937,0.5625 -0.19357,1.01223 -0.38224,2.0196 -0.5625,3.03125 -0.0242,0.13228 -0.0392,0.27393 -0.0625,0.40625 -0.12501,0.70708 -0.25676,1.41916 -0.375,2.125 -0.0765,0.45703 -0.14471,0.91869 -0.21875,1.375 -0.10954,0.67659 -0.20922,1.3255 -0.3125,2 -0.0798,0.52108 -0.17384,1.04298 -0.25,1.5625 -0.0846,0.57739 -0.13864,1.14364 -0.21875,1.71875 -0.0604,0.43277 -0.16111,0.8812 -0.21875,1.3125 -0.009,0.0771 0.009,0.17264 0,0.25 -0.0986,0.74341 -0.19135,1.48065 -0.28125,2.21875 30.26385,-2.39923 45.35213,-26.92125 82.90625,-30.75 -0.2614,-0.81959 -0.51998,-1.63518 -0.8125,-2.4375 -0.33158,-0.90946 -0.69204,-1.80097 -1.0625,-2.6875 -0.28487,-0.67356 -0.56779,-1.33856 -0.875,-2 -0.12461,-0.27097 -0.24677,-0.54387 -0.375,-0.8125 -0.0746,-0.15487 -0.14291,-0.31458 -0.21875,-0.46875 -0.37729,-0.76699 -0.78055,-1.532087 -1.1875,-2.28125 -0.48875,-0.899751 -1.00094,-1.783437 -1.53125,-2.65625 -0.51544,-0.848333 -1.04029,-1.709604 -1.59375,-2.53125 -0.0162,-0.02406 -0.0463,-0.03846 -0.0625,-0.0625 -0.57054,-0.844545 -1.1718,-1.653802 -1.78125,-2.46875 -0.60945,-0.814948 -1.22798,-1.622229 -1.875,-2.40625 -0.50642,-0.613653 -1.03378,-1.218519 -1.5625,-1.8125 -0.14665,-0.163985 -0.28921,-0.33765 -0.4375,-0.5 -0.14467,-0.159177 -0.29124,-0.311056 -0.4375,-0.46875 -0.54895,-0.588859 -1.08589,-1.152292 -1.65625,-1.71875 -0.0103,-0.01033 -0.0209,-0.02093 -0.0312,-0.03125 -0.71205,-0.706176 -1.4435,-1.423354 -2.1875,-2.09375 -0.47525,-0.431946 -0.94926,-0.832442 -1.4375,-1.25 -0.051,-0.04324 -0.10511,-0.08192 -0.15625,-0.125 -11.19743,-9.431894 -25.61916,-14.886507 -40.9375,-14.84375 z"
       id="path5958"
       inkscape:connector-curvature="0" />
  </g>
</svg>
