<?xml version="1.0" encoding="UTF-8" standalone="no"?>
<!-- Created with Inkscape (http://www.inkscape.org/) -->

<svg
   xmlns:dc="http://purl.org/dc/elements/1.1/"
   xmlns:cc="http://creativecommons.org/ns#"
   xmlns:rdf="http://www.w3.org/1999/02/22-rdf-syntax-ns#"
   xmlns:svg="http://www.w3.org/2000/svg"
   xmlns="http://www.w3.org/2000/svg"
   xmlns:xlink="http://www.w3.org/1999/xlink"
   xmlns:sodipodi="http://sodipodi.sourceforge.net/DTD/sodipodi-0.dtd"
   xmlns:inkscape="http://www.inkscape.org/namespaces/inkscape"
   width="64"
   height="64"
   id="svg2"
   inkscape:label="Pozadí"
   version="1.1"
   inkscape:version="0.48.0 r9654"
   sodipodi:docname="open-64.svg"
   inkscape:export-filename="/home/mosra/C++/map2x/artwork/icons/export/open-session-64.png"
   inkscape:export-xdpi="90"
   inkscape:export-ydpi="90"
   style="display:inline">
  <defs
     id="defs4470">
    <linearGradient
       id="linearGradient5151">
      <stop
         style="stop-color:#ffffff;stop-opacity:1;"
         offset="0"
         id="stop5153" />
      <stop
         style="stop-color:#ffffff;stop-opacity:0;"
         offset="1"
         id="stop5155" />
    </linearGradient>
    <linearGradient
       id="linearGradient5141">
      <stop
         style="stop-color:#ffffff;stop-opacity:0;"
         offset="0"
         id="stop5143" />
      <stop
         id="stop5149"
         offset="0.5"
         style="stop-color:#ffffff;stop-opacity:1;" />
      <stop
         style="stop-color:#ffffff;stop-opacity:0;"
         offset="1"
         id="stop5145" />
    </linearGradient>
    <linearGradient
       id="linearGradient5073">
      <stop
         id="stop5087"
         offset="0"
         style="stop-color:#834600;stop-opacity:0.973822;" />
      <stop
         style="stop-color:#b8a200;stop-opacity:0.79057592;"
         offset="1"
         id="stop5077" />
    </linearGradient>
    <linearGradient
       id="linearGradient5055">
      <stop
         id="stop5057"
         offset="0"
         style="stop-color:#feff04;stop-opacity:0.42931938;" />
      <stop
         style="stop-color:#f8d302;stop-opacity:0.37696335;"
         offset="0.5"
         id="stop5059" />
      <stop
         id="stop5061"
         offset="1"
         style="stop-color:#c38d00;stop-opacity:0.46596858;" />
    </linearGradient>
    <linearGradient
       id="linearGradient5047">
      <stop
         style="stop-color:#2c3f5c;stop-opacity:1;"
         offset="0"
         id="stop5049" />
      <stop
         style="stop-color:#dce1fd;stop-opacity:1;"
         offset="1"
         id="stop5051" />
    </linearGradient>
    <linearGradient
       id="linearGradient5039">
      <stop
         style="stop-color:#000000;stop-opacity:1;"
         offset="0"
         id="stop5041" />
      <stop
         style="stop-color:#7b4610;stop-opacity:1;"
         offset="1"
         id="stop5043" />
    </linearGradient>
    <linearGradient
       id="linearGradient5029">
      <stop
         style="stop-color:#ffffff;stop-opacity:1;"
         offset="0"
         id="stop5031" />
      <stop
         id="stop5037"
         offset="0.5"
         style="stop-color:#ffffff;stop-opacity:1;" />
      <stop
         style="stop-color:#bfc6f4;stop-opacity:1;"
         offset="1"
         id="stop5033" />
    </linearGradient>
    <linearGradient
       id="linearGradient4992">
      <stop
         style="stop-color:#feff04;stop-opacity:1;"
         offset="0"
         id="stop4994" />
      <stop
         id="stop5000"
         offset="0.5"
         style="stop-color:#f8d302;stop-opacity:1;" />
      <stop
         style="stop-color:#c38d00;stop-opacity:1;"
         offset="1"
         id="stop4996" />
    </linearGradient>
    <radialGradient
       inkscape:collect="always"
       xlink:href="#linearGradient4992"
       id="radialGradient5008"
       cx="26.231796"
       cy="1014.7673"
       fx="26.231796"
       fy="1014.7673"
       r="26.451872"
       gradientTransform="matrix(1.0471737,0,0,0.79228374,-2.9179657,211.72559)"
       gradientUnits="userSpaceOnUse" />
    <radialGradient
       inkscape:collect="always"
       xlink:href="#linearGradient5029"
       id="radialGradient5035"
       cx="29.321178"
       cy="1018.1996"
       fx="29.321178"
       fy="1018.1996"
       r="21.801592"
       gradientTransform="matrix(1.0896283,2.054159e-7,-1.0388789e-7,0.55138431,-5.9308934,-542.84401)"
       gradientUnits="userSpaceOnUse" />
    <linearGradient
       inkscape:collect="always"
       xlink:href="#linearGradient5039"
       id="linearGradient5045"
       x1="14.538177"
       y1="1045.7303"
       x2="18.736969"
       y2="1002.0306"
       gradientUnits="userSpaceOnUse"
       gradientTransform="matrix(1.0471737,0,0,1.0474693,-2.9179657,-48.421377)" />
    <linearGradient
       inkscape:collect="always"
       xlink:href="#linearGradient5047"
       id="linearGradient5053"
       x1="51.438972"
       y1="1027.9718"
       x2="17.128754"
       y2="1004.6129"
       gradientUnits="userSpaceOnUse"
       gradientTransform="matrix(1.0471737,0,0,1.0474693,-4.7691248,-1038.0797)" />
    <radialGradient
       inkscape:collect="always"
       xlink:href="#linearGradient5029"
       id="radialGradient5104"
       cx="34.869743"
       cy="1002.6902"
       fx="34.869743"
       fy="1002.6902"
       r="7.0300145"
       gradientTransform="matrix(1.0471736,0,0,0.60873465,-2.9179632,-596.8686)"
       gradientUnits="userSpaceOnUse" />
    <filter
       inkscape:collect="always"
       id="filter5122"
       x="-0.14864396"
       width="1.2972879"
       y="-0.22812165"
       height="1.4562433"
       color-interpolation-filters="sRGB">
      <feGaussianBlur
         inkscape:collect="always"
         stdDeviation="0.98405122"
         id="feGaussianBlur5124" />
    </filter>
    <linearGradient
       inkscape:collect="always"
       xlink:href="#linearGradient5047"
       id="linearGradient5126"
       gradientUnits="userSpaceOnUse"
       gradientTransform="matrix(1.0471737,0,0,1.0474693,-4.7691248,-1038.0797)"
       x1="56.902489"
       y1="1028.069"
       x2="25.182556"
       y2="1002.2849" />
    <radialGradient
       inkscape:collect="always"
       xlink:href="#linearGradient5055"
       id="radialGradient5133"
       gradientUnits="userSpaceOnUse"
       gradientTransform="matrix(0.99189277,0,0,1.0541705,-1.1545214,-1046.3723)"
       cx="25.768568"
       cy="1023.4352"
       fx="25.768568"
       fy="1023.4352"
       r="28.46069" />
    <radialGradient
       inkscape:collect="always"
       xlink:href="#linearGradient5073"
       id="radialGradient5135"
       gradientUnits="userSpaceOnUse"
       gradientTransform="matrix(1.2114328,-2.2898318e-8,2.1316468e-8,1.128382,-8.4815025,-1119.8344)"
       cx="34.634445"
       cy="1030.6902"
       fx="34.634445"
       fy="1030.6902"
       r="28.46069" />
    <linearGradient
       inkscape:collect="always"
       xlink:href="#linearGradient5141"
       id="linearGradient5162"
       gradientUnits="userSpaceOnUse"
       x1="7.3184128"
       y1="43.478996"
       x2="59.831097"
       y2="37.645367"
       gradientTransform="matrix(1.0471737,0,0,1.0474693,-1.564082,-1.5045056)" />
    <linearGradient
       inkscape:collect="always"
       xlink:href="#linearGradient5151"
       id="linearGradient5164"
       gradientUnits="userSpaceOnUse"
       x1="26.233519"
       y1="5.4720082"
       x2="25.182863"
       y2="54.085598"
       gradientTransform="matrix(1.0471737,0,0,1.0474693,-1.564082,-1.5045056)" />
    <linearGradient
       id="linearGradient3895">
      <stop
         style="stop-color:#ffffff;stop-opacity:1;"
         offset="0"
         id="stop3897" />
      <stop
         style="stop-color:#ffffff;stop-opacity:0;"
         offset="1"
         id="stop3899" />
    </linearGradient>
    <linearGradient
       id="linearGradient3903">
      <stop
         style="stop-color:#ffffff;stop-opacity:0;"
         offset="0"
         id="stop3905" />
      <stop
         id="stop3912"
         offset="0.5"
         style="stop-color:#ffffff;stop-opacity:1;" />
      <stop
         style="stop-color:#ffffff;stop-opacity:0;"
         offset="1"
         id="stop3907" />
    </linearGradient>
    <radialGradient
       inkscape:collect="always"
       xlink:href="#linearGradient3877"
       id="radialGradient5836"
       gradientUnits="userSpaceOnUse"
       gradientTransform="matrix(0.19919926,0,0,0.163472,12.368687,12.261963)"
       cx="92.093979"
       cy="99.315521"
       fx="92.093979"
       fy="99.315521"
       r="121.44665" />
    <linearGradient
       id="linearGradient3877">
      <stop
         id="stop3879"
         offset="0"
         style="stop-color:#fff2da;stop-opacity:1;" />
      <stop
         style="stop-color:#f4db9a;stop-opacity:1;"
         offset="0.51111114"
         id="stop3881" />
      <stop
         id="stop3883"
         offset="1"
         style="stop-color:#d39833;stop-opacity:1;" />
    </linearGradient>
    <filter
       color-interpolation-filters="sRGB"
       inkscape:collect="always"
       id="filter5851">
      <feGaussianBlur
         inkscape:collect="always"
         stdDeviation="0.96096094"
         id="feGaussianBlur5853" />
    </filter>
    <linearGradient
       id="linearGradient3847">
      <stop
         style="stop-color:#afceff;stop-opacity:1;"
         offset="0"
         id="stop3849" />
      <stop
         id="stop3855"
         offset="0.50683612"
         style="stop-color:#508eee;stop-opacity:1;" />
      <stop
         style="stop-color:#001b45;stop-opacity:1;"
         offset="1"
         id="stop3851" />
    </linearGradient>
    <radialGradient
       r="96.430199"
       fy="87.145508"
       fx="84.828728"
       cy="87.145508"
       cx="84.828728"
       gradientTransform="matrix(0.19919483,-0.00132639,0.00147553,0.22157254,12.234781,6.5016326)"
       gradientUnits="userSpaceOnUse"
       id="radialGradient5996"
       xlink:href="#linearGradient3847"
       inkscape:collect="always" />
    <linearGradient
       inkscape:collect="always"
       xlink:href="#linearGradient3895"
       id="linearGradient6070"
       gradientUnits="userSpaceOnUse"
       gradientTransform="matrix(0.19919928,0,0,0.19919081,12.368688,8.4440634)"
       x1="77.155663"
       y1="-29.950439"
       x2="77.016068"
       y2="164.04956" />
    <linearGradient
       inkscape:collect="always"
       xlink:href="#linearGradient3903"
       id="linearGradient6072"
       gradientUnits="userSpaceOnUse"
       gradientTransform="matrix(0.19919928,0,0,0.19919081,12.368688,8.4440634)"
       x1="7.1726875"
       y1="120.48396"
       x2="197.90625"
       y2="120.48396" />
    <linearGradient
       inkscape:collect="always"
       xlink:href="#linearGradient3895"
       id="linearGradient3867"
       gradientUnits="userSpaceOnUse"
       gradientTransform="matrix(0.19663206,0,0,0.19662056,11.837453,9.1526677)"
       x1="77.155663"
       y1="-29.950439"
       x2="77.016068"
       y2="164.04956" />
    <linearGradient
       inkscape:collect="always"
       xlink:href="#linearGradient3903"
       id="linearGradient3869"
       gradientUnits="userSpaceOnUse"
       gradientTransform="matrix(0.19663206,0,0,0.19662056,11.837453,9.1526677)"
       x1="7.1726875"
       y1="120.48396"
       x2="197.90625"
       y2="120.48396" />
    <radialGradient
       inkscape:collect="always"
       xlink:href="#linearGradient3877"
       id="radialGradient3871"
       gradientUnits="userSpaceOnUse"
       gradientTransform="matrix(0.19663206,0,0,0.16136265,11.453825,12.921301)"
       cx="92.093979"
       cy="99.315521"
       fx="92.093979"
       fy="99.315521"
       r="121.44665" />
    <radialGradient
       inkscape:collect="always"
       xlink:href="#linearGradient3847"
       id="radialGradient3873"
       gradientUnits="userSpaceOnUse"
       gradientTransform="matrix(0.19662768,-0.00130927,0.00145652,0.2187135,11.23638,7.2352997)"
       cx="84.828728"
       cy="87.145508"
       fx="84.828728"
       fy="87.145508"
       r="96.430199" />
    <radialGradient
       inkscape:collect="always"
       xlink:href="#linearGradient5029-5"
       id="radialGradient5035-3"
       cx="53.633747"
       cy="1085.0485"
       fx="53.633747"
       fy="1085.0485"
       r="21.801592"
       gradientTransform="matrix(0.78961654,0,0,0.37955366,7.0645387,-362.17305)"
       gradientUnits="userSpaceOnUse" />
    <linearGradient
       inkscape:collect="always"
       xlink:href="#linearGradient5047-9"
       id="linearGradient5053-7"
       x1="45.827179"
       y1="1058.4724"
       x2="38.418587"
       y2="1034.3531"
       gradientUnits="userSpaceOnUse"
       gradientTransform="matrix(1.0471737,0,0,1.0474693,-4.7691248,-1044.0797)" />
    <radialGradient
       inkscape:collect="always"
       xlink:href="#linearGradient5029-5"
       id="radialGradient5035-1"
       cx="9.3694954"
       cy="1090.8694"
       fx="9.3694897"
       fy="1090.8694"
       r="21.801592"
       gradientTransform="matrix(0.87763109,0,1.0918272e-8,0.52452608,1.6057009,-521.10153)"
       gradientUnits="userSpaceOnUse" />
    <linearGradient
       id="linearGradient5029-5">
      <stop
         id="stop4011"
         offset="0"
         style="stop-color:#ffffff;stop-opacity:1;" />
      <stop
         style="stop-color:#cfd5ff;stop-opacity:1;"
         offset="1"
         id="stop5033-3" />
    </linearGradient>
    <linearGradient
       inkscape:collect="always"
       xlink:href="#linearGradient5047-9"
       id="linearGradient5053-3"
       x1="19.902626"
       y1="1057.8196"
       x2="28.906551"
       y2="1033.6752"
       gradientUnits="userSpaceOnUse"
       gradientTransform="matrix(1.0471737,0,0,1.0474693,-7.0191247,-1045.0797)" />
    <linearGradient
       id="linearGradient5047-9">
      <stop
         style="stop-color:#1f2d41;stop-opacity:1;"
         offset="0"
         id="stop5049-7" />
      <stop
         style="stop-color:#ebeefe;stop-opacity:1;"
         offset="1"
         id="stop5051-5" />
    </linearGradient>
    <radialGradient
       inkscape:collect="always"
       xlink:href="#linearGradient5029-5"
       id="radialGradient5035-6"
       cx="24.940817"
       cy="1070.1376"
       fx="24.940817"
       fy="1070.1376"
       r="21.801592"
       gradientTransform="matrix(0.74096579,0,0,0.55138431,4.7649232,-549.344)"
       gradientUnits="userSpaceOnUse" />
    <linearGradient
       inkscape:collect="always"
       xlink:href="#linearGradient5047-9"
       id="linearGradient5053-37"
       x1="-3.0168984"
       y1="1047.0133"
       x2="20.239372"
       y2="1028.8501"
       gradientUnits="userSpaceOnUse"
       gradientTransform="matrix(1.0471737,0,0,1.0474693,-2.7691248,-1044.5797)" />
    <radialGradient
       inkscape:collect="always"
       xlink:href="#linearGradient5029-5"
       id="radialGradient5035-0"
       cx="55.090885"
       cy="1076.4939"
       fx="55.090885"
       fy="1076.4939"
       r="21.801592"
       gradientTransform="matrix(0.44879359,-1.7518671e-7,1.1264481e-7,0.28855673,31.871856,-263.06535)"
       gradientUnits="userSpaceOnUse" />
    <linearGradient
       inkscape:collect="always"
       xlink:href="#linearGradient5047"
       id="linearGradient5053-72"
       x1="62.654076"
       y1="1049.3599"
       x2="54.691784"
       y2="1044.8688"
       gradientUnits="userSpaceOnUse"
       gradientTransform="matrix(1.0471737,0,0,1.0474693,-4.7691248,-1044.0797)" />
    <radialGradient
       inkscape:collect="always"
       xlink:href="#linearGradient3877"
       id="radialGradient4062"
       gradientUnits="userSpaceOnUse"
       gradientTransform="matrix(0.19663206,0,0,0.16136265,11.453825,12.921301)"
       cx="92.093979"
       cy="99.315521"
       fx="92.093979"
       fy="99.315521"
       r="121.44665" />
    <radialGradient
       inkscape:collect="always"
       xlink:href="#linearGradient3847"
       id="radialGradient4064"
       gradientUnits="userSpaceOnUse"
       gradientTransform="matrix(0.19662768,-0.00130927,0.00145652,0.2187135,11.23638,7.2352997)"
       cx="84.828728"
       cy="87.145508"
       fx="84.828728"
       fy="87.145508"
       r="96.430199" />
    <radialGradient
       inkscape:collect="always"
       xlink:href="#linearGradient5029-5"
       id="radialGradient4072"
       gradientUnits="userSpaceOnUse"
       gradientTransform="matrix(0.88351076,3.4302736e-7,-2.1763428e-7,0.59724891,17.234088,-601.62634)"
       cx="30.088982"
       cy="1078.7797"
       fx="30.088978"
       fy="1078.7797"
       r="21.801592" />
    <linearGradient
       inkscape:collect="always"
       xlink:href="#linearGradient5047-9"
       id="linearGradient4074"
       gradientUnits="userSpaceOnUse"
       gradientTransform="matrix(1.0471737,0,0,1.0474693,10.855875,-1046.8297)"
       x1="53.944099"
       y1="1048.4365"
       x2="35.590004"
       y2="1032.2432" />
    <filter
       inkscape:collect="always"
       id="filter4100"
       x="-0.14374839"
       width="1.2874968"
       y="-0.57499349"
       height="2.149987"
       color-interpolation-filters="sRGB">
      <feGaussianBlur
         inkscape:collect="always"
         stdDeviation="1.5246817"
         id="feGaussianBlur4102" />
    </filter>
    <filter
       inkscape:collect="always"
       id="filter4115"
       x="-0.14857531"
       width="1.2971506"
       y="-0.22828351"
       height="1.456567"
       color-interpolation-filters="sRGB">
      <feGaussianBlur
         inkscape:collect="always"
         stdDeviation="0.50340585"
         id="feGaussianBlur4117" />
    </filter>
    <linearGradient
       inkscape:collect="always"
       xlink:href="#linearGradient3895-5"
       id="linearGradient5251"
       gradientUnits="userSpaceOnUse"
       gradientTransform="matrix(1.0463028,0,0,1.0463028,-5.9246311,-5.1399038)"
       x1="77.155663"
       y1="-29.950439"
       x2="77.016068"
       y2="164.04956" />
    <linearGradient
       id="linearGradient3895-5">
      <stop
         style="stop-color:#ffffff;stop-opacity:1;"
         offset="0"
         id="stop3897-4" />
      <stop
         style="stop-color:#ffffff;stop-opacity:0;"
         offset="1"
         id="stop3899-2" />
    </linearGradient>
    <linearGradient
       inkscape:collect="always"
       xlink:href="#linearGradient3903-9"
       id="linearGradient5253"
       gradientUnits="userSpaceOnUse"
       gradientTransform="matrix(1.0463028,0,0,1.0463028,-5.9246311,-5.1399038)"
       x1="7.1726875"
       y1="120.48396"
       x2="197.90625"
       y2="120.48396" />
    <linearGradient
       id="linearGradient3903-9">
      <stop
         style="stop-color:#ffffff;stop-opacity:0;"
         offset="0"
         id="stop3905-8" />
      <stop
         id="stop3912-3"
         offset="0.5"
         style="stop-color:#ffffff;stop-opacity:1;" />
      <stop
         style="stop-color:#ffffff;stop-opacity:0;"
         offset="1"
         id="stop3907-1" />
    </linearGradient>
    <linearGradient
       inkscape:collect="always"
       xlink:href="#linearGradient5194"
       id="linearGradient5216-8"
       x1="100.31952"
       y1="16.614422"
       x2="296.82278"
       y2="210.21353"
       gradientUnits="userSpaceOnUse" />
    <linearGradient
       id="linearGradient5194">
      <stop
         style="stop-color:#1f388c;stop-opacity:1;"
         offset="0"
         id="stop5196" />
      <stop
         style="stop-color:#050620;stop-opacity:1;"
         offset="1"
         id="stop5198" />
    </linearGradient>
    <radialGradient
       inkscape:collect="always"
       xlink:href="#linearGradient3877-6"
       id="radialGradient5836-0"
       gradientUnits="userSpaceOnUse"
       gradientTransform="matrix(0.19912339,0,0,0.16338261,11.231049,12.327009)"
       cx="92.093979"
       cy="99.315521"
       fx="92.093979"
       fy="99.315521"
       r="121.44665" />
    <linearGradient
       id="linearGradient3877-6">
      <stop
         id="stop3879-4"
         offset="0"
         style="stop-color:#fff2da;stop-opacity:1;" />
      <stop
         style="stop-color:#f4db9a;stop-opacity:1;"
         offset="0.51111114"
         id="stop3881-3" />
      <stop
         id="stop3883-1"
         offset="1"
         style="stop-color:#d39833;stop-opacity:1;" />
    </linearGradient>
    <filter
       color-interpolation-filters="sRGB"
       inkscape:collect="always"
       id="filter5851-4">
      <feGaussianBlur
         inkscape:collect="always"
         stdDeviation="0.96096094"
         id="feGaussianBlur5853-1" />
    </filter>
    <radialGradient
       inkscape:collect="always"
       xlink:href="#linearGradient3847-9"
       id="radialGradient5953"
       gradientUnits="userSpaceOnUse"
       gradientTransform="matrix(1.0462796,-0.00696722,0.00775026,1.1638688,-7.8936829,-5.2079796)"
       cx="84.828728"
       cy="87.145508"
       fx="84.828728"
       fy="87.145508"
       r="96.430199" />
    <linearGradient
       id="linearGradient3847-9">
      <stop
         style="stop-color:#afceff;stop-opacity:1;"
         offset="0"
         id="stop3849-5" />
      <stop
         id="stop3855-0"
         offset="0.50683612"
         style="stop-color:#508eee;stop-opacity:1;" />
      <stop
         style="stop-color:#001b45;stop-opacity:1;"
         offset="1"
         id="stop3851-4" />
    </linearGradient>
    <radialGradient
       r="96.430199"
       fy="87.145508"
       fx="84.828728"
       cy="87.145508"
       cx="84.828728"
       gradientTransform="matrix(0.19911897,-0.00132567,0.00147497,0.22145137,11.097195,6.5698259)"
       gradientUnits="userSpaceOnUse"
       id="radialGradient5479"
       xlink:href="#linearGradient3847-9"
       inkscape:collect="always" />
    <linearGradient
       inkscape:collect="always"
       xlink:href="#linearGradient3895-5"
       id="linearGradient5548"
       gradientUnits="userSpaceOnUse"
       gradientTransform="matrix(0.19912338,0,0,0.19908188,11.23105,8.511197)"
       x1="77.155663"
       y1="-29.950439"
       x2="77.016068"
       y2="164.04956" />
    <linearGradient
       inkscape:collect="always"
       xlink:href="#linearGradient3903-9"
       id="linearGradient5550"
       gradientUnits="userSpaceOnUse"
       gradientTransform="matrix(0.19912338,0,0,0.19908188,11.23105,8.511197)"
       x1="7.1726875"
       y1="120.48396"
       x2="197.90625"
       y2="120.48396" />
    <linearGradient
       inkscape:collect="always"
       xlink:href="#linearGradient5194"
       id="linearGradient5552"
       gradientUnits="userSpaceOnUse"
       x1="100.31952"
       y1="16.614422"
       x2="296.82278"
       y2="210.21353" />
  </defs>
  <sodipodi:namedview
     id="base"
     pagecolor="#ffffff"
     bordercolor="#666666"
     borderopacity="1.0"
     inkscape:pageopacity="0.0"
     inkscape:pageshadow="2"
     inkscape:zoom="2.0000001"
     inkscape:cx="-129.90656"
     inkscape:cy="110.46656"
     inkscape:document-units="px"
     inkscape:current-layer="layer3"
     showgrid="false"
     inkscape:window-width="1920"
     inkscape:window-height="1033"
     inkscape:window-x="-2"
     inkscape:window-y="-3"
     inkscape:window-maximized="1"
     inkscape:snap-global="false" />
  <metadata
     id="metadata4473">
    <rdf:RDF>
      <cc:Work
         rdf:about="">
        <dc:format>image/svg+xml</dc:format>
        <dc:type
           rdf:resource="http://purl.org/dc/dcmitype/StillImage" />
        <dc:title></dc:title>
      </cc:Work>
    </rdf:RDF>
  </metadata>
  <g
     inkscape:groupmode="layer"
     id="layer2"
     inkscape:label="paper under"
     style="display:inline"
     sodipodi:insensitive="true">
    <path
       sodipodi:nodetypes="ccccc"
       inkscape:connector-curvature="0"
       id="path4070"
       d="M 15.801688,46.054678 38.824301,53.307615 61.93897,38.461308 37.551153,31.915478 z"
       style="color:#000000;fill:url(#radialGradient4072);fill-opacity:1;fill-rule:nonzero;stroke:url(#linearGradient4074);stroke-width:1px;stroke-linecap:round;stroke-linejoin:round;stroke-miterlimit:4;stroke-opacity:1;stroke-dasharray:none;stroke-dashoffset:0;marker:none;visibility:visible;display:inline;overflow:visible;enable-background:accumulate" />
    <path
       style="color:#000000;fill:url(#radialGradient5035-6);fill-opacity:1;fill-rule:nonzero;stroke:url(#linearGradient5053-37);stroke-width:1px;stroke-linecap:round;stroke-linejoin:round;stroke-miterlimit:4;stroke-opacity:1;stroke-dasharray:none;stroke-dashoffset:0;marker:none;visibility:visible;display:inline;overflow:visible;enable-background:accumulate"
       d="M 18.604392,50.143399 48.36359,42.625529 31.988956,33.285104 2.4053298,40.721226 z"
       id="path3075"
       inkscape:connector-curvature="0"
       sodipodi:nodetypes="ccccc" />
    <path
       style="color:#000000;fill:url(#radialGradient5035-3);fill-opacity:1;fill-rule:nonzero;stroke:url(#linearGradient5053-7);stroke-width:1px;stroke-linecap:round;stroke-linejoin:round;stroke-miterlimit:4;stroke-opacity:1;stroke-dasharray:none;stroke-dashoffset:0;marker:none;visibility:visible;display:inline;overflow:visible;enable-background:accumulate"
       d="M 19.75825,44.072332 38.143026,58.03769 60.850603,52.848379 63.489958,48.601766 46.981861,37.531593 z"
       id="path3073"
       inkscape:connector-curvature="0"
       sodipodi:nodetypes="cccccc" />
    <path
       style="color:#000000;fill:url(#radialGradient5035-1);fill-opacity:1;fill-rule:nonzero;stroke:url(#linearGradient5053-3);stroke-width:1px;stroke-linecap:round;stroke-linejoin:round;stroke-miterlimit:4;stroke-opacity:1;stroke-dasharray:none;stroke-dashoffset:0;marker:none;visibility:visible;display:inline;overflow:visible;enable-background:accumulate"
       d="M 0.93189286,53.284755 26.252602,56.648605 44.240747,37.029328 19.676153,33.665478 z"
       id="path3077"
       inkscape:connector-curvature="0"
       sodipodi:nodetypes="ccccc" />
  </g>
  <g
     inkscape:groupmode="layer"
     id="layer13"
     inkscape:label="shadow"
     sodipodi:insensitive="true"
     style="display:inline">
    <path
       sodipodi:type="arc"
       style="opacity:0.78661092;color:#000000;fill:#000000;fill-opacity:1;fill-rule:nonzero;stroke:none;stroke-width:1px;marker:none;visibility:visible;display:inline;overflow:visible;filter:url(#filter4100);enable-background:accumulate"
       id="path4014"
       sodipodi:cx="34.648232"
       sodipodi:cy="53.393398"
       sodipodi:rx="12.727921"
       sodipodi:ry="3.1819804"
       d="m 47.376152,53.393398 a 12.727921,3.1819804 0 1 1 -25.455841,0 12.727921,3.1819804 0 1 1 25.455841,0 z"
       transform="matrix(1.0895678,0,0,1.0687135,-5.7515974,-9.9491823)" />
    <path
       sodipodi:nodetypes="cccc"
       inkscape:connector-curvature="0"
       id="path4104"
       d="m 62.025648,48.668525 -1.584709,4.440863 c -2.356891,-1.741643 -2.471236,-2.132404 -5.160534,-2.544417 3.661345,-1.364474 4.398353,-1.846427 6.745243,-1.896446 z"
       style="opacity:0.69874477;color:#000000;fill:#000000;fill-opacity:1;fill-rule:nonzero;stroke:none;stroke-width:1px;marker:none;visibility:visible;display:inline;overflow:visible;filter:url(#filter4115);enable-background:accumulate" />
  </g>
  <g
     inkscape:groupmode="layer"
     id="layer8"
     inkscape:label="paper under corner"
     style="display:inline"
     sodipodi:insensitive="true">
    <path
       style="color:#000000;fill:url(#radialGradient5035-0);fill-opacity:1;fill-rule:nonzero;stroke:url(#linearGradient5053-72);stroke-width:1px;stroke-linecap:round;stroke-linejoin:round;stroke-miterlimit:4;stroke-opacity:1;stroke-dasharray:none;stroke-dashoffset:0;marker:none;visibility:visible;display:inline;overflow:visible;enable-background:accumulate"
       d="m 63.775648,48.668525 -3.005204,4.24264 c -0.714701,-2.341476 -2.581341,-3.9499 -5.126524,-5.126524 3.688062,-0.291864 6.919917,-0.310003 8.131728,0.883884 z"
       id="path3079"
       inkscape:connector-curvature="0"
       sodipodi:nodetypes="cccc" />
  </g>
  <g
     inkscape:label="back"
     inkscape:groupmode="layer"
     id="layer1"
     transform="translate(0,-988.36218)"
     style="display:none"
     sodipodi:insensitive="true">
    <path
       style="fill:url(#radialGradient5008);fill-opacity:1;stroke:url(#linearGradient5045);stroke-width:1px;stroke-linecap:butt;stroke-linejoin:miter;stroke-opacity:1"
       d="m 57.280875,1038.3553 -0.301969,-33.3987 c 0.02328,-2.0805 -1.40105,-3.9227 -2.956468,-3.7855 l -47.0667301,3.0214 c -1.5279163,0.1127 -4.4975402,1.4626 -4.3946945,4.1813 l 0.084075,34.7745"
       id="path4476"
       inkscape:connector-curvature="0"
       sodipodi:nodetypes="cccccc" />
  </g>
  <g
     inkscape:groupmode="layer"
     id="layer3"
     inkscape:label="paper"
     style="display:none">
    <path
       style="fill:url(#radialGradient5035);fill-opacity:1;stroke:url(#linearGradient5053);stroke-width:1px;stroke-linecap:round;stroke-linejoin:round;stroke-opacity:1"
       d="m 11.420343,19.24473 c 5.872704,-3.895748 11.956613,-7.871522 15.153192,-8.261286 L 40.683408,9.6872639 C 43.009477,8.9631065 47.574584,19.944858 56.818656,33.819532 l -25.067598,17.19358 z"
       id="path4480"
       inkscape:connector-curvature="0"
       sodipodi:nodetypes="cccccc" />
  </g>
  <g
     inkscape:groupmode="layer"
     id="layer4"
     inkscape:label="paper blur"
     style="opacity:0.4969261;display:none">
    <path
       sodipodi:nodetypes="cccc"
       inkscape:connector-curvature="0"
       id="path5095"
       d="m 28.239856,12.653973 14.138456,-1.15251 c -1.260171,1.56401 -2.365703,4.29181 -5.86628,8.47791 -2.282374,-2.2194 -3.790008,-5.2773 -8.272176,-7.3254 z"
       style="fill:#000000;fill-opacity:1;stroke:none;filter:url(#filter5122)"
       transform="matrix(1.0471737,0,0,1.0474693,-3.0039458,-1.5045056)" />
  </g>
  <g
     inkscape:groupmode="layer"
     id="layer5"
     inkscape:label="paper corner"
     style="display:none">
    <path
       style="fill:url(#radialGradient5104);fill-opacity:1;stroke:url(#linearGradient5126);stroke-width:1px;stroke-linecap:round;stroke-linejoin:round;stroke-opacity:1"
       d="M 40.434772,9.7480172 C 37.864669,11.487696 37.238871,11.749354 34.709632,17.259357 33.260308,13.965799 33.209229,11.71154 26.758653,10.993605"
       id="path4482"
       inkscape:connector-curvature="0"
       sodipodi:nodetypes="ccc" />
  </g>
  <g
     inkscape:groupmode="layer"
     id="layer11"
     inkscape:label="globe"
     style="display:inline">
    <path
       style="fill:url(#radialGradient5479);fill-opacity:1;stroke:none;display:inline;enable-background:new"
       d="m 32.120336,9.6621391 c -0.157254,5.327e-4 -0.315079,0.00184 -0.472916,0.00622 -0.174479,0.0042 -0.349395,0.00988 -0.5227,0.018664 -2.347063,0.1189481 -4.5796,0.6613529 -6.633297,1.5428839 -0.294055,0.126221 -0.584834,0.258018 -0.871165,0.398164 -0.104632,0.05121 -0.207568,0.1025 -0.31113,0.155533 -0.03927,0.02004 -0.07914,0.04193 -0.11823,0.06221 -0.139729,0.07278 -0.279209,0.14791 -0.416915,0.223967 -0.233369,0.128893 -0.463352,0.260047 -0.690709,0.398164 -0.04343,0.02632 -0.08749,0.05424 -0.130674,0.08088 -0.132915,0.08219 -0.267496,0.163556 -0.398247,0.248852 -0.08683,0.05664 -0.175485,0.1162 -0.261349,0.174197 -0.07314,0.04935 -0.145416,0.09901 -0.217792,0.149311 -0.05445,0.03788 -0.107746,0.07356 -0.161787,0.111984 -0.04483,0.03184 -0.08615,0.06734 -0.130675,0.09954 -0.127054,0.09195 -0.254873,0.185025 -0.379579,0.279959 -0.09877,0.0752 -0.195191,0.153154 -0.292462,0.230189 -0.02454,0.01943 -0.05024,0.03644 -0.07467,0.056 -0.0023,0.0018 -0.0039,0.0044 -0.0062,0.0062 -0.01617,0.01295 -0.03366,0.02433 -0.04978,0.03733 -0.0586,0.04722 -0.116199,0.09521 -0.174233,0.14309 -0.04418,0.03647 -0.08684,0.07514 -0.130674,0.111984 -0.119391,0.100301 -0.237781,0.201739 -0.354689,0.304843 -0.0877,0.07734 -0.175077,0.157518 -0.26135,0.236411 -0.05631,0.05155 -0.112341,0.103343 -0.168009,0.155533 -0.01607,0.01506 -0.03377,0.02843 -0.04978,0.04355 -0.02658,0.02505 -0.05446,0.04945 -0.08089,0.07466 -0.04241,0.04049 -0.08243,0.08357 -0.124452,0.124426 -0.0688,0.06679 -0.13754,0.131289 -0.205347,0.199082 -0.04245,0.0425 -0.08241,0.08776 -0.124451,0.130647 -0.217068,0.221062 -0.428371,0.446895 -0.634706,0.678123 -0.08679,0.09726 -0.176512,0.193397 -0.26135,0.292401 -0.04207,0.0492 -0.08288,0.09971 -0.124452,0.149312 -0.0067,0.008 -0.01202,0.01693 -0.01867,0.02488 -0.02838,0.0339 -0.05896,0.06544 -0.08712,0.09954 -0.03853,0.04677 -0.07392,0.09596 -0.112007,0.14309 -0.292545,0.361234 -0.573669,0.731595 -0.840052,1.113615 -0.08907,0.127734 -0.175307,0.255764 -0.261349,0.385721 -0.169829,0.256502 -0.333846,0.519022 -0.491586,0.783885 -0.474743,0.797143 -0.89262,1.629003 -1.250744,2.494744 -0.118884,0.287392 -0.230775,0.576818 -0.336021,0.870983 -0.0496,0.138645 -0.102831,0.276744 -0.149342,0.416828 -0.0054,0.01618 -0.0071,0.03358 -0.01245,0.04977 -0.0055,0.01679 -0.01317,0.03296 -0.01867,0.04977 -0.08862,0.271809 -0.172137,0.550488 -0.248904,0.827434 -0.04183,0.1509 -0.07999,0.301799 -0.118229,0.454155 -0.02961,0.117976 -0.05968,0.235792 -0.08712,0.354615 -0.01545,0.06655 -0.02879,0.132308 -0.04356,0.199082 -0.0037,0.01675 -0.0088,0.03301 -0.01245,0.04977 -0.04019,0.185333 -0.07716,0.37265 -0.112005,0.559918 -0.0085,0.0453 -0.01679,0.09146 -0.02489,0.136869 -0.0468,0.260048 -0.08829,0.521001 -0.124452,0.783885 -0.008,0.05857 -0.01742,0.115461 -0.02489,0.174197 -0.0026,0.02062 -0.0037,0.04158 -0.0062,0.06221 -0.01747,0.140986 -0.03537,0.281136 -0.04978,0.423046 -0.0074,0.07216 -0.01208,0.145404 -0.01866,0.217747 -0.0015,0.01653 -0.0048,0.03322 -0.0062,0.04977 -0.0065,0.07442 -0.01298,0.14931 -0.01867,0.223967 -9.39e-4,0.01233 9.4e-4,0.025 0,0.03733 -0.01124,0.151583 -0.02338,0.301619 -0.03111,0.454153 -3.81e-4,0.0083 3.81e-4,0.01661 0,0.02488 -0.0077,0.156832 -0.01467,0.315025 -0.01867,0.472818 -5.2e-5,0.0021 5e-5,0.0041 0,0.0062 -0.0013,0.05331 9.39e-4,0.108341 0,0.161754 -0.0017,0.109384 -0.0063,0.220041 -0.0062,0.329728 -2e-6,0.0021 0,0.0041 0,0.0062 1.78e-4,0.157284 0.0022,0.314958 0.0062,0.472819 1.89e-4,0.0083 -1.91e-4,0.01659 0,0.02488 0.0041,0.153747 0.01083,0.306136 0.01867,0.460376 5.71e-4,0.01237 -5.7e-4,0.02497 0,0.03733 0.0079,0.150304 0.01962,0.303433 0.03111,0.454157 9.4e-4,0.01241 -9.39e-4,0.02493 0,0.03733 0.04958,0.651478 0.136427,1.296739 0.248905,1.928604 7.61e-4,0.004 -7.62e-4,0.0085 0,0.01245 0.05679,0.317872 0.120795,0.633343 0.192899,0.945639 9.39e-4,0.0044 0.0053,0.0081 0.0062,0.01245 0.03512,0.151639 0.06712,0.297682 0.105785,0.447934 0.0032,0.0125 0.0092,0.02484 0.01245,0.03733 0.117062,0.451094 0.250102,0.89989 0.398248,1.33758 0.0077,0.02283 0.01711,0.04565 0.02489,0.06843 0.0522,0.152332 0.105916,0.303569 0.161788,0.454158 0.04552,0.122684 0.08898,0.245563 0.136896,0.367057 0.01146,0.02916 0.02575,0.05802 0.03734,0.0871 0.04674,0.116823 0.09418,0.232704 0.143119,0.348393 0.01336,0.0317 0.03004,0.06171 0.04356,0.09332 0.04837,0.112639 0.09269,0.224428 0.14312,0.335952 0.0159,0.03532 0.03368,0.07057 0.04978,0.105763 0.132725,0.288839 0.270599,0.57756 0.416914,0.858538 0.05242,0.100662 0.107664,0.199011 0.161788,0.298624 0.03508,0.06471 0.07001,0.128633 0.105784,0.192861 0.0037,0.0065 0.0088,0.01214 0.01245,0.01865 0.05931,0.105966 0.119223,0.212566 0.180456,0.317288 0.063,0.107756 0.127884,0.21709 0.192901,0.323508 0.04004,0.06562 0.07746,0.134014 0.118229,0.199083 0.03314,0.05279 0.06593,0.103079 0.09956,0.155532 0.02815,0.04398 0.05863,0.08693 0.08712,0.130646 0.05666,0.08682 0.116223,0.175449 0.174232,0.261297 0.06977,0.103342 0.139916,0.203025 0.211569,0.304841 0.0104,0.01477 0.02068,0.02881 0.03111,0.04355 0.02496,0.03523 0.04949,0.07071 0.07467,0.105762 0.02698,0.03756 0.05367,0.07463 0.08089,0.111983 0.01923,0.02637 0.03665,0.05461 0.056,0.08088 0.04564,0.06192 0.09054,0.125281 0.136897,0.18664 0.01417,0.01874 0.02932,0.03729 0.04356,0.05599 0.06081,0.07988 0.12466,0.157508 0.186679,0.236411 0.130608,0.166071 0.26252,0.330082 0.398246,0.491482 0.06356,0.07565 0.128217,0.149314 0.192902,0.223967 0.03756,0.0433 0.07409,0.08771 0.112007,0.13065 0.06473,0.07339 0.133302,0.145339 0.199123,0.217745 0.04417,0.04853 0.08604,0.101259 0.130674,0.149312 0.09993,0.107684 0.202583,0.2119 0.304908,0.317286 0.06717,0.06918 0.13715,0.137121 0.205346,0.205303 0.04148,0.0414 0.08261,0.08342 0.124452,0.124426 0.110529,0.108538 0.222924,0.217631 0.336021,0.323508 0.08868,0.08302 0.177336,0.16749 0.267572,0.248852 0.02501,0.02251 0.04954,0.04606 0.07467,0.06843 0.07161,0.0639 0.14523,0.123797 0.217791,0.186638 0.100634,0.08698 0.202549,0.170212 0.304907,0.255075 0.01137,0.0094 0.01973,0.02171 0.03111,0.03111 0.02622,0.02168 0.05456,0.04067 0.0809,0.06221 0.03691,0.03013 0.07488,0.05724 0.112007,0.0871 0.02746,0.02208 0.05332,0.04651 0.0809,0.06843 0.278274,0.221832 0.562033,0.4405 0.852498,0.647017 0.04754,0.03372 0.09528,0.06624 0.143119,0.09954 0.127545,0.08897 0.256041,0.175347 0.385802,0.261295 0.128872,0.08536 0.261016,0.16652 0.392024,0.248851 0.08293,0.05212 0.165135,0.104646 0.248905,0.155534 0.04909,0.02979 0.09999,0.05775 0.149342,0.0871 0.397726,0.23677 0.804164,0.463481 1.21963,0.671903 0.417409,0.209398 0.841665,0.399139 1.275635,0.578582 0.142823,0.05906 0.284839,0.11848 0.429359,0.174195 0.290897,0.112147 0.586132,0.218975 0.88361,0.317286 0.296088,0.09785 0.593836,0.189975 0.896056,0.27374 0.114706,0.03179 0.232915,0.06359 0.348466,0.09332 0.03514,0.0091 0.07057,0.016 0.105784,0.02488 0.119941,0.03014 0.240094,0.05922 0.360912,0.0871 0.123606,0.02867 0.248995,0.06083 0.373356,0.0871 0.04351,0.0091 0.08706,0.01604 0.130674,0.02488 0.409393,0.08353 0.821598,0.148347 1.238299,0.205303 0.03374,0.0046 0.06577,0.01423 0.09956,0.01865 0.02056,0.0027 0.04164,0.0036 0.06222,0.0062 0.01883,0.0024 0.03716,0.0039 0.056,0.0062 0.14305,0.01775 0.285359,0.03515 0.42936,0.04977 0.08869,0.0091 0.178618,0.01707 0.267571,0.02488 0.07444,0.0065 0.149343,0.01297 0.224014,0.01865 0.01028,7.61e-4 0.02084,-7.61e-4 0.03111,0 0.153673,0.01145 0.305824,0.02327 0.460474,0.0311 0.0062,3.8e-4 0.01246,-3.81e-4 0.01867,0 0.319882,0.0159 0.64072,0.02468 0.964505,0.02488 0.484319,-1.91e-4 0.973037,-0.0187 1.462311,-0.056 0.498245,-0.03679 0.987711,-0.09421 1.474758,-0.167975 0.164466,-0.02491 0.328503,-0.05186 0.491587,-0.08088 0.004,-7.6e-4 0.0084,7.62e-4 0.01245,0 0.254723,-0.04549 0.507989,-0.100189 0.759158,-0.155532 0.219083,-0.04827 0.437144,-0.09369 0.653374,-0.149311 0.002,-3.81e-4 0.0043,3.8e-4 0.0062,0 1.697502,-0.420486 3.190408,-1.02429 4.63584,-1.866393 0.0065,-0.0037 0.0122,-0.0088 0.01865,-0.01245 5.890238,-3.321165 9.869053,-9.62928 9.869053,-16.87219 0,-1.725476 -0.229825,-3.397345 -0.653372,-4.989489 -0.02705,-0.104474 -0.05222,-0.207417 -0.0809,-0.311065 -0.0029,-0.01008 -0.0033,-0.02104 -0.0062,-0.03111 -2.247697,-8.070288 -9.436461,-13.616461 -17.628709,-14.0103189 -0.0083,-4.186e-4 -0.01666,3.996e-4 -0.02489,0 -0.157888,-0.00739 -0.314311,-0.015123 -0.472919,-0.018664 -0.0021,-5.17e-5 -0.0041,5.16e-5 -0.0062,0 -0.05355,-0.00118 -0.108154,7.42e-4 -0.161788,0 -0.110985,-0.00187 -0.22459,-0.00622 -0.336021,-0.00622 z"
       id="path5843-9"
       inkscape:connector-curvature="0" />
    <path
       inkscape:connector-curvature="0"
       id="path5849-5"
       d="m 122,18.21875 c 0.59589,1.246885 3.01803,1.488444 3.40625,2.125 -1.21067,-0.362498 -5.31399,-0.491894 -2.46875,1.09375 1.19095,0.441944 3.09679,2.591393 3.96875,0.59375 -2.40754,-1.252086 0.70601,-0.397136 1.53125,0.15625 1.31934,0.961535 3.29442,0.04248 4.3125,1.03125 -1.29143,0.874477 2.84889,1.369404 0.0625,1.09375 -2.06855,-0.548498 -1.97126,1.393397 0,1.46875 1.5082,0.746812 -0.6221,2.401557 -1.65625,1.09375 -1.46902,-0.796551 -5.3365,0.564905 -3.21875,2.15625 1.76666,0.455584 0.79424,2.807087 2.5625,3.3125 0.6036,0.686813 2.11333,1.212626 1.1875,2.53125 0.11445,0.05223 0.22952,0.103621 0.34375,0.15625 -0.6971,0.230406 -1.32665,0.52661 -1.71875,1.09375 -0.46099,0.549749 -0.51588,1.752857 0.3125,2.1875 0.89639,1.024531 1.74013,1.236843 2.875,2.0625 0.9474,0.815669 2.26598,0.919106 3.125,1.5625 0.58857,0.718362 -0.0779,0.759093 -0.625,0.4375 -1.58796,-0.04995 -2.77741,-0.973274 -4.3125,-0.3125 -0.41112,0.272713 -0.76257,0.556824 0.0625,0.8125 1.05588,0.161809 0.57438,1.477168 -0.375,1.0625 -1.69988,-0.698193 -2.14794,1.099428 -3.34375,1.8125 -0.32106,0.451867 -0.50153,1.245864 -0.90625,1.71875 -0.27459,-0.05008 -0.56416,-6.63e-4 -0.875,0.21875 0.20092,2.105738 -3.34657,2.342152 -2.84375,4.5625 0.9568,1.858319 -2.79596,0.696784 -2.40625,2.125 1.92876,1.026542 -1.70955,0.980124 -2.09375,-0.21875 -0.39149,-1.484985 -1.45564,-1.907522 -2.5625,-2.6875 0.18352,-1.773544 2.65975,0.801063 4,0.21875 2.84585,0.419571 2.21874,-2.937244 0,-3.0625 -2.40652,-0.59464 -5.09395,-0.0122 -6.875,-1.9375 -0.89582,-0.118113 -1.63682,-0.712629 -2.53125,-0.8125 -2.97418,0.604173 -5.30251,2.59712 -7.5625,4.40625 -0.755,1.757945 -2.52677,2.921349 -3.1875,4.78125 -0.385824,1.085908 -1.766891,1.565752 -1.65625,2.625 -1.761092,-0.09667 -2.591129,1.525085 -4.1875,1.6875 -2.411023,0.585996 -0.195814,3.557543 -1.3125,5.0625 -0.01049,1.329295 1.27624,2.955506 2.59375,1.3125 0.914298,-0.801034 2.264953,-1.245135 3.25,-1.40625 0.249955,2.086639 0.340622,5.084733 2.40625,6.0625 1.60468,0.315116 1.88896,-0.639339 2.4375,-1.875 0.60967,-1.591936 0.7136,-3.618541 2.8125,-4 1.22595,-1.708384 -2.41463,-1.679354 -1.9375,-3.71875 0.15568,-2.235766 2.8365,-3.07865 3.28125,-4.8125 0.2799,-1.437745 0.94895,-3.241443 2.90625,-2.5 1.46524,1.420917 -1.22064,2.814632 -1.65625,4.15625 -0.90808,1.316828 -0.1595,3.712513 0.59375,4.84375 2.53269,1.507884 4.88475,-1.742423 7.46875,-1.03125 1.14914,-0.291268 2.22829,0.919199 0.5,1.28125 -1.47414,2.048728 -4.45742,0.443322 -6,2.25 0.82513,1.041254 2.50174,2.73972 0.90625,3.96875 -1.15724,-0.37079 -3.0078,-2.635013 -2.65625,0.1875 -0.0652,1.951142 -0.079,4.573268 -2.375,5.03125 -1.73183,-1.588343 -3.64725,0.256904 -5.46875,0.84375 -1.43167,0.704975 -2.146626,-1.818486 -3.59375,-0.34375 -2.215666,0.408875 -3.698313,-3.149478 -1.21875,-3.875 0.268798,-0.883535 0.341188,-3.601812 -0.96875,-2 -1.708713,0.35309 -1.281868,3.122899 -1.0625,4.5 -0.241209,2.582378 -4.079133,1.118192 -5.125,3.09375 -1.393059,1.122511 -2.583508,2.656678 -4.15625,3.5625 -0.949244,1.524703 -2.997633,2.598079 -4.5625,2.53125 -1.261613,-1.433428 -0.617804,0.457819 -1.3125,1.0625 -1.001163,0.02582 -5.018003,-1.412601 -3.53125,0.65625 2.434703,1.355046 4.242564,4.550353 2.75,7.40625 -0.272645,2.175888 -2.605425,3.178848 -4.34375,1.84375 -2.042609,-0.187532 -4.115066,-0.488452 -5.875,-1.5625 -0.711469,1.149114 -2.612746,0.453883 -1.6875,2.40625 -0.757016,2.15625 -0.918367,5.175336 -2.84375,6.90625 -0.53274,1.16153 1.968727,0.0513 0.90625,1.625 -1.606135,1.74197 0.972023,2.51155 2.4375,1.8125 1.036985,0.58431 0.07157,4.18323 1.96875,2.4375 0.862506,-1.53083 2.73148,0.64554 4.09375,-0.0625 1.458623,0.6015 1.876921,-1.57397 3.1875,-1.84375 0.843937,-1.03514 1.477863,-1.70791 1.46875,-3.125 1.059844,-1.98864 3.293449,-3.517282 5.53125,-3.8125 0.909611,-0.937279 -1.010587,-3.499413 1.34375,-3.15625 1.012861,-1.544589 2.02817,-0.271504 2.78125,0.59375 1.727121,1.019021 2.581338,-1.860056 4.15625,-1.59375 1.451161,-1.700784 3.501166,0.195922 3.75,1.90625 0.595429,2.213203 2.568269,3.292781 4.53125,4.21875 1.83247,1.05837 5.36907,3.16194 3.4375,5.78125 -1.39265,1.20161 -3.91398,0.0135 -5.28125,0.9375 0.658714,1.6473 3.16337,1.02536 4.125,2.5625 0.18816,-1.23952 -0.26507,-2.8666 1.625,-3 0.87895,-1.12477 2.35398,-2.17849 0.96875,-3.53125 -0.17485,-2.58889 2.15175,0.37017 2.96875,-0.34375 -0.80787,-2.06156 -3.58723,-2.26444 -5.0625,-3.9375 -2.99343,0.138253 -2.44045,-3.875774 -4.75,-4.875 -1.110387,-1.298476 0.906417,-4.115809 2.09375,-2.5 -0.68035,1.03178 1.55102,1.126774 1.1875,2.5 1.32657,0.363926 2.22176,1.629709 3.71875,1.65625 1.07767,1.120681 2.35787,2.190584 3.84375,2.65625 1.35433,1.005636 0.57176,2.17778 0.4375,3.5625 0.8898,0.71059 1.77221,1.1102 2.0625,2.34375 1.56619,0.59351 -0.40819,1.57182 0.375,2.625 0.59603,0.73959 1.14318,1.05939 1.71875,1.90625 1.04076,0.61492 1.46262,1.89976 2.03125,0.5 1.0911,1.09979 0.1472,-1.17795 -0.15625,-1.6875 0.76848,-0.2696 0.17504,-1.87439 1.25,-0.6875 1.79441,0.043 -0.0532,-2.66508 -1.40625,-2.28125 -0.61075,-0.58043 0.6467,-1.74681 -0.78125,-2.125 -0.75977,-1.76304 0.92399,-1.76321 1.25,-0.40625 0.62756,-0.49192 0.21828,-2.220703 1.625,-1.78125 1.28522,-1.062071 2.62231,0.35826 3.78125,0.15625 0.51974,-1.071724 3.82379,-1.718424 2.625,-0.0625 -1.35415,-0.15564 -3.44139,0.53106 -3.40625,1.75 1.06536,0.15632 0.62871,1.30657 0.9375,2.0625 0.43528,1.48649 -0.88318,0.53374 -0.90625,1.4375 2.05184,-0.8913 1.37998,2.56185 3.4375,2.34375 0.19166,1.0959 1.95603,-0.90518 1.9375,0.75 1.32787,1.04864 2.10341,-0.46404 2.5,-1.28125 1.76324,-0.77691 2.83912,2.68498 4.5,0.40625 1.31238,-0.15954 1.43489,-1.92151 3,-1.96875 1.49749,0.0512 -0.62064,1.98994 0.65625,2.875 0.65781,2.22495 -0.0389,4.71365 -0.125,6.96875 0.10117,3.24009 -3.9265,2.73904 -6.0625,2.46875 -1.51775,0.89424 -2.84631,2.59213 -4.8125,1.59375 -1.80189,0.19259 -3.41272,-1.45413 -5.03125,-0.1875 -0.52302,-2.51579 -4.23987,0.70357 -4.4375,-2.125 -2.54384,-0.84357 -5.9709,1.70848 -4.125,4.34375 -0.72375,1.49651 -2.6147,1.51232 -3.75,0.40625 -1.37953,-0.96276 -3.02898,-0.84791 -4.53125,-1.0625 -0.75765,-1.35541 -1.27733,-2.83772 -3.125,-2.9375 -1.318188,-1.43011 -3.829346,0.78385 -4.1875,-0.84375 -1.14561,-0.28426 -0.764062,-1.9004 -2.15625,-1.5625 -0.530817,-1.93219 2.639034,-2.17836 1.09375,-4.3125 -1.311693,-0.69962 0.906031,-2.60128 -1.1875,-2.53125 -1.361572,-1.18917 -2.853043,1.51835 -4.5625,0.0312 -1.550816,-1.19682 -3.473809,1.44874 -4.84375,-0.40625 -1.212152,0.0113 -2.465038,0.39681 -3.59375,0.0937 -1.327371,0.79651 -3.208289,0.0925 -4.03125,1.75 -1.176737,-0.22803 -1.969702,0.40569 -2.875,0.9375 -1.028224,-0.38631 -1.850661,2.47447 -2.25,0.21875 0.693735,-2.2806 -3.059479,-0.82836 -3.5625,-2.8125 -1.570646,-0.0129 -0.872251,2.44545 -2.46875,2.78125 -1.434572,1.32807 -3.564095,1.37217 -4.375,3.3125 -1.760257,1.35914 -0.79176,3.88151 -2.5625,5.15625 -0.990354,1.38863 -2.903435,1.64362 -4.5,1.71875 -1.846175,0.006 -1.244468,3.41532 -3.65625,2.34375 -0.554017,1.07567 -0.31385,2.73783 -1.6875,3.46875 -1.360495,1.1422 -1.550184,3.11775 -3.25,3.90625 -0.05271,1.83127 1.46667,3.13368 0.5625,4.78125 1.074488,2.92968 -0.577594,5.79107 -2.125,8.15625 0.958214,1.06798 0.993229,2.55357 0.34375,3.9375 0.669394,1.44672 0.511929,1.05126 1.03125,2.78125 1.198513,3.04986 5.385149,4.2438 5.15625,7.96875 1.486467,1.61162 3.459133,2.95302 4.46875,5 2.086473,0.64369 3.052039,2.60662 5.0625,3.21875 3.426678,-0.48997 6.860093,0.14161 10,1.28125 3.456088,-0.76258 6.984205,-0.43911 10.46875,-0.6875 2.69682,-0.44592 3.044354,2.55297 4.40625,3.8125 2.458844,0.52856 5.557755,-0.30795 7.46875,1.75 2.120728,2.20436 -0.558944,5.30853 -0.78125,7.5625 1.775208,2.44836 4.901782,3.28661 6.78125,5.5625 0.553149,2.04251 3.76591,3.74733 1.78125,5.8125 1.94483,0.54356 1.75419,2.6349 0.21875,3.625 -1.79705,1.3036 -2.961736,5.09692 -0.125,5.65625 1.87514,1.29156 4.10867,2.41583 4.5,4.875 1.51103,1.35167 3.77385,1.74781 5.375,2.78125 3.55152,1.32374 7.2286,-1.06926 10.9375,-0.75 4.17595,-0.87395 8.61253,-2.23262 11.71875,-5.15625 1.3268,-1.94882 4.59224,-1.86176 5.59375,-3.90625 -0.50091,-1.42166 -0.23681,-1.94573 1.3125,-2.46875 2.96466,-2.80506 7.4255,-3.6651 9.65625,-7 0.27644,-1.64475 1.8829,-4.064 -0.34375,-4.9375 0.1798,-1.39503 0.50472,-2.99315 -0.84375,-3.78125 1.25426,-4.24011 4.87226,-7.2073 7.46875,-10.71875 1.12538,-2.91956 3.75788,-4.69943 5.71875,-6.875 1.81976,-3.00846 4.37558,-6.0411 5.21875,-9.53125 0.51449,-0.52615 0.83771,-1.26499 1.1875,-1.8125 0.25065,-1.37903 0.76312,-2.61799 0.71875,-4.09375 -0.13001,-0.80988 0.46312,-2.19534 -0.25,-2.65625 -0.56571,0.24989 -0.7788,1.05367 -1.34375,1.46875 -0.0987,0.1909 -0.30632,0.3382 -0.53125,0.46875 -0.20837,-0.1443 -0.50838,-0.0407 -0.875,0.4375 -0.0177,0.009 -0.0459,0.0222 -0.0625,0.0312 -0.003,0.0212 0.003,0.0412 0,0.0625 -0.0474,0.0659 -0.0749,0.13981 -0.125,0.21875 -2.60856,0.42737 -4.191,2.54318 -6.34375,3.75 -1.09371,1.11703 -2.48673,-0.731 -3.40625,-0.9375 1.6868,-0.99719 0.13003,-2.11241 -1.25,-2.375 -1.67154,-0.84059 -2.58341,-2.7316 -4.71875,-2.625 -1.92528,-1.15229 -1.77776,-4.90259 -4.5625,-4.9375 -0.45671,-2.66877 -0.96736,-5.96736 -3.65625,-7.21875 -1.65925,-1.21546 -1.8566,-3.45718 -3.3125,-4.96875 -1.0728,-1.70596 -1.67784,-3.85971 -3.5,-5 -0.73587,-0.98848 -1.46496,-2.33748 -1.5625,-3.46875 1.56978,-0.27933 0.9321,1.96623 2.28125,2.3125 -0.0512,1.85374 1.80879,1.84371 2.90625,1 1.33309,0.46241 2.29065,2.44765 3.34375,3.625 1.56324,1.15444 1.71021,3.8313 4.125,3.46875 0.36055,1.17895 1.40112,2.15876 1.71875,3.375 0.14108,3.13709 4.62992,2.78532 4.84375,5.9375 2.35902,0.69393 2.61252,3.12265 2.46875,5.28125 0.74029,1.49479 2.09569,4.63267 3.96875,2.125 1.97455,-2.46194 5.53904,-3.32957 7.28125,-6.03125 -0.005,-0.10253 0.005,-0.20953 0,-0.3125 0.11501,-0.0446 0.2327,-0.0866 0.34375,-0.15625 0.99365,-0.88772 2.12354,-1.85604 2.375,-3.5 0.15832,-0.90639 1.03593,-1.24446 1.4375,-2.0625 0.31299,-0.79402 1.52471,-1.22009 2.1875,-1.6875 0.13984,-1.1747 0.64037,-2.20308 1.625,-2.5625 0.81933,-0.60117 0.1914,-2.3969 1.3125,-2.75 0.67772,-0.64992 -0.0998,-2.17349 0.25,-3.15625 0.23932,-1.44331 1.36266,-3.0236 1,-4.46875 -0.5301,-1.69308 -2.64918,-0.88709 -4.125,-1.1875 -0.69837,-0.39325 -2.38635,-0.90026 -1.625,-2.125 -0.035,-0.5747 0.12231,-1.62516 -0.75,-1.375 -0.75864,0.82596 -0.49993,2.61584 -1,3.6875 -0.13296,1.21158 -1.16543,1.75251 -1.6875,2.6875 -1.0489,0.4537 -2.10713,0.8105 -2.4375,-0.4375 -0.52269,-0.81919 -0.47004,-2.76224 -1.9375,-2.0625 -0.0301,0.01 -0.0635,0.0206 -0.0937,0.0312 -0.30134,-1.34699 -1.45398,-1.79642 -2.84375,-2.28125 -1.66296,-1.15429 -3.22791,-4.49851 -0.28125,-4.875 0.53819,0.0959 0.76116,-0.0249 0.84375,-0.25 0.14197,0.18471 0.34007,0.34884 0.5625,0.5 0.47511,0.44061 0.97006,0.95552 1.1875,1.6875 1.04793,0.60992 2.1766,1.35138 3.625,1.4375 0.66839,0.22553 2.12758,0.57472 2.75,0.25 1.04948,-0.31598 0.74771,-2.08285 1.9375,-2.125 0.4463,0.74969 0.42428,1.96825 1.8125,1.4375 1.41812,-0.371 2.67043,-0.89206 3.9375,-1.25 0.86197,-0.88085 1.71941,-1.06051 2.4375,-2.1875 1.13658,-0.63519 1.89813,-2.13641 3.375,-2 0.96031,1.14191 1.88479,1.71124 3.34375,2.3125 0.55114,0.87548 1.07185,1.64023 1.96875,2.0625 1.49537,-0.0228 1.09608,0.41258 2.25,0.5 0.90267,0.54011 0.55762,2.02301 0.9375,3 0.39411,1.49444 1.11198,2.97155 1.8125,4.25 0.27609,1.23205 1.41809,1.90363 1.8125,3.0625 0.7526,0.51126 0.0696,2.07083 0.875,2.625 0.13,0.69427 0.71837,0.80493 0.9375,0.0625 1.00578,-0.85241 0.57503,-3.15126 0.9375,-4.625 0.34021,-1.2994 0.0948,-2.56319 -0.1875,-3.78125 0.0338,-2.61651 -0.94114,-4.76579 -0.625,-7.40625 0.0252,-1.82649 0.48883,-3.67575 0.125,-5.46875 0.0593,-1.36227 0.55365,-2.63078 0.3125,-4.125 0.16698,-1.34951 0.006,-2.70147 -0.5,-3.71875 0.74032,-0.658897 1.21,-1.418644 0.9375,-2.4375 -10e-4,-0.02237 0.002,-0.03957 0,-0.0625 -0.0885,-0.469147 0.34268,-0.97155 0.71875,-0.875 0.006,0.0055 0.0252,-0.0058 0.0312,0 0.0124,0.0041 0.019,0.0257 0.0312,0.03125 0.11053,0.113633 0.20905,0.274537 0.3125,0.4375 0.14104,1.217149 0.50269,2.656893 1.09375,3.53125 0.10306,1.1765 1.00805,1.10274 0.875,0 -0.14685,-1.046487 -0.58183,-1.894511 -0.9375,-2.78125 0.11858,-0.10389 0.23778,-0.293734 0.375,-0.59375 C 194.36101,57.196816 161.11211,24.534936 122,18.21875 z m -37.4375,1.6875 C 82.067093,19.835605 79.744866,21.985403 77.5,21.5625 74.500375,20.101503 61.676353,26.960392 56.125,29.90625 41.328076,38.456234 28.788571,51.114997 20.4375,65.9375 c 2.14555,-0.107138 2.088303,-2.855615 3.84375,-3.78125 0.467284,-1.239917 0.9827,-2.394746 1.375,-0.75 0.536691,-1.318775 1.292974,-2.520857 3.03125,-2.125 1.517352,-0.924379 2.059653,0.614096 0.53125,1.03125 -0.608836,0.924503 -1.553067,1.320995 0.09375,1.59375 0.710996,0.446439 3.150946,0.545478 2.1875,-0.75 -1.381337,0.657053 -0.305344,-2.912654 0.9375,-3.25 0.370751,-1.733331 2.260214,-1.569822 2.53125,-3.28125 -2.438036,0.490811 -2.003673,-1.331569 -0.125,-1.59375 2.337937,0.48462 0.504319,4.761497 4.1875,3.4375 3.978177,-0.519718 3.13835,-5.683394 5.875,-7.75 0.970207,-2.573591 3.907969,-3.846002 5.15625,-5.8125 -1.162312,1.393078 -3.214307,0.237478 -1.4375,-1 2.171291,-1.413035 4.620975,-2.936801 5.5,-5.5 -1.346232,-0.73558 -2.957189,1.864928 -4.625,2.03125 -1.763428,1.444912 -3.014501,4.275623 -5.75,3.65625 -1.422563,0.412365 -2.699849,2.185626 -3.875,2.28125 1.514887,-2.319434 4.218258,-3.018978 5.65625,-5.5 1.693603,-1.618313 3.816256,-2.917426 5.65625,-4.5 2.338741,-1.358859 4.586851,-3.784211 7.5,-3.5625 0.468369,1.396658 -2.350116,1.15639 -1.78125,2.53125 1.503664,0.452792 3.087994,-0.862178 4.25,-1.9375 1.449834,1.065912 3.86651,-1.978024 4.53125,-0.9375 -0.587015,1.204294 -3.131916,1.089339 -3.125,2.03125 2.528282,-1.177149 1.345355,0.599808 -0.15625,0.9375 -1.802115,1.371602 -4.592721,0.04344 -5.53125,2.5 -0.886437,1.252854 -3.859456,2.440694 -3,3.96875 0.261535,-1.054244 2.491575,-2.919576 1.3125,-0.9375 -1.886566,1.784649 2.472565,0.763556 2.71875,-0.59375 0.440855,-1.227845 2.807573,-2.122434 1.3125,-0.40625 0.335182,1.809094 2.970859,-0.79036 3.53125,-1.6875 2.132388,-2.559226 5.119183,-4.052741 7.625,-6.1875 1.834178,-0.326938 2.793169,-1.531849 3.71875,-2.71875 0.849174,-1.144553 -2.978784,-0.839527 -3.625,0.15625 -1.258803,0.561314 -3.014117,1.305383 -4.34375,1.40625 1.859995,-1.901993 4.93155,-2.918159 7.5625,-2.84375 0.795672,0.905097 2.590976,-0.242886 2.75,-1.125 -1.432526,0.515018 -3.938572,-0.256136 -1.21875,-0.03125 2.83331,0.09319 1.210867,-1.400804 -0.4375,-0.46875 -1.38107,-0.124986 -3.876881,2.024642 -4.46875,0.875 2.367504,-1.044602 5.556002,-1.644663 7.71875,-1.9375 0.984159,-0.538149 2.616284,-1.202106 3.71875,-2.03125 0.808617,-0.07107 0.103614,1.621594 -0.53125,1.53125 -1.395464,0.729902 -0.777272,1.511589 -1.96875,1.96875 -1.375023,-0.784991 -4.398544,1.395512 -3.34375,2.59375 1.15661,0.783068 2.587032,-3.053047 2.75,-1.28125 -1.477131,1.528526 2.248557,0.298077 3,0.875 1.421795,-1.267058 3.590391,0.258197 4.8125,-1.21875 2.425885,0.281557 1.423973,-1.140035 -0.15625,-1.34375 -1.756976,-0.140996 -1.832759,-1.06943 -0.4375,-1.71875 0.756405,-0.373124 1.362518,-1.981769 1.3125,-2.375 -0.973458,0.09617 -3.011711,1.280741 -1.6875,-0.21875 -0.236236,-0.103699 -0.628217,-0.204605 -0.9375,-0.28125 z m 36.15625,6.15625 c -0.32395,2.702633 4.56581,2.919017 4.78125,0.59375 -1.7755,0.298871 -3.26561,0.716725 -4.78125,-0.59375 z M 86.4375,26.96875 c -1.407076,0.350923 -1.838313,1.680104 -3.625,1.34375 C 82.072369,27.885139 80.155009,27.07345 81,28.625 c -0.706257,0.573119 -1.501135,1.092586 -1.59375,-0.0625 -1.148753,-0.191333 -2.753,1.114815 -0.875,1.78125 -1.354921,1.218676 -3.590515,2.075958 -5,3.625 -1.892519,0.186716 -1.887057,2.531816 -4.0625,2.21875 -1.601046,0.448411 -0.09188,1.229622 -1.65625,1.90625 -2.043724,1.133178 -4.894253,1.011947 -6.1875,3.34375 -2.258628,0.95632 -2.625938,3.575442 -4.875,4.71875 -1.272851,0.686323 -1.960129,1.943789 -0.6875,2.71875 -1.216563,0.868405 -1.601564,2.909965 0.40625,1.84375 3.83197,-1.641115 7.040918,-5.64026 11.53125,-4.875 2.096148,-1.691418 4.567789,-1.386508 7.03125,-0.96875 2.532415,-0.611652 5.156858,-1.139906 6.8125,-3.25 2.95874,-1.31382 5.364559,-3.42377 7.375,-5.90625 1.797635,-1.455838 3.439186,-3.298036 5.53125,-4 -1.276357,-0.370512 -3.629052,-0.838291 -1.65625,-2.09375 -0.189237,-1.297223 -2.351611,-2.137431 -3.625,-2 -1.287876,0.614086 -1.821908,-0.762869 -3.03125,-0.65625 z m 36.65625,6.71875 c -1.11561,0.09148 -0.0177,1.362516 -0.3125,1.75 -0.81539,0.284723 -0.51459,1.200821 -0.84375,1.8125 -0.10195,0.910599 0.95292,1.268443 0.625,2.0625 0.68521,0.291929 0.42628,1.252043 0.6875,1.90625 0.82471,0.899879 2.45809,0.889763 3.6875,1.125 0.77165,0.099 1.63369,-0.434407 0.9375,-1.03125 -1.61077,-0.08852 -3.03393,-0.844275 -3.46875,-2.125 -0.53999,-0.834891 -0.25499,-2.02572 -0.625,-2.9375 -0.30628,-1.029125 1.03408,-1.819603 -0.125,-2.375 -0.11272,-0.16868 -0.3788,-0.09071 -0.5625,-0.1875 z m -18.71875,0.5 c -1.55917,0.278672 -3.82588,0.514765 -2.1875,2.5625 -0.35253,2.490564 1.66792,2.405243 2.03125,0.375 0.69007,-3.080808 1.3708,1.702286 2.34375,-0.28125 0.15692,-0.85325 -1.97684,-1.644796 -1.25,-1.90625 2.57046,-0.10386 1.37826,-0.963654 -0.53125,-0.625 L 104.375,34.1875 z M 74.25,49 c -2.103994,-0.0019 0.749901,2.280012 -1.25,1.875 -0.87244,0.329875 0.962658,1.445606 -0.75,1.53125 0.530833,0.299009 1.900945,2.505929 3.375,1.21875 1.843038,-0.336645 4.623982,-1.171839 3.34375,-3.5625 C 77.598609,50.323782 76.615548,49.785873 75.25,50.375 74.268986,50.232473 75.55704,49.06852 74.25,49 z M 38,57.25 c -1.714362,1.254191 -4.688372,2.190544 -4.1875,4.75 0.742832,0.625483 0.144741,3.606992 1.21875,1.71875 -0.154829,-1.452256 0.558993,-2.65257 1.59375,-3.1875 C 35.990045,58.784604 37.422642,58.654009 38,57.25 z m 45.0625,7.125 c -1.642973,-0.05867 -2.152368,1.401093 -3.46875,1.9375 0.431112,0.919192 -0.772189,1.167704 -0.25,2.15625 -1.094581,0.578066 1.283824,1.149427 0.21875,2.375 1.250119,0.279692 1.938208,1.098037 1.53125,2.65625 -0.50966,1.191754 -2.419107,0.334842 -1.625,2.4375 -1.891325,0.402171 -1.930203,1.062811 -0.03125,1.1875 1.426602,1.172148 -1.31094,0.490336 -1.84375,1.46875 -2.408709,1.510204 1.730404,1.037728 2.9375,0.9375 1.917646,-0.530687 4.275889,0.550616 5.09375,-1.59375 1.218402,-1.402101 0.140825,-2.273603 -0.90625,-3 -0.156263,-1.883495 -1.606683,-2.890602 -1.625,-4.90625 -2.203639,-1.031599 0.98913,-2.233785 1.1875,-3.40625 -0.666156,-0.447553 -3.265275,0.123425 -1.625,-1.125 0.629999,-0.125264 1.21904,-0.730935 0.40625,-1.125 z m -6.375,5.375 c -0.09031,0.0094 -0.18368,0.03409 -0.28125,0.0625 -1.387873,0.647932 -0.679147,2.726753 -2.1875,1.3125 -1.28422,0.729897 0.0027,2.317446 -1.1875,3.28125 -1.935767,0.589688 -0.513,2.877436 1,1.28125 2.069914,0.02525 3.333093,-1.690736 3.28125,-3.5625 1.238508,-0.618682 0.729682,-2.515665 -0.625,-2.375 z m 74.75,11.25 c 0.26166,0.01143 0.49343,0.0872 0.6875,0.25 -0.0158,1.502542 -1.46585,2.621777 -0.625,4 0.90544,0.629855 2.1951,0.803276 3.125,1.75 0.20623,0.791857 1.01299,1.37081 1.25,2.25 0.94618,0.338677 0.19383,-1.734846 1,-0.9375 0.69838,0.37616 2.02135,0.646376 1.8125,1.6875 -0.69094,0.376029 -1.72712,0.978148 -0.875,1.75 0.9168,0.328327 1.34325,1.31605 2,2 0.36754,1.324766 1.01706,2.612455 1,4 -0.85392,0.738189 -1.64584,1.823785 -2.9375,1.375 -0.29347,-0.104508 -0.65368,-0.18894 -1,-0.21875 -0.0664,-0.204701 -0.10783,-0.363385 -0.1875,-0.59375 -1.78143,0.418747 -2.96536,-0.346629 -2.6875,-2.25 -0.30095,-1.57315 0.84942,-4.157346 -1.59375,-4.25 -2.42304,-1.84772 -5.64805,-4.591475 -4.53125,-8.0625 0.43944,-0.80765 0.96074,-1.733562 1.15625,-2.65625 0.69961,0.276479 1.65399,-0.126613 2.40625,-0.09375 z m -58,15.875 c -0.149794,0.01025 -0.157423,0.218796 -0.09375,0.28125 -1.026647,1.51392 1.62613,2.757875 1,0.40625 0.149747,-0.57342 -0.441459,-0.584872 -0.78125,-0.65625 -0.05631,-0.02716 -0.08755,-0.03381 -0.125,-0.03125 z m 0,3.5 c -1.197924,0.32587 -1.318385,4.12896 -0.125,4.125 1.527726,-0.4438 1.501872,-3.57827 0.125,-4.125 z M 134.59375,109 c -0.94725,0.20193 -4.08443,1.9554 -1.59375,1.96875 1.39304,0.0626 1.15799,-1.2659 1.59375,-1.96875 z m -16.375,2.03125 c -2.08279,0.86752 3.2831,2.62831 3.5,0.46875 -1.11207,-0.32408 -2.45182,0.10338 -3.5,-0.46875 z m -110.25,10.5625 c 1.2970484,17.04831 7.183575,33.92859 17,47.84375 1.426921,-2.13428 1.622729,-4.74264 0.1875,-6.8125 -0.71945,-2.69157 -3.824921,-3.90093 -4.84375,-6.59375 -1.561226,-2.22499 -3.005072,-4.48833 -4.34375,-6.84375 -1.484016,-3.04174 -2.158841,-6.17982 -3.625,-9.21875 -1.743689,-3.22643 -1.645468,-7.14342 -2.15625,-10.78125 -1.0440377,-2.43591 -0.4724277,-5.39679 -2.21875,-7.59375 z m 155.84375,61.375 c -3.74205,1.39456 -6.14096,4.77358 -9.375,7.03125 0.0901,2.09949 -0.44608,3.60117 -2.25,4.6875 -1.83143,1.94909 1.04584,1.99337 2.15625,0.71875 2.6458,-1.83168 3.64317,-5.37243 6.96875,-6.375 0.97405,-1.95877 1.79362,-3.99531 2.5,-6.0625 z"
       style="fill:#000000;fill-opacity:1;stroke:none;display:inline;filter:url(#filter5851-4);enable-background:new"
       transform="matrix(0.19912339,0,0,0.19908188,11.231049,6.3212962)" />
    <path
       style="fill:url(#radialGradient5836-0);fill-opacity:1;stroke:none;display:inline;enable-background:new"
       d="m 35.524102,9.9483192 c 0.118655,0.2482328 0.60096,0.2963218 0.678264,0.4230488 -0.241073,-0.07217 -1.058138,-0.09793 -0.491586,0.217746 0.237146,0.08798 0.616644,0.515899 0.790271,0.118205 -0.479396,-0.249268 0.140583,-0.07906 0.304907,0.03111 0.262712,0.191424 0.655998,0.0085 0.85872,0.205303 -0.257155,0.174093 0.567282,0.272623 0.01245,0.217746 -0.411898,-0.109196 -0.392526,0.2774 0,0.292401 0.300316,0.148677 -0.123876,0.478107 -0.329799,0.217746 -0.292517,-0.158579 -1.062623,0.112463 -0.640929,0.429271 0.351785,0.0907 0.15815,0.55884 0.510253,0.659458 0.120192,0.136732 0.420813,0.241412 0.23646,0.503926 0.02279,0.0104 0.0457,0.02063 0.06845,0.0311 -0.138811,0.04587 -0.26417,0.104839 -0.342243,0.217746 -0.09179,0.109445 -0.102724,0.348963 0.06222,0.435492 0.178491,0.203966 0.3465,0.246233 0.572481,0.410606 0.188649,0.162385 0.451208,0.182978 0.62226,0.311066 0.117198,0.143013 -0.01551,0.151121 -0.124452,0.0871 -0.316201,-0.0099 -0.553049,-0.193761 -0.858719,-0.06221 -0.08187,0.05429 -0.151846,0.110854 0.01245,0.161754 0.21025,0.03221 0.114373,0.294078 -0.07467,0.211525 -0.338484,-0.138997 -0.427703,0.218876 -0.665818,0.360836 -0.06393,0.08996 -0.09987,0.248028 -0.180456,0.342172 -0.05468,-0.01 -0.112337,-1.32e-4 -0.174233,0.04355 0.04001,0.419214 -0.66638,0.46628 -0.566257,0.908311 0.190521,0.369958 -0.55674,0.138717 -0.47914,0.423049 0.38406,0.204366 -0.340411,0.195125 -0.416915,-0.04355 -0.07796,-0.295633 -0.289851,-0.379753 -0.510253,-0.535033 0.03654,-0.35308 0.529619,0.159478 0.796493,0.04355 0.566675,0.08353 0.441804,-0.584752 0,-0.609688 -0.479194,-0.118382 -1.014325,-0.0024 -1.368973,-0.385721 -0.178379,-0.02351 -0.325929,-0.141872 -0.50403,-0.161754 -0.59223,0.120279 -1.055855,0.51704 -1.505872,0.877204 -0.150338,0.349975 -0.503138,0.581588 -0.634705,0.95186 -0.07683,0.216185 -0.351829,0.311714 -0.329798,0.522591 -0.350675,-0.01925 -0.515954,0.303617 -0.833829,0.335951 -0.480092,0.116661 -0.03899,0.708242 -0.26135,1.007851 -0.0021,0.264639 0.25413,0.588388 0.516477,0.261295 0.182058,-0.159471 0.451005,-0.247883 0.647151,-0.279959 0.04978,0.415412 0.06782,1.012279 0.479141,1.206935 0.319527,0.06273 0.376134,-0.127281 0.485361,-0.373279 0.121401,-0.316926 0.142095,-0.720386 0.560037,-0.796328 0.244114,-0.340108 -0.48081,-0.334329 -0.385803,-0.740335 0.031,-0.445101 0.564814,-0.612904 0.653373,-0.958082 0.05573,-0.286229 0.188958,-0.645312 0.578703,-0.497705 0.291763,0.282879 -0.243059,0.560343 -0.329798,0.827435 -0.180821,0.262156 -0.03176,0.739093 0.118229,0.964302 0.504317,0.300192 0.972668,-0.346884 1.487204,-0.205303 0.228819,-0.05799 0.443703,0.182996 0.09956,0.255074 -0.293536,0.407864 -0.887576,0.08825 -1.194741,0.447934 0.164304,0.207295 0.498156,0.545429 0.180457,0.790106 -0.230435,-0.07381 -0.598925,-0.524583 -0.528923,0.03733 -0.01298,0.388438 -0.01572,0.910455 -0.472918,1.001632 -0.344847,-0.316211 -0.726253,0.05115 -1.088955,0.167975 -0.285079,0.140348 -0.427443,-0.362028 -0.715599,-0.06843 -0.441191,0.08141 -0.736421,-0.627003 -0.242682,-0.771441 0.05353,-0.175897 0.06794,-0.717057 -0.192901,-0.398164 -0.340245,0.07029 -0.25525,0.621712 -0.211568,0.895868 -0.04803,0.514105 -0.812252,0.222611 -1.020508,0.615909 -0.277391,0.223472 -0.514437,0.528897 -0.827607,0.70923 -0.189017,0.30354 -0.596898,0.51723 -0.9085,0.503926 -0.251217,-0.28537 -0.12302,0.09115 -0.26135,0.211525 -0.199354,0.0052 -0.999202,-0.281224 -0.703154,0.130647 0.484806,0.269765 0.844794,0.905893 0.547589,1.47445 -0.05429,0.43318 -0.518801,0.632851 -0.864942,0.367057 -0.406732,-0.03733 -0.819406,-0.09724 -1.16985,-0.311066 -0.14167,0.228769 -0.520259,0.09036 -0.336021,0.479041 -0.150739,0.429271 -0.182868,1.030316 -0.566257,1.37491 -0.106081,0.231239 0.392019,0.01021 0.180455,0.323507 -0.319819,0.346793 0.193553,0.500004 0.485364,0.360836 0.206488,0.116324 0.01425,0.832804 0.392024,0.485263 0.171745,-0.304762 0.543902,0.128515 0.815162,-0.01245 0.290446,0.119748 0.373738,-0.313348 0.634705,-0.367056 0.168048,-0.206079 0.294277,-0.340015 0.292463,-0.622131 0.21104,-0.395902 0.655802,-0.700226 1.101401,-0.758999 0.181125,-0.186596 -0.201232,-0.696671 0.267572,-0.628353 0.201685,-0.307499 0.403856,-0.05405 0.553812,0.118205 0.34391,0.202869 0.514005,-0.370303 0.827607,-0.317286 0.28896,-0.338595 0.697164,0.039 0.746712,0.3795 0.118565,0.440608 0.511403,0.655533 0.902278,0.839876 0.364888,0.210703 1.069107,0.629484 0.684485,1.150941 -0.277308,0.239219 -0.779363,0.0027 -1.051618,0.18664 0.131165,0.327946 0.6299,0.204131 0.821382,0.510147 0.03747,-0.246768 -0.05278,-0.570688 0.323577,-0.597247 0.175018,-0.223921 0.468733,-0.433697 0.1929,-0.703008 -0.03481,-0.515399 0.428463,0.07369 0.591147,-0.06843 -0.160867,-0.410419 -0.7143,-0.450809 -1.008061,-0.783884 -0.596061,0.02752 -0.485951,-0.771596 -0.945836,-0.970524 -0.221104,-0.258503 0.180489,-0.819383 0.416915,-0.497705 -0.135473,0.205409 0.308843,0.22432 0.236458,0.497705 0.264152,0.07245 0.442404,0.324445 0.74049,0.329729 0.21459,0.223107 0.469507,0.436105 0.76538,0.528811 0.269679,0.200204 0.11385,0.433557 0.08712,0.70923 0.177181,0.141464 0.352889,0.221018 0.410692,0.466597 0.311865,0.118156 -0.08128,0.31292 0.07467,0.52259 0.118686,0.147239 0.227635,0.210905 0.342243,0.379499 0.207241,0.122419 0.291243,0.378209 0.404471,0.09954 0.217263,0.218949 0.02931,-0.234508 -0.03111,-0.335951 0.153022,-0.05368 0.03486,-0.373156 0.248903,-0.136869 0.357309,0.0085 -0.01061,-0.530569 -0.280015,-0.454154 -0.121617,-0.115553 0.12877,-0.34776 -0.155566,-0.42305 -0.15129,-0.350988 0.183987,-0.351021 0.248902,-0.08088 0.124963,-0.09793 0.04347,-0.4421 0.323575,-0.354613 0.25592,-0.21144 0.522165,0.07133 0.752937,0.0311 0.103494,-0.213361 0.761406,-0.342108 0.5227,-0.01245 -0.269645,-0.03099 -0.685262,0.105724 -0.678265,0.348394 0.212137,0.03112 0.125189,0.260113 0.186677,0.410605 0.08667,0.295934 -0.175861,0.10626 -0.180455,0.286182 0.40857,-0.177443 0.274787,0.510015 0.684488,0.466598 0.03817,0.218173 0.389491,-0.180205 0.3858,0.14931 0.264412,0.208766 0.41884,-0.09238 0.49781,-0.255073 0.351101,-0.15467 0.565335,0.534533 0.896054,0.08088 0.261326,-0.03176 0.28572,-0.38254 0.597371,-0.391943 0.298185,0.0102 -0.123585,0.396163 0.130675,0.57236 0.130984,0.442948 -0.0077,0.938402 -0.02489,1.387352 0.02015,0.645044 -0.781858,0.545294 -1.207185,0.491486 -0.30222,0.178026 -0.566768,0.516045 -0.958283,0.317285 -0.358798,0.03834 -0.679551,-0.28949 -1.001839,-0.03733 -0.104144,-0.500849 -0.844258,0.140066 -0.883608,-0.42305 -0.506539,-0.167938 -1.188946,0.340128 -0.821386,0.864762 -0.144115,0.297927 -0.520646,0.301074 -0.746712,0.08088 -0.274697,-0.191666 -0.60314,-0.168803 -0.902278,-0.211522 -0.150866,-0.269839 -0.254346,-0.564938 -0.622259,-0.584803 -0.262482,-0.284711 -0.762513,0.156048 -0.83383,-0.167978 -0.228117,-0.05659 -0.152142,-0.378334 -0.42936,-0.311065 -0.105697,-0.384663 0.525494,-0.433671 0.217792,-0.858541 -0.261189,-0.139281 0.180412,-0.517866 -0.236459,-0.503925 -0.271121,-0.236742 -0.568108,0.302275 -0.908501,0.0062 -0.308803,-0.238266 -0.691716,0.288418 -0.964503,-0.08088 -0.241368,0.0023 -0.490847,0.079 -0.7156,0.01865 -0.264311,0.158573 -0.638846,0.01842 -0.802716,0.348395 -0.234316,-0.0454 -0.392214,0.08077 -0.57248,0.186637 -0.204743,-0.07691 -0.36851,0.492622 -0.448028,0.04355 0.138139,-0.454024 -0.609213,-0.164912 -0.709377,-0.559916 -0.312752,-0.0025 -0.173685,0.486844 -0.491586,0.553696 -0.285656,0.264394 -0.709694,0.273174 -0.871164,0.659459 -0.350509,0.270579 -0.157658,0.772736 -0.510254,1.026515 -0.197202,0.276451 -0.578142,0.327214 -0.896055,0.342171 -0.367617,0.0011 -0.247803,0.679929 -0.728045,0.466598 -0.110318,0.214147 -0.0625,0.545055 -0.336021,0.690565 -0.270907,0.227394 -0.308677,0.620689 -0.647151,0.777665 -0.01049,0.364572 0.292048,0.623858 0.112007,0.95186 0.213956,0.583245 -0.115012,1.152898 -0.423137,1.623762 0.190803,0.212617 0.197775,0.508369 0.06845,0.783885 0.133292,0.288016 0.101937,0.209285 0.205347,0.553697 0.238651,0.607171 1.072309,0.844863 1.026729,1.586432 0.295991,0.320846 0.688795,0.587894 0.889833,0.995411 0.415465,0.128146 0.607732,0.51893 1.008062,0.640793 0.682332,-0.09754 1.366005,0.02819 1.991234,0.255076 0.688187,-0.151816 1.390719,-0.08742 2.084573,-0.136871 0.537,-0.08877 0.606202,0.508252 0.877387,0.759001 0.489614,0.105227 1.106679,-0.06131 1.487202,0.348392 0.422287,0.43885 -0.111298,1.056834 -0.155565,1.505558 0.353486,0.487424 0.97606,0.654306 1.350306,1.107392 0.110145,0.406626 0.74988,0.746027 0.354688,1.157164 0.387261,0.108212 0.349299,0.52456 0.04356,0.72167 -0.357834,0.259524 -0.589752,1.014707 -0.02489,1.126058 0.373383,0.257127 0.81813,0.480949 0.896054,0.970524 0.30088,0.269095 0.751462,0.347958 1.070289,0.553697 0.707191,0.263532 1.439382,-0.21287 2.17791,-0.14931 0.83153,-0.17399 1.714958,-0.444475 2.333479,-1.026516 0.264196,-0.387976 0.914422,-0.370644 1.113847,-0.777664 -0.09975,-0.283016 -0.04716,-0.38735 0.261343,-0.491475 0.590335,-0.558436 1.478592,-0.729654 1.922786,-1.393574 0.05505,-0.327438 0.37493,-0.809067 -0.06845,-0.982964 0.0358,-0.277726 0.100502,-0.595883 -0.16801,-0.752777 0.249753,-0.844132 0.970181,-1.434846 1.487203,-2.133911 0.224089,-0.581231 0.748282,-0.935573 1.138736,-1.368688 0.362358,-0.59893 0.87128,-1.202672 1.039177,-1.897498 0.102445,-0.104749 0.166807,-0.251838 0.236459,-0.360837 0.04991,-0.27454 0.151954,-0.521193 0.14312,-0.814992 -0.02589,-0.161232 0.09222,-0.437052 -0.04978,-0.528811 -0.112647,0.04975 -0.155077,0.209767 -0.267575,0.292402 -0.01965,0.03801 -0.06099,0.06733 -0.105784,0.09332 -0.04149,-0.02873 -0.10123,-0.0081 -0.174232,0.0871 -0.0035,0.0017 -0.0091,0.0044 -0.01245,0.0062 -5.72e-4,0.0042 5.71e-4,0.0082 0,0.01245 -0.0094,0.01313 -0.01492,0.02783 -0.02489,0.04355 -0.519423,0.08509 -0.834525,0.506305 -1.263187,0.746561 -0.217785,0.222382 -0.495167,-0.145527 -0.678264,-0.186639 0.335881,-0.198522 0.02589,-0.420543 -0.248906,-0.472818 -0.332843,-0.167346 -0.514416,-0.543814 -0.939611,-0.522591 -0.38337,-0.229399 -0.353995,-0.976016 -0.908502,-0.982966 -0.09094,-0.531304 -0.192623,-1.187993 -0.728046,-1.437124 -0.330394,-0.241976 -0.369691,-0.688262 -0.659596,-0.989188 -0.213619,-0.339624 -0.334098,-0.768397 -0.69693,-0.995408 -0.14653,-0.196789 -0.291708,-0.46535 -0.311131,-0.690566 0.312581,-0.05561 0.185603,0.391441 0.45425,0.460376 -0.0102,0.369048 0.360172,0.36705 0.578702,0.199084 0.26545,0.09206 0.456123,0.487281 0.665817,0.72167 0.311279,0.229827 0.340544,0.762744 0.821387,0.690566 0.0718,0.234708 0.278996,0.42977 0.342242,0.671902 0.02809,0.624536 0.921926,0.554505 0.964504,1.182048 0.469737,0.138151 0.520214,0.621663 0.491586,1.051401 0.14741,0.297585 0.4173,0.92228 0.79027,0.423049 0.393182,-0.490129 1.102952,-0.662856 1.449867,-1.200712 -9.4e-4,-0.02041 9.39e-4,-0.04172 0,-0.06221 0.0229,-0.0088 0.04634,-0.01724 0.06845,-0.0311 0.197859,-0.176728 0.422847,-0.369504 0.472918,-0.696785 0.03153,-0.180448 0.206279,-0.247751 0.28624,-0.410608 0.06233,-0.158074 0.303605,-0.242898 0.435583,-0.33595 0.02784,-0.233861 0.127513,-0.438594 0.323576,-0.510149 0.163147,-0.119681 0.03811,-0.477179 0.261348,-0.547475 0.13495,-0.129386 -0.01988,-0.432702 0.04979,-0.628351 0.04765,-0.287337 0.271339,-0.601943 0.199123,-0.889646 -0.105554,-0.337062 -0.527513,-0.176604 -0.821384,-0.236411 -0.139063,-0.07829 -0.475177,-0.179224 -0.323575,-0.423048 -0.007,-0.114412 0.02436,-0.32354 -0.149341,-0.273738 -0.151063,0.164432 -0.09955,0.520766 -0.199125,0.734114 -0.02647,0.241204 -0.232064,0.348892 -0.336019,0.535032 -0.208862,0.09033 -0.41958,0.161356 -0.485365,-0.0871 -0.104079,-0.163084 -0.0936,-0.549912 -0.385801,-0.410607 -0.006,0.002 -0.01265,0.0041 -0.01865,0.0062 -0.06001,-0.268162 -0.289521,-0.357635 -0.566256,-0.454155 -0.331134,-0.229799 -0.642753,-0.895574 -0.056,-0.970525 0.107168,0.0191 0.151566,-0.005 0.168012,-0.04977 0.02826,0.03677 0.06772,0.06945 0.112006,0.09954 0.0946,0.08772 0.193162,0.190228 0.23646,0.335951 0.208667,0.121424 0.433409,0.269035 0.721821,0.286179 0.133092,0.0449 0.423652,0.114418 0.547589,0.04977 0.208977,-0.06291 0.148886,-0.41466 0.385802,-0.423048 0.08886,0.149248 0.08449,0.391841 0.360911,0.28618 0.28238,-0.07386 0.531745,-0.177593 0.784049,-0.248853 0.171638,-0.175362 0.342374,-0.211127 0.485362,-0.435492 0.226321,-0.126455 0.377963,-0.42532 0.672044,-0.398163 0.191217,0.227333 0.375303,0.340676 0.665817,0.460376 0.109742,0.174293 0.21343,0.32654 0.392023,0.410607 0.297762,-0.0045 0.218256,0.08214 0.448027,0.09954 0.179745,0.107525 0.111037,0.402743 0.18668,0.597244 0.07847,0.297517 0.22142,0.591583 0.36091,0.846099 0.05497,0.245279 0.282375,0.378978 0.360913,0.609688 0.149858,0.101784 0.01385,0.412265 0.174232,0.52259 0.02589,0.138216 0.143046,0.160245 0.186678,0.01245 0.200274,-0.1697 0.114503,-0.627359 0.186679,-0.920753 0.06775,-0.258688 0.01888,-0.510285 -0.03734,-0.752779 0.0068,-0.520901 -0.187401,-0.948784 -0.124452,-1.474451 0.005,-0.363622 0.09734,-0.731774 0.02489,-1.088728 0.01182,-0.271204 0.110245,-0.523742 0.06222,-0.821213 0.03325,-0.268663 0.0011,-0.537814 -0.09956,-0.740337 0.147415,-0.131174 0.24094,-0.282425 0.186679,-0.485261 -1.91e-4,-0.0044 3.8e-4,-0.0079 0,-0.01245 -0.01762,-0.0934 0.06824,-0.193419 0.143119,-0.174198 0.0011,0.0011 0.005,-0.0011 0.0062,0 0.0024,8.19e-4 0.0038,0.0051 0.0062,0.0062 0.02201,0.02262 0.04162,0.05465 0.06222,0.0871 0.02809,0.242312 0.100098,0.52894 0.217793,0.703008 0.02052,0.23422 0.200725,0.219536 0.174232,0 -0.02924,-0.208336 -0.115856,-0.377163 -0.186679,-0.553697 0.02362,-0.02068 0.04734,-0.05848 0.07467,-0.118204 C 49.93287,17.708141 43.312236,11.205752 35.5241,9.9483135 z m -7.45468,0.3359508 c -0.496895,-0.01406 -0.959304,0.413922 -1.40631,0.329729 -0.597295,-0.290858 -3.150858,1.074623 -4.256262,1.66109 -2.946414,1.702147 -5.443322,4.222277 -7.106216,7.173169 0.427229,-0.02133 0.41583,-0.568502 0.76538,-0.752778 0.09304,-0.246846 0.195679,-0.476751 0.273795,-0.149312 0.106868,-0.262544 0.257462,-0.501857 0.603593,-0.423049 0.30214,-0.184027 0.410126,0.122255 0.105784,0.205303 -0.121234,0.184052 -0.309252,0.262987 0.01867,0.317288 0.141576,0.08887 0.627427,0.108594 0.435583,-0.149312 -0.275057,0.130807 -0.06081,-0.579857 0.186677,-0.647017 0.07382,-0.345074 0.450062,-0.312522 0.504032,-0.653237 -0.48547,0.09771 -0.398978,-0.265091 -0.02489,-0.317287 0.465537,0.09648 0.100421,0.947928 0.833828,0.684344 0.792149,-0.103466 0.62492,-1.131461 1.16985,-1.542884 0.193191,-0.512355 0.778169,-0.765669 1.02673,-1.157163 -0.231443,0.277336 -0.640043,0.04728 -0.286239,-0.199082 0.432354,-0.28131 0.920144,-0.584665 1.095179,-1.094951 -0.268067,-0.146441 -0.588846,0.371274 -0.920946,0.404385 -0.35114,0.287656 -0.600258,0.851199 -1.14496,0.727893 -0.283265,0.08209 -0.537603,0.435119 -0.771603,0.454156 0.30165,-0.461757 0.839954,-0.601024 1.126291,-1.09495 0.337237,-0.322178 0.759907,-0.580808 1.126293,-0.89587 0.465697,-0.270524 0.913348,-0.753367 1.493425,-0.709228 0.09326,0.278049 -0.467963,0.230216 -0.354689,0.503926 0.299415,0.09014 0.614892,-0.171645 0.846274,-0.385722 0.288696,0.212204 0.769914,-0.393788 0.902278,-0.186639 -0.116887,0.239754 -0.623638,0.216868 -0.622261,0.404385 0.503441,-0.234349 0.267892,0.119411 -0.03111,0.186639 -0.358843,0.273062 -0.914518,0.0086 -1.101401,0.497705 -0.17651,0.249421 -0.768509,0.485898 -0.597371,0.790107 0.05208,-0.209882 0.496131,-0.581235 0.261349,-0.18664 -0.375659,0.355291 0.492346,0.152011 0.541368,-0.118204 0.08778,-0.244442 0.559053,-0.422539 0.261349,-0.08088 0.06674,0.360158 0.591567,-0.157345 0.703154,-0.33595 0.424609,-0.509496 1.019349,-0.806828 1.518317,-1.231819 0.365227,-0.06509 0.556185,-0.304964 0.740489,-0.541254 0.16909,-0.22786 -0.593145,-0.167135 -0.721822,0.03111 -0.250657,0.111748 -0.600181,0.259878 -0.864941,0.279959 0.370367,-0.378653 0.981986,-0.580953 1.505869,-0.566139 0.158437,0.180188 0.515924,-0.04836 0.54759,-0.223967 -0.285249,0.10253 -0.784262,-0.05099 -0.242682,-0.0062 0.564179,0.01855 0.241113,-0.278875 -0.08712,-0.09332 -0.275002,-0.02488 -0.771977,0.403069 -0.889832,0.174197 0.471426,-0.207962 1.10633,-0.327423 1.536983,-0.385722 0.195969,-0.107135 0.520964,-0.239317 0.740491,-0.404385 0.161014,-0.01415 0.02063,0.32283 -0.105784,0.304845 -0.27787,0.14531 -0.154773,0.30093 -0.392024,0.391942 -0.2738,-0.156277 -0.875854,0.277821 -0.665819,0.516369 0.230308,0.155894 0.515138,-0.607807 0.547589,-0.255074 -0.294131,0.304302 0.44774,0.05934 0.59737,0.174197 0.283113,-0.252249 0.714931,0.0514 0.958281,-0.242631 0.48305,0.05605 0.283547,-0.226961 -0.03111,-0.267517 -0.349855,-0.02807 -0.364945,-0.212904 -0.08712,-0.342172 0.150617,-0.07428 0.271308,-0.394534 0.261349,-0.472819 -0.193838,0.01915 -0.599702,0.254972 -0.336021,-0.04355 -0.04704,-0.02064 -0.125093,-0.04073 -0.186677,-0.05599 z m 7.199553,1.225598 c -0.06451,0.538045 0.909159,0.581123 0.952059,0.118205 -0.353546,0.0595 -0.65026,0.142687 -0.952059,-0.118205 z m -6.826197,0.180418 c -0.280182,0.06986 -0.366052,0.334478 -0.721823,0.267516 -0.147378,-0.08508 -0.529168,-0.246672 -0.360911,0.06221 -0.140632,0.114098 -0.298911,0.217514 -0.317353,-0.01244 -0.228744,-0.03809 -0.548186,0.22194 -0.174233,0.354615 -0.269796,0.242616 -0.714955,0.413285 -0.995616,0.721672 -0.376845,0.03717 -0.375758,0.504038 -0.80894,0.441713 -0.318805,0.08927 -0.0183,0.244795 -0.329798,0.379499 -0.406953,0.225595 -0.97456,0.201461 -1.232075,0.665681 -0.449746,0.190386 -0.522886,0.711805 -0.970727,0.939417 -0.253455,0.136635 -0.390308,0.386973 -0.136898,0.541254 -0.242245,0.172884 -0.318909,0.579321 0.0809,0.367057 0.763034,-0.326716 1.402012,-1.122873 2.296142,-0.970524 0.417392,-0.33673 0.909553,-0.276029 1.400086,-0.19286 0.504263,-0.121769 1.026851,-0.226935 1.356529,-0.647017 0.589154,-0.261558 1.068208,-0.68161 1.468535,-1.175827 0.357946,-0.289831 0.684818,-0.65658 1.101397,-0.796328 -0.254153,-0.07376 -0.72263,-0.166889 -0.329799,-0.416827 -0.03768,-0.258254 -0.468261,-0.425524 -0.721822,-0.398164 -0.256445,0.122253 -0.362784,-0.151873 -0.603592,-0.130648 z m 7.299117,1.337582 c -0.222145,0.01821 -0.0035,0.271252 -0.06222,0.348392 -0.162362,0.05668 -0.102467,0.239062 -0.16801,0.360836 -0.0203,0.181284 0.189749,0.252524 0.124454,0.410607 0.13644,0.05812 0.08488,0.249259 0.136896,0.3795 0.164219,0.179149 0.489462,0.177135 0.734266,0.223966 0.153655,0.01971 0.325308,-0.08648 0.18668,-0.205303 -0.320743,-0.01762 -0.604128,-0.168079 -0.690709,-0.423049 -0.107526,-0.166212 -0.05077,-0.403284 -0.124452,-0.584803 -0.06099,-0.20488 0.20591,-0.36225 -0.02489,-0.472819 -0.02244,-0.03358 -0.07543,-0.01805 -0.112005,-0.03733 z m -3.727343,0.09954 c -0.310469,0.05548 -0.761821,0.102481 -0.435581,0.510148 -0.0702,0.495826 0.33212,0.478839 0.404467,0.07465 0.13741,-0.613334 0.272958,0.338893 0.466697,-0.056 0.03124,-0.169867 -0.393635,-0.327449 -0.248905,-0.3795 0.511839,-0.02068 0.274443,-0.191846 -0.105784,-0.124426 l -0.0809,-0.02488 z m -5.998591,2.9489 c -0.418954,-3.8e-4 0.149323,0.45391 -0.248904,0.373278 -0.173724,0.06567 0.191687,0.287795 -0.149343,0.304845 0.105701,0.05953 0.378523,0.498886 0.672042,0.242631 0.366992,-0.06702 0.920743,-0.233292 0.665819,-0.709229 -0.272828,0.05201 -0.468578,-0.05507 -0.74049,0.06221 -0.195343,-0.02838 0.06113,-0.260096 -0.199124,-0.273738 z m -7.218222,1.642426 c -0.34137,0.249687 -0.933565,0.436098 -0.83383,0.945639 0.147916,0.124523 0.02882,0.718087 0.242682,0.342172 -0.03083,-0.289118 0.111308,-0.528079 0.317353,-0.634573 -0.126435,-0.347726 0.158829,-0.373725 0.273795,-0.653238 z m 8.972997,1.418458 c -0.327154,-0.01168 -0.428586,0.278932 -0.690709,0.385722 0.08585,0.182994 -0.153761,0.232469 -0.04978,0.42927 -0.217956,0.115083 0.25564,0.22883 0.04356,0.472819 0.248929,0.05569 0.385943,0.2186 0.304909,0.528812 -0.101486,0.237256 -0.481701,0.06666 -0.323576,0.485262 -0.376607,0.08006 -0.384348,0.211586 -0.0062,0.236409 0.284069,0.233354 -0.26104,0.09762 -0.367134,0.292402 -0.479631,0.300654 0.344564,0.206593 0.584925,0.186639 0.381848,-0.10565 0.851429,0.109618 1.014285,-0.317286 0.242612,-0.279134 0.02804,-0.452634 -0.180456,-0.597246 -0.03112,-0.37497 -0.319929,-0.575467 -0.323575,-0.976745 -0.438797,-0.205373 0.196959,-0.444707 0.236459,-0.678123 -0.132647,-0.0891 -0.650193,0.02457 -0.323576,-0.223967 0.125447,-0.02494 0.242739,-0.145516 0.0809,-0.223968 z m -1.269411,1.070066 c -0.01798,0.0019 -0.03658,0.0068 -0.056,0.01244 -0.276358,0.128991 -0.135234,0.542847 -0.435582,0.261295 -0.255718,0.145309 5.32e-4,0.461362 -0.236459,0.653237 -0.385456,0.117397 -0.10215,0.572845 0.199123,0.255074 0.412168,0.0051 0.663697,-0.336595 0.653374,-0.709229 0.246615,-0.123169 0.145297,-0.500824 -0.124452,-0.47282 z m 14.884472,2.239671 c 0.05211,0.0023 0.09825,0.01736 0.136897,0.04977 -0.0031,0.29913 -0.291884,0.521949 -0.124453,0.796328 0.180294,0.125393 0.437096,0.159917 0.62226,0.348394 0.04107,0.157643 0.201711,0.272903 0.248906,0.447934 0.188407,0.06743 0.0386,-0.345377 0.199123,-0.186639 0.139062,0.07489 0.402497,0.128681 0.36091,0.33595 -0.137581,0.07486 -0.343908,0.194732 -0.174231,0.348394 0.182556,0.06536 0.267473,0.262001 0.398247,0.398163 0.07319,0.263737 0.20252,0.520093 0.199123,0.796327 -0.170036,0.146961 -0.327726,0.363083 -0.584926,0.273738 -0.05844,-0.02081 -0.130162,-0.03761 -0.199123,-0.04355 -0.01323,-0.04075 -0.02147,-0.07234 -0.03733,-0.118204 -0.354725,0.08337 -0.590474,-0.06901 -0.535145,-0.447935 -0.05993,-0.313185 0.16914,-0.827652 -0.317354,-0.846098 -0.482482,-0.367847 -1.124658,-0.91408 -0.902277,-1.605098 0.0875,-0.160788 0.191307,-0.34512 0.230237,-0.528811 0.139307,0.05505 0.329349,-0.0252 0.479141,-0.01866 z m -11.549156,3.160425 c -0.02982,0.0021 -0.03135,0.04356 -0.01866,0.05599 -0.204429,0.301395 0.323801,0.549043 0.199124,0.08088 0.02981,-0.114157 -0.08791,-0.116437 -0.155565,-0.130647 -0.01122,-0.0054 -0.01743,-0.0068 -0.02489,-0.0062 z m 0,0.696787 c -0.238534,0.06487 -0.262521,0.822 -0.02489,0.821212 0.304206,-0.08836 0.299058,-0.712368 0.02489,-0.821212 z m 8.19517,1.71708 c -0.188619,0.0402 -0.813306,0.389285 -0.317351,0.391942 0.277386,0.01247 0.230583,-0.252016 0.317351,-0.391942 z m -3.260644,0.404384 c -0.414734,0.172708 0.653741,0.52325 0.696932,0.09332 -0.221439,-0.06452 -0.488215,0.02058 -0.696932,-0.09332 z m -21.953352,2.102804 c 0.258271,3.394009 1.430416,6.754566 3.385097,9.524824 0.284133,-0.424898 0.323123,-0.944174 0.03733,-1.356246 -0.14326,-0.535843 -0.761632,-0.776603 -0.964504,-1.312696 -0.310877,-0.442956 -0.59838,-0.893545 -0.864943,-1.362468 -0.295501,-0.605555 -0.429875,-1.23029 -0.721823,-1.835285 -0.347208,-0.642325 -0.327649,-1.422125 -0.429359,-2.146351 -0.207893,-0.484945 -0.09407,-1.074404 -0.441804,-1.511778 z m 31.032133,12.218649 c -0.745131,0.277632 -1.222809,0.950335 -1.866783,1.399795 0.01794,0.41797 -0.08883,0.716927 -0.448027,0.933195 -0.364681,0.388029 0.208252,0.396845 0.429362,0.143091 0.526839,-0.364654 0.72544,-1.069554 1.38764,-1.269147 0.193957,-0.389954 0.35715,-0.795395 0.497808,-1.206934 z"
       id="path5779-1"
       inkscape:connector-curvature="0" />
    <path
       sodipodi:type="arc"
       style="color:#000000;fill:none;stroke:url(#linearGradient5552);stroke-width:5.06046343px;stroke-linecap:butt;stroke-linejoin:miter;stroke-miterlimit:4;stroke-opacity:1;stroke-dasharray:none;stroke-dashoffset:0;marker:none;visibility:visible;display:inline;overflow:visible;enable-background:accumulate"
       id="path5865-2"
       sodipodi:cx="199.5"
       sodipodi:cy="113.5"
       sodipodi:rx="98"
       sodipodi:ry="98"
       d="m 297.5,113.5 a 98,98 0 1 1 -196,0 98,98 0 1 1 196,0 z"
       transform="matrix(0.19763096,0,0,0.19758977,-7.3040736,6.6000727)" />
  </g>
  <g
     inkscape:groupmode="layer"
     id="layer12"
     inkscape:label="globe shine"
     style="display:inline">
    <path
       inkscape:connector-curvature="0"
       id="path5958-4"
       d="M 32.132781,9.6621392 C 31.003164,9.6652892 29.855412,9.7670129 28.704127,9.9732046 19.023596,11.706957 12.32798,20.354561 12.78048,29.91872 32.008549,37.930423 34.905583,24.600413 50.539248,23.006847 47.982886,14.993262 40.493406,9.6388075 32.132781,9.6621392 z"
       style="fill:url(#linearGradient5548);fill-opacity:1;stroke:url(#linearGradient5550);stroke-width:1.49999988;stroke-linecap:butt;stroke-linejoin:miter;stroke-miterlimit:4;stroke-opacity:1;stroke-dasharray:none;display:inline;enable-background:new"
       sodipodi:nodetypes="ssccs" />
  </g>
  <g
     inkscape:groupmode="layer"
     id="layer6"
     inkscape:label="front"
     style="display:none">
    <path
       style="fill:url(#radialGradient5133);fill-opacity:1;stroke:url(#radialGradient5135);stroke-width:1px;stroke-linecap:butt;stroke-linejoin:miter;stroke-opacity:1;display:inline"
       d="M 2.8123976,54.795733 C 3.9737049,44.705985 5.7500128,35.026426 9.8493846,26.895969 10.244959,24.338259 11.991092,23.114186 13.402366,23.014781 L 27.151162,21.80066 c 1.176762,0.0618 2.700047,0.45921 2.391232,2.824187 l -0.92923,3.117478 32.351127,-2.544827 c 2.83682,-0.337495 2.705376,2.93438 2.338648,4.337151 -4.626196,7.799876 -5.044384,14.021424 -5.858552,20.391504 z"
       id="path4478"
       inkscape:connector-curvature="0"
       sodipodi:nodetypes="cccccccccc" />
  </g>
  <g
     inkscape:groupmode="layer"
     id="layer7"
     inkscape:label="shine"
     style="display:none">
    <path
       style="fill:url(#linearGradient5164);fill-opacity:1;stroke:url(#linearGradient5162);stroke-width:1.5;stroke-linecap:butt;stroke-linejoin:miter;stroke-miterlimit:4;stroke-opacity:1;stroke-dasharray:none;display:inline"
       d="m 27.135022,21.801686 -13.744155,1.211137 c -1.411275,0.09941 -3.138637,1.337566 -3.5342108,3.895276 -2.0303714,4.02692 -3.4832293,8.412068 -4.5813849,13.060633 25.1142297,6.383903 30.5837627,-11.057775 57.2018637,-9.001689 0.257385,-0.475584 0.528967,-0.952778 0.818104,-1.440271 0.366728,-1.40277 0.513403,-4.658305 -2.323417,-4.32081 L 28.60761,27.726435 29.556611,24.61676 c 0.308815,-2.364976 -1.244827,-2.753273 -2.421589,-2.815074 z"
       id="path5138"
       inkscape:connector-curvature="0" />
  </g>
</svg>
