<?xml version="1.0" encoding="UTF-8" standalone="no"?>
<!-- Created with Inkscape (http://www.inkscape.org/) -->

<svg
   xmlns:dc="http://purl.org/dc/elements/1.1/"
   xmlns:cc="http://creativecommons.org/ns#"
   xmlns:rdf="http://www.w3.org/1999/02/22-rdf-syntax-ns#"
   xmlns:svg="http://www.w3.org/2000/svg"
   xmlns="http://www.w3.org/2000/svg"
   xmlns:xlink="http://www.w3.org/1999/xlink"
   xmlns:sodipodi="http://sodipodi.sourceforge.net/DTD/sodipodi-0.dtd"
   xmlns:inkscape="http://www.inkscape.org/namespaces/inkscape"
   width="16"
   height="16"
   id="svg2"
   inkscape:label="Pozadí"
   version="1.1"
   inkscape:version="0.48.0 r9654"
   sodipodi:docname="open-16.svg"
   inkscape:export-filename="/home/mosra/C++/kompas/artwork/icons/export/open-online-16.png"
   inkscape:export-xdpi="90"
   inkscape:export-ydpi="90"
   style="display:inline">
  <defs
     id="defs4470">
    <linearGradient
       id="linearGradient4443">
      <stop
         id="stop4445"
         offset="0"
         style="stop-color:#ffffff;stop-opacity:1;" />
      <stop
         style="stop-color:#ffffff;stop-opacity:1;"
         offset="0.49999994"
         id="stop4447" />
      <stop
         id="stop4449"
         offset="1"
         style="stop-color:#bfc6f4;stop-opacity:1;" />
    </linearGradient>
    <linearGradient
       id="linearGradient4325">
      <stop
         id="stop4327"
         offset="0"
         style="stop-color:#ffffff;stop-opacity:0;" />
      <stop
         style="stop-color:#ffffff;stop-opacity:1;"
         offset="0.5"
         id="stop4329" />
      <stop
         id="stop4331"
         offset="1"
         style="stop-color:#ffffff;stop-opacity:0;" />
    </linearGradient>
    <linearGradient
       id="linearGradient5151">
      <stop
         style="stop-color:#ffffff;stop-opacity:1;"
         offset="0"
         id="stop5153" />
      <stop
         style="stop-color:#ffffff;stop-opacity:0;"
         offset="1"
         id="stop5155" />
    </linearGradient>
    <linearGradient
       id="linearGradient5141">
      <stop
         style="stop-color:#ffffff;stop-opacity:0;"
         offset="0"
         id="stop5143" />
      <stop
         id="stop5149"
         offset="0.5"
         style="stop-color:#ffffff;stop-opacity:1;" />
      <stop
         style="stop-color:#ffffff;stop-opacity:0;"
         offset="1"
         id="stop5145" />
    </linearGradient>
    <linearGradient
       id="linearGradient5073">
      <stop
         id="stop5087"
         offset="0"
         style="stop-color:#834600;stop-opacity:0.973822;" />
      <stop
         style="stop-color:#b8a200;stop-opacity:0.79057592;"
         offset="1"
         id="stop5077" />
    </linearGradient>
    <linearGradient
       id="linearGradient5055">
      <stop
         id="stop5057"
         offset="0"
         style="stop-color:#feff04;stop-opacity:0.42931938;" />
      <stop
         style="stop-color:#f8d302;stop-opacity:0.37696335;"
         offset="0.5"
         id="stop5059" />
      <stop
         id="stop5061"
         offset="1"
         style="stop-color:#c38d00;stop-opacity:0.46596858;" />
    </linearGradient>
    <linearGradient
       id="linearGradient5047">
      <stop
         style="stop-color:#2c3f5c;stop-opacity:1;"
         offset="0"
         id="stop5049" />
      <stop
         style="stop-color:#dce1fd;stop-opacity:1;"
         offset="1"
         id="stop5051" />
    </linearGradient>
    <linearGradient
       id="linearGradient5039">
      <stop
         style="stop-color:#000000;stop-opacity:1;"
         offset="0"
         id="stop5041" />
      <stop
         style="stop-color:#7b4610;stop-opacity:1;"
         offset="1"
         id="stop5043" />
    </linearGradient>
    <linearGradient
       id="linearGradient5029">
      <stop
         style="stop-color:#ffffff;stop-opacity:1;"
         offset="0"
         id="stop5031" />
      <stop
         id="stop5037"
         offset="0.5"
         style="stop-color:#ffffff;stop-opacity:1;" />
      <stop
         style="stop-color:#bfc6f4;stop-opacity:1;"
         offset="1"
         id="stop5033" />
    </linearGradient>
    <linearGradient
       id="linearGradient4992">
      <stop
         style="stop-color:#feff04;stop-opacity:1;"
         offset="0"
         id="stop4994" />
      <stop
         id="stop5000"
         offset="0.5"
         style="stop-color:#f8d302;stop-opacity:1;" />
      <stop
         style="stop-color:#c38d00;stop-opacity:1;"
         offset="1"
         id="stop4996" />
    </linearGradient>
    <radialGradient
       inkscape:collect="always"
       xlink:href="#linearGradient5029"
       id="radialGradient5035"
       cx="31.559399"
       cy="1058.0259"
       fx="31.559399"
       fy="1058.0259"
       r="21.801592"
       gradientTransform="matrix(0.3098096,0.03652605,-0.04811517,0.40810711,49.072208,-377.71473)"
       gradientUnits="userSpaceOnUse" />
    <linearGradient
       inkscape:collect="always"
       xlink:href="#linearGradient5047"
       id="linearGradient5053"
       x1="56.745796"
       y1="1039.7496"
       x2="10.642634"
       y2="1007.2629"
       gradientUnits="userSpaceOnUse"
       gradientTransform="matrix(0.29773865,0.03510291,-0.03514801,0.29812121,34.296473,-249.54775)" />
    <radialGradient
       inkscape:collect="always"
       xlink:href="#linearGradient5029"
       id="radialGradient5104"
       cx="34.869743"
       cy="1002.6902"
       fx="34.869743"
       fy="1002.6902"
       r="7.0300145"
       gradientTransform="matrix(0.29773861,0.0351029,-0.02042619,0.17325253,20.017893,-123.9122)"
       gradientUnits="userSpaceOnUse" />
    <linearGradient
       inkscape:collect="always"
       xlink:href="#linearGradient5047"
       id="linearGradient5126"
       gradientUnits="userSpaceOnUse"
       gradientTransform="matrix(0.29773865,0.03510291,-0.03514801,0.29812121,34.296473,-249.54775)"
       x1="56.902489"
       y1="1028.069"
       x2="16.927494"
       y2="998.16266" />
    <linearGradient
       id="linearGradient3895">
      <stop
         style="stop-color:#ffffff;stop-opacity:1;"
         offset="0"
         id="stop3897" />
      <stop
         style="stop-color:#ffffff;stop-opacity:0;"
         offset="1"
         id="stop3899" />
    </linearGradient>
    <linearGradient
       id="linearGradient3903">
      <stop
         style="stop-color:#ffffff;stop-opacity:0;"
         offset="0"
         id="stop3905" />
      <stop
         id="stop3912"
         offset="0.5"
         style="stop-color:#ffffff;stop-opacity:1;" />
      <stop
         style="stop-color:#ffffff;stop-opacity:0;"
         offset="1"
         id="stop3907" />
    </linearGradient>
    <radialGradient
       inkscape:collect="always"
       xlink:href="#linearGradient3877"
       id="radialGradient5836"
       gradientUnits="userSpaceOnUse"
       gradientTransform="matrix(0.19919926,0,0,0.163472,12.368687,12.261963)"
       cx="92.093979"
       cy="99.315521"
       fx="92.093979"
       fy="99.315521"
       r="121.44665" />
    <linearGradient
       id="linearGradient3877">
      <stop
         id="stop3879"
         offset="0"
         style="stop-color:#fff2da;stop-opacity:1;" />
      <stop
         style="stop-color:#f4db9a;stop-opacity:1;"
         offset="0.51111114"
         id="stop3881" />
      <stop
         id="stop3883"
         offset="1"
         style="stop-color:#d39833;stop-opacity:1;" />
    </linearGradient>
    <linearGradient
       id="linearGradient3847">
      <stop
         style="stop-color:#afceff;stop-opacity:1;"
         offset="0"
         id="stop3849" />
      <stop
         id="stop3855"
         offset="0.50683612"
         style="stop-color:#508eee;stop-opacity:1;" />
      <stop
         style="stop-color:#001b45;stop-opacity:1;"
         offset="1"
         id="stop3851" />
    </linearGradient>
    <radialGradient
       r="96.430199"
       fy="87.145508"
       fx="84.828728"
       cy="87.145508"
       cx="84.828728"
       gradientTransform="matrix(0.19919483,-0.00132639,0.00147553,0.22157254,12.234781,6.5016326)"
       gradientUnits="userSpaceOnUse"
       id="radialGradient5996"
       xlink:href="#linearGradient3847"
       inkscape:collect="always" />
    <linearGradient
       inkscape:collect="always"
       xlink:href="#linearGradient3895"
       id="linearGradient6070"
       gradientUnits="userSpaceOnUse"
       gradientTransform="matrix(0.19919928,0,0,0.19919081,12.368688,8.4440634)"
       x1="77.155663"
       y1="-29.950439"
       x2="77.016068"
       y2="164.04956" />
    <linearGradient
       inkscape:collect="always"
       xlink:href="#linearGradient3903"
       id="linearGradient6072"
       gradientUnits="userSpaceOnUse"
       gradientTransform="matrix(0.19919928,0,0,0.19919081,12.368688,8.4440634)"
       x1="7.1726875"
       y1="120.48396"
       x2="197.90625"
       y2="120.48396" />
    <linearGradient
       inkscape:collect="always"
       xlink:href="#linearGradient3895"
       id="linearGradient3867"
       gradientUnits="userSpaceOnUse"
       gradientTransform="matrix(0.19663206,0,0,0.19662056,11.837453,9.1526677)"
       x1="77.155663"
       y1="-29.950439"
       x2="77.016068"
       y2="164.04956" />
    <linearGradient
       inkscape:collect="always"
       xlink:href="#linearGradient3903"
       id="linearGradient3869"
       gradientUnits="userSpaceOnUse"
       gradientTransform="matrix(0.19663206,0,0,0.19662056,11.837453,9.1526677)"
       x1="7.1726875"
       y1="120.48396"
       x2="197.90625"
       y2="120.48396" />
    <radialGradient
       inkscape:collect="always"
       xlink:href="#linearGradient3877"
       id="radialGradient3871"
       gradientUnits="userSpaceOnUse"
       gradientTransform="matrix(0.19663206,0,0,0.16136265,11.453825,12.921301)"
       cx="92.093979"
       cy="99.315521"
       fx="92.093979"
       fy="99.315521"
       r="121.44665" />
    <radialGradient
       inkscape:collect="always"
       xlink:href="#linearGradient3847"
       id="radialGradient3873"
       gradientUnits="userSpaceOnUse"
       gradientTransform="matrix(0.19662768,-0.00130927,0.00145652,0.2187135,11.23638,7.2352997)"
       cx="84.828728"
       cy="87.145508"
       fx="84.828728"
       fy="87.145508"
       r="96.430199" />
    <radialGradient
       inkscape:collect="always"
       xlink:href="#linearGradient5029-5"
       id="radialGradient5035-3"
       cx="53.633747"
       cy="1085.0485"
       fx="53.633747"
       fy="1085.0485"
       r="21.801592"
       gradientTransform="matrix(0.19740413,0,0,0.09488841,1.6779096,-42.626379)"
       gradientUnits="userSpaceOnUse" />
    <linearGradient
       inkscape:collect="always"
       xlink:href="#linearGradient5047-9"
       id="linearGradient5053-7"
       x1="45.827179"
       y1="1058.4724"
       x2="38.418587"
       y2="1034.3531"
       gradientUnits="userSpaceOnUse"
       gradientTransform="matrix(0.26179343,0,0,0.26186733,-1.2805064,-213.10304)" />
    <radialGradient
       inkscape:collect="always"
       xlink:href="#linearGradient5029-5"
       id="radialGradient5035-1"
       cx="9.3694954"
       cy="1090.8694"
       fx="9.3694897"
       fy="1090.8694"
       r="21.801592"
       gradientTransform="matrix(0.21940777,0,0,0.13113152,0.31319963,-82.3585)"
       gradientUnits="userSpaceOnUse" />
    <linearGradient
       id="linearGradient5029-5">
      <stop
         id="stop4011"
         offset="0"
         style="stop-color:#ffffff;stop-opacity:1;" />
      <stop
         style="stop-color:#cfd5ff;stop-opacity:1;"
         offset="1"
         id="stop5033-3" />
    </linearGradient>
    <linearGradient
       inkscape:collect="always"
       xlink:href="#linearGradient5047-9"
       id="linearGradient5053-3"
       x1="19.902626"
       y1="1057.8196"
       x2="28.906551"
       y2="1033.6752"
       gradientUnits="userSpaceOnUse"
       gradientTransform="matrix(0.26179343,0,0,0.26186733,-1.8430064,-213.35304)" />
    <linearGradient
       id="linearGradient5047-9">
      <stop
         style="stop-color:#1f2d41;stop-opacity:1;"
         offset="0"
         id="stop5049-7" />
      <stop
         style="stop-color:#ebeefe;stop-opacity:1;"
         offset="1"
         id="stop5051-5" />
    </linearGradient>
    <radialGradient
       inkscape:collect="always"
       xlink:href="#linearGradient5029-5"
       id="radialGradient5035-6"
       cx="24.940817"
       cy="1070.1376"
       fx="24.940817"
       fy="1070.1376"
       r="21.801592"
       gradientTransform="matrix(0.18524145,0,0,0.13784608,1.1030056,-89.41912)"
       gradientUnits="userSpaceOnUse" />
    <linearGradient
       inkscape:collect="always"
       xlink:href="#linearGradient5047-9"
       id="linearGradient5053-37"
       x1="-3.0168984"
       y1="1047.0133"
       x2="20.239372"
       y2="1028.8501"
       gradientUnits="userSpaceOnUse"
       gradientTransform="matrix(0.26179343,0,0,0.26186733,-0.78050637,-213.22804)" />
    <radialGradient
       inkscape:collect="always"
       xlink:href="#linearGradient5029-5"
       id="radialGradient5035-0"
       cx="55.090885"
       cy="1076.4939"
       fx="55.090885"
       fy="1076.4939"
       r="21.801592"
       gradientTransform="matrix(0.1121984,-4.3796677e-8,2.8161203e-8,0.07213918,7.8797386,-17.849455)"
       gradientUnits="userSpaceOnUse" />
    <linearGradient
       inkscape:collect="always"
       xlink:href="#linearGradient5047"
       id="linearGradient5053-72"
       x1="62.654076"
       y1="1049.3599"
       x2="54.691784"
       y2="1044.8688"
       gradientUnits="userSpaceOnUse"
       gradientTransform="matrix(0.26179343,0,0,0.26186733,-1.2805064,-213.10304)" />
    <radialGradient
       inkscape:collect="always"
       xlink:href="#linearGradient3877"
       id="radialGradient4062"
       gradientUnits="userSpaceOnUse"
       gradientTransform="matrix(0.19663206,0,0,0.16136265,11.453825,12.921301)"
       cx="92.093979"
       cy="99.315521"
       fx="92.093979"
       fy="99.315521"
       r="121.44665" />
    <radialGradient
       inkscape:collect="always"
       xlink:href="#linearGradient3847"
       id="radialGradient4064"
       gradientUnits="userSpaceOnUse"
       gradientTransform="matrix(0.19662768,-0.00130927,0.00145652,0.2187135,11.23638,7.2352997)"
       cx="84.828728"
       cy="87.145508"
       fx="84.828728"
       fy="87.145508"
       r="96.430199" />
    <radialGradient
       inkscape:collect="always"
       xlink:href="#linearGradient5029-5"
       id="radialGradient4072"
       gradientUnits="userSpaceOnUse"
       gradientTransform="matrix(0.22087769,8.575684e-8,-5.440857e-8,0.14931223,4.2202966,-102.4897)"
       cx="30.088982"
       cy="1078.7797"
       fx="30.088978"
       fy="1078.7797"
       r="21.801592" />
    <linearGradient
       inkscape:collect="always"
       xlink:href="#linearGradient5047-9"
       id="linearGradient4074"
       gradientUnits="userSpaceOnUse"
       gradientTransform="matrix(0.26179343,0,0,0.26186733,2.6257436,-213.79054)"
       x1="53.944099"
       y1="1048.4365"
       x2="35.590004"
       y2="1032.2432" />
    <filter
       inkscape:collect="always"
       id="filter4100"
       x="-0.14374839"
       width="1.2874968"
       y="-0.57499349"
       height="2.149987"
       color-interpolation-filters="sRGB">
      <feGaussianBlur
         inkscape:collect="always"
         stdDeviation="1.5246817"
         id="feGaussianBlur4102" />
    </filter>
    <filter
       inkscape:collect="always"
       id="filter4115"
       x="-0.14857531"
       width="1.2971506"
       y="-0.22828351"
       height="1.456567"
       color-interpolation-filters="sRGB">
      <feGaussianBlur
         inkscape:collect="always"
         stdDeviation="0.50340585"
         id="feGaussianBlur4117" />
    </filter>
    <linearGradient
       inkscape:collect="always"
       xlink:href="#linearGradient3895-5"
       id="linearGradient5251"
       gradientUnits="userSpaceOnUse"
       gradientTransform="matrix(1.0463028,0,0,1.0463028,-5.9246311,-5.1399038)"
       x1="77.155663"
       y1="-29.950439"
       x2="77.016068"
       y2="164.04956" />
    <linearGradient
       id="linearGradient3895-5">
      <stop
         style="stop-color:#ffffff;stop-opacity:1;"
         offset="0"
         id="stop3897-4" />
      <stop
         style="stop-color:#ffffff;stop-opacity:0;"
         offset="1"
         id="stop3899-2" />
    </linearGradient>
    <linearGradient
       inkscape:collect="always"
       xlink:href="#linearGradient3903-9"
       id="linearGradient5253"
       gradientUnits="userSpaceOnUse"
       gradientTransform="matrix(1.0463028,0,0,1.0463028,-5.9246311,-5.1399038)"
       x1="7.1726875"
       y1="120.48396"
       x2="197.90625"
       y2="120.48396" />
    <linearGradient
       id="linearGradient3903-9">
      <stop
         style="stop-color:#ffffff;stop-opacity:0;"
         offset="0"
         id="stop3905-8" />
      <stop
         id="stop3912-3"
         offset="0.5"
         style="stop-color:#ffffff;stop-opacity:1;" />
      <stop
         style="stop-color:#ffffff;stop-opacity:0;"
         offset="1"
         id="stop3907-1" />
    </linearGradient>
    <linearGradient
       inkscape:collect="always"
       xlink:href="#linearGradient5194"
       id="linearGradient5216-8"
       x1="100.31952"
       y1="16.614422"
       x2="296.82278"
       y2="210.21353"
       gradientUnits="userSpaceOnUse" />
    <linearGradient
       id="linearGradient5194">
      <stop
         style="stop-color:#1f388c;stop-opacity:1;"
         offset="0"
         id="stop5196" />
      <stop
         style="stop-color:#050620;stop-opacity:1;"
         offset="1"
         id="stop5198" />
    </linearGradient>
    <radialGradient
       inkscape:collect="always"
       xlink:href="#linearGradient3877-6"
       id="radialGradient5836-0"
       gradientUnits="userSpaceOnUse"
       gradientTransform="matrix(0.05942124,0,0,0.04875583,3.4815197,50.075851)"
       cx="92.093979"
       cy="99.315521"
       fx="92.093979"
       fy="99.315521"
       r="121.44665" />
    <linearGradient
       id="linearGradient3877-6">
      <stop
         id="stop3879-4"
         offset="0"
         style="stop-color:#fff2da;stop-opacity:1;" />
      <stop
         style="stop-color:#f4db9a;stop-opacity:1;"
         offset="0.51111114"
         id="stop3881-3" />
      <stop
         id="stop3883-1"
         offset="1"
         style="stop-color:#d39833;stop-opacity:1;" />
    </linearGradient>
    <filter
       color-interpolation-filters="sRGB"
       inkscape:collect="always"
       id="filter5851-4">
      <feGaussianBlur
         inkscape:collect="always"
         stdDeviation="0.96096094"
         id="feGaussianBlur5853-1" />
    </filter>
    <radialGradient
       inkscape:collect="always"
       xlink:href="#linearGradient3847-9"
       id="radialGradient5953"
       gradientUnits="userSpaceOnUse"
       gradientTransform="matrix(1.0462796,-0.00696722,0.00775026,1.1638688,-7.8936829,-5.2079796)"
       cx="84.828728"
       cy="87.145508"
       fx="84.828728"
       fy="87.145508"
       r="96.430199" />
    <linearGradient
       id="linearGradient3847-9">
      <stop
         style="stop-color:#afceff;stop-opacity:1;"
         offset="0"
         id="stop3849-5" />
      <stop
         id="stop3855-0"
         offset="0.50683612"
         style="stop-color:#508eee;stop-opacity:1;" />
      <stop
         style="stop-color:#001b45;stop-opacity:1;"
         offset="1"
         id="stop3851-4" />
    </linearGradient>
    <radialGradient
       r="96.430199"
       fy="87.145508"
       fx="84.828728"
       cy="87.145508"
       cx="84.828728"
       gradientTransform="matrix(0.05941991,-3.9559993e-4,4.4015191e-4,0.06608443,3.4415764,48.357822)"
       gradientUnits="userSpaceOnUse"
       id="radialGradient5479"
       xlink:href="#linearGradient3847-9"
       inkscape:collect="always" />
    <linearGradient
       inkscape:collect="always"
       xlink:href="#linearGradient3895-5"
       id="linearGradient5548"
       gradientUnits="userSpaceOnUse"
       gradientTransform="matrix(0.059341,0,0,0.06018926,3.4416794,48.879593)"
       x1="77.155663"
       y1="-29.950439"
       x2="77.016068"
       y2="164.04956" />
    <linearGradient
       inkscape:collect="always"
       xlink:href="#linearGradient5194"
       id="linearGradient5552"
       gradientUnits="userSpaceOnUse"
       x1="100.31952"
       y1="16.614422"
       x2="296.82278"
       y2="210.21353" />
    <linearGradient
       id="linearGradient4992-1">
      <stop
         style="stop-color:#feff04;stop-opacity:1;"
         offset="0"
         id="stop4994-4" />
      <stop
         id="stop5000-4"
         offset="0.5"
         style="stop-color:#f8d302;stop-opacity:1;" />
      <stop
         style="stop-color:#c38d00;stop-opacity:1;"
         offset="1"
         id="stop4996-3" />
    </linearGradient>
    <linearGradient
       id="linearGradient5039-5">
      <stop
         style="stop-color:#000000;stop-opacity:1;"
         offset="0"
         id="stop5041-1" />
      <stop
         style="stop-color:#7b4610;stop-opacity:1;"
         offset="1"
         id="stop5043-3" />
    </linearGradient>
    <radialGradient
       r="26.451872"
       fy="1014.7673"
       fx="26.231796"
       cy="1014.7673"
       cx="26.231796"
       gradientTransform="matrix(0.26179343,0,0,0.19807094,-0.86909515,-196.85958)"
       gradientUnits="userSpaceOnUse"
       id="radialGradient4164"
       xlink:href="#linearGradient4992-1"
       inkscape:collect="always" />
    <linearGradient
       y2="1002.0306"
       x2="18.736969"
       y1="1045.7303"
       x1="14.538177"
       gradientTransform="matrix(0.26179343,0,0,0.26186733,-0.86909515,-261.89632)"
       gradientUnits="userSpaceOnUse"
       id="linearGradient4166"
       xlink:href="#linearGradient5039-5"
       inkscape:collect="always" />
    <linearGradient
       id="linearGradient5055-4">
      <stop
         id="stop5057-1"
         offset="0"
         style="stop-color:#feff04;stop-opacity:0.42931938;" />
      <stop
         style="stop-color:#f8d302;stop-opacity:0.37696335;"
         offset="0.5"
         id="stop5059-7" />
      <stop
         id="stop5061-1"
         offset="1"
         style="stop-color:#c38d00;stop-opacity:0.46596858;" />
    </linearGradient>
    <linearGradient
       id="linearGradient5073-0">
      <stop
         id="stop5087-8"
         offset="0"
         style="stop-color:#834600;stop-opacity:0.973822;" />
      <stop
         style="stop-color:#b8a200;stop-opacity:0.79057592;"
         offset="1"
         id="stop5077-2" />
    </linearGradient>
    <radialGradient
       r="28.46069"
       fy="1023.4352"
       fx="25.768568"
       cy="1023.4352"
       cx="25.768568"
       gradientTransform="matrix(0.24797319,0,0,0.26354262,-0.491729,-266.54324)"
       gradientUnits="userSpaceOnUse"
       id="radialGradient4218"
       xlink:href="#linearGradient5055-4"
       inkscape:collect="always" />
    <radialGradient
       r="28.46069"
       fy="1030.6902"
       fx="34.634445"
       cy="1030.6902"
       cx="34.634445"
       gradientTransform="matrix(0.3028582,0,0,0.2820955,-2.323475,-284.90877)"
       gradientUnits="userSpaceOnUse"
       id="radialGradient4220"
       xlink:href="#linearGradient5073-0"
       inkscape:collect="always" />
    <radialGradient
       inkscape:collect="always"
       xlink:href="#linearGradient4992-1"
       id="radialGradient4264"
       gradientUnits="userSpaceOnUse"
       gradientTransform="matrix(0.25449888,0,0,0.188639,-0.98233578,-183.68407)"
       cx="52.626858"
       cy="1028.824"
       fx="52.626858"
       fy="1028.824"
       r="26.451872" />
    <linearGradient
       inkscape:collect="always"
       xlink:href="#linearGradient5039-5"
       id="linearGradient4266"
       gradientUnits="userSpaceOnUse"
       gradientTransform="matrix(0.25449888,0,0,0.24939746,-0.98233578,-245.62382)"
       x1="14.538177"
       y1="1045.7303"
       x2="18.736969"
       y2="1002.0306" />
    <linearGradient
       id="linearGradient5151-8">
      <stop
         style="stop-color:#ffffff;stop-opacity:1;"
         offset="0"
         id="stop5153-7" />
      <stop
         style="stop-color:#ffffff;stop-opacity:0;"
         offset="1"
         id="stop5155-4" />
    </linearGradient>
    <linearGradient
       id="linearGradient5141-2">
      <stop
         style="stop-color:#ffffff;stop-opacity:0;"
         offset="0"
         id="stop5143-1" />
      <stop
         id="stop5149-2"
         offset="0.5"
         style="stop-color:#ffffff;stop-opacity:1;" />
      <stop
         style="stop-color:#ffffff;stop-opacity:0;"
         offset="1"
         id="stop5145-1" />
    </linearGradient>
    <linearGradient
       y2="54.085598"
       x2="25.182863"
       y1="5.4720082"
       x1="26.233519"
       gradientTransform="matrix(0.26179343,0,0,0.26186733,-0.95983897,-5.076548)"
       gradientUnits="userSpaceOnUse"
       id="linearGradient4293"
       xlink:href="#linearGradient5151-8"
       inkscape:collect="always" />
    <linearGradient
       y2="37.645367"
       x2="59.831097"
       y1="43.478996"
       x1="7.3184128"
       gradientTransform="matrix(0.26179343,0,0,0.26186733,-0.95983897,-5.076548)"
       gradientUnits="userSpaceOnUse"
       id="linearGradient4295"
       xlink:href="#linearGradient5141-2"
       inkscape:collect="always" />
    <linearGradient
       id="linearGradient5151-9">
      <stop
         style="stop-color:#ffffff;stop-opacity:1;"
         offset="0"
         id="stop5153-9" />
      <stop
         style="stop-color:#ffffff;stop-opacity:0;"
         offset="1"
         id="stop5155-49" />
    </linearGradient>
    <linearGradient
       id="linearGradient5141-5">
      <stop
         style="stop-color:#ffffff;stop-opacity:0;"
         offset="0"
         id="stop5143-11" />
      <stop
         id="stop5149-7"
         offset="0.5"
         style="stop-color:#ffffff;stop-opacity:1;" />
      <stop
         style="stop-color:#ffffff;stop-opacity:0;"
         offset="1"
         id="stop5145-8" />
    </linearGradient>
    <linearGradient
       y2="54.085598"
       x2="25.182863"
       y1="5.4720082"
       x1="26.233519"
       gradientTransform="matrix(0.26179343,0,0,0.26186733,-0.95983897,-5.076548)"
       gradientUnits="userSpaceOnUse"
       id="linearGradient4293-2"
       xlink:href="#linearGradient5151-9"
       inkscape:collect="always" />
    <linearGradient
       y2="37.645367"
       x2="59.831097"
       y1="43.478996"
       x1="7.3184128"
       gradientTransform="matrix(0.26179343,0,0,0.26186733,-0.95983897,-5.076548)"
       gradientUnits="userSpaceOnUse"
       id="linearGradient4295-8"
       xlink:href="#linearGradient5141-5"
       inkscape:collect="always" />
    <linearGradient
       inkscape:collect="always"
       xlink:href="#linearGradient5151-8"
       id="linearGradient4374"
       gradientUnits="userSpaceOnUse"
       gradientTransform="matrix(0.26179343,0,0,0.26186733,-0.47924637,46.540757)"
       x1="26.233519"
       y1="-156.34656"
       x2="25.756042"
       y2="-120.52348" />
    <radialGradient
       inkscape:collect="always"
       xlink:href="#linearGradient5055-4"
       id="radialGradient4376"
       gradientUnits="userSpaceOnUse"
       gradientTransform="matrix(0.24797319,0,0,0.26354262,-0.6281563,-211.7455)"
       cx="25.768568"
       cy="1023.4352"
       fx="25.768568"
       fy="1023.4352"
       r="28.46069" />
    <radialGradient
       inkscape:collect="always"
       xlink:href="#linearGradient5073-0"
       id="radialGradient4378"
       gradientUnits="userSpaceOnUse"
       gradientTransform="matrix(0.3028582,0,0,0.2820955,-2.4599023,-230.11103)"
       cx="34.634445"
       cy="1030.6902"
       fx="34.634445"
       fy="1030.6902"
       r="28.46069" />
    <linearGradient
       inkscape:collect="always"
       xlink:href="#linearGradient5141-5"
       id="linearGradient4386"
       x1="-0.03125"
       y1="9.0620422"
       x2="16.467901"
       y2="9.0620422"
       gradientUnits="userSpaceOnUse" />
    <radialGradient
       inkscape:collect="always"
       xlink:href="#linearGradient4443"
       id="radialGradient5035-12"
       cx="23.909313"
       cy="964.03082"
       fx="23.909313"
       fy="964.03082"
       r="21.801592"
       gradientTransform="matrix(0.31195538,-6.9267268e-8,9.1244558e-8,0.41093335,-3.7313807,-379.16714)"
       gradientUnits="userSpaceOnUse" />
    <linearGradient
       id="linearGradient5029-0">
      <stop
         style="stop-color:#ffffff;stop-opacity:1;"
         offset="0"
         id="stop5031-0" />
      <stop
         id="stop5037-9"
         offset="0.5"
         style="stop-color:#ffffff;stop-opacity:1;" />
      <stop
         style="stop-color:#bfc6f4;stop-opacity:1;"
         offset="1"
         id="stop5033-4" />
    </linearGradient>
    <linearGradient
       inkscape:collect="always"
       xlink:href="#linearGradient5047-4"
       id="linearGradient5053-0"
       x1="53.502739"
       y1="885.75482"
       x2="-16.186317"
       y2="853.26794"
       gradientUnits="userSpaceOnUse"
       gradientTransform="matrix(0.2998008,0,0,0.30018601,-3.3986516,-250.152)" />
    <linearGradient
       id="linearGradient5047-4">
      <stop
         style="stop-color:#2c3f5c;stop-opacity:1;"
         offset="0"
         id="stop5049-5" />
      <stop
         style="stop-color:#dce1fd;stop-opacity:1;"
         offset="1"
         id="stop5051-8" />
    </linearGradient>
    <radialGradient
       r="21.801592"
       fy="1067.92"
       fx="21.925957"
       cy="1067.92"
       cx="21.925957"
       gradientTransform="matrix(0.31195535,0,0,0.41093367,-4.4676074,-428.77705)"
       gradientUnits="userSpaceOnUse"
       id="radialGradient4411"
       xlink:href="#linearGradient5029-0"
       inkscape:collect="always" />
    <linearGradient
       y2="995.48511"
       x2="-18.250074"
       y1="1027.9718"
       x1="51.438972"
       gradientTransform="matrix(0.2998008,0,0,0.30018601,-4.1349669,-299.7616)"
       gradientUnits="userSpaceOnUse"
       id="linearGradient4413"
       xlink:href="#linearGradient5047-4"
       inkscape:collect="always" />
    <radialGradient
       inkscape:collect="always"
       xlink:href="#linearGradient4443"
       id="radialGradient4453"
       gradientUnits="userSpaceOnUse"
       gradientTransform="matrix(0.19505853,-4.2105306e-8,5.5099853e-8,0.25864802,-13.679428,-230.26586)"
       cx="23.909313"
       cy="964.03082"
       fx="23.909313"
       fy="964.03082"
       r="21.801592" />
    <linearGradient
       inkscape:collect="always"
       xlink:href="#linearGradient5047-4"
       id="linearGradient4455"
       gradientUnits="userSpaceOnUse"
       gradientTransform="matrix(0.18745856,0,0,0.18894187,-13.47138,-149.06167)"
       x1="53.502739"
       y1="885.75482"
       x2="-16.186317"
       y2="853.26794" />
    <radialGradient
       inkscape:collect="always"
       xlink:href="#linearGradient5029"
       id="radialGradient4465"
       gradientUnits="userSpaceOnUse"
       gradientTransform="matrix(0.26106314,-0.14739923,0.08577084,0.15191126,-92.144486,-140.21715)"
       cx="34.869743"
       cy="1002.6902"
       fx="34.869743"
       fy="1002.6902"
       r="7.0300145" />
    <linearGradient
       inkscape:collect="always"
       xlink:href="#linearGradient5047"
       id="linearGradient4467"
       gradientUnits="userSpaceOnUse"
       gradientTransform="matrix(0.26106317,-0.14739925,0.14758865,0.26139861,-154.77272,-250.06191)"
       x1="56.902489"
       y1="1028.069"
       x2="-23.758158"
       y2="997.86823" />
  </defs>
  <sodipodi:namedview
     id="base"
     pagecolor="#ffffff"
     bordercolor="#666666"
     borderopacity="1.0"
     inkscape:pageopacity="0.0"
     inkscape:pageshadow="2"
     inkscape:zoom="11.31371"
     inkscape:cx="52.156567"
     inkscape:cy="-7.5578596"
     inkscape:document-units="px"
     inkscape:current-layer="layer10"
     showgrid="false"
     inkscape:window-width="1920"
     inkscape:window-height="1033"
     inkscape:window-x="-2"
     inkscape:window-y="-3"
     inkscape:window-maximized="1"
     inkscape:snap-global="false"
     showborder="true"
     inkscape:showpageshadow="false" />
  <metadata
     id="metadata4473">
    <rdf:RDF>
      <cc:Work
         rdf:about="">
        <dc:format>image/svg+xml</dc:format>
        <dc:type
           rdf:resource="http://purl.org/dc/dcmitype/StillImage" />
        <dc:title></dc:title>
      </cc:Work>
    </rdf:RDF>
  </metadata>
  <g
     inkscape:groupmode="layer"
     id="layer2"
     inkscape:label="paper under"
     style="display:none"
     transform="translate(0,-48)">
    <path
       sodipodi:nodetypes="ccccc"
       inkscape:connector-curvature="0"
       id="path4070"
       d="M 3.8621966,59.430553 9.6178496,61.243787 15.396517,57.53221 9.2995626,55.895752 z"
       style="color:#000000;fill:url(#radialGradient4072);fill-opacity:1;fill-rule:nonzero;stroke:url(#linearGradient4074);stroke-width:1px;stroke-linecap:round;stroke-linejoin:round;stroke-miterlimit:4;stroke-opacity:1;stroke-dasharray:none;stroke-dashoffset:0;marker:none;visibility:visible;display:inline;overflow:visible;enable-background:accumulate" />
    <path
       style="color:#000000;fill:url(#radialGradient5035-6);fill-opacity:1;fill-rule:nonzero;stroke:url(#linearGradient5053-37);stroke-width:1px;stroke-linecap:round;stroke-linejoin:round;stroke-miterlimit:4;stroke-opacity:1;stroke-dasharray:none;stroke-dashoffset:0;marker:none;visibility:visible;display:inline;overflow:visible;enable-background:accumulate"
       d="M 4.5628726,60.452733 12.002672,58.573265 7.9090136,56.238159 0.51310663,58.097189 z"
       id="path3075"
       inkscape:connector-curvature="0"
       sodipodi:nodetypes="ccccc" />
    <path
       style="color:#000000;fill:url(#radialGradient5035-3);fill-opacity:1;fill-rule:nonzero;stroke:url(#linearGradient5053-7);stroke-width:1px;stroke-linecap:round;stroke-linejoin:round;stroke-miterlimit:4;stroke-opacity:1;stroke-dasharray:none;stroke-dashoffset:0;marker:none;visibility:visible;display:inline;overflow:visible;enable-background:accumulate"
       d="m 4.8513366,58.934966 4.596195,3.491339 5.6768944,-1.297327 0.659838,-1.061654 -4.127024,-2.767543 z"
       id="path3073"
       inkscape:connector-curvature="0"
       sodipodi:nodetypes="cccccc" />
    <path
       style="color:#000000;fill:url(#radialGradient5035-1);fill-opacity:1;fill-rule:nonzero;stroke:url(#linearGradient5053-3);stroke-width:1px;stroke-linecap:round;stroke-linejoin:round;stroke-miterlimit:4;stroke-opacity:1;stroke-dasharray:none;stroke-dashoffset:0;marker:none;visibility:visible;display:inline;overflow:visible;enable-background:accumulate"
       d="M 0.14474763,61.238072 6.4749246,62.079034 10.971962,57.174215 4.8308126,56.333252 z"
       id="path3077"
       inkscape:connector-curvature="0"
       sodipodi:nodetypes="ccccc" />
  </g>
  <g
     inkscape:groupmode="layer"
     id="layer15"
     inkscape:label="paper-under-new"
     style="display:none">
    <path
       style="color:#000000;fill:url(#radialGradient5035-12);fill-opacity:1;fill-rule:nonzero;stroke:url(#linearGradient5053-0);stroke-width:1px;stroke-linecap:round;stroke-linejoin:round;stroke-miterlimit:4;stroke-opacity:1;stroke-dashoffset:0;marker:none;visibility:visible;display:inline;overflow:visible;enable-background:accumulate"
       d="m 4.242505,4.9729037 3.9777466,0 c 0.5385634,0 0.9721362,0.446 0.9721362,1 l 0,8.5182133 c 0,0.554 -0.4335728,1 -0.9721362,1 l -6.5410086,0 c -0.5385635,0 -0.97213623,-0.446 -0.97213623,-1 l 0,-7.0156115 z"
       id="rect4389"
       inkscape:connector-curvature="0"
       sodipodi:nodetypes="csssssscc" />
    <rect
       ry="0.62941599"
       rx="0.60785443"
       y="11.51803"
       x="-10.904145"
       height="6.6203318"
       width="5.3056512"
       id="rect4451"
       style="color:#000000;fill:url(#radialGradient4453);fill-opacity:1;fill-rule:nonzero;stroke:url(#linearGradient4455);stroke-width:1.00000215px;stroke-linecap:round;stroke-linejoin:round;stroke-miterlimit:4;stroke-opacity:1;stroke-dasharray:none;stroke-dashoffset:0;marker:none;visibility:visible;display:inline;overflow:visible;enable-background:accumulate"
       transform="matrix(0.29667348,-0.95497898,0.9558492,0.29385763,0,0)" />
  </g>
  <g
     inkscape:groupmode="layer"
     id="layer13"
     inkscape:label="shadow"
     style="display:none"
     transform="translate(0,-48)">
    <path
       sodipodi:type="arc"
       style="opacity:0.78661092;color:#000000;fill:#000000;fill-opacity:1;fill-rule:nonzero;stroke:none;stroke-width:1px;marker:none;visibility:visible;display:inline;overflow:visible;filter:url(#filter4100);enable-background:accumulate"
       id="path4014"
       sodipodi:cx="34.648232"
       sodipodi:cy="53.393398"
       sodipodi:rx="12.727921"
       sodipodi:ry="3.1819804"
       d="m 47.376152,53.393398 c 0,1.75736 -5.698484,3.181981 -12.72792,3.181981 -7.029437,0 -12.727921,-1.424621 -12.727921,-3.181981 0,-1.757359 5.698484,-3.18198 12.727921,-3.18198 7.029436,0 12.72792,1.424621 12.72792,3.18198 z"
       transform="matrix(0.27239195,0,0,0.26717838,-1.5261254,45.429587)" />
    <path
       sodipodi:nodetypes="cccc"
       inkscape:connector-curvature="0"
       id="path4104"
       d="m 62.025648,48.668525 -1.584709,4.440863 c -2.356891,-1.741643 -2.471236,-2.132404 -5.160534,-2.544417 3.661345,-1.364474 4.398353,-1.846427 6.745243,-1.896446 z"
       style="opacity:0.69874477;color:#000000;fill:#000000;fill-opacity:1;fill-rule:nonzero;stroke:none;stroke-width:1px;marker:none;visibility:visible;display:inline;overflow:visible;filter:url(#filter4115);enable-background:accumulate"
       transform="matrix(0.25,0,0,0.25,-0.08822537,47.916883)" />
  </g>
  <g
     inkscape:groupmode="layer"
     id="layer8"
     inkscape:label="paper under corner"
     style="display:none"
     transform="translate(0,-48)">
    <path
       style="color:#000000;fill:url(#radialGradient5035-0);fill-opacity:1;fill-rule:nonzero;stroke:url(#linearGradient5053-72);stroke-width:1px;stroke-linecap:round;stroke-linejoin:round;stroke-miterlimit:4;stroke-opacity:1;stroke-dasharray:none;stroke-dashoffset:0;marker:none;visibility:visible;display:inline;overflow:visible;enable-background:accumulate"
       d="m 15.855687,60.084014 -0.751301,1.06066 c -0.178675,-0.585369 -0.645335,-0.987475 -1.281631,-1.281631 0.922015,-0.07297 1.729979,-0.0775 2.032932,0.220971 z"
       id="path3079"
       inkscape:connector-curvature="0"
       sodipodi:nodetypes="cccc" />
  </g>
  <g
     inkscape:groupmode="layer"
     id="layer10"
     inkscape:label="back-new"
     style="display:inline">
    <path
       style="color:#000000;fill:url(#radialGradient4264);fill-opacity:1;fill-rule:nonzero;stroke:url(#linearGradient4266);stroke-width:0.99999994px;stroke-linecap:butt;stroke-linejoin:miter;stroke-miterlimit:4;stroke-opacity:1;stroke-dashoffset:0;marker:none;visibility:visible;display:inline;overflow:visible;enable-background:accumulate"
       d="m 1.4721362,3.5238095 11.9326968,0 c 0.538563,0 0.972136,0.4247622 0.972136,0.9523809 L 14.376969,14.5 0.5,14.5 0.5,4.4761904 C 0.5,3.9485717 0.93357271,3.5238095 1.4721362,3.5238095 z"
       id="rect4142"
       inkscape:connector-curvature="0"
       sodipodi:nodetypes="sssccss" />
  </g>
  <g
     inkscape:groupmode="layer"
     id="layer3"
     inkscape:label="paper"
     style="display:none"
     transform="translate(0,-48)">
    <path
       style="fill:url(#radialGradient5035);fill-opacity:1;stroke:url(#linearGradient5053);stroke-width:1px;stroke-linecap:round;stroke-linejoin:round;stroke-opacity:1"
       d="m 3.4208597,51.92103 c 1.8004845,-0.911912 3.6637051,-1.839518 4.5856544,-1.843295 l 4.0552959,0.104079 c 0.685661,-0.12813 1.615146,3.150425 3.777909,7.409185 l -7.7043041,4.053176 z"
       id="path4480"
       inkscape:connector-curvature="0"
       sodipodi:nodetypes="cccccc" />
  </g>
  <g
     inkscape:groupmode="layer"
     id="layer5"
     inkscape:label="paper corner"
     style="display:none"
     transform="translate(0,-48)">
    <path
       style="fill:url(#radialGradient5104);fill-opacity:1;stroke:url(#linearGradient5126);stroke-width:1px;stroke-linecap:round;stroke-linejoin:round;stroke-opacity:1"
       d="M 11.989079,50.190769 C 11.199956,50.599748 11.013245,50.65324 10.109228,52.136664 9.8076629,51.150697 9.8687823,50.507398 8.0588063,50.086832"
       id="path4482"
       inkscape:connector-curvature="0"
       sodipodi:nodetypes="ccc" />
  </g>
  <g
     inkscape:groupmode="layer"
     id="layer11"
     inkscape:label="globe"
     style="display:inline"
     transform="translate(0,-48)"
     sodipodi:insensitive="true">
    <path
       style="fill:url(#radialGradient5479);fill-opacity:1;stroke:none;display:inline;enable-background:new"
       d="m 9.7151787,49.280614 c -0.046923,1.59e-4 -0.094024,5.49e-4 -0.1411248,0.0019 -0.052067,0.0012 -0.1042659,0.003 -0.1559811,0.0056 -0.7003971,0.0355 -1.3666174,0.197358 -1.9794693,0.46042 -0.087746,0.03767 -0.1745234,0.07699 -0.2599689,0.118817 -0.031226,0.01528 -0.061939,0.03058 -0.092843,0.04641 -0.011698,0.006 -0.023611,0.01251 -0.035285,0.01856 -0.041694,0.02171 -0.083317,0.04414 -0.1244124,0.06683 -0.069638,0.03846 -0.1382708,0.0776 -0.2061183,0.118817 -0.012963,0.0079 -0.026105,0.01619 -0.038997,0.02414 -0.039665,0.02453 -0.07982,0.04881 -0.1188405,0.07426 -0.025914,0.0169 -0.052366,0.03468 -0.077993,0.05198 -0.02182,0.01473 -0.043389,0.02954 -0.064995,0.04456 -0.016246,0.01134 -0.032157,0.02195 -0.048283,0.03342 -0.013381,0.0095 -0.025711,0.0201 -0.038997,0.02971 -0.037911,0.02744 -0.07606,0.05522 -0.113266,0.08354 -0.029471,0.02244 -0.05825,0.04571 -0.08728,0.0687 -0.00728,0.0058 -0.014992,0.01086 -0.022286,0.01671 -6.863e-4,5.37e-4 -0.00116,0.0013 -0.00191,0.0019 -0.00477,0.0038 -0.010027,0.0073 -0.014849,0.0111 -0.017487,0.0141 -0.034676,0.02841 -0.051996,0.0427 -0.013178,0.01086 -0.025914,0.02242 -0.038997,0.03342 -0.035631,0.02994 -0.070963,0.06021 -0.1058415,0.09097 -0.026165,0.02309 -0.052246,0.04701 -0.077994,0.07055 -0.016807,0.01539 -0.03353,0.03084 -0.050134,0.04641 -0.00477,0.0045 -0.010027,0.0085 -0.014849,0.013 -0.00788,0.0075 -0.016258,0.01475 -0.024136,0.02227 -0.012653,0.01208 -0.024601,0.02494 -0.037135,0.03713 -0.020531,0.01993 -0.04105,0.03918 -0.061282,0.05941 -0.012665,0.01269 -0.024589,0.02619 -0.037135,0.03898 -0.06478,0.06597 -0.1278323,0.133361 -0.1894059,0.202363 -0.025902,0.02903 -0.052676,0.05771 -0.077993,0.08726 -0.012557,0.01468 -0.024733,0.02976 -0.037135,0.04456 -0.00203,0.0024 -0.00358,0.005 -0.00561,0.0074 -0.00847,0.01015 -0.017594,0.01953 -0.025998,0.0297 -0.011459,0.01395 -0.022059,0.02864 -0.033422,0.0427 -0.087304,0.107799 -0.1711918,0.218319 -0.2506834,0.33232 -0.026583,0.03811 -0.052318,0.07632 -0.077993,0.115104 -0.050683,0.07655 -0.099623,0.154884 -0.1466956,0.233923 -0.1416703,0.23788 -0.2663705,0.48612 -0.3732397,0.744469 -0.035475,0.08576 -0.068862,0.172132 -0.1002791,0.259915 -0.014801,0.04137 -0.030689,0.08259 -0.044571,0.124388 -0.00155,0.0048 -0.00215,0.01003 -0.0037,0.01485 -0.00167,0.005 -0.00394,0.0098 -0.00561,0.01485 -0.026439,0.08111 -0.051363,0.164274 -0.074281,0.246918 -0.012486,0.04504 -0.023873,0.09006 -0.035285,0.135527 -0.00883,0.0352 -0.017809,0.07037 -0.025998,0.105818 -0.00466,0.01986 -0.00859,0.03949 -0.012999,0.05941 -0.0011,0.005 -0.00263,0.0099 -0.0037,0.01485 -0.011996,0.0553 -0.023026,0.111201 -0.033422,0.167087 -0.00251,0.01351 -0.00501,0.02729 -0.0074,0.04085 -0.013966,0.0776 -0.026344,0.155474 -0.037135,0.233922 -0.00239,0.01748 -0.00525,0.03445 -0.0074,0.05198 -7.759e-4,0.0062 -0.0011,0.0124 -0.00191,0.01856 -0.00525,0.04208 -0.010504,0.08389 -0.014849,0.126242 -0.00215,0.02153 -0.00358,0.04339 -0.00561,0.06498 -4.476e-4,0.0049 -0.00143,0.0099 -0.00179,0.01485 -0.00191,0.02221 -0.00382,0.04456 -0.00561,0.06683 -2.805e-4,0.0037 2.805e-4,0.0075 0,0.0111 -0.00334,0.04523 -0.00692,0.09 -0.00931,0.135526 -1.134e-4,0.0025 1.134e-4,0.005 0,0.0074 -0.00227,0.0468 -0.00442,0.09401 -0.00561,0.141095 -1.55e-5,6.27e-4 1.43e-5,0.0012 0,0.0019 -3.879e-4,0.01591 2.793e-4,0.03234 0,0.04827 -5.073e-4,0.03265 -0.00191,0.06566 -0.00191,0.09839 -1.2e-6,6.27e-4 0,0.0012 0,0.0019 5.25e-5,0.04693 6.565e-4,0.09399 0.00191,0.141097 5.61e-5,0.0025 -5.73e-5,0.0049 0,0.0074 0.00119,0.04588 0.00322,0.09135 0.00561,0.137384 1.707e-4,0.0037 -1.695e-4,0.0074 0,0.0111 0.00239,0.04486 0.00585,0.09055 0.00931,0.135527 2.805e-4,0.0037 -2.805e-4,0.0074 0,0.0111 0.014801,0.19441 0.040716,0.386967 0.074281,0.575524 2.268e-4,0.0012 -2.28e-4,0.0025 0,0.0037 0.01695,0.09486 0.036048,0.188999 0.05757,0.282193 2.793e-4,0.0013 0.00155,0.0024 0.00179,0.0037 0.010504,0.04525 0.02003,0.08883 0.031572,0.13367 9.55e-4,0.0037 0.00275,0.0074 0.0037,0.0111 0.034938,0.134613 0.074639,0.26854 0.1188405,0.399154 0.00227,0.0068 0.00513,0.01362 0.0074,0.02042 0.015577,0.04546 0.031608,0.09059 0.048283,0.135529 0.013584,0.03661 0.026559,0.07328 0.040847,0.10953 0.00346,0.0087 0.00764,0.01731 0.011101,0.02599 0.013942,0.03487 0.028099,0.06945 0.042709,0.103968 0.00394,0.0094 0.00895,0.01842 0.012999,0.02785 0.014431,0.03361 0.027657,0.06698 0.042709,0.100255 0.00477,0.0105 0.010027,0.02106 0.014861,0.03156 0.039606,0.08619 0.080751,0.172352 0.1244125,0.2562 0.015637,0.03004 0.032133,0.05938 0.048283,0.08912 0.010504,0.01931 0.020889,0.03839 0.031572,0.05756 0.0011,0.0019 0.00263,0.0036 0.0037,0.0056 0.017702,0.03162 0.035571,0.06343 0.053846,0.09468 0.0188,0.03216 0.038161,0.06478 0.057558,0.09654 0.011949,0.01958 0.023121,0.03999 0.035285,0.05941 0.00991,0.01576 0.019671,0.03076 0.02971,0.04641 0.00836,0.01313 0.017499,0.02594 0.025998,0.03899 0.016914,0.0259 0.034688,0.05235 0.051996,0.07797 0.020817,0.03084 0.041754,0.06059 0.063132,0.09097 0.0031,0.0044 0.00621,0.0086 0.00931,0.013 0.0074,0.0105 0.014766,0.0211 0.022286,0.03156 0.008,0.01122 0.016019,0.02227 0.024136,0.03342 0.00573,0.0079 0.010982,0.01629 0.016711,0.02414 0.01362,0.01848 0.027024,0.03739 0.040847,0.0557 0.00418,0.0056 0.00871,0.0111 0.012999,0.01671 0.018144,0.02384 0.037206,0.04701 0.055708,0.07055 0.038973,0.04956 0.07834,0.0985 0.1188405,0.146665 0.018967,0.02257 0.038257,0.04456 0.05757,0.06683 0.01122,0.01291 0.022107,0.02618 0.033422,0.03898 0.019313,0.0219 0.039785,0.04337 0.05942,0.06498 0.013178,0.01448 0.025675,0.03021 0.038997,0.04456 0.029818,0.03213 0.060459,0.06324 0.090993,0.09468 0.020041,0.02065 0.04093,0.04092 0.061282,0.06127 0.012378,0.01235 0.024649,0.02489 0.037135,0.03713 0.032981,0.03238 0.066522,0.06495 0.1002791,0.09654 0.026463,0.02478 0.052915,0.04998 0.079844,0.07426 0.00752,0.0067 0.014778,0.01374 0.022286,0.02042 0.021366,0.01907 0.043342,0.03694 0.064995,0.0557 0.030032,0.02596 0.060447,0.05079 0.090992,0.07612 0.00334,0.0027 0.00585,0.0064 0.00931,0.0093 0.00788,0.0064 0.016281,0.01214 0.024136,0.01856 0.010982,0.009 0.022345,0.01708 0.033422,0.026 0.00824,0.0066 0.015911,0.01388 0.024136,0.02042 0.083043,0.0662 0.1677183,0.131452 0.2543969,0.193079 0.014181,0.01003 0.028433,0.01977 0.042709,0.02971 0.038066,0.02655 0.076406,0.05233 0.1151282,0.07797 0.03846,0.02547 0.077886,0.04969 0.1169902,0.07426 0.024744,0.01555 0.049274,0.03123 0.074281,0.04641 0.014646,0.0088 0.029841,0.01724 0.044571,0.026 0.1186854,0.07065 0.2399741,0.138309 0.3639555,0.200506 0.1245604,0.06249 0.2511644,0.119115 0.3806678,0.172657 0.042625,0.01762 0.085,0.03536 0.1281259,0.05198 0.086815,0.03347 0.1749101,0.06534 0.2636823,0.09468 0.088355,0.0292 0.1772091,0.05669 0.2673958,0.08169 0.034234,0.0094 0.069507,0.01898 0.1039914,0.02785 0.010504,0.0027 0.021056,0.0048 0.031572,0.0074 0.035798,0.009 0.071643,0.01768 0.1077036,0.02599 0.036884,0.0086 0.074305,0.01816 0.1114159,0.026 0.012987,0.0027 0.025974,0.0048 0.038997,0.0074 0.1221684,0.02492 0.2451759,0.04427 0.3695262,0.06126 0.010027,0.0013 0.019624,0.0043 0.02971,0.0056 0.00609,8.06e-4 0.012426,0.0011 0.018573,0.0019 0.00561,7.16e-4 0.011101,0.0012 0.016711,0.0018 0.042685,0.0053 0.085155,0.0105 0.1281271,0.01485 0.026463,0.0027 0.053297,0.0051 0.079844,0.0074 0.022214,0.0019 0.044571,0.0038 0.066845,0.0056 0.0031,2.26e-4 0.00621,-2.27e-4 0.00931,0 0.04586,0.0035 0.091267,0.0069 0.1374126,0.0093 0.00191,1.14e-4 0.0037,-1.13e-4 0.00561,0 0.095457,0.0048 0.1911999,0.0074 0.2878228,0.0074 0.1445265,-5.7e-5 0.290367,-0.0056 0.436373,-0.01671 0.148685,-0.01098 0.294748,-0.02811 0.44009,-0.05012 0.04908,-0.0074 0.09804,-0.01548 0.146697,-0.02414 0.0012,-2.27e-4 0.0025,2.28e-4 0.0037,0 0.07601,-0.01357 0.151591,-0.0299 0.226544,-0.04641 0.06538,-0.01441 0.13045,-0.02796 0.194976,-0.04456 5.96e-4,-1.13e-4 0.0013,1.14e-4 0.0019,0 0.50656,-0.125479 0.952063,-0.305663 1.383401,-0.556959 0.0019,-0.0011 0.0036,-0.0026 0.0056,-0.0037 1.75773,-0.991086 2.945065,-2.873522 2.945065,-5.034916 0,-0.514909 -0.06859,-1.013819 -0.194975,-1.488939 -0.0081,-0.03118 -0.01559,-0.06189 -0.02415,-0.09283 -8.66e-4,-0.003 -9.85e-4,-0.0063 -0.0019,-0.0093 -0.670744,-2.408296 -2.815973,-4.063358 -5.260657,-4.180891 -0.0025,-1.25e-4 -0.005,1.19e-4 -0.0074,0 -0.047109,-0.0021 -0.093799,-0.0045 -0.1411255,-0.0056 -6.27e-4,-1.5e-5 -0.0012,1.6e-5 -0.0018,0 -0.01598,-3.52e-4 -0.032277,2.22e-4 -0.048283,0 -0.033124,-5.57e-4 -0.067024,-0.0019 -0.1002791,-0.0019 z"
       id="path5843-9"
       inkscape:connector-curvature="0" />
    <path
       inkscape:connector-curvature="0"
       id="path5849-5"
       d="m 122,18.21875 c 0.59589,1.246885 3.01803,1.488444 3.40625,2.125 -1.21067,-0.362498 -5.31399,-0.491894 -2.46875,1.09375 1.19095,0.441944 3.09679,2.591393 3.96875,0.59375 -2.40754,-1.252086 0.70601,-0.397136 1.53125,0.15625 1.31934,0.961535 3.29442,0.04248 4.3125,1.03125 -1.29143,0.874477 2.84889,1.369404 0.0625,1.09375 -2.06855,-0.548498 -1.97126,1.393397 0,1.46875 1.5082,0.746812 -0.6221,2.401557 -1.65625,1.09375 -1.46902,-0.796551 -5.3365,0.564905 -3.21875,2.15625 1.76666,0.455584 0.79424,2.807087 2.5625,3.3125 0.6036,0.686813 2.11333,1.212626 1.1875,2.53125 0.11445,0.05223 0.22952,0.103621 0.34375,0.15625 -0.6971,0.230406 -1.32665,0.52661 -1.71875,1.09375 -0.46099,0.549749 -0.51588,1.752857 0.3125,2.1875 0.89639,1.024531 1.74013,1.236843 2.875,2.0625 0.9474,0.815669 2.26598,0.919106 3.125,1.5625 0.58857,0.718362 -0.0779,0.759093 -0.625,0.4375 -1.58796,-0.04995 -2.77741,-0.973274 -4.3125,-0.3125 -0.41112,0.272713 -0.76257,0.556824 0.0625,0.8125 1.05588,0.161809 0.57438,1.477168 -0.375,1.0625 -1.69988,-0.698193 -2.14794,1.099428 -3.34375,1.8125 -0.32106,0.451867 -0.50153,1.245864 -0.90625,1.71875 -0.27459,-0.05008 -0.56416,-6.63e-4 -0.875,0.21875 0.20092,2.105738 -3.34657,2.342152 -2.84375,4.5625 0.9568,1.858319 -2.79596,0.696784 -2.40625,2.125 1.92876,1.026542 -1.70955,0.980124 -2.09375,-0.21875 -0.39149,-1.484985 -1.45564,-1.907522 -2.5625,-2.6875 0.18352,-1.773544 2.65975,0.801063 4,0.21875 2.84585,0.419571 2.21874,-2.937244 0,-3.0625 -2.40652,-0.59464 -5.09395,-0.0122 -6.875,-1.9375 -0.89582,-0.118113 -1.63682,-0.712629 -2.53125,-0.8125 -2.97418,0.604173 -5.30251,2.59712 -7.5625,4.40625 -0.755,1.757945 -2.52677,2.921349 -3.1875,4.78125 -0.385824,1.085908 -1.766891,1.565752 -1.65625,2.625 -1.761092,-0.09667 -2.591129,1.525085 -4.1875,1.6875 -2.411023,0.585996 -0.195814,3.557543 -1.3125,5.0625 -0.01049,1.329295 1.27624,2.955506 2.59375,1.3125 0.914298,-0.801034 2.264953,-1.245135 3.25,-1.40625 0.249955,2.086639 0.340622,5.084733 2.40625,6.0625 1.60468,0.315116 1.88896,-0.639339 2.4375,-1.875 0.60967,-1.591936 0.7136,-3.618541 2.8125,-4 1.22595,-1.708384 -2.41463,-1.679354 -1.9375,-3.71875 0.15568,-2.235766 2.8365,-3.07865 3.28125,-4.8125 0.2799,-1.437745 0.94895,-3.241443 2.90625,-2.5 1.46524,1.420917 -1.22064,2.814632 -1.65625,4.15625 -0.90808,1.316828 -0.1595,3.712513 0.59375,4.84375 2.53269,1.507884 4.88475,-1.742423 7.46875,-1.03125 1.14914,-0.291268 2.22829,0.919199 0.5,1.28125 -1.47414,2.048728 -4.45742,0.443322 -6,2.25 0.82513,1.041254 2.50174,2.73972 0.90625,3.96875 -1.15724,-0.37079 -3.0078,-2.635013 -2.65625,0.1875 -0.0652,1.951142 -0.079,4.573268 -2.375,5.03125 -1.73183,-1.588343 -3.64725,0.256904 -5.46875,0.84375 -1.43167,0.704975 -2.146626,-1.818486 -3.59375,-0.34375 -2.215666,0.408875 -3.698313,-3.149478 -1.21875,-3.875 0.268798,-0.883535 0.341188,-3.601812 -0.96875,-2 -1.708713,0.35309 -1.281868,3.122899 -1.0625,4.5 -0.241209,2.582378 -4.079133,1.118192 -5.125,3.09375 -1.393059,1.122511 -2.583508,2.656678 -4.15625,3.5625 -0.949244,1.524703 -2.997633,2.598079 -4.5625,2.53125 -1.261613,-1.433428 -0.617804,0.457819 -1.3125,1.0625 -1.001163,0.02582 -5.018003,-1.412601 -3.53125,0.65625 2.434703,1.355046 4.242564,4.550353 2.75,7.40625 -0.272645,2.175888 -2.605425,3.178848 -4.34375,1.84375 -2.042609,-0.187532 -4.115066,-0.488452 -5.875,-1.5625 -0.711469,1.149114 -2.612746,0.453883 -1.6875,2.40625 -0.757016,2.15625 -0.918367,5.175336 -2.84375,6.90625 -0.53274,1.16153 1.968727,0.0513 0.90625,1.625 -1.606135,1.74197 0.972023,2.51155 2.4375,1.8125 1.036985,0.58431 0.07157,4.18323 1.96875,2.4375 0.862506,-1.53083 2.73148,0.64554 4.09375,-0.0625 1.458623,0.6015 1.876921,-1.57397 3.1875,-1.84375 0.843937,-1.03514 1.477863,-1.70791 1.46875,-3.125 1.059844,-1.98864 3.293449,-3.517282 5.53125,-3.8125 0.909611,-0.937279 -1.010587,-3.499413 1.34375,-3.15625 1.012861,-1.544589 2.02817,-0.271504 2.78125,0.59375 1.727121,1.019021 2.581338,-1.860056 4.15625,-1.59375 1.451161,-1.700784 3.501166,0.195922 3.75,1.90625 0.595429,2.213203 2.568269,3.292781 4.53125,4.21875 1.83247,1.05837 5.36907,3.16194 3.4375,5.78125 -1.39265,1.20161 -3.91398,0.0135 -5.28125,0.9375 0.658714,1.6473 3.16337,1.02536 4.125,2.5625 0.18816,-1.23952 -0.26507,-2.8666 1.625,-3 0.87895,-1.12477 2.35398,-2.17849 0.96875,-3.53125 -0.17485,-2.58889 2.15175,0.37017 2.96875,-0.34375 -0.80787,-2.06156 -3.58723,-2.26444 -5.0625,-3.9375 -2.99343,0.138253 -2.44045,-3.875774 -4.75,-4.875 -1.110387,-1.298476 0.906417,-4.115809 2.09375,-2.5 -0.68035,1.03178 1.55102,1.126774 1.1875,2.5 1.32657,0.363926 2.22176,1.629709 3.71875,1.65625 1.07767,1.120681 2.35787,2.190584 3.84375,2.65625 1.35433,1.005636 0.57176,2.17778 0.4375,3.5625 0.8898,0.71059 1.77221,1.1102 2.0625,2.34375 1.56619,0.59351 -0.40819,1.57182 0.375,2.625 0.59603,0.73959 1.14318,1.05939 1.71875,1.90625 1.04076,0.61492 1.46262,1.89976 2.03125,0.5 1.0911,1.09979 0.1472,-1.17795 -0.15625,-1.6875 0.76848,-0.2696 0.17504,-1.87439 1.25,-0.6875 1.79441,0.043 -0.0532,-2.66508 -1.40625,-2.28125 -0.61075,-0.58043 0.6467,-1.74681 -0.78125,-2.125 -0.75977,-1.76304 0.92399,-1.76321 1.25,-0.40625 0.62756,-0.49192 0.21828,-2.220703 1.625,-1.78125 1.28522,-1.062071 2.62231,0.35826 3.78125,0.15625 0.51974,-1.071724 3.82379,-1.718424 2.625,-0.0625 -1.35415,-0.15564 -3.44139,0.53106 -3.40625,1.75 1.06536,0.15632 0.62871,1.30657 0.9375,2.0625 0.43528,1.48649 -0.88318,0.53374 -0.90625,1.4375 2.05184,-0.8913 1.37998,2.56185 3.4375,2.34375 0.19166,1.0959 1.95603,-0.90518 1.9375,0.75 1.32787,1.04864 2.10341,-0.46404 2.5,-1.28125 1.76324,-0.77691 2.83912,2.68498 4.5,0.40625 1.31238,-0.15954 1.43489,-1.92151 3,-1.96875 1.49749,0.0512 -0.62064,1.98994 0.65625,2.875 0.65781,2.22495 -0.0389,4.71365 -0.125,6.96875 0.10117,3.24009 -3.9265,2.73904 -6.0625,2.46875 -1.51775,0.89424 -2.84631,2.59213 -4.8125,1.59375 -1.80189,0.19259 -3.41272,-1.45413 -5.03125,-0.1875 -0.52302,-2.51579 -4.23987,0.70357 -4.4375,-2.125 -2.54384,-0.84357 -5.9709,1.70848 -4.125,4.34375 -0.72375,1.49651 -2.6147,1.51232 -3.75,0.40625 -1.37953,-0.96276 -3.02898,-0.84791 -4.53125,-1.0625 -0.75765,-1.35541 -1.27733,-2.83772 -3.125,-2.9375 -1.318188,-1.43011 -3.829346,0.78385 -4.1875,-0.84375 -1.14561,-0.28426 -0.764062,-1.9004 -2.15625,-1.5625 -0.530817,-1.93219 2.639034,-2.17836 1.09375,-4.3125 -1.311693,-0.69962 0.906031,-2.60128 -1.1875,-2.53125 -1.361572,-1.18917 -2.853043,1.51835 -4.5625,0.0312 -1.550816,-1.19682 -3.473809,1.44874 -4.84375,-0.40625 -1.212152,0.0113 -2.465038,0.39681 -3.59375,0.0937 -1.327371,0.79651 -3.208289,0.0925 -4.03125,1.75 -1.176737,-0.22803 -1.969702,0.40569 -2.875,0.9375 -1.028224,-0.38631 -1.850661,2.47447 -2.25,0.21875 0.693735,-2.2806 -3.059479,-0.82836 -3.5625,-2.8125 -1.570646,-0.0129 -0.872251,2.44545 -2.46875,2.78125 -1.434572,1.32807 -3.564095,1.37217 -4.375,3.3125 -1.760257,1.35914 -0.79176,3.88151 -2.5625,5.15625 -0.990354,1.38863 -2.903435,1.64362 -4.5,1.71875 -1.846175,0.006 -1.244468,3.41532 -3.65625,2.34375 -0.554017,1.07567 -0.31385,2.73783 -1.6875,3.46875 -1.360495,1.1422 -1.550184,3.11775 -3.25,3.90625 -0.05271,1.83127 1.46667,3.13368 0.5625,4.78125 1.074488,2.92968 -0.577594,5.79107 -2.125,8.15625 0.958214,1.06798 0.993229,2.55357 0.34375,3.9375 0.669394,1.44672 0.511929,1.05126 1.03125,2.78125 1.198513,3.04986 5.385149,4.2438 5.15625,7.96875 1.486467,1.61162 3.459133,2.95302 4.46875,5 2.086473,0.64369 3.052039,2.60662 5.0625,3.21875 3.426678,-0.48997 6.860093,0.14161 10,1.28125 3.456088,-0.76258 6.984205,-0.43911 10.46875,-0.6875 2.69682,-0.44592 3.044354,2.55297 4.40625,3.8125 2.458844,0.52856 5.557755,-0.30795 7.46875,1.75 2.120728,2.20436 -0.558944,5.30853 -0.78125,7.5625 1.775208,2.44836 4.901782,3.28661 6.78125,5.5625 0.553149,2.04251 3.76591,3.74733 1.78125,5.8125 1.94483,0.54356 1.75419,2.6349 0.21875,3.625 -1.79705,1.3036 -2.961736,5.09692 -0.125,5.65625 1.87514,1.29156 4.10867,2.41583 4.5,4.875 1.51103,1.35167 3.77385,1.74781 5.375,2.78125 3.55152,1.32374 7.2286,-1.06926 10.9375,-0.75 4.17595,-0.87395 8.61253,-2.23262 11.71875,-5.15625 1.3268,-1.94882 4.59224,-1.86176 5.59375,-3.90625 -0.50091,-1.42166 -0.23681,-1.94573 1.3125,-2.46875 2.96466,-2.80506 7.4255,-3.6651 9.65625,-7 0.27644,-1.64475 1.8829,-4.064 -0.34375,-4.9375 0.1798,-1.39503 0.50472,-2.99315 -0.84375,-3.78125 1.25426,-4.24011 4.87226,-7.2073 7.46875,-10.71875 1.12538,-2.91956 3.75788,-4.69943 5.71875,-6.875 1.81976,-3.00846 4.37558,-6.0411 5.21875,-9.53125 0.51449,-0.52615 0.83771,-1.26499 1.1875,-1.8125 0.25065,-1.37903 0.76312,-2.61799 0.71875,-4.09375 -0.13001,-0.80988 0.46312,-2.19534 -0.25,-2.65625 -0.56571,0.24989 -0.7788,1.05367 -1.34375,1.46875 -0.0987,0.1909 -0.30632,0.3382 -0.53125,0.46875 -0.20837,-0.1443 -0.50838,-0.0407 -0.875,0.4375 -0.0177,0.009 -0.0459,0.0222 -0.0625,0.0312 -0.003,0.0212 0.003,0.0412 0,0.0625 -0.0474,0.0659 -0.0749,0.13981 -0.125,0.21875 -2.60856,0.42737 -4.191,2.54318 -6.34375,3.75 -1.09371,1.11703 -2.48673,-0.731 -3.40625,-0.9375 1.6868,-0.99719 0.13003,-2.11241 -1.25,-2.375 -1.67154,-0.84059 -2.58341,-2.7316 -4.71875,-2.625 -1.92528,-1.15229 -1.77776,-4.90259 -4.5625,-4.9375 -0.45671,-2.66877 -0.96736,-5.96736 -3.65625,-7.21875 -1.65925,-1.21546 -1.8566,-3.45718 -3.3125,-4.96875 -1.0728,-1.70596 -1.67784,-3.85971 -3.5,-5 -0.73587,-0.98848 -1.46496,-2.33748 -1.5625,-3.46875 1.56978,-0.27933 0.9321,1.96623 2.28125,2.3125 -0.0512,1.85374 1.80879,1.84371 2.90625,1 1.33309,0.46241 2.29065,2.44765 3.34375,3.625 1.56324,1.15444 1.71021,3.8313 4.125,3.46875 0.36055,1.17895 1.40112,2.15876 1.71875,3.375 0.14108,3.13709 4.62992,2.78532 4.84375,5.9375 2.35902,0.69393 2.61252,3.12265 2.46875,5.28125 0.74029,1.49479 2.09569,4.63267 3.96875,2.125 1.97455,-2.46194 5.53904,-3.32957 7.28125,-6.03125 -0.005,-0.10253 0.005,-0.20953 0,-0.3125 0.11501,-0.0446 0.2327,-0.0866 0.34375,-0.15625 0.99365,-0.88772 2.12354,-1.85604 2.375,-3.5 0.15832,-0.90639 1.03593,-1.24446 1.4375,-2.0625 0.31299,-0.79402 1.52471,-1.22009 2.1875,-1.6875 0.13984,-1.1747 0.64037,-2.20308 1.625,-2.5625 0.81933,-0.60117 0.1914,-2.3969 1.3125,-2.75 0.67772,-0.64992 -0.0998,-2.17349 0.25,-3.15625 0.23932,-1.44331 1.36266,-3.0236 1,-4.46875 -0.5301,-1.69308 -2.64918,-0.88709 -4.125,-1.1875 -0.69837,-0.39325 -2.38635,-0.90026 -1.625,-2.125 -0.035,-0.5747 0.12231,-1.62516 -0.75,-1.375 -0.75864,0.82596 -0.49993,2.61584 -1,3.6875 -0.13296,1.21158 -1.16543,1.75251 -1.6875,2.6875 -1.0489,0.4537 -2.10713,0.8105 -2.4375,-0.4375 -0.52269,-0.81919 -0.47004,-2.76224 -1.9375,-2.0625 -0.0301,0.01 -0.0635,0.0206 -0.0937,0.0312 -0.30134,-1.34699 -1.45398,-1.79642 -2.84375,-2.28125 -1.66296,-1.15429 -3.22791,-4.49851 -0.28125,-4.875 0.53819,0.0959 0.76116,-0.0249 0.84375,-0.25 0.14197,0.18471 0.34007,0.34884 0.5625,0.5 0.47511,0.44061 0.97006,0.95552 1.1875,1.6875 1.04793,0.60992 2.1766,1.35138 3.625,1.4375 0.66839,0.22553 2.12758,0.57472 2.75,0.25 1.04948,-0.31598 0.74771,-2.08285 1.9375,-2.125 0.4463,0.74969 0.42428,1.96825 1.8125,1.4375 1.41812,-0.371 2.67043,-0.89206 3.9375,-1.25 0.86197,-0.88085 1.71941,-1.06051 2.4375,-2.1875 1.13658,-0.63519 1.89813,-2.13641 3.375,-2 0.96031,1.14191 1.88479,1.71124 3.34375,2.3125 0.55114,0.87548 1.07185,1.64023 1.96875,2.0625 1.49537,-0.0228 1.09608,0.41258 2.25,0.5 0.90267,0.54011 0.55762,2.02301 0.9375,3 0.39411,1.49444 1.11198,2.97155 1.8125,4.25 0.27609,1.23205 1.41809,1.90363 1.8125,3.0625 0.7526,0.51126 0.0696,2.07083 0.875,2.625 0.13,0.69427 0.71837,0.80493 0.9375,0.0625 1.00578,-0.85241 0.57503,-3.15126 0.9375,-4.625 0.34021,-1.2994 0.0948,-2.56319 -0.1875,-3.78125 0.0338,-2.61651 -0.94114,-4.76579 -0.625,-7.40625 0.0252,-1.82649 0.48883,-3.67575 0.125,-5.46875 0.0593,-1.36227 0.55365,-2.63078 0.3125,-4.125 0.16698,-1.34951 0.006,-2.70147 -0.5,-3.71875 0.74032,-0.658897 1.21,-1.418644 0.9375,-2.4375 -10e-4,-0.02237 0.002,-0.03957 0,-0.0625 -0.0885,-0.469147 0.34268,-0.97155 0.71875,-0.875 0.006,0.0055 0.0252,-0.0058 0.0312,0 0.0124,0.0041 0.019,0.0257 0.0312,0.03125 0.11053,0.113633 0.20905,0.274537 0.3125,0.4375 0.14104,1.217149 0.50269,2.656893 1.09375,3.53125 0.10306,1.1765 1.00805,1.10274 0.875,0 -0.14685,-1.046487 -0.58183,-1.894511 -0.9375,-2.78125 0.11858,-0.10389 0.23778,-0.293734 0.375,-0.59375 C 194.36101,57.196816 161.11211,24.534936 122,18.21875 z m -37.4375,1.6875 C 82.067093,19.835605 79.744866,21.985403 77.5,21.5625 74.500375,20.101503 61.676353,26.960392 56.125,29.90625 41.328076,38.456234 28.788571,51.114997 20.4375,65.9375 c 2.14555,-0.107138 2.088303,-2.855615 3.84375,-3.78125 0.467284,-1.239917 0.9827,-2.394746 1.375,-0.75 0.536691,-1.318775 1.292974,-2.520857 3.03125,-2.125 1.517352,-0.924379 2.059653,0.614096 0.53125,1.03125 -0.608836,0.924503 -1.553067,1.320995 0.09375,1.59375 0.710996,0.446439 3.150946,0.545478 2.1875,-0.75 -1.381337,0.657053 -0.305344,-2.912654 0.9375,-3.25 0.370751,-1.733331 2.260214,-1.569822 2.53125,-3.28125 -2.438036,0.490811 -2.003673,-1.331569 -0.125,-1.59375 2.337937,0.48462 0.504319,4.761497 4.1875,3.4375 3.978177,-0.519718 3.13835,-5.683394 5.875,-7.75 0.970207,-2.573591 3.907969,-3.846002 5.15625,-5.8125 -1.162312,1.393078 -3.214307,0.237478 -1.4375,-1 2.171291,-1.413035 4.620975,-2.936801 5.5,-5.5 -1.346232,-0.73558 -2.957189,1.864928 -4.625,2.03125 -1.763428,1.444912 -3.014501,4.275623 -5.75,3.65625 -1.422563,0.412365 -2.699849,2.185626 -3.875,2.28125 1.514887,-2.319434 4.218258,-3.018978 5.65625,-5.5 1.693603,-1.618313 3.816256,-2.917426 5.65625,-4.5 2.338741,-1.358859 4.586851,-3.784211 7.5,-3.5625 0.468369,1.396658 -2.350116,1.15639 -1.78125,2.53125 1.503664,0.452792 3.087994,-0.862178 4.25,-1.9375 1.449834,1.065912 3.86651,-1.978024 4.53125,-0.9375 -0.587015,1.204294 -3.131916,1.089339 -3.125,2.03125 2.528282,-1.177149 1.345355,0.599808 -0.15625,0.9375 -1.802115,1.371602 -4.592721,0.04344 -5.53125,2.5 -0.886437,1.252854 -3.859456,2.440694 -3,3.96875 0.261535,-1.054244 2.491575,-2.919576 1.3125,-0.9375 -1.886566,1.784649 2.472565,0.763556 2.71875,-0.59375 0.440855,-1.227845 2.807573,-2.122434 1.3125,-0.40625 0.335182,1.809094 2.970859,-0.79036 3.53125,-1.6875 2.132388,-2.559226 5.119183,-4.052741 7.625,-6.1875 1.834178,-0.326938 2.793169,-1.531849 3.71875,-2.71875 0.849174,-1.144553 -2.978784,-0.839527 -3.625,0.15625 -1.258803,0.561314 -3.014117,1.305383 -4.34375,1.40625 1.859995,-1.901993 4.93155,-2.918159 7.5625,-2.84375 0.795672,0.905097 2.590976,-0.242886 2.75,-1.125 -1.432526,0.515018 -3.938572,-0.256136 -1.21875,-0.03125 2.83331,0.09319 1.210867,-1.400804 -0.4375,-0.46875 -1.38107,-0.124986 -3.876881,2.024642 -4.46875,0.875 2.367504,-1.044602 5.556002,-1.644663 7.71875,-1.9375 0.984159,-0.538149 2.616284,-1.202106 3.71875,-2.03125 0.808617,-0.07107 0.103614,1.621594 -0.53125,1.53125 -1.395464,0.729902 -0.777272,1.511589 -1.96875,1.96875 -1.375023,-0.784991 -4.398544,1.395512 -3.34375,2.59375 1.15661,0.783068 2.587032,-3.053047 2.75,-1.28125 -1.477131,1.528526 2.248557,0.298077 3,0.875 1.421795,-1.267058 3.590391,0.258197 4.8125,-1.21875 2.425885,0.281557 1.423973,-1.140035 -0.15625,-1.34375 -1.756976,-0.140996 -1.832759,-1.06943 -0.4375,-1.71875 0.756405,-0.373124 1.362518,-1.981769 1.3125,-2.375 -0.973458,0.09617 -3.011711,1.280741 -1.6875,-0.21875 -0.236236,-0.103699 -0.628217,-0.204605 -0.9375,-0.28125 z m 36.15625,6.15625 c -0.32395,2.702633 4.56581,2.919017 4.78125,0.59375 -1.7755,0.298871 -3.26561,0.716725 -4.78125,-0.59375 z M 86.4375,26.96875 c -1.407076,0.350923 -1.838313,1.680104 -3.625,1.34375 C 82.072369,27.885139 80.155009,27.07345 81,28.625 c -0.706257,0.573119 -1.501135,1.092586 -1.59375,-0.0625 -1.148753,-0.191333 -2.753,1.114815 -0.875,1.78125 -1.354921,1.218676 -3.590515,2.075958 -5,3.625 -1.892519,0.186716 -1.887057,2.531816 -4.0625,2.21875 -1.601046,0.448411 -0.09188,1.229622 -1.65625,1.90625 -2.043724,1.133178 -4.894253,1.011947 -6.1875,3.34375 -2.258628,0.95632 -2.625938,3.575442 -4.875,4.71875 -1.272851,0.686323 -1.960129,1.943789 -0.6875,2.71875 -1.216563,0.868405 -1.601564,2.909965 0.40625,1.84375 3.83197,-1.641115 7.040918,-5.64026 11.53125,-4.875 2.096148,-1.691418 4.567789,-1.386508 7.03125,-0.96875 2.532415,-0.611652 5.156858,-1.139906 6.8125,-3.25 2.95874,-1.31382 5.364559,-3.42377 7.375,-5.90625 1.797635,-1.455838 3.439186,-3.298036 5.53125,-4 -1.276357,-0.370512 -3.629052,-0.838291 -1.65625,-2.09375 -0.189237,-1.297223 -2.351611,-2.137431 -3.625,-2 -1.287876,0.614086 -1.821908,-0.762869 -3.03125,-0.65625 z m 36.65625,6.71875 c -1.11561,0.09148 -0.0177,1.362516 -0.3125,1.75 -0.81539,0.284723 -0.51459,1.200821 -0.84375,1.8125 -0.10195,0.910599 0.95292,1.268443 0.625,2.0625 0.68521,0.291929 0.42628,1.252043 0.6875,1.90625 0.82471,0.899879 2.45809,0.889763 3.6875,1.125 0.77165,0.099 1.63369,-0.434407 0.9375,-1.03125 -1.61077,-0.08852 -3.03393,-0.844275 -3.46875,-2.125 -0.53999,-0.834891 -0.25499,-2.02572 -0.625,-2.9375 -0.30628,-1.029125 1.03408,-1.819603 -0.125,-2.375 -0.11272,-0.16868 -0.3788,-0.09071 -0.5625,-0.1875 z m -18.71875,0.5 c -1.55917,0.278672 -3.82588,0.514765 -2.1875,2.5625 -0.35253,2.490564 1.66792,2.405243 2.03125,0.375 0.69007,-3.080808 1.3708,1.702286 2.34375,-0.28125 0.15692,-0.85325 -1.97684,-1.644796 -1.25,-1.90625 2.57046,-0.10386 1.37826,-0.963654 -0.53125,-0.625 L 104.375,34.1875 z M 74.25,49 c -2.103994,-0.0019 0.749901,2.280012 -1.25,1.875 -0.87244,0.329875 0.962658,1.445606 -0.75,1.53125 0.530833,0.299009 1.900945,2.505929 3.375,1.21875 1.843038,-0.336645 4.623982,-1.171839 3.34375,-3.5625 C 77.598609,50.323782 76.615548,49.785873 75.25,50.375 74.268986,50.232473 75.55704,49.06852 74.25,49 z M 38,57.25 c -1.714362,1.254191 -4.688372,2.190544 -4.1875,4.75 0.742832,0.625483 0.144741,3.606992 1.21875,1.71875 -0.154829,-1.452256 0.558993,-2.65257 1.59375,-3.1875 C 35.990045,58.784604 37.422642,58.654009 38,57.25 z m 45.0625,7.125 c -1.642973,-0.05867 -2.152368,1.401093 -3.46875,1.9375 0.431112,0.919192 -0.772189,1.167704 -0.25,2.15625 -1.094581,0.578066 1.283824,1.149427 0.21875,2.375 1.250119,0.279692 1.938208,1.098037 1.53125,2.65625 -0.50966,1.191754 -2.419107,0.334842 -1.625,2.4375 -1.891325,0.402171 -1.930203,1.062811 -0.03125,1.1875 1.426602,1.172148 -1.31094,0.490336 -1.84375,1.46875 -2.408709,1.510204 1.730404,1.037728 2.9375,0.9375 1.917646,-0.530687 4.275889,0.550616 5.09375,-1.59375 1.218402,-1.402101 0.140825,-2.273603 -0.90625,-3 -0.156263,-1.883495 -1.606683,-2.890602 -1.625,-4.90625 -2.203639,-1.031599 0.98913,-2.233785 1.1875,-3.40625 -0.666156,-0.447553 -3.265275,0.123425 -1.625,-1.125 0.629999,-0.125264 1.21904,-0.730935 0.40625,-1.125 z m -6.375,5.375 c -0.09031,0.0094 -0.18368,0.03409 -0.28125,0.0625 -1.387873,0.647932 -0.679147,2.726753 -2.1875,1.3125 -1.28422,0.729897 0.0027,2.317446 -1.1875,3.28125 -1.935767,0.589688 -0.513,2.877436 1,1.28125 2.069914,0.02525 3.333093,-1.690736 3.28125,-3.5625 1.238508,-0.618682 0.729682,-2.515665 -0.625,-2.375 z m 74.75,11.25 c 0.26166,0.01143 0.49343,0.0872 0.6875,0.25 -0.0158,1.502542 -1.46585,2.621777 -0.625,4 0.90544,0.629855 2.1951,0.803276 3.125,1.75 0.20623,0.791857 1.01299,1.37081 1.25,2.25 0.94618,0.338677 0.19383,-1.734846 1,-0.9375 0.69838,0.37616 2.02135,0.646376 1.8125,1.6875 -0.69094,0.376029 -1.72712,0.978148 -0.875,1.75 0.9168,0.328327 1.34325,1.31605 2,2 0.36754,1.324766 1.01706,2.612455 1,4 -0.85392,0.738189 -1.64584,1.823785 -2.9375,1.375 -0.29347,-0.104508 -0.65368,-0.18894 -1,-0.21875 -0.0664,-0.204701 -0.10783,-0.363385 -0.1875,-0.59375 -1.78143,0.418747 -2.96536,-0.346629 -2.6875,-2.25 -0.30095,-1.57315 0.84942,-4.157346 -1.59375,-4.25 -2.42304,-1.84772 -5.64805,-4.591475 -4.53125,-8.0625 0.43944,-0.80765 0.96074,-1.733562 1.15625,-2.65625 0.69961,0.276479 1.65399,-0.126613 2.40625,-0.09375 z m -58,15.875 c -0.149794,0.01025 -0.157423,0.218796 -0.09375,0.28125 -1.026647,1.51392 1.62613,2.757875 1,0.40625 0.149747,-0.57342 -0.441459,-0.584872 -0.78125,-0.65625 -0.05631,-0.02716 -0.08755,-0.03381 -0.125,-0.03125 z m 0,3.5 c -1.197924,0.32587 -1.318385,4.12896 -0.125,4.125 1.527726,-0.4438 1.501872,-3.57827 0.125,-4.125 z M 134.59375,109 c -0.94725,0.20193 -4.08443,1.9554 -1.59375,1.96875 1.39304,0.0626 1.15799,-1.2659 1.59375,-1.96875 z m -16.375,2.03125 c -2.08279,0.86752 3.2831,2.62831 3.5,0.46875 -1.11207,-0.32408 -2.45182,0.10338 -3.5,-0.46875 z m -110.25,10.5625 c 1.2970484,17.04831 7.183575,33.92859 17,47.84375 1.426921,-2.13428 1.622729,-4.74264 0.1875,-6.8125 -0.71945,-2.69157 -3.824921,-3.90093 -4.84375,-6.59375 -1.561226,-2.22499 -3.005072,-4.48833 -4.34375,-6.84375 -1.484016,-3.04174 -2.158841,-6.17982 -3.625,-9.21875 -1.743689,-3.22643 -1.645468,-7.14342 -2.15625,-10.78125 -1.0440377,-2.43591 -0.4724277,-5.39679 -2.21875,-7.59375 z m 155.84375,61.375 c -3.74205,1.39456 -6.14096,4.77358 -9.375,7.03125 0.0901,2.09949 -0.44608,3.60117 -2.25,4.6875 -1.83143,1.94909 1.04584,1.99337 2.15625,0.71875 2.6458,-1.83168 3.64317,-5.37243 6.96875,-6.375 0.97405,-1.95877 1.79362,-3.99531 2.5,-6.0625 z"
       style="fill:#000000;fill-opacity:1;stroke:none;display:inline;filter:url(#filter5851-4);enable-background:new"
       transform="matrix(0.05942124,0,0,0.05940904,3.4815197,48.283656)" />
    <path
       style="fill:url(#radialGradient5836-0);fill-opacity:1;stroke:none;display:inline;enable-background:new"
       d="m 10.73091,49.366015 c 0.0354,0.07408 0.179335,0.08843 0.202404,0.126244 -0.07194,-0.02153 -0.315763,-0.02922 -0.146696,0.06498 0.07077,0.02625 0.184016,0.153951 0.235829,0.03527 -0.143059,-0.07439 0.04195,-0.02359 0.09099,0.0093 0.0784,0.05713 0.19576,0.0025 0.256254,0.06127 -0.07674,0.05195 0.169286,0.08136 0.0037,0.06498 -0.122917,-0.03259 -0.117134,0.08278 0,0.08726 0.08962,0.04437 -0.03697,0.142674 -0.09842,0.06498 -0.08729,-0.04732 -0.317102,0.03357 -0.191262,0.128101 0.104982,0.02707 0.0472,0.166766 0.152266,0.196793 0.03587,0.0408 0.125577,0.07204 0.07056,0.150378 0.0068,0.0031 0.01364,0.0062 0.02042,0.0093 -0.04142,0.01369 -0.07883,0.03129 -0.10213,0.06498 -0.02739,0.03266 -0.03065,0.104135 0.01856,0.129957 0.05326,0.06086 0.103394,0.07348 0.170836,0.12253 0.05629,0.04846 0.134647,0.05461 0.185691,0.09283 0.03497,0.04267 -0.0047,0.0451 -0.03713,0.02599 -0.09436,-0.003 -0.165038,-0.05782 -0.256255,-0.01856 -0.02443,0.0162 -0.04531,0.03308 0.0037,0.04827 0.06274,0.0097 0.03413,0.08776 -0.02229,0.06312 -0.101007,-0.04148 -0.127632,0.06532 -0.198689,0.10768 -0.01907,0.02685 -0.0298,0.07402 -0.05385,0.102106 -0.01632,-0.003 -0.03352,-3.9e-5 -0.05199,0.013 0.01194,0.125101 -0.198858,0.139145 -0.16898,0.271054 0.05685,0.110402 -0.166139,0.0414 -0.142983,0.126244 0.114615,0.06098 -0.10158,0.05823 -0.124412,-0.013 -0.02326,-0.08822 -0.08649,-0.113326 -0.152268,-0.159662 0.01086,-0.105364 0.158047,0.04759 0.237686,0.013 0.169103,0.02492 0.131841,-0.174498 0,-0.18194 -0.142999,-0.03533 -0.30269,-7.16e-4 -0.408522,-0.115104 -0.05322,-0.007 -0.09726,-0.04234 -0.15041,-0.04827 -0.1767295,0.03589 -0.3150816,0.154293 -0.4493728,0.261771 -0.044858,0.104433 -0.1501441,0.173555 -0.1894046,0.284049 -0.02293,0.06452 -0.1049941,0.09302 -0.098417,0.15595 -0.1046479,-0.0057 -0.1539674,0.0906 -0.2488261,0.100255 -0.1432662,0.03482 -0.011578,0.21135 -0.077993,0.300758 -6.267e-4,0.07897 0.075833,0.175584 0.1541249,0.07797 0.054323,-0.04759 0.134586,-0.07397 0.1931182,-0.08354 0.014849,0.123965 0.020232,0.302079 0.1429833,0.360167 0.095349,0.01872 0.1122395,-0.03798 0.1448383,-0.111393 0.036228,-0.09457 0.042399,-0.214974 0.1671227,-0.237636 0.072849,-0.101497 -0.1434799,-0.09977 -0.1151282,-0.220927 0.00931,-0.132825 0.1685488,-0.1829 0.1949768,-0.285907 0.01663,-0.08542 0.05639,-0.192571 0.1726915,-0.148522 0.08707,0.08441 -0.072529,0.167215 -0.09842,0.246919 -0.05395,0.07823 -0.0094,0.220556 0.035279,0.287762 0.150495,0.08958 0.290259,-0.103515 0.443804,-0.06126 0.06829,-0.01731 0.132407,0.05461 0.02971,0.07612 -0.08759,0.121712 -0.264865,0.02633 -0.356529,0.133671 0.04903,0.06185 0.148658,0.162764 0.05385,0.235779 -0.06877,-0.02202 -0.1787265,-0.156544 -0.157838,0.0111 -0.0038,0.115916 -0.0047,0.271692 -0.1411245,0.298902 -0.1029019,-0.09436 -0.2167206,0.01527 -0.3249567,0.05012 -0.085072,0.04189 -0.1275553,-0.108038 -0.2135451,-0.02042 -0.1316568,0.02429 -0.2197582,-0.187108 -0.072419,-0.230209 0.015971,-0.05249 0.020268,-0.213982 -0.05757,-0.118817 -0.1015324,0.02097 -0.076167,0.185528 -0.063133,0.26734 -0.014336,0.153417 -0.2423875,0.06643 -0.304534,0.183796 -0.08278,0.06669 -0.1535162,0.157831 -0.24697,0.211645 -0.0564,0.09057 -0.1781234,0.15435 -0.2711092,0.150379 -0.074962,-0.08516 -0.036705,0.0272 -0.077993,0.06312 -0.059492,0.0016 -0.2981755,-0.08393 -0.2098305,0.03899 0.1446723,0.0805 0.2520978,0.270332 0.163408,0.439998 -0.016198,0.129267 -0.1548173,0.188852 -0.2581104,0.10953 -0.1213746,-0.0111 -0.2445229,-0.02902 -0.3491004,-0.09283 -0.042279,0.06826 -0.1552529,0.02696 -0.100279,0.142953 -0.044977,0.128101 -0.054574,0.307462 -0.1689788,0.410294 -0.031656,0.06901 0.1169783,0.0031 0.053846,0.09654 -0.095433,0.10349 0.057761,0.149208 0.1448395,0.10768 0.061617,0.03471 0.0043,0.248521 0.1169903,0.144809 0.051256,-0.09094 0.1623086,0.03835 0.2432564,-0.0037 0.086671,0.03574 0.1115234,-0.09351 0.1894047,-0.10953 0.050146,-0.0615 0.087817,-0.101461 0.08728,-0.185654 0.062977,-0.118136 0.1957,-0.208957 0.3286733,-0.226497 0.054049,-0.05568 -0.060053,-0.207896 0.079844,-0.187509 0.060184,-0.09176 0.1205163,-0.01613 0.1652653,0.03527 0.1026306,0.06054 0.1533861,-0.110509 0.24697,-0.09468 0.08623,-0.101043 0.2080436,0.0117 0.2228294,0.113243 0.03538,0.131484 0.1526102,0.19562 0.2692519,0.250631 0.1088854,0.06288 0.319037,0.187848 0.2042609,0.343458 -0.082756,0.07139 -0.2325732,8.06e-4 -0.3138183,0.0557 0.03914,0.09787 0.1879711,0.06091 0.2451126,0.152236 0.01122,-0.07364 -0.015756,-0.170302 0.096555,-0.178228 0.052223,-0.06682 0.1398761,-0.129421 0.05757,-0.209788 -0.010385,-0.153803 0.1278601,0.02199 0.1764071,-0.02042 -0.048,-0.12246 -0.2131489,-0.134513 -0.3008123,-0.233907 -0.1778727,0.0082 -0.1450137,-0.230256 -0.2822508,-0.289619 -0.065985,-0.07715 0.053858,-0.244517 0.1244136,-0.148524 -0.040429,0.06129 0.092162,0.06694 0.070557,0.148524 0.078829,0.02162 0.1320196,0.09682 0.2209721,0.09839 0.06404,0.06658 0.1401074,0.13014 0.2284004,0.157806 0.080481,0.05974 0.033971,0.129379 0.026001,0.211644 0.05287,0.04222 0.105304,0.06595 0.122556,0.139239 0.09307,0.03526 -0.02426,0.09338 0.02229,0.15595 0.03542,0.04394 0.06793,0.06294 0.10213,0.113242 0.06184,0.03653 0.08691,0.112861 0.1207,0.02971 0.06484,0.06534 0.0087,-0.06998 -0.0093,-0.100256 0.04566,-0.01602 0.01038,-0.111357 0.07427,-0.04085 0.10663,0.0025 -0.0032,-0.158331 -0.08356,-0.135527 -0.03629,-0.03449 0.03842,-0.103777 -0.04642,-0.126244 -0.04514,-0.104744 0.05491,-0.104756 0.07428,-0.02414 0.03729,-0.02922 0.01298,-0.131929 0.09656,-0.105818 0.07637,-0.0631 0.155823,0.02128 0.224688,0.0093 0.03088,-0.06367 0.227214,-0.102094 0.155982,-0.0037 -0.08047,-0.0092 -0.204493,0.03155 -0.202405,0.103968 0.06331,0.0093 0.03736,0.07762 0.05571,0.122532 0.02587,0.08831 -0.05249,0.03171 -0.05385,0.08541 0.121922,-0.05295 0.082,0.152197 0.204261,0.139241 0.01134,0.0651 0.116226,-0.05378 0.115128,0.04456 0.0789,0.0623 0.124988,-0.02757 0.148553,-0.07612 0.104779,-0.04616 0.168704,0.159513 0.267396,0.02414 0.07798,-0.0094 0.08526,-0.11415 0.178264,-0.116967 0.08899,0.003 -0.03688,0.118221 0.039,0.170801 0.03909,0.132183 -0.0023,0.280034 -0.0074,0.414007 0.006,0.192491 -0.233318,0.162725 -0.360241,0.146667 -0.09018,0.05313 -0.169131,0.153996 -0.285965,0.09468 -0.107071,0.01146 -0.202788,-0.08639 -0.298964,-0.0111 -0.03108,-0.149461 -0.251938,0.0418 -0.263681,-0.126244 -0.151159,-0.05011 -0.354799,0.101497 -0.245113,0.258057 -0.04301,0.0889 -0.155369,0.08985 -0.222848,0.02414 -0.08197,-0.0572 -0.1799853,-0.05037 -0.2692529,-0.06312 -0.045025,-0.08052 -0.075905,-0.168586 -0.1856912,-0.174514 -0.078328,-0.08496 -0.2275444,0.04656 -0.2488261,-0.05012 -0.068074,-0.01689 -0.045407,-0.112896 -0.1281271,-0.09283 -0.031536,-0.114782 0.1568143,-0.129413 0.064995,-0.256201 -0.077946,-0.04156 0.053834,-0.154539 -0.070569,-0.150379 -0.080906,-0.07065 -0.1695315,0.0902 -0.2711093,0.0019 -0.09215,-0.07111 -0.2064178,0.08606 -0.2878216,-0.02414 -0.072025,6.87e-4 -0.146476,0.02358 -0.2135452,0.0056 -0.078877,0.04732 -0.1906401,0.0055 -0.2395418,0.103968 -0.069924,-0.01355 -0.117038,0.0241 -0.1708361,0.0557 -0.061103,-0.02295 -0.1099716,0.147007 -0.1336979,0.013 0.041229,-0.135487 -0.1817975,-0.04921 -0.2116878,-0.167087 -0.093332,-7.46e-4 -0.051829,0.145282 -0.1466969,0.165231 -0.085239,0.0789 -0.2117821,0.08151 -0.2599676,0.196793 -0.1046001,0.08074 -0.047042,0.230596 -0.1522664,0.306327 -0.058847,0.08249 -0.1725264,0.09764 -0.2673958,0.102105 -0.1096971,3.29e-4 -0.073947,0.202901 -0.2172586,0.139241 -0.032921,0.06391 -0.018657,0.162652 -0.1002672,0.206075 -0.080846,0.06786 -0.092114,0.185222 -0.1931193,0.232066 -0.0031,0.108791 0.087149,0.18617 0.033422,0.28405 0.063849,0.174049 -0.034318,0.344043 -0.126271,0.484555 0.056937,0.06344 0.059014,0.151705 0.020423,0.233923 0.039773,0.08594 0.030414,0.06245 0.061282,0.165231 0.071214,0.18119 0.3199919,0.252121 0.3063902,0.473416 0.088331,0.09574 0.2055464,0.175437 0.2655384,0.297046 0.1239804,0.03824 0.1813558,0.154856 0.3008206,0.191222 0.2036175,-0.02911 0.4076349,0.0084 0.5942118,0.07612 0.205365,-0.0453 0.4150105,-0.02609 0.6220657,-0.04085 0.1602484,-0.02649 0.1808999,0.15167 0.261825,0.226499 0.1461084,0.0314 0.330249,-0.0183 0.4438027,0.103967 0.1260156,0.130959 -0.033207,0.315375 -0.046421,0.449281 0.1054835,0.145455 0.2912702,0.195255 0.402951,0.330463 0.032873,0.121343 0.2237748,0.222626 0.1058416,0.345315 0.1155698,0.03229 0.1042301,0.156536 0.012999,0.215358 -0.1067845,0.07744 -0.1759903,0.302803 -0.0074,0.336032 0.1114279,0.07673 0.2441422,0.143522 0.2673958,0.289619 0.089787,0.0803 0.224246,0.103836 0.319371,0.165231 0.211036,0.07864 0.429535,-0.06353 0.649923,-0.04456 0.248139,-0.05192 0.511768,-0.132639 0.696341,-0.306328 0.07884,-0.115773 0.272876,-0.110605 0.332388,-0.232067 -0.02977,-0.08445 -0.01407,-0.115594 0.07799,-0.146664 0.176164,-0.166646 0.441233,-0.217739 0.573786,-0.415863 0.01642,-0.09771 0.111881,-0.241438 -0.02042,-0.293331 0.01062,-0.08288 0.03,-0.177821 -0.05013,-0.224641 0.07453,-0.251902 0.289517,-0.428179 0.443805,-0.63679 0.06687,-0.173449 0.223297,-0.27919 0.339814,-0.408437 0.108134,-0.178731 0.260002,-0.358896 0.310105,-0.566243 0.03057,-0.03126 0.04978,-0.07515 0.07056,-0.10768 0.0149,-0.08192 0.04535,-0.155532 0.04271,-0.243206 -0.0078,-0.04812 0.02751,-0.130423 -0.01485,-0.157806 -0.03361,0.01485 -0.04628,0.0626 -0.07984,0.08726 -0.0058,0.01134 -0.0182,0.02009 -0.03157,0.02785 -0.01238,-0.0086 -0.03021,-0.0024 -0.052,0.026 -9.99e-4,5.07e-4 -0.0027,0.0013 -0.0037,0.0018 -1.71e-4,0.0012 1.71e-4,0.0025 0,0.0037 -0.0027,0.0039 -0.0044,0.0084 -0.0074,0.013 -0.155001,0.02539 -0.249034,0.151089 -0.376951,0.222785 -0.06499,0.06637 -0.147764,-0.04343 -0.202403,-0.0557 0.100232,-0.05924 0.0078,-0.125496 -0.07428,-0.141095 -0.09932,-0.04994 -0.153509,-0.162283 -0.280393,-0.155949 -0.1144,-0.06846 -0.105639,-0.291258 -0.271111,-0.293333 -0.02714,-0.158549 -0.05749,-0.354515 -0.217259,-0.428859 -0.0986,-0.07221 -0.110317,-0.205388 -0.196833,-0.295189 -0.06374,-0.101354 -0.09969,-0.229301 -0.207974,-0.297045 -0.04372,-0.05873 -0.08705,-0.138867 -0.09284,-0.206074 0.09327,-0.01659 0.05538,0.116811 0.135555,0.137383 -0.003,0.110127 0.107476,0.10953 0.172691,0.05941 0.07921,0.02748 0.136114,0.145412 0.198689,0.215357 0.09289,0.06859 0.101628,0.227614 0.245113,0.206076 0.02143,0.07004 0.08326,0.128249 0.102129,0.200505 0.0084,0.186371 0.275117,0.165473 0.287822,0.352741 0.140177,0.04123 0.155239,0.185514 0.146697,0.313755 0.04399,0.08881 0.124528,0.275222 0.235827,0.126243 0.117336,-0.146261 0.329137,-0.197806 0.432661,-0.35831 -2.81e-4,-0.0061 2.8e-4,-0.01245 0,-0.01856 0.0068,-0.0026 0.01383,-0.0051 0.02042,-0.0093 0.05904,-0.05274 0.126185,-0.11027 0.141126,-0.207931 0.0094,-0.05385 0.06156,-0.07393 0.08542,-0.122532 0.0186,-0.04717 0.0906,-0.07248 0.129985,-0.100255 0.0084,-0.06979 0.03805,-0.130884 0.09656,-0.152237 0.04869,-0.03571 0.01134,-0.142397 0.07799,-0.163374 0.04027,-0.03862 -0.006,-0.129125 0.01486,-0.18751 0.01422,-0.08574 0.08097,-0.179629 0.05942,-0.265484 -0.0315,-0.100578 -0.157417,-0.0527 -0.245112,-0.07055 -0.0415,-0.02336 -0.141799,-0.05349 -0.09655,-0.126244 -0.0021,-0.03414 0.0073,-0.09654 -0.04457,-0.08168 -0.04508,0.04907 -0.02971,0.155405 -0.05942,0.219072 -0.0079,0.07198 -0.06926,0.104111 -0.10028,0.159661 -0.06232,0.02695 -0.125208,0.04815 -0.144839,-0.026 -0.03106,-0.04866 -0.02793,-0.164102 -0.115128,-0.122531 -0.0018,5.97e-4 -0.0038,0.0012 -0.0056,0.0019 -0.0179,-0.08002 -0.0864,-0.106726 -0.168979,-0.135527 -0.09881,-0.06858 -0.191806,-0.267253 -0.01671,-0.289619 0.03198,0.0057 0.04523,-0.0014 0.05013,-0.01485 0.0085,0.01098 0.02021,0.02072 0.03342,0.02971 0.02823,0.02618 0.05764,0.05677 0.07056,0.100255 0.06227,0.03624 0.129335,0.08029 0.215401,0.08541 0.03971,0.01339 0.126424,0.03414 0.163408,0.01485 0.06236,-0.01878 0.04443,-0.123741 0.115128,-0.126244 0.02651,0.04453 0.02521,0.116931 0.107704,0.08541 0.08427,-0.02204 0.158681,-0.053 0.233972,-0.07426 0.05122,-0.05233 0.102164,-0.063 0.144838,-0.129958 0.06754,-0.03773 0.112788,-0.126922 0.200547,-0.118817 0.05707,0.06784 0.112,0.101664 0.198691,0.137383 0.03275,0.05201 0.06369,0.09745 0.11699,0.122532 0.08886,-0.0013 0.06513,0.02451 0.133698,0.0297 0.05364,0.03209 0.03314,0.120185 0.05571,0.178227 0.02342,0.08878 0.06607,0.176538 0.107704,0.252489 0.0164,0.07319 0.08426,0.113087 0.107704,0.18194 0.04471,0.03038 0.0042,0.123026 0.052,0.155948 0.0078,0.04124 0.04269,0.04782 0.05571,0.0037 0.05977,-0.05065 0.03417,-0.187214 0.05571,-0.274767 0.02022,-0.07719 0.0056,-0.152277 -0.0111,-0.224641 0.002,-0.155444 -0.05592,-0.283131 -0.03714,-0.439998 0.0014,-0.108504 0.02905,-0.218372 0.0074,-0.324893 0.0036,-0.08093 0.0329,-0.156292 0.01856,-0.245062 0.0099,-0.08018 3.28e-4,-0.160493 -0.02971,-0.220928 0.04399,-0.03914 0.07189,-0.08428 0.05571,-0.14481 -5.6e-5,-0.0013 1.13e-4,-0.0024 0,-0.0037 -0.0053,-0.02787 0.02036,-0.05771 0.04271,-0.05198 3.28e-4,3.28e-4 0.0016,-3.28e-4 0.0019,0 7.16e-4,2.45e-4 0.0011,0.0016 0.0019,0.0019 0.0066,0.0068 0.01241,0.01631 0.01856,0.02599 0.0084,0.07231 0.02986,0.157843 0.06499,0.209788 0.0061,0.06989 0.0599,0.06551 0.052,0 -0.0087,-0.06217 -0.03457,-0.11255 -0.05571,-0.165231 0.007,-0.0062 0.01412,-0.01745 0.02229,-0.03527 -0.361086,-2.32751 -2.336776,-4.267921 -4.660867,-4.64316 z M 8.5063281,49.46627 c -0.1482796,-0.0042 -0.2862699,0.12352 -0.4196622,0.09839 -0.1782416,-0.08679 -0.9402612,0.320684 -1.2701294,0.495693 -0.879251,0.507947 -1.6243637,1.259993 -2.1205954,2.140583 0.1274921,-0.0063 0.1240902,-0.16965 0.2284002,-0.224641 0.027764,-0.07366 0.058394,-0.14227 0.081706,-0.04456 0.031894,-0.07835 0.076836,-0.149761 0.1801204,-0.126244 0.090169,-0.05492 0.122388,0.03648 0.031572,0.06127 -0.03618,0.05492 -0.092282,0.07848 0.00561,0.09468 0.042243,0.02652 0.1872334,0.03241 0.1299844,-0.04456 -0.082076,0.03903 -0.018143,-0.173039 0.055708,-0.19308 0.022023,-0.102977 0.1343043,-0.09326 0.1504103,-0.194936 -0.1448717,0.02916 -0.1190553,-0.0791 -0.0074,-0.09468 0.1389237,0.02879 0.029973,0.282876 0.2488261,0.204219 0.2363893,-0.03088 0.1864849,-0.337645 0.3491004,-0.46042 0.057654,-0.152894 0.2322163,-0.228487 0.3063901,-0.345314 -0.069065,0.08276 -0.190997,0.01411 -0.085418,-0.05941 0.1290199,-0.08395 0.2745839,-0.174473 0.326816,-0.326751 -0.079999,-0.0437 -0.1757194,0.110796 -0.2748228,0.120676 -0.1047911,0.08584 -0.179126,0.25401 -0.3416722,0.217214 -0.084535,0.02449 -0.1604286,0.129846 -0.2302576,0.135527 0.090014,-0.137795 0.2506548,-0.179355 0.3361015,-0.32675 0.1006372,-0.09614 0.2267673,-0.173322 0.3361015,-0.267341 0.1389702,-0.08073 0.2725559,-0.224816 0.4456588,-0.211644 0.027836,0.08297 -0.1396459,0.06869 -0.1058415,0.150378 0.089345,0.0269 0.1834925,-0.05122 0.2525407,-0.115104 0.086146,0.06332 0.2297526,-0.117516 0.2692519,-0.0557 -0.034879,0.07155 -0.1861018,0.06472 -0.1856911,0.120675 0.1502336,-0.06994 0.079939,0.03563 -0.00931,0.0557 -0.1070829,0.08149 -0.2729045,0.0026 -0.3286733,0.148522 -0.052676,0.07444 -0.2293337,0.145 -0.1782643,0.23578 0.015541,-0.06263 0.1480528,-0.173449 0.077994,-0.0557 -0.1120963,0.106021 0.1469224,0.04536 0.1615518,-0.03527 0.026189,-0.07294 0.1668291,-0.126093 0.077993,-0.02414 0.01991,0.107477 0.1765323,-0.04696 0.2098306,-0.100256 0.1267102,-0.152041 0.304189,-0.240769 0.4530881,-0.367594 0.1089928,-0.01942 0.1659732,-0.091 0.2209721,-0.161518 0.050456,-0.06799 -0.1770025,-0.04987 -0.2154025,0.0093 -0.074795,0.03335 -0.1791022,0.07755 -0.2581103,0.08354 0.1105207,-0.112992 0.2930391,-0.173366 0.4493723,-0.168944 0.047281,0.05377 0.153959,-0.01443 0.1634092,-0.06683 -0.08512,0.03059 -0.2340355,-0.01522 -0.072419,-0.0019 0.1683592,0.0055 0.071954,-0.08322 -0.025998,-0.02785 -0.082064,-0.0074 -0.2303685,0.120281 -0.2655384,0.05198 0.1406807,-0.06206 0.3301451,-0.09771 0.4586577,-0.115105 0.058477,-0.03197 0.1554631,-0.07142 0.2209733,-0.120674 0.048045,-0.0042 0.00621,0.09634 -0.031572,0.09097 -0.082923,0.04337 -0.046183,0.0898 -0.1169903,0.116955 -0.081706,-0.04664 -0.2613678,0.08291 -0.1986901,0.154094 0.068731,0.04652 0.1537251,-0.18138 0.163408,-0.07612 -0.08777,0.09081 0.133612,0.01771 0.1782643,0.05198 0.084487,-0.07527 0.2133458,0.01534 0.2859643,-0.07241 0.1441495,0.01672 0.084618,-0.06773 -0.00931,-0.07983 -0.1043973,-0.0084 -0.1089093,-0.06354 -0.025998,-0.102105 0.044941,-0.02217 0.080966,-0.117731 0.077993,-0.141096 -0.057845,0.0057 -0.1789601,0.07608 -0.1002671,-0.013 -0.014037,-0.0062 -0.037326,-0.01215 -0.055708,-0.01671 z m 2.1484499,0.365737 c -0.01925,0.16056 0.271305,0.173416 0.284107,0.03527 -0.105507,0.01775 -0.194047,0.04258 -0.284107,-0.03527 z m -2.0370352,0.05383 c -0.083616,0.02085 -0.1092315,0.09981 -0.2154013,0.07983 -0.043974,-0.02539 -0.1579112,-0.07361 -0.1077036,0.01856 -0.041969,0.03406 -0.089202,0.06491 -0.094705,-0.0037 -0.068265,-0.01134 -0.163587,0.06624 -0.051996,0.105818 -0.080512,0.0724 -0.2133518,0.12333 -0.2971059,0.215358 -0.1124544,0.0111 -0.1121321,0.150412 -0.2413992,0.131813 -0.095134,0.02664 -0.00549,0.07305 -0.098417,0.113255 -0.1214402,0.06732 -0.2908225,0.06011 -0.3676689,0.198649 -0.1342099,0.05682 -0.156036,0.212413 -0.2896789,0.280335 -0.07563,0.04078 -0.116477,0.115475 -0.040847,0.161519 -0.072288,0.05159 -0.09517,0.172878 0.024136,0.109531 0.2276995,-0.0975 0.4183802,-0.335082 0.6852006,-0.289619 0.1245557,-0.100483 0.2714244,-0.08237 0.4178061,-0.05755 0.1504795,-0.03634 0.3064272,-0.06772 0.4048071,-0.193079 0.1758125,-0.07805 0.3187684,-0.203403 0.438232,-0.350885 0.1068203,-0.08649 0.2043587,-0.195933 0.3286721,-0.237636 -0.075845,-0.02201 -0.2156424,-0.0498 -0.098417,-0.124388 -0.01122,-0.07706 -0.1397354,-0.126983 -0.2154013,-0.118817 -0.076525,0.03648 -0.1082646,-0.04532 -0.1801204,-0.03898 z m 2.1781612,0.399154 c -0.0663,0.0055 -10e-4,0.08094 -0.01857,0.103968 -0.04845,0.01691 -0.03058,0.07135 -0.05013,0.10768 -0.0061,0.0541 0.05663,0.07535 0.03714,0.122531 0.04072,0.01734 0.02533,0.07439 0.04085,0.113255 0.049,0.05346 0.146061,0.05286 0.219114,0.06683 0.04585,0.0058 0.09708,-0.02581 0.05571,-0.06126 -0.09572,-0.0053 -0.18028,-0.05016 -0.206117,-0.126245 -0.03209,-0.0496 -0.01515,-0.120346 -0.03713,-0.174513 -0.0182,-0.06114 0.06145,-0.108098 -0.0074,-0.141097 -0.0067,-0.01003 -0.02251,-0.0054 -0.03342,-0.0111 z m -1.1122927,0.02971 c -0.092652,0.01656 -0.2273379,0.03058 -0.1299833,0.152236 -0.020949,0.147962 0.099109,0.142893 0.1206978,0.02227 0.041002,-0.183029 0.081455,0.101126 0.1392699,-0.01671 0.00931,-0.05069 -0.1174677,-0.09771 -0.074281,-0.113242 0.1527398,-0.0062 0.081897,-0.05725 -0.031572,-0.03713 l -0.024148,-0.0074 z m -1.7900647,0.879996 c -0.1250212,-1.13e-4 0.044559,0.135454 -0.074281,0.111393 -0.05184,0.0196 0.0572,0.08588 -0.044571,0.09097 0.031548,0.01776 0.1129557,0.148875 0.2005474,0.07241 0.109518,-0.01999 0.274763,-0.06961 0.1986901,-0.211646 -0.081419,0.01552 -0.1398309,-0.01644 -0.2209733,0.01856 -0.058298,-0.0085 0.018239,-0.07761 -0.05942,-0.08169 z m -2.154019,0.490126 c -0.1018666,0.07451 -0.2785899,0.130137 -0.2488273,0.282192 0.044142,0.03716 0.00859,0.214288 0.072419,0.102105 -0.00919,-0.08628 0.03322,-0.157586 0.094705,-0.189366 -0.037732,-0.103764 0.0474,-0.111523 0.081706,-0.194935 z m 2.6776689,0.423292 c -0.097629,-0.0035 -0.1278967,0.08323 -0.206117,0.115105 0.025616,0.05461 -0.045884,0.06938 -0.014849,0.1281 -0.065042,0.03434 0.076287,0.06829 0.012999,0.141097 0.074281,0.01662 0.115176,0.06523 0.090992,0.157805 -0.030283,0.0708 -0.1437461,0.01989 -0.096555,0.144809 -0.1123828,0.0239 -0.1146985,0.06314 -0.00179,0.07055 0.084773,0.06964 -0.077898,0.02913 -0.1095538,0.08726 -0.1431278,0.08971 0.1028216,0.06165 0.1745508,0.0557 0.1139465,-0.03153 0.2540782,0.03271 0.3026767,-0.09468 0.072395,-0.08329 0.00836,-0.135072 -0.053846,-0.178227 -0.00931,-0.111893 -0.095469,-0.171728 -0.096555,-0.291475 -0.130943,-0.06128 0.058776,-0.132707 0.070557,-0.202362 -0.039582,-0.0266 -0.1940265,0.0073 -0.096555,-0.06683 0.037433,-0.0074 0.072431,-0.04343 0.024136,-0.06683 z M 8.038386,52.42744 c -0.00537,5.67e-4 -0.010862,0.002 -0.016711,0.0037 -0.08247,0.0385 -0.040358,0.161993 -0.1299833,0.07797 -0.07631,0.04337 1.588e-4,0.137678 -0.070557,0.194937 -0.1150208,0.03503 -0.030486,0.170945 0.05942,0.07612 0.1229968,0.0016 0.1980563,-0.100446 0.1949755,-0.211644 0.073589,-0.03675 0.043354,-0.149453 -0.037135,-0.141097 z m 4.441738,0.66835 c 0.01555,6.87e-4 0.02932,0.0051 0.04085,0.01485 -9.25e-4,0.08926 -0.0871,0.155757 -0.03713,0.237636 0.0538,0.03742 0.130436,0.04772 0.185691,0.103968 0.01226,0.04704 0.0602,0.08144 0.07428,0.13367 0.05622,0.02013 0.01146,-0.10306 0.05942,-0.0557 0.0415,0.02235 0.120112,0.0384 0.107704,0.100256 -0.04105,0.02233 -0.102631,0.05811 -0.052,0.103968 0.05448,0.0195 0.07982,0.07818 0.11884,0.118817 0.02184,0.0787 0.06044,0.155203 0.05942,0.237636 -0.05074,0.04386 -0.0978,0.108348 -0.174551,0.08168 -0.01744,-0.0062 -0.03884,-0.01122 -0.05942,-0.013 -0.0039,-0.01216 -0.0064,-0.02159 -0.0111,-0.03527 -0.105854,0.02488 -0.176207,-0.02059 -0.159695,-0.13367 -0.01788,-0.09346 0.05047,-0.246984 -0.09471,-0.252489 -0.143979,-0.109769 -0.335613,-0.272776 -0.269252,-0.478985 0.02611,-0.04799 0.05709,-0.102989 0.06871,-0.157806 0.04157,0.01642 0.09829,-0.0075 0.142982,-0.0056 z m -3.4464325,0.94312 c -0.00895,6.26e-4 -0.00931,0.013 -0.00561,0.01671 -0.061008,0.08994 0.096626,0.163843 0.05942,0.02414 0.00895,-0.03407 -0.026237,-0.03475 -0.046421,-0.03898 -0.00334,-0.0016 -0.00525,-0.002 -0.0074,-0.0018 z m 0,0.207931 c -0.071178,0.01936 -0.07834,0.245297 -0.0074,0.245062 0.090778,-0.02637 0.089238,-0.212582 0.0074,-0.245062 z m 2.4455555,0.512402 c -0.05628,0.012 -0.242702,0.116167 -0.0947,0.116967 0.08278,0.0037 0.06881,-0.0752 0.0947,-0.116967 z m -0.973022,0.120675 c -0.123763,0.05154 0.195085,0.156146 0.207974,0.02785 -0.06608,-0.01925 -0.14569,0.0061 -0.207974,-0.02785 z m -6.5511913,0.627508 c 0.077074,1.012824 0.4268564,2.015665 1.0101605,2.842351 0.084786,-0.126795 0.096424,-0.281755 0.011101,-0.404723 C 4.9335504,57.78515 4.7490135,57.713303 4.6884736,57.553325 4.5957026,57.42114 4.5099085,57.286678 4.4303633,57.146744 4.3421759,56.966037 4.3020822,56.779607 4.2149608,56.599068 4.1113514,56.407387 4.1171884,56.174683 4.0868337,55.958564 4.0247993,55.813849 4.0587589,55.637946 3.9549931,55.507426 z m 9.2604283,3.64623 c -0.222358,0.08285 -0.364903,0.283594 -0.557075,0.417719 0.0054,0.124729 -0.02651,0.213942 -0.133698,0.27848 -0.108825,0.115797 0.06214,0.118423 0.128128,0.0427 0.157217,-0.108814 0.216482,-0.319171 0.414092,-0.378733 0.05788,-0.11637 0.106581,-0.237358 0.148553,-0.360166 z"
       id="path5779-1"
       inkscape:connector-curvature="0" />
    <path
       sodipodi:type="arc"
       style="color:#000000;fill:none;stroke:url(#linearGradient5552);stroke-width:16.95782661px;stroke-linecap:butt;stroke-linejoin:miter;stroke-miterlimit:4;stroke-opacity:1;stroke-dasharray:none;stroke-dashoffset:0;marker:none;visibility:visible;display:inline;overflow:visible;enable-background:accumulate"
       id="path5865-2"
       sodipodi:cx="199.5"
       sodipodi:cy="113.5"
       sodipodi:rx="98"
       sodipodi:ry="98"
       d="m 297.5,113.5 a 98,98 0 1 1 -196,0 98,98 0 1 1 196,0 z"
       transform="matrix(0.05897587,0,0,0.05896377,-2.0496235,48.366847)" />
  </g>
  <g
     inkscape:groupmode="layer"
     id="layer16"
     inkscape:label="paper-under-corner-new"
     style="display:none">
    <path
       sodipodi:nodetypes="ccc"
       inkscape:connector-curvature="0"
       id="path4458"
       d="M 4.1358751,5.0632674 C 3.7402625,5.8591755 3.6211168,6.0125592 3.7669318,7.7436082 2.941548,7.1256982 2.6111886,6.5703312 0.90188553,7.2991467"
       style="fill:url(#radialGradient4465);fill-opacity:1;stroke:url(#linearGradient4467);stroke-width:1px;stroke-linecap:round;stroke-linejoin:round;stroke-opacity:1;display:inline" />
  </g>
  <g
     inkscape:groupmode="layer"
     id="layer12"
     inkscape:label="globe shine"
     style="display:none"
     transform="translate(0,-48)">
    <path
       inkscape:connector-curvature="0"
       id="path5958-4"
       d="m 9.6706306,49.227563 c -0.3366383,9.52e-4 -0.6786813,0.03171 -1.0217769,0.09405 C 5.7639464,49.845782 3.7685774,52.460248 3.9034276,55.351821 9.633608,57.774033 10.496958,53.743914 15.155965,53.262125 14.39414,50.839344 12.162192,49.22051 9.6706306,49.227563 z"
       style="fill:url(#linearGradient5548);fill-opacity:1;stroke:none;display:inline;enable-background:new"
       sodipodi:nodetypes="ssccs" />
  </g>
  <g
     inkscape:groupmode="layer"
     id="layer9"
     inkscape:label="front-new"
     sodipodi:insensitive="true"
     style="display:inline">
    <path
       style="color:#000000;fill:url(#radialGradient4376);fill-opacity:1;fill-rule:nonzero;stroke:url(#radialGradient4378);stroke-width:1px;stroke-linecap:butt;stroke-linejoin:miter;stroke-miterlimit:4;stroke-opacity:1;stroke-dashoffset:0;marker:none;visibility:visible;display:inline;overflow:visible;enable-background:accumulate"
       d="m 2.7537672,6.3763948 5.2592084,0 c 0.5482077,0 0.7071068,0.6094766 0.7071068,1.0385631 l 0,0.5966213 5.9717436,0 c 0.538563,0 1.247596,0.5193361 0.972136,0.9999998 C 14.569205,10.921876 14.434411,12.357997 14.382331,14.5 L 0.5,14.5 c 0.0147206,-2.93182 0.5296014,-4.722915 1.281631,-7.1236052 0.1656083,-0.5286681 0.4335728,-1 0.9721362,-1 z"
       id="rect4196"
       inkscape:connector-curvature="0"
       sodipodi:nodetypes="scccssccss" />
  </g>
  <g
     inkscape:groupmode="layer"
     id="layer14"
     inkscape:label="shine-new"
     style="display:inline">
    <path
       style="color:#000000;fill:url(#linearGradient4374);fill-opacity:1;fill-rule:nonzero;stroke:url(#linearGradient4386);stroke-width:1;stroke-miterlimit:4;stroke-opacity:1;stroke-dasharray:none;marker:none;visibility:visible;display:inline;overflow:visible;enable-background:accumulate"
       d="m 2.75,6.3750001 c -0.5385634,0 -0.8031417,0.4713319 -0.96875,1 C 1.3076958,8.8867186 0.93856201,10.190929 0.71875,11.65625 7.5327462,12.266282 7.7881771,9.659717 15.1875,9.9375 15.32069,9.639997 15.47379,9.318383 15.65625,9 15.93171,8.5193363 15.226063,8.0000001 14.6875,8.0000001 l -5.96875,0 0,-0.59375 C 8.71875,6.9771636 8.5482077,6.3750001 8,6.3750001 l -5.25,0 z"
       id="path4269"
       inkscape:connector-curvature="0" />
  </g>
</svg>
