<?xml version="1.0" encoding="UTF-8" standalone="no"?>
<!-- Created with Inkscape (http://www.inkscape.org/) -->

<svg
   xmlns:dc="http://purl.org/dc/elements/1.1/"
   xmlns:cc="http://creativecommons.org/ns#"
   xmlns:rdf="http://www.w3.org/1999/02/22-rdf-syntax-ns#"
   xmlns:svg="http://www.w3.org/2000/svg"
   xmlns="http://www.w3.org/2000/svg"
   xmlns:xlink="http://www.w3.org/1999/xlink"
   xmlns:sodipodi="http://sodipodi.sourceforge.net/DTD/sodipodi-0.dtd"
   xmlns:inkscape="http://www.inkscape.org/namespaces/inkscape"
   width="64"
   height="64"
   id="svg2"
   inkscape:label="Pozadí"
   version="1.1"
   inkscape:version="0.48.0 r9654"
   sodipodi:docname="plugins-64.svg">
  <defs
     id="defs3">
    <linearGradient
       id="linearGradient3826">
      <stop
         style="stop-color:#ffffff;stop-opacity:1;"
         offset="0"
         id="stop3828" />
      <stop
         style="stop-color:#ffffff;stop-opacity:0;"
         offset="1"
         id="stop3830" />
    </linearGradient>
    <linearGradient
       id="linearGradient3811">
      <stop
         style="stop-color:#ffffff;stop-opacity:0;"
         offset="0"
         id="stop3813" />
      <stop
         id="stop3819"
         offset="0.5"
         style="stop-color:#ffffff;stop-opacity:1;" />
      <stop
         style="stop-color:#ffffff;stop-opacity:0;"
         offset="1"
         id="stop3815" />
    </linearGradient>
    <linearGradient
       id="linearGradient3797">
      <stop
         style="stop-color:#0e1855;stop-opacity:1;"
         offset="0"
         id="stop3799" />
      <stop
         style="stop-color:#000000;stop-opacity:1;"
         offset="1"
         id="stop3801" />
    </linearGradient>
    <linearGradient
       id="linearGradient3789">
      <stop
         style="stop-color:#94b3ff;stop-opacity:1;"
         offset="0"
         id="stop3791" />
      <stop
         style="stop-color:#5564e1;stop-opacity:1;"
         offset="1"
         id="stop3793" />
    </linearGradient>
    <radialGradient
       inkscape:collect="always"
       xlink:href="#linearGradient3789"
       id="radialGradient3795"
       cx="35.404408"
       cy="1016.9321"
       fx="35.404408"
       fy="1016.9321"
       r="28.4375"
       gradientTransform="matrix(1,0,0,0.94175877,-0.3455898,59.840592)"
       gradientUnits="userSpaceOnUse" />
    <linearGradient
       inkscape:collect="always"
       xlink:href="#linearGradient3797"
       id="linearGradient3803"
       x1="25.036823"
       y1="1047.0742"
       x2="56.856628"
       y2="992.98041"
       gradientUnits="userSpaceOnUse"
       gradientTransform="translate(-1.8455898,2.64456)" />
    <radialGradient
       inkscape:collect="always"
       xlink:href="#linearGradient3789"
       id="radialGradient3906"
       gradientUnits="userSpaceOnUse"
       gradientTransform="matrix(1,0,0,0.94175877,-0.3455898,-928.52159)"
       cx="35.404408"
       cy="1016.9321"
       fx="35.404408"
       fy="1016.9321"
       r="28.4375" />
    <linearGradient
       inkscape:collect="always"
       xlink:href="#linearGradient3797"
       id="linearGradient3908"
       gradientUnits="userSpaceOnUse"
       gradientTransform="translate(-1.8455898,-985.71762)"
       x1="25.036823"
       y1="1047.0742"
       x2="56.856628"
       y2="992.98041" />
    <linearGradient
       inkscape:collect="always"
       xlink:href="#linearGradient3826"
       id="linearGradient4421"
       x1="13"
       y1="-14.645552"
       x2="7.15625"
       y2="48.85445"
       gradientUnits="userSpaceOnUse" />
    <linearGradient
       inkscape:collect="always"
       xlink:href="#linearGradient3811"
       id="linearGradient4423"
       gradientUnits="userSpaceOnUse"
       gradientTransform="translate(-1.8455898,-985.71762)"
       x1="4.0368233"
       y1="1010.0742"
       x2="50.356628"
       y2="1005.9804" />
  </defs>
  <sodipodi:namedview
     id="base"
     pagecolor="#ffffff"
     bordercolor="#666666"
     borderopacity="1.0"
     inkscape:pageopacity="0.0"
     inkscape:pageshadow="2"
     inkscape:zoom="0.25"
     inkscape:cx="1049.5026"
     inkscape:cy="-417.42504"
     inkscape:document-units="px"
     inkscape:current-layer="layer2"
     showgrid="false"
     inkscape:window-width="1920"
     inkscape:window-height="1033"
     inkscape:window-x="-2"
     inkscape:window-y="-3"
     inkscape:window-maximized="1" />
  <metadata
     id="metadata6">
    <rdf:RDF>
      <cc:Work
         rdf:about="">
        <dc:format>image/svg+xml</dc:format>
        <dc:type
           rdf:resource="http://purl.org/dc/dcmitype/StillImage" />
        <dc:title />
      </cc:Work>
    </rdf:RDF>
  </metadata>
  <g
     inkscape:label="puzzle"
     inkscape:groupmode="layer"
     id="layer1"
     transform="translate(0,-988.36218)"
     style="display:inline">
    <path
       style="color:#000000;fill:url(#radialGradient3795);fill-opacity:1;fill-rule:nonzero;stroke:url(#linearGradient3803);stroke-width:1;stroke-miterlimit:4;stroke-opacity:1;stroke-dasharray:none;marker:none;visibility:visible;display:inline;overflow:visible;enable-background:accumulate"
       d="m 25.84375,994.83089 c -5.010062,0 -9.09375,2.53311 -9.09375,5.65621 0,1.2331 0.673178,2.3836 1.75,3.3126 1.449095,1.0021 2.34375,2.3257 2.34375,3.7813 0,1.2463 -0.652403,2.3773 -1.75,3.3125 l -14.59375,0 0,14.1562 c 1.2611492,-0.2648 2.3893256,-0.8554 3.3125,-1.6875 1.170672,-0.8459 2.633459,-1.375 4.1875,-1.375 3.936045,0 7.125,3.1889 7.125,7.125 0,3.936 -3.188955,7.125 -7.125,7.125 -1.554041,0 -3.016827,-0.4979 -4.1875,-1.3438 -0.9231744,-0.8322 -2.0513508,-1.4227 -3.3125,-1.6875 l 0,14.6563 42.65625,0 0,-14.5625 c 1.096119,0.301 2.085238,0.8536 2.90625,1.5937 1.170672,0.8459 2.633459,1.3438 4.1875,1.3438 3.936045,0 7.125,-3.189 7.125,-7.125 0,-3.9361 -3.188955,-7.125 -7.125,-7.125 -1.554041,0 -3.016828,0.5291 -4.1875,1.375 -0.821012,0.74 -1.810131,1.2927 -2.90625,1.5937 l 0,-14.0624 -14.5625,0 c -1.099589,-0.9357 -1.78125,-2.065 -1.78125,-3.3125 0,-1.4556 0.925793,-2.7792 2.375,-3.7813 1.07671,-0.929 1.71875,-2.0795 1.71875,-3.3126 0,-3.1231 -4.052549,-5.65621 -9.0625,-5.65621 z"
       id="path3782"
       inkscape:connector-curvature="0"
       sodipodi:nodetypes="sscsccccsssccccccsssccccscss" />
  </g>
  <g
     inkscape:groupmode="layer"
     id="layer2"
     inkscape:label="shine"
     style="display:inline">
    <path
       style="display:inline;color:#000000;fill:url(#linearGradient4421);fill-opacity:1;fill-rule:nonzero;stroke:url(#linearGradient4423);stroke-width:1.50000000000000000;stroke-miterlimit:4;stroke-opacity:1;stroke-dasharray:none;marker:none;visibility:visible;overflow:visible;enable-background:accumulate"
       d="M 25.84375 6.46875 C 20.833688 6.46875 16.75 9.0019 16.75 12.125 C 16.75 13.3581 17.423178 14.5085 18.5 15.4375 C 19.949095 16.4396 20.84375 17.76315 20.84375 19.21875 C 20.84375 20.46505 20.191347 21.59605 19.09375 22.53125 L 4.5 22.53125 L 4.5 33.375 C 5.9193827 33.759321 7.332904 34.132892 8.75 34.4375 C 8.7599766 34.439644 8.7712733 34.435359 8.78125 34.4375 C 9.7531819 33.939861 10.84466 33.625 12 33.625 C 13.983877 33.625 15.77088 34.442405 17.0625 35.75 C 26.454059 36.767973 36.174126 36.168055 47.15625 34.25 L 47.15625 22.53125 L 32.59375 22.53125 C 31.494161 21.59555 30.8125 20.46625 30.8125 19.21875 C 30.8125 17.76315 31.738293 16.4396 33.1875 15.4375 C 34.26421 14.5085 34.90625 13.3581 34.90625 12.125 C 34.90625 9.0019 30.853701 6.46875 25.84375 6.46875 z "
       id="path3901" />
  </g>
</svg>
