<?xml version="1.0" encoding="UTF-8" standalone="no"?>
<!-- Created with Inkscape (http://www.inkscape.org/) -->

<svg
   xmlns:dc="http://purl.org/dc/elements/1.1/"
   xmlns:cc="http://creativecommons.org/ns#"
   xmlns:rdf="http://www.w3.org/1999/02/22-rdf-syntax-ns#"
   xmlns:svg="http://www.w3.org/2000/svg"
   xmlns="http://www.w3.org/2000/svg"
   xmlns:xlink="http://www.w3.org/1999/xlink"
   xmlns:sodipodi="http://sodipodi.sourceforge.net/DTD/sodipodi-0.dtd"
   xmlns:inkscape="http://www.inkscape.org/namespaces/inkscape"
   width="64"
   height="64"
   id="svg2"
   inkscape:label="Pozadí"
   version="1.1"
   inkscape:version="0.48.0 r9654"
   sodipodi:docname="settings-64.svg">
  <defs
     id="defs3">
    <linearGradient
       id="linearGradient3954">
      <stop
         style="stop-color:#ffffff;stop-opacity:0;"
         offset="0"
         id="stop3956" />
      <stop
         id="stop3962"
         offset="0.57647818"
         style="stop-color:#ffffff;stop-opacity:1;" />
      <stop
         style="stop-color:#ffffff;stop-opacity:0;"
         offset="1"
         id="stop3958" />
    </linearGradient>
    <linearGradient
       id="linearGradient3946">
      <stop
         style="stop-color:#ffffff;stop-opacity:1;"
         offset="0"
         id="stop3948" />
      <stop
         style="stop-color:#ffffff;stop-opacity:0;"
         offset="1"
         id="stop3950" />
    </linearGradient>
    <linearGradient
       id="linearGradient3923">
      <stop
         style="stop-color:#000000;stop-opacity:1;"
         offset="0"
         id="stop3925" />
      <stop
         id="stop3931"
         offset="0.5"
         style="stop-color:#000000;stop-opacity:0.49803922;" />
      <stop
         style="stop-color:#000000;stop-opacity:0;"
         offset="1"
         id="stop3927" />
    </linearGradient>
    <linearGradient
       id="linearGradient3838">
      <stop
         style="stop-color:#4b4b4b;stop-opacity:1;"
         offset="0"
         id="stop3840" />
      <stop
         style="stop-color:#82899c;stop-opacity:1;"
         offset="1"
         id="stop3842" />
    </linearGradient>
    <linearGradient
       id="linearGradient3828">
      <stop
         style="stop-color:#f0f3fc;stop-opacity:1;"
         offset="0"
         id="stop3830" />
      <stop
         id="stop3836"
         offset="1"
         style="stop-color:#a4a4a4;stop-opacity:1;" />
    </linearGradient>
    <radialGradient
       inkscape:collect="always"
       xlink:href="#linearGradient3828"
       id="radialGradient3834"
       cx="24.224588"
       cy="22.993645"
       fx="24.224588"
       fy="22.993645"
       r="31.003264"
       gradientTransform="matrix(0.8951724,-8.3563585e-8,1.1143769e-7,1.0159555,1.8367834,-0.52392099)"
       gradientUnits="userSpaceOnUse" />
    <linearGradient
       inkscape:collect="always"
       xlink:href="#linearGradient3838"
       id="linearGradient3844"
       x1="11.518705"
       y1="1.5865936"
       x2="15.275234"
       y2="64.336594"
       gradientUnits="userSpaceOnUse" />
    <radialGradient
       inkscape:collect="always"
       xlink:href="#linearGradient3828"
       id="radialGradient3860"
       cx="40.582245"
       cy="43.8955"
       fx="40.582245"
       fy="43.8955"
       r="15.979533"
       gradientTransform="matrix(1.9843446,-0.03250418,0.02212539,1.3507308,-40.479604,-13.983995)"
       gradientUnits="userSpaceOnUse" />
    <radialGradient
       inkscape:collect="always"
       xlink:href="#linearGradient3828"
       id="radialGradient3896"
       gradientUnits="userSpaceOnUse"
       gradientTransform="matrix(1.2058174,0,0,1.4379787,-6.7839241,-10.021822)"
       cx="33.289581"
       cy="25.14748"
       fx="33.289581"
       fy="25.14748"
       r="30.952972" />
    <linearGradient
       inkscape:collect="always"
       xlink:href="#linearGradient3838"
       id="linearGradient3929"
       x1="62.125"
       y1="63.75"
       x2="9.375"
       y2="-0.5"
       gradientUnits="userSpaceOnUse"
       gradientTransform="translate(-0.125,0.125)" />
    <linearGradient
       inkscape:collect="always"
       xlink:href="#linearGradient3954"
       id="linearGradient3967"
       gradientUnits="userSpaceOnUse"
       x1="9.125"
       y1="31.5"
       x2="63.125"
       y2="34"
       gradientTransform="translate(-0.125,0.125)" />
    <linearGradient
       inkscape:collect="always"
       xlink:href="#linearGradient3946"
       id="linearGradient3969"
       gradientUnits="userSpaceOnUse"
       x1="27.625"
       y1="-10.5"
       x2="43.125"
       y2="54.25"
       gradientTransform="translate(-0.125,0.125)" />
  </defs>
  <sodipodi:namedview
     id="base"
     pagecolor="#ffffff"
     bordercolor="#666666"
     borderopacity="1.0"
     inkscape:pageopacity="0.0"
     inkscape:pageshadow="2"
     inkscape:zoom="1"
     inkscape:cx="98.515472"
     inkscape:cy="11.205744"
     inkscape:document-units="px"
     inkscape:current-layer="layer3"
     showgrid="false"
     inkscape:window-width="1366"
     inkscape:window-height="721"
     inkscape:window-x="-2"
     inkscape:window-y="-3"
     inkscape:window-maximized="1" />
  <metadata
     id="metadata6">
    <rdf:RDF>
      <cc:Work
         rdf:about="">
        <dc:format>image/svg+xml</dc:format>
        <dc:type
           rdf:resource="http://purl.org/dc/dcmitype/StillImage" />
        <dc:title></dc:title>
      </cc:Work>
    </rdf:RDF>
  </metadata>
  <g
     inkscape:label="bg"
     inkscape:groupmode="layer"
     id="layer1"
     transform="translate(0,-988.36218)"
     style="display:none">
    <image
       y="461.02469"
       x="-914.89746"
       id="image3062"
       xlink:href="file:///home/mosra/C++/kompas/artwork/sources/wrench-1.jpg"
       height="88.916878"
       width="59.352016"
       transform="matrix(0.46772339,-0.88387489,0.88387489,0.46772339,0,0)" />
  </g>
  <g
     inkscape:groupmode="layer"
     id="layer3"
     inkscape:label="wheel">
    <path
       sodipodi:nodetypes="sccccccccccsccccccccccsccccccccccsccccccccccssssss"
       inkscape:connector-curvature="0"
       id="path3943"
       d="m 31.875,0.875 c -0.450544,0 -0.89785,0.01303 -1.34375,0.03125 C 30.057024,3.9512141 29.738887,7.401297 28.75,9.625 26.955571,9.870757 25.260283,10.360313 23.625,11 21.671303,9.543667 19.688191,6.6508539 17.78125,4.21875 c -1.903261,0.9621999 -3.688749,2.1220065 -5.34375,3.4375 1.408835,2.748401 3.215485,5.741297 3.71875,8.125 -1.278635,1.230157 -2.411862,2.594376 -3.375,4.09375 C 10.34518,19.84628 7.062438,18.689988 4.09375,17.84375 3.1297704,19.714171 2.3237405,21.683593 1.75,23.75 4.5009955,25.143269 7.720743,26.526539 9.53125,28.15625 9.302313,29.449556 9.1875,30.765985 9.1875,32.125 c 0,0.447657 0.00568,0.902499 0.03125,1.34375 C 7.2286929,34.872416 3.8953826,35.846994 1,36.90625 c 0.3260542,2.129471 0.8606441,4.191165 1.59375,6.15625 3.044391,-0.489772 6.4216156,-1.285373 8.84375,-1.03125 0.78183,1.608222 1.751977,3.131597 2.875,4.5 -0.782451,2.304458 -2.90472,5.034904 -4.625,7.59375 1.494677,1.506491 3.131838,2.883881 4.90625,4.0625 2.17543,-2.186288 4.485583,-4.812019 6.59375,-6.03125 1.554921,0.833088 3.192518,1.48268 4.9375,1.9375 0.72299,2.327309 0.637318,5.792559 0.75,8.875 1.629336,0.262235 3.296701,0.40625 5,0.40625 0.450544,0 0.897848,-0.01303 1.34375,-0.03125 C 33.692976,60.298798 34.011114,56.848703 35,54.625 c 1.794428,-0.245757 3.489717,-0.735313 5.125,-1.375 1.953697,1.456333 3.936809,4.349146 5.84375,6.78125 1.903261,-0.9622 3.688749,-2.121994 5.34375,-3.4375 -1.408835,-2.748401 -3.215484,-5.741309 -3.71875,-8.125 1.278635,-1.230169 2.411863,-2.594376 3.375,-4.09375 2.43607,0.02872 5.718812,1.185012 8.6875,2.03125 C 60.620232,44.535818 61.42626,42.566407 62,40.5 59.249005,39.106731 56.029257,37.723461 54.21875,36.09375 54.447686,34.800432 54.5625,33.484016 54.5625,32.125 c 0,-0.447656 -0.0057,-0.9025 -0.03125,-1.34375 1.990057,-1.403666 5.323367,-2.378245 8.21875,-3.4375 -0.326053,-2.129471 -0.860642,-4.191178 -1.59375,-6.15625 -3.044391,0.489772 -6.421616,1.285372 -8.84375,1.03125 -0.781832,-1.608222 -1.751978,-3.131599 -2.875,-4.5 0.78245,-2.30446 2.90472,-5.034916 4.625,-7.59375 C 52.56782,8.618509 50.930664,7.2411185 49.15625,6.0625 46.980821,8.2487872 44.670669,10.874519 42.5625,12.09375 41.007581,11.260662 39.36998,10.611069 37.625,10.15625 36.902011,7.8289422 36.987685,4.3636897 36.875,1.28125 35.245667,1.0190257 33.578299,0.875 31.875,0.875 z m 0,17.90625 c 7.351407,0 13.3125,5.961093 13.3125,13.3125 0,7.351407 -5.961093,13.3125 -13.3125,13.3125 -7.351407,0 -13.3125,-5.961093 -13.3125,-13.3125 0,-7.351407 5.961093,-13.3125 13.3125,-13.3125 z"
       style="color:#000000;fill:url(#radialGradient3896);fill-opacity:1;fill-rule:nonzero;stroke:url(#linearGradient3929);stroke-width:1;stroke-miterlimit:4;stroke-opacity:1;stroke-dasharray:none;marker:none;visibility:visible;display:inline;overflow:visible;enable-background:accumulate" />
  </g>
  <g
     inkscape:groupmode="layer"
     id="layer4"
     inkscape:label="shine"
     style="display:inline">
    <path
       style="color:#000000;fill:url(#linearGradient3969);fill-opacity:1;fill-rule:nonzero;stroke:url(#linearGradient3967);stroke-width:1.5;stroke-miterlimit:4;stroke-opacity:1;stroke-dasharray:none;marker:none;visibility:visible;display:inline;overflow:visible;enable-background:accumulate"
       d="m 31.875,0.875 c -0.450544,0 -0.89785,0.01303 -1.34375,0.03125 C 30.057024,3.9512141 29.738887,7.401297 28.75,9.625 26.955571,9.870757 25.260283,10.360313 23.625,11 21.671303,9.543667 19.688191,6.6508539 17.78125,4.21875 c -1.903261,0.9621999 -3.688749,2.1220065 -5.34375,3.4375 1.408835,2.748401 3.215485,5.741297 3.71875,8.125 -1.278635,1.230157 -2.411862,2.594376 -3.375,4.09375 C 10.34518,19.84628 7.062438,18.689988 4.09375,17.84375 3.1297704,19.714171 2.3237405,21.683593 1.75,23.75 4.5009955,25.143269 7.720743,26.526539 9.53125,28.15625 9.302313,29.449556 9.1875,30.765985 9.1875,32.125 c 0,0.447657 0.00568,0.902499 0.03125,1.34375 -0.9203046,0.649127 -2.1500653,1.202342 -3.46875,1.71875 4.988873,1.034748 9.336003,1.052044 13.3125,0.46875 -0.313889,-1.133332 -0.5,-2.329354 -0.5,-3.5625 0,-7.351407 5.961093,-13.3125 13.3125,-13.3125 5.878289,0 10.861451,3.807764 12.625,9.09375 5.213045,-1.214889 11.018699,-1.704099 18.15625,-0.5 0.0305,-0.01111 0.06334,-0.02013 0.09375,-0.03125 -0.326053,-2.129471 -0.860642,-4.191178 -1.59375,-6.15625 -3.044391,0.489772 -6.421616,1.285372 -8.84375,1.03125 -0.781832,-1.608222 -1.751978,-3.131599 -2.875,-4.5 0.78245,-2.30446 2.90472,-5.034916 4.625,-7.59375 C 52.56782,8.618509 50.930664,7.2411185 49.15625,6.0625 46.980821,8.2487872 44.670669,10.874519 42.5625,12.09375 41.007581,11.260662 39.36998,10.611069 37.625,10.15625 36.902011,7.8289422 36.987685,4.3636897 36.875,1.28125 35.245667,1.0190257 33.578299,0.875 31.875,0.875 z"
       id="path3869"
       inkscape:connector-curvature="0" />
  </g>
  <g
     inkscape:groupmode="layer"
     id="layer2"
     inkscape:label="contour"
     style="display:none">
    <path
       style="fill:url(#radialGradient3834);fill-opacity:1;stroke:url(#linearGradient3844);stroke-width:1;stroke-linecap:butt;stroke-linejoin:miter;stroke-miterlimit:4;stroke-opacity:1;stroke-dasharray:none"
       d="M 12,1.84375 C 8.3706569,1.9478755 5.6937205,3.6215699 5.3125,4.6875 l 6.8125,3.0625 0.5625,3.875 -3.375,2.25 -7,-3.5 C 1.3177484,13.682036 2.7606586,17.767985 8,21.3125 l -1,2 0.0625,1 2.3125,0 c 0,0 -0.6632457,1.862577 0.4375,2.1875 1.100746,0.324923 2.40625,-2.0625 2.40625,-2.0625 0.729394,0.103697 7.575378,0.908389 13.15625,7.0625 9.096202,10.030518 17.544817,19.404538 26.5,28.8125 1.548164,1.62644 5.329162,5.606252 9.25,2.15625 C 65.045838,59.018748 62.011161,55.504836 59.9375,53.625 57.319081,51.251325 42.687104,36.494836 32.875,27.25 28.508819,23.136241 25.091461,19.844469 23.625,11.8125 23.082962,8.8436994 21.374569,3.9220688 15.90625,2.34375 14.53917,1.9491703 13.209781,1.8090415 12,1.84375 z M 57.59375,55.25 c 1.794609,0 3.25,1.546128 3.25,3.4375 0,1.891373 -1.455391,3.40625 -3.25,3.40625 -1.794607,0 -3.25,-1.514877 -3.25,-3.40625 0,-1.891372 1.455393,-3.4375 3.25,-3.4375 z"
       id="path3035"
       inkscape:connector-curvature="0" />
    <path
       style="fill:url(#radialGradient3860);fill-opacity:1;stroke:none"
       d="m 27.769106,24.917185 c 1.035174,1.002832 19.930989,19.314825 27.584747,26.770946 2.09267,2.038632 -0.704553,2.219479 -1.458408,3.093592 -0.753855,0.874113 -1.276019,3.634926 -2.916815,1.944544 -5.651966,-5.822773 -25.089023,-27.453912 -26.037951,-28.538713 -2.326768,-2.659929 1.105712,-4.93926 2.828427,-3.270369 z"
       id="path3826"
       inkscape:connector-curvature="0"
       sodipodi:nodetypes="sszsss" />
  </g>
</svg>
