<?xml version="1.0" encoding="UTF-8" standalone="no"?>
<!-- Created with Inkscape (http://www.inkscape.org/) -->

<svg
   xmlns:dc="http://purl.org/dc/elements/1.1/"
   xmlns:cc="http://creativecommons.org/ns#"
   xmlns:rdf="http://www.w3.org/1999/02/22-rdf-syntax-ns#"
   xmlns:svg="http://www.w3.org/2000/svg"
   xmlns="http://www.w3.org/2000/svg"
   xmlns:xlink="http://www.w3.org/1999/xlink"
   xmlns:sodipodi="http://sodipodi.sourceforge.net/DTD/sodipodi-0.dtd"
   xmlns:inkscape="http://www.inkscape.org/namespaces/inkscape"
   id="svg3054"
   version="1.1"
   inkscape:version="0.48.0 r9654"
   width="512"
   height="512"
   sodipodi:docname="sphere.svg">
  <metadata
     id="metadata3060">
    <rdf:RDF>
      <cc:Work
         rdf:about="">
        <dc:format>image/svg+xml</dc:format>
        <dc:type
           rdf:resource="http://purl.org/dc/dcmitype/StillImage" />
        <dc:title />
      </cc:Work>
    </rdf:RDF>
  </metadata>
  <defs
     id="defs3058">
    <linearGradient
       id="linearGradient3835">
      <stop
         style="stop-color:#ffffff;stop-opacity:1;"
         offset="0"
         id="stop3837" />
      <stop
         id="stop3843"
         offset="0.60816848"
         style="stop-color:#ffffff;stop-opacity:1;" />
      <stop
         style="stop-color:#a3a3a3;stop-opacity:1;"
         offset="1"
         id="stop3839" />
    </linearGradient>
    <radialGradient
       inkscape:collect="always"
       xlink:href="#linearGradient3835"
       id="radialGradient3841"
       cx="196.76289"
       cy="111.74201"
       fx="196.76289"
       fy="111.74201"
       r="149.49538"
       gradientUnits="userSpaceOnUse"
       gradientTransform="matrix(1.27178,0,0,1.2199417,-49.371125,-24.470578)" />
  </defs>
  <sodipodi:namedview
     pagecolor="#ffffff"
     bordercolor="#666666"
     borderopacity="1"
     objecttolerance="10"
     gridtolerance="10"
     guidetolerance="10"
     inkscape:pageopacity="0"
     inkscape:pageshadow="2"
     inkscape:window-width="1920"
     inkscape:window-height="1033"
     id="namedview3056"
     showgrid="false"
     inkscape:zoom="1.1757813"
     inkscape:cx="268.49122"
     inkscape:cy="155.71514"
     inkscape:window-x="-2"
     inkscape:window-y="-3"
     inkscape:window-maximized="1"
     inkscape:current-layer="layer5" />
  <g
     inkscape:groupmode="layer"
     id="layer2"
     inkscape:label="bitmap"
     style="opacity:0.38461543;display:none">
    <image
       sodipodi:absref="/home/mosra/C++/kompas/artwork/sphere/sphere.png"
       xlink:href="sphere.png"
       width="512"
       height="512"
       id="image3062"
       x="0"
       y="0" />
  </g>
  <g
     inkscape:groupmode="layer"
     id="layer3"
     inkscape:label="bitmap-fivesome"
     style="opacity:0.43225806">
    <image
       y="0"
       x="0"
       id="image3231"
       xlink:href="file:///home/mosra/C++/kompas/artwork/sphere/sphere-fivesome.png"
       height="512"
       width="512" />
  </g>
  <g
     inkscape:groupmode="layer"
     id="layer5"
     inkscape:label="vectorize-fivesome">
    <path
       style="opacity:1;fill:none;stroke:#000000;stroke-width:1px;stroke-linecap:butt;stroke-linejoin:miter;stroke-opacity:1"
       d="m 255.36211,355.08306 c -181.60119,-5.66861 -196.140035,-215.95777 0,-233.46178"
       id="path3234"
       inkscape:connector-curvature="0"
       sodipodi:nodetypes="cc" />
    <path
       style="fill:none;stroke:#000000;stroke-width:1px;stroke-linecap:butt;stroke-linejoin:miter;stroke-opacity:1"
       d="m 255.14949,355.08307 c -78.08634,150.93669 -66.14911,-144.56529 0.8505,-233.46179"
       id="path4006"
       inkscape:connector-curvature="0"
       sodipodi:nodetypes="cc" />
    <path
       sodipodi:nodetypes="cc"
       inkscape:connector-curvature="0"
       id="path4008"
       d="m 255.14949,355.08307 c 162.3729,80.07362 186.10695,-153.03786 0.8505,-233.46179"
       style="fill:none;stroke:#000000;stroke-width:1px;stroke-linecap:butt;stroke-linejoin:miter;stroke-opacity:1" />
    <path
       style="fill:none;stroke:#000000;stroke-width:1px;stroke-linecap:butt;stroke-linejoin:miter;stroke-opacity:1"
       d="m 255.14949,355.08307 c 107.51576,-51.75362 165.69499,-258.0744 0.8505,-233.46179"
       id="path4010"
       inkscape:connector-curvature="0"
       sodipodi:nodetypes="cc" />
    <path
       sodipodi:nodetypes="cc"
       inkscape:connector-curvature="0"
       id="path4012"
       d="M 256.42523,354.65781 C 220.04663,291.36794 194.02606,62.155194 255.36211,121.62128"
       style="fill:none;stroke:#000000;stroke-width:1px;stroke-linecap:butt;stroke-linejoin:miter;stroke-opacity:1" />
  </g>
  <g
     inkscape:groupmode="layer"
     id="layer1"
     inkscape:label="vectorize"
     style="display:none">
    <path
       sodipodi:type="arc"
       style="color:#000000;fill:none;stroke:#000000;stroke-width:3.01734114;stroke-opacity:1;marker:none;visibility:visible;display:inline;overflow:visible;enable-background:accumulate"
       id="path3087"
       sodipodi:cx="207.52159"
       sodipodi:cy="127.57475"
       sodipodi:rx="147.98671"
       sodipodi:ry="147.98671"
       d="m 355.5083,127.57475 a 147.98671,147.98671 0 1 1 -295.973418,0 147.98671,147.98671 0 1 1 295.973418,0 z"
       transform="matrix(0.99425287,0,0,0.99425287,49.671062,129.15844)" />
    <path
       transform="matrix(1.6754385,0,0,2.2984863,-166.7872,-134.96007)"
       d="m 301.07641,121.62126 a 48.478405,16.159468 0 1 1 -96.95681,0 48.478405,16.159468 0 1 1 96.95681,0 z"
       sodipodi:ry="16.159468"
       sodipodi:rx="48.478405"
       sodipodi:cy="121.62126"
       sodipodi:cx="252.59801"
       id="path3859"
       style="color:#000000;fill:none;stroke:#000000;stroke-width:0.50958282;stroke-linecap:round;stroke-linejoin:round;stroke-miterlimit:4;stroke-opacity:1;stroke-dasharray:none;marker:none;visibility:visible;display:inline;overflow:visible;enable-background:accumulate"
       sodipodi:type="arc" />
    <path
       transform="matrix(2.7631578,0,0,4.3892702,-441.54293,-328.43321)"
       d="m 301.07641,121.62126 a 48.478405,16.159468 0 1 1 -96.95681,0 48.478405,16.159468 0 1 1 96.95681,0 z"
       sodipodi:ry="16.159468"
       sodipodi:rx="48.478405"
       sodipodi:cy="121.62126"
       sodipodi:cx="252.59801"
       id="path3863"
       style="color:#000000;fill:none;stroke:#000000;stroke-width:0.28714484;stroke-linecap:round;stroke-linejoin:round;stroke-miterlimit:4;stroke-opacity:1;stroke-dasharray:none;marker:none;visibility:visible;display:inline;overflow:visible;enable-background:accumulate"
       sodipodi:type="arc" />
    <path
       sodipodi:type="arc"
       style="color:#000000;fill:none;stroke:#000000;stroke-width:0.25813779;stroke-linecap:round;stroke-linejoin:round;stroke-miterlimit:4;stroke-opacity:1;stroke-dasharray:none;marker:none;visibility:visible;display:inline;overflow:visible;enable-background:accumulate"
       id="path3865"
       sodipodi:cx="252.59801"
       sodipodi:cy="121.62126"
       sodipodi:rx="48.478405"
       sodipodi:ry="16.159468"
       d="m 301.07641,121.62126 a 48.478405,16.159468 0 1 1 -96.95681,0 48.478405,16.159468 0 1 1 96.95681,0 z"
       transform="matrix(2.9561403,0,0,5.076586,-490.28991,-338.03207)" />
    <path
       style="fill:none;stroke:#000000;stroke-width:1px;stroke-linecap:butt;stroke-linejoin:miter;stroke-opacity:1"
       d="M 324.54845,386.00536 C 370.00739,324.72181 326.89826,192.49697 257.701,121.62126"
       id="path4290"
       inkscape:connector-curvature="0"
       sodipodi:nodetypes="cc" />
    <path
       sodipodi:nodetypes="cc"
       inkscape:connector-curvature="0"
       id="path4292"
       d="m 188.02816,386.00536 c -45.45894,-61.28355 -2.34981,-193.50839 66.84745,-264.3841"
       style="fill:none;stroke:#000000;stroke-width:1px;stroke-linecap:butt;stroke-linejoin:miter;stroke-opacity:1" />
  </g>
  <g
     inkscape:groupmode="layer"
     id="layer4"
     inkscape:label="vec2"
     style="display:none">
    <path
       transform="matrix(0.99425287,0,0,0.99425287,49.671062,129.15844)"
       d="m 355.5083,127.57475 a 147.98671,147.98671 0 1 1 -295.973418,0 147.98671,147.98671 0 1 1 295.973418,0 z"
       sodipodi:ry="147.98671"
       sodipodi:rx="147.98671"
       sodipodi:cy="127.57475"
       sodipodi:cx="207.52159"
       id="path3047"
       style="color:#000000;fill:url(#radialGradient3841);fill-opacity:1;stroke:#000000;stroke-width:3.01734114;stroke-opacity:1;marker:none;visibility:visible;display:inline;overflow:visible;enable-background:accumulate"
       sodipodi:type="arc" />
    <path
       sodipodi:type="arc"
       style="color:#000000;fill:none;stroke:#000000;stroke-width:0.51803976;stroke-linecap:round;stroke-linejoin:round;stroke-miterlimit:4;stroke-opacity:1;stroke-dasharray:none;marker:none;visibility:visible;display:inline;overflow:visible;enable-background:accumulate"
       id="path3049"
       sodipodi:cx="252.59801"
       sodipodi:cy="121.62126"
       sodipodi:rx="48.478405"
       sodipodi:ry="16.159468"
       d="m 301.07641,121.62126 a 48.478405,16.159468 0 1 1 -96.95681,0 48.478405,16.159468 0 1 1 96.95681,0 z"
       transform="matrix(1.6754385,0,0,2.224054,-166.7872,-124.70473)" />
    <path
       transform="matrix(2.7631578,0,0,4.3892702,-441.54293,-328.43321)"
       style="color:#000000;fill:none;stroke:#000000;stroke-width:0.28714484;stroke-linecap:round;stroke-linejoin:round;stroke-miterlimit:4;stroke-opacity:1;marker:none;visibility:visible;display:inline;overflow:visible;enable-background:accumulate"
       d="m 297.26674,115.33127 c 2.45314,1.93329 3.80967,4.05884 3.80967,6.28999 0,8.92463 -21.70452,16.15947 -48.4784,16.15947 -26.77389,0 -48.47841,-7.23484 -48.47841,-16.15947 0,-2.23115 1.35653,-4.3567 3.80967,-6.28999"
       id="path3051"
       inkscape:connector-curvature="0"
       sodipodi:nodetypes="csssc" />
    <path
       style="color:#000000;fill:none;stroke:#000000;stroke-width:0.99999994;stroke-linecap:round;stroke-linejoin:round;stroke-miterlimit:4;stroke-opacity:1;marker:none;visibility:visible;display:inline;overflow:visible;enable-background:accumulate"
       d="m 401.11317,273.07409 c 0,48.79412 -64.96937,88.34956 -145.11313,88.34956 -80.1438,0 -145.11317,-39.55544 -145.11317,-88.34956"
       id="path3053"
       inkscape:connector-curvature="0"
       sodipodi:nodetypes="csc" />
    <path
       sodipodi:nodetypes="cssc"
       inkscape:connector-curvature="0"
       id="path3055"
       d="m 324.54845,386.00536 c 22.72947,-30.64178 23.31692,-79.01887 9.57235,-128.59499 -6.87229,-24.78806 -17.32758,-49.87587 -30.38963,-73.1964 -1.63275,-2.91507 -3.30624,-5.80252 -5.01855,-8.65832"
       style="fill:none;stroke:#000000;stroke-width:1px;stroke-linecap:butt;stroke-linejoin:miter;stroke-opacity:1" />
    <path
       style="fill:none;stroke:#000000;stroke-width:1px;stroke-linecap:butt;stroke-linejoin:miter;stroke-opacity:1"
       d="m 188.02816,386.00536 c -22.72947,-30.64178 -23.31692,-79.01887 -9.57235,-128.59499 6.87229,-24.78806 17.32758,-49.87587 30.38963,-73.1964 1.63275,-2.91507 3.30624,-5.80252 5.01855,-8.65832"
       id="path3057"
       inkscape:connector-curvature="0"
       sodipodi:nodetypes="cssc" />
  </g>
</svg>
